<?xml version="1.0" encoding="utf-8"?>
<!-- Generator: Adobe Illustrator 15.1.0, SVG Export Plug-In . SVG Version: 6.00 Build 0)  -->
<!DOCTYPE svg PUBLIC "-//W3C//DTD SVG 1.1 Basic//EN" "http://www.w3.org/Graphics/SVG/1.1/DTD/svg11-basic.dtd">
<svg version="1.1" baseProfile="basic" id="Layer_1"
	 xmlns="http://www.w3.org/2000/svg" xmlns:xlink="http://www.w3.org/1999/xlink" x="0px" y="0px" width="100px" height="100px"
	 viewBox="0 0 100 100" xml:space="preserve">
<g id="atm">
	<path fill="#FFFFFF" d="M77.178,43.249l-4.063-17.11c-0.711-2.985-3.713-4.862-6.692-4.125c-2.617,0.647-3.891,2.474-4.406,3.761
		c-0.612,1.521-3.333,8.4-3.97,9.823c-0.223,0.492-0.694,0.751-0.791,0.795c-0.537,0.24-5.95,2.544-5.95,2.544v0.011
		c-1.067,0.505-1.809,1.581-1.809,2.837c0,1.738,1.411,3.149,3.153,3.149c0.377,0,0.734-0.078,1.069-0.199
		c0.001,0.004,0,0.009,0.001,0.013c0.033-0.015,7.182-3.01,7.182-3.01c0.985-0.463,1.467-1.05,1.954-1.903
		c0.207-0.361,0.832-1.867,1.34-3.103l4.332,18.273c-0.003,10.112-0.006,28.312-0.006,28.312c-0.01,2.816,1.92,5.108,4.737,5.118
		c2.818,0.011,4.857-2.261,4.878-5.081c0,0,0.026-31.846,0.026-33.421C78.161,48.359,77.539,44.627,77.178,43.249z"/>
	<ellipse fill="#FFFFFF" cx="61.463" cy="14.801" rx="6.375" ry="6.367"/>
	<path fill="#FFFFFF" d="M37.045,68.604v7.133c0.916-0.17,1.66-0.594,2.236-1.271c0.572-0.678,0.859-1.473,0.859-2.385
		c0-0.816-0.242-1.521-0.722-2.115C38.935,69.377,38.144,68.924,37.045,68.604z"/>
	<path fill="#FFFFFF" d="M32.672,57.525c-0.428,0.585-0.644,1.23-0.644,1.938c0,0.647,0.197,1.245,0.587,1.8
		c0.391,0.557,0.983,1.005,1.777,1.346v-6.327h-0.001C33.67,56.523,33.096,56.938,32.672,57.525z"/>
	<path fill="#FFFFFF" d="M49.489,49.053l0.006-0.001l-9.876-19.976l-0.003,0.015c-0.725-1.512-2.267-2.558-4.058-2.558h-9.106
		c-2.487,0-4.503,2.014-4.503,4.498v35.005c0,0.007,0.001,0.012,0.001,0.017v22.381h28.048V51.306
		C49.997,50.499,49.811,49.736,49.489,49.053z M42.624,76.999c-1.336,1.511-3.197,2.439-5.575,2.779v3.419h-2.656v-3.328
		c-2.109-0.257-3.825-1.043-5.146-2.359c-1.319-1.317-2.159-3.175-2.525-5.578l4.776-0.513c0.195,0.977,0.561,1.817,1.1,2.525
		c0.536,0.709,1.134,1.221,1.792,1.536v-7.663c-2.393-0.681-4.148-1.717-5.263-3.098c-1.119-1.383-1.677-3.063-1.677-5.038
		c0-1.999,0.631-3.68,1.897-5.042c1.263-1.358,2.944-2.142,5.044-2.351v-1.81h2.656v1.81c1.939,0.232,3.483,0.894,4.633,1.985
		c1.145,1.091,1.876,2.553,2.195,4.381l-4.631,0.604c-0.283-1.437-1.014-2.413-2.197-2.927v7.152c2.93,0.791,4.925,1.819,5.987,3.08
		c1.061,1.263,1.592,2.88,1.592,4.857C44.628,73.629,43.961,75.486,42.624,76.999z"/>
</g>
</svg>
