<?xml version="1.0" encoding="utf-8"?>
<!-- Generator: Adobe Illustrator 15.1.0, SVG Export Plug-In . SVG Version: 6.00 Build 0)  -->
<!DOCTYPE svg PUBLIC "-//W3C//DTD SVG 1.1 Basic//EN" "http://www.w3.org/Graphics/SVG/1.1/DTD/svg11-basic.dtd">
<svg version="1.1" baseProfile="basic" id="Layer_1"
	 xmlns="http://www.w3.org/2000/svg" xmlns:xlink="http://www.w3.org/1999/xlink" x="0px" y="0px" width="100px" height="100px"
	 viewBox="0 0 100 100" xml:space="preserve">
<g id="diners_x5F_club">
	<path fill-rule="evenodd" clip-rule="evenodd" fill="#FFFFFF" d="M93.998,41.341c-0.997-3.72-2.732-7.242-5.086-10.275
		c-2.353-3.033-5.324-5.579-8.424-7.461c-3.101-1.883-6.33-3.105-8.653-3.735c-2.322-0.629-3.704-0.358-5.102-0.358l0,0H33.268l0,0
		c-0.91,0-1.815,0.001-4.14,0.578s-6.064,1.646-9.41,3.476c-3.346,1.831-6.297,4.421-8.64,7.478
		C8.735,34.1,6.999,37.622,6.002,41.341c-0.997,3.72-1.255,7.638-0.753,11.457c0.501,3.819,1.762,7.538,3.687,10.873
		c1.926,3.336,4.517,6.287,7.585,8.573c3.068,2.284,6.614,3.903,9.481,4.908c2.868,1.004,5.059,1.394,7.265,1.394l0,0h33.466l0,0
		c2.204,0,4.396-0.39,7.264-1.394c2.868-1.005,6.413-2.624,9.482-4.908c3.067-2.286,5.658-5.237,7.584-8.573
		c1.926-3.335,3.187-7.054,3.688-10.873C95.253,48.979,94.994,45.062,93.998,41.341L93.998,41.341L93.998,41.341L93.998,41.341z
		 M61.453,56.199c-0.947,3.539-2.598,6.89-4.826,9.797c-2.229,2.907-5.037,5.371-8.209,7.202c-3.173,1.832-6.71,3.031-10.343,3.508
		c-3.632,0.478-7.358,0.231-10.896-0.716c-3.539-0.949-6.889-2.6-9.795-4.828c-2.907-2.229-5.372-5.036-7.203-8.208
		C8.349,59.781,7.15,56.242,6.673,52.61c-0.477-3.632-0.231-7.359,0.717-10.897c0.948-3.539,2.599-6.889,4.827-9.795
		c2.229-2.908,5.036-5.372,8.209-7.203c3.172-1.832,6.71-3.031,10.342-3.508c3.632-0.477,7.358-0.231,10.896,0.717
		c3.539,0.948,6.889,2.599,9.795,4.828c2.908,2.229,5.372,5.036,7.204,8.208c1.832,3.173,3.031,6.711,3.507,10.343
		C62.647,48.935,62.402,52.662,61.453,56.199L61.453,56.199L61.453,56.199L61.453,56.199z"/>
	<path fill-rule="evenodd" clip-rule="evenodd" fill="#FFFFFF" d="M23.408,38.756c-1.247,1.365-2.236,2.964-2.905,4.688
		c-0.668,1.723-1.016,3.572-1.016,5.421s0.347,3.696,1.016,5.422c0.668,1.723,1.658,3.32,2.905,4.687
		c1.246,1.364,2.748,2.496,4.401,3.322l0,0V35.434l0,0C26.156,36.261,24.654,37.392,23.408,38.756L23.408,38.756L23.408,38.756
		L23.408,38.756z"/>
	<path fill-rule="evenodd" clip-rule="evenodd" fill="#FFFFFF" d="M45.496,38.678c-1.268-1.369-2.795-2.498-4.473-3.315l0,0v27.004
		l0,0c1.678-0.817,3.205-1.947,4.473-3.315c1.268-1.368,2.276-2.979,2.958-4.716c0.681-1.739,1.035-3.604,1.035-5.471
		c0-1.867-0.354-3.733-1.035-5.471C47.772,41.657,46.763,40.047,45.496,38.678L45.496,38.678L45.496,38.678L45.496,38.678z"/>
</g>
</svg>
