<?xml version="1.0" encoding="utf-8"?>
<!-- Generator: Adobe Illustrator 15.1.0, SVG Export Plug-In . SVG Version: 6.00 Build 0)  -->
<!DOCTYPE svg PUBLIC "-//W3C//DTD SVG 1.1 Basic//EN" "http://www.w3.org/Graphics/SVG/1.1/DTD/svg11-basic.dtd">
<svg version="1.1" baseProfile="basic" id="Layer_1"
	 xmlns="http://www.w3.org/2000/svg" xmlns:xlink="http://www.w3.org/1999/xlink" x="0px" y="0px" width="100px" height="100px"
	 viewBox="0 0 100 100" xml:space="preserve">
<path id="euro" fill="#FFFFFF" d="M70.573,65.509c-0.992,0.53-2.416,1.044-4.272,1.54c-1.856,0.494-3.842,0.762-5.955,0.797
	c-2.267,0.013-4.397-0.349-6.396-1.078c-1.994-0.73-3.723-1.9-5.181-3.507c-1.346-1.513-2.333-3.611-2.96-6.293h22.52v-6.169H44.553
	c0-0.473,0-0.995,0-1.566c-0.014-1.059,0.016-2.071,0.09-3.033h23.686v-6.168H45.988c0.599-2.438,1.556-4.418,2.872-5.942
	c1.411-1.686,3.054-2.931,4.934-3.737c1.881-0.805,3.886-1.206,6.012-1.2c2,0.029,3.878,0.269,5.631,0.72
	c1.754,0.452,3.227,0.943,4.42,1.473l2.513-10.183c-1.639-0.731-3.612-1.354-5.922-1.865c-2.311-0.51-4.823-0.776-7.537-0.799
	c-4.28,0.022-8.163,0.825-11.649,2.41c-3.485,1.585-6.467,3.831-8.942,6.736c-2.897,3.284-4.916,7.413-6.058,12.387h-5.988v6.168
	h5.023c-0.029,0.979-0.058,1.958-0.087,2.936c0,0.604,0,1.158,0,1.664h-4.936v6.169h5.813c0.849,4.754,2.487,8.64,4.917,11.656
	c2.501,3.216,5.626,5.663,9.376,7.342c3.75,1.68,7.867,2.522,12.354,2.532c2.901-0.033,5.572-0.378,8.005-1.028
	c2.435-0.651,4.43-1.406,5.99-2.265L70.573,65.509z"/>
</svg>
