<?xml version="1.0" encoding="utf-8"?>
<!-- Generator: Adobe Illustrator 15.1.0, SVG Export Plug-In . SVG Version: 6.00 Build 0)  -->
<!DOCTYPE svg PUBLIC "-//W3C//DTD SVG 1.1 Basic//EN" "http://www.w3.org/Graphics/SVG/1.1/DTD/svg11-basic.dtd">
<svg version="1.1" baseProfile="basic" id="Layer_1"
	 xmlns="http://www.w3.org/2000/svg" xmlns:xlink="http://www.w3.org/1999/xlink" x="0px" y="0px" width="100px" height="100px"
	 viewBox="0 0 100 100" xml:space="preserve">
<path fill="#FFFFFF" d="M68.957,49.14c1.509,0,3.017,0,4.525,0c1.461,0,2.986,0.154,3.394,1.896c0.511,2.343-1.463,3.05-3.258,3.05
	c-1.07,0-2.142,0-3.212,0c-0.223,0-1.449,0.074-1.449-0.088C68.957,52.379,68.957,50.759,68.957,49.14L68.957,49.14z M76.242,43.542
	c0.749,3.349-3.445,2.809-5.428,2.809c-0.377,0-0.754,0-1.131,0c-0.739,0-0.727,0.056-0.727-0.75c0-1.268,0-2.535,0-3.803
	c0-0.02,0.984-0.011,1.088-0.011C71.934,41.787,75.703,41.092,76.242,43.542C76.279,43.708,76.242,43.542,76.242,43.542z
	 M87.462,19.875c0.25,0.57,0.038,1.813,0.038,2.472c0,2.188,0,4.377,0,6.566c0,6.323,0,12.646,0,18.968c0,5.334,0,10.668,0,16.002
	c0,0.953,0,1.905,0,2.858c0,2.934-1.429,5.864-3.838,7.574c-3.171,2.353-7.233,1.811-10.948,1.811c-1.508,0-3.017,0-4.524,0
	c-0.754,0-1.509,0-2.263,0c-0.377,0-0.754,0-1.132,0c-0.604,0-0.421-0.248-0.421-0.821c0-5.549,0-11.099,0-16.647
	c0-0.548,0-1.095,0-1.642c0-0.005,1.086-0.003,1.19-0.003c0.754,0,1.509,0,2.263,0c3.017,0,6.032,0,9.049,0
	c1.978,0,4.021,0.132,5.791-0.931c2.626-1.609,2.984-5.335,0.362-7.153c-1.038-0.703-2.281-1.038-3.522-1.125
	c0.126-0.274,1.351-0.432,1.712-0.6c1.004-0.454,1.843-1.244,2.263-2.273c1.101-2.704-0.815-5.058-3.349-5.684
	c-1.542-0.373-3.176-0.26-4.75-0.26c-3.017,0-6.033,0-9.049,0c-0.377,0-0.754,0-1.131,0c-0.502,0-0.829,0.174-0.829-0.397
	c0-2.767,0-5.534,0-8.301c0-2.853,0.631-5.585,2.729-7.65c1.023-1.041,2.32-1.846,3.71-2.294c1.789-0.589,3.664-0.47,5.52-0.47
	c1.508,0,3.017,0,4.524,0C83.059,19.875,85.261,19.875,87.462,19.875L87.462,19.875L87.462,19.875z"/>
<path fill="#FFFFFF" d="M12.694,52.497c-0.375-0.175-0.194-0.916-0.194-1.292c0-1.092,0-2.183,0-3.274c0-3.161,0-6.322,0-9.483
	c0-2.634,0-5.267,0-7.901c0-2.506,0.333-4.908,1.91-6.968c1.813-2.397,4.622-3.681,7.588-3.704c1.505-0.012,3.011,0,4.516,0
	s3.011,0,4.517,0c0.753,0,1.505,0,2.258,0c0.446,0,1.914-0.248,2.258,0c0.298,0.214,0.077,1.976,0.077,2.377c0,2.167,0,4.333,0,6.5
	c0,6.311,0,12.622,0,18.933c0,5.365,0,10.73,0,16.096c0,0.984,0,1.969,0,2.953c0,2.95-1.393,5.665-3.69,7.473
	c-2.063,1.464-4.155,1.92-6.639,1.92c-1.505,0-3.011,0-4.516,0s-3.011,0-4.517,0c-0.753,0-1.505,0-2.258,0
	c-0.364,0-0.77,0.052-1.129,0c-0.148-0.021-0.375,0.099-0.375-0.094c0-0.263,0-0.525,0-0.788c0-6.292,0-12.584,0-18.876
	c2.956,0.784,6.083,1.123,9.136,1.162C26,57.586,32.232,56.995,33.47,51.869c0.271-1.098,0.226-2.228,0.226-3.347
	c0-1.498,0-2.996,0-4.494c0-1.399,0-2.799,0-4.199c0-0.666,0.169-0.843-0.497-0.843c-1.505,0-3.011,0-4.517,0
	c-0.753,0-1.505,0-2.258,0c-0.33,0-0.791-0.157-0.791,0.224c0,1.151,0,2.302,0,3.453c0,2.398,0.054,4.803,0,7.201
	c0,2.561-1.752,4.283-4.177,4.596C18.499,54.813,15.323,53.762,12.694,52.497L12.694,52.497
	C12.629,52.467,12.694,52.497,12.694,52.497z"/>
<path fill="#FFFFFF" d="M38.631,41.363c-0.065,0.054-0.129,0.108-0.194,0.162c0-2.276,0-4.553,0-6.829
	c0-2.481-0.326-5.312,0.285-7.744c0.958-3.768,4.262-6.648,8.129-7.029c1.597-0.18,3.272-0.049,4.878-0.049c1.506,0,3.011,0,4.517,0
	s3.011,0,4.517,0c0.131,0,0.799-0.058,0.799,0.055c0,0.346,0,0.691,0,1.037c0,1.785,0,3.57,0,5.354c0,11.869,0,23.738,0,35.606
	c0,3.796,0.434,7.8-2.244,10.909c-1.722,2.123-4.48,3.29-7.181,3.29c-3.012,0-6.022,0-9.034,0c-1.523,0-3.046,0-4.569,0
	c-0.199,0-0.097-13.16-0.097-14.256c0-2.464,0-4.927,0-7.391c2.722,2.327,6.575,2.914,10.041,3.033
	c3.041,0.104,6.056-0.205,9.033-0.819c0.468-0.097,0.936-0.196,1.399-0.313c0.235-0.059,0.045-3.522,0.045-3.976
	c-2.844,1.415-6.055,2.358-9.258,2.048c-1.457-0.141-2.912-0.638-4.02-1.618c-2.521-2.358-2.67-7.05-0.181-9.5
	c1.698-1.67,4.233-1.985,6.504-1.797c2.447,0.202,4.769,0.962,6.954,2.061c0-1.225,0-2.45,0-3.675c0-0.458-0.492-0.413-0.902-0.502
	c-0.749-0.164-1.502-0.309-2.258-0.436c-1.495-0.251-3.002-0.429-4.518-0.486c-3.024-0.114-6.187,0.014-9.078,0.988
	C40.917,39.92,39.691,40.512,38.631,41.363L38.631,41.363C38.565,41.417,38.631,41.363,38.631,41.363z"/>
</svg>
