<?xml version="1.0" encoding="utf-8"?>
<!-- Generator: Adobe Illustrator 15.1.0, SVG Export Plug-In . SVG Version: 6.00 Build 0)  -->
<!DOCTYPE svg PUBLIC "-//W3C//DTD SVG 1.1 Basic//EN" "http://www.w3.org/Graphics/SVG/1.1/DTD/svg11-basic.dtd">
<svg version="1.1" baseProfile="basic" id="Layer_1"
	 xmlns="http://www.w3.org/2000/svg" xmlns:xlink="http://www.w3.org/1999/xlink" x="0px" y="0px" width="100px" height="100px"
	 viewBox="0 0 100 100" xml:space="preserve">
<path fill-rule="evenodd" clip-rule="evenodd" fill="#FFFFFF" d="M95,49.001C95,63.713,83.074,75.64,68.36,75.64
	c-6.383,0-12.192-2.233-16.779-5.979c3.498-3.379,6.17-7.609,7.604-12.392h-2.214c-1.388,4.252-3.823,8.002-6.991,11.012
	c-3.148-3.002-5.562-6.768-6.945-11H40.82c1.428,4.755,4.053,8.991,7.526,12.361C43.77,73.348,37.989,75.64,31.64,75.64
	C16.928,75.64,5,63.713,5,49.001C5,34.288,16.928,22.36,31.64,22.36c6.349,0,12.129,2.291,16.707,5.999
	c-3.473,3.367-6.098,7.604-7.526,12.36h2.214c1.383-4.233,3.797-7.999,6.945-11.001c3.168,3.01,5.604,6.761,6.991,11.013
	l2.214-0.001c-1.434-4.781-4.105-9.012-7.604-12.39c4.587-3.746,10.396-5.98,16.779-5.98C83.074,22.36,95,34.288,95,49.001
	L95,49.001z M75.423,55.241h2.708l0.833-4.515c0.796-2.947,2.045-2.774,2.705-2.774l0.729-2.568c-1.353,0-2.15,0.486-2.567,0.972
	l-0.244-0.972h-2.324L75.423,55.241L75.423,55.241z M39.778,42.879l-1.855,9.346c-0.516,2.682,1.512,3.059,2.13,3.059
	c0.619,0,1.409-0.104,1.993-0.481l0.172-1.992c-1.547,0.24-1.616-0.445-1.478-1.204l0.756-3.985h1.374l0.481-2.13h-1.442l0.55-2.611
	H39.778L39.778,42.879z M51.392,50.853c0.311-1.582,1.031-5.5-3.676-5.5c-4.33,0-4.879,4.296-4.983,4.914
	c-0.103,0.618-0.172,4.983,4.467,4.983c1.135,0.033,2.784-0.104,3.438-0.448l0.412-2.027c-0.412,0.103-1.958,0.241-3.025,0.241
	c-1.064,0-2.782,0.069-2.474-2.163H51.392L51.392,50.853z M37.235,47.69l0.618-1.994c-1.271-0.48-2.268-0.378-2.646-0.378
	c-0.379,0-3.596-0.039-4.089,2.336c-0.378,1.821,0.289,2.576,0.927,2.853c1.032,0.447,1.615,0.859,2.165,1.134
	c0.68,0.34,0.556,1.479-0.343,1.479c-0.414,0-2.2,0.206-3.541-0.242l-0.377,2.029c1.237,0.344,2.232,0.344,3.162,0.344
	c0.652,0,3.847,0.171,4.294-2.785c0.218-1.441-0.413-2.095-0.928-2.404c-0.515-0.345-1.374-0.824-1.924-1.065
	s-0.962-1.169,0.034-1.443C35.208,47.483,36.479,47.483,37.235,47.69L37.235,47.69z M19.847,55.25l2.233-11.892h-4.397l-3.266,7.217
	l-0.516-7.217H9.607L7.305,55.25h2.68l1.649-8.593l0.721,8.593h2.543l3.746-8.385l-1.581,8.385H19.847L19.847,55.25z M22.802,45.663
	l-0.412,2.129c0.653-0.068,2.405-0.343,3.333-0.309c0.929,0.034,1.959-0.103,1.649,1.374c-0.688,0.068-5.499-0.688-6.253,3.437
	c-0.31,2.027,1.442,3.059,2.817,2.989c1.374-0.07,1.751-0.239,2.234-0.583l0.343,0.55h2.508l1.066-5.361
	c0.275-1.34,0.721-4.57-3.781-4.57C25.483,45.353,24.556,45.318,22.802,45.663L22.802,45.663z M66.236,46.108l1.753-1.753
	c-0.687-0.756-1.477-1.498-3.678-1.581c-1.855-0.068-5.033,1.286-6.047,4.983c-1.374,5.017,1.649,7.492,4.433,7.492
	c1.478,0,2.37-0.206,3.265-0.62l-0.79-2.405c-2.748,0.928-4.707-0.48-4.262-3.333c0.378-2.41,2.371-3.264,3.265-3.264
	C65.067,45.628,65.55,45.696,66.236,46.108L66.236,46.108z M89.089,46.521c-0.516-0.377-0.825-1.168-2.097-1.168
	c-1.478,0-3.78-0.275-5.086,4.191c-0.871,2.986,0.895,5.706,2.818,5.706c0.894-0.037,1.787-0.414,2.336-0.791l0.344,0.791h2.887
	l2.337-12.508h-2.82L89.089,46.521L89.089,46.521z M68.161,45.663l-0.413,2.129c0.654-0.068,2.406-0.343,3.334-0.309
	s1.959-0.103,1.648,1.374c-0.687,0.068-5.498-0.688-6.253,3.437c-0.31,2.027,1.443,3.059,2.817,2.989
	c1.375-0.07,1.753-0.239,2.234-0.583l0.344,0.55h2.508l1.065-5.361c0.275-1.34,0.721-4.57-3.78-4.57
	C70.842,45.353,69.914,45.318,68.161,45.663L68.161,45.663z M45.723,49.063h3.333c0.172-0.962-0.137-1.786-1.202-1.786
	C46.788,47.277,46.032,47.826,45.723,49.063L45.723,49.063z M26.926,50.853c-0.447-0.07-1.443-0.346-2.303,0.238
	c-0.859,0.584-1.099,1.615-0.206,1.959c0.86,0.331,2.129-0.238,2.303-1.133L26.926,50.853L26.926,50.853z M88.126,50.542
	c0.274-0.894,0.125-2.009-0.171-2.404c-0.825-1.101-2.721-0.231-3.3,1.923c-0.378,1.408,0.447,2.474,1.375,2.474
	C87.026,52.534,87.644,51.744,88.126,50.542L88.126,50.542z M72.286,50.853c-0.447-0.07-1.444-0.346-2.306,0.238
	c-0.857,0.584-1.097,1.615-0.204,1.959c0.86,0.331,2.129-0.238,2.302-1.133L72.286,50.853L72.286,50.853z M51.469,55.25h2.682
	l0.824-4.468c0.789-2.921,2.063-2.715,2.714-2.715l0.688-2.577c-1.339,0-2.13,0.48-2.542,0.962l-0.242-0.962H53.29L51.469,55.25
	L51.469,55.25z"/>
</svg>
