<?xml version="1.0" encoding="utf-8"?>
<!-- Generator: Adobe Illustrator 15.1.0, SVG Export Plug-In . SVG Version: 6.00 Build 0)  -->
<!DOCTYPE svg PUBLIC "-//W3C//DTD SVG 1.1 Basic//EN" "http://www.w3.org/Graphics/SVG/1.1/DTD/svg11-basic.dtd">
<svg version="1.1" baseProfile="basic" id="Layer_1"
	 xmlns="http://www.w3.org/2000/svg" xmlns:xlink="http://www.w3.org/1999/xlink" x="0px" y="0px" width="100px" height="100px"
	 viewBox="0 0 100 100" xml:space="preserve">
<path fill="#FFFFFF" d="M81.813,39.965h-6.18c-0.638-1.587-1.433-3.102-2.382-4.525V17.455l-11.733,8.137
	c-3.968-1.815-8.452-2.86-13.217-2.86c-14.058,0-25.78,8.92-28.464,20.769c-2.801,0.087-5.048,2.36-5.048,5.17
	c0,2.81,2.247,5.085,5.048,5.173c1.227,5.409,4.357,10.19,8.717,13.811l-1.602,11.402h12.411l0.168-5.655
	c2.764,0.782,5.711,1.21,8.768,1.21c3.057,0,6.002-0.427,8.77-1.21l0.166,5.655h12.411L68.05,67.654
	c3.38-2.808,6-6.314,7.583-10.277h6.18c1.638,0,2.978-1.335,2.978-2.964V42.928C84.792,41.296,83.451,39.965,81.813,39.965z
	 M59.209,33.295c-0.44,1.207-1.583,1.956-2.8,1.956c-0.335,0-0.681-0.061-1.013-0.181c-4.49-1.618-9.699-1.618-14.186,0
	c-1.547,0.562-3.257-0.235-3.817-1.775c-0.562-1.539,0.236-3.24,1.783-3.798c5.794-2.095,12.458-2.095,18.251,0
	C58.975,30.056,59.771,31.757,59.209,33.295z"/>
</svg>
