<?xml version="1.0" encoding="utf-8"?>
<!-- Generator: Adobe Illustrator 15.1.0, SVG Export Plug-In . SVG Version: 6.00 Build 0)  -->
<!DOCTYPE svg PUBLIC "-//W3C//DTD SVG 1.1 Basic//EN" "http://www.w3.org/Graphics/SVG/1.1/DTD/svg11-basic.dtd">
<svg version="1.1" baseProfile="basic" id="Layer_1"
	 xmlns="http://www.w3.org/2000/svg" xmlns:xlink="http://www.w3.org/1999/xlink" x="0px" y="0px" width="100px" height="100px"
	 viewBox="0 0 100 100" xml:space="preserve">
<path id="pound" fill="#FFFFFF" d="M70.031,78.5V67.684H46.229v-0.189c2.185-2.074,3.682-4.34,4.493-6.796
	c0.638-2.215,0.914-4.479,0.823-6.791H62.84v-8.994H49.809c-0.576-2.243-0.88-4.534-0.91-6.869c-0.051-2.354,0.553-4.377,1.811-6.07
	c1.257-1.692,3.478-2.579,6.661-2.658c3.354,0.046,5.936,0.604,7.742,1.671l2.185-10.343c-1.012-0.559-2.426-1.05-4.235-1.475
	c-1.811-0.423-3.95-0.647-6.42-0.67c-6.198,0.07-11.123,1.785-14.774,5.144c-3.653,3.359-5.521,7.943-5.606,13.75
	c0.015,2.647,0.253,5.153,0.717,7.521H29.97v8.993h8.928c0.152,1.227,0.212,2.502,0.183,3.826c-0.12,3.297-1.202,6.154-3.245,8.57
	c-2.044,2.417-4.333,4.128-6.866,5.13V78.5H70.031L70.031,78.5z"/>
</svg>
