<?xml version="1.0" encoding="utf-8"?>
<!-- Generator: Adobe Illustrator 22.0.1, SVG Export Plug-In . SVG Version: 6.00 Build 0)  -->
<svg version="1.1" baseProfile="basic" id="Layer_1"
	 xmlns="http://www.w3.org/2000/svg" xmlns:xlink="http://www.w3.org/1999/xlink" x="0px" y="0px" width="100px" height="100px"
	 viewBox="0 0 100 100" xml:space="preserve">
<path fill="#FFFFFF" d="M72.5,18.5H46.4h-19v6.9V28h19c4.8,0,8,1.7,9.9,4H27.5v6.9H58c-0.1,0.7-0.4,1.5-0.7,2.2
	c-1.5,3.1-5.1,5.6-10.8,5.6H37v9.4V56h0.1l15.2,22.5h11.6L48.5,56c8.8-0.6,14.6-5.2,17.3-10.9c0.9-2,1.5-4.1,1.7-6.2h5.1V32h-5.8
	c-0.3-0.8-0.6-1.6-0.9-2.4c-0.7-1.5-1.6-2.9-2.7-4.1h9.4L72.5,18.5L72.5,18.5z"/>
</svg>
