<?xml version="1.0" encoding="utf-8"?>
<!-- Generator: Adobe Illustrator 15.1.0, SVG Export Plug-In . SVG Version: 6.00 Build 0)  -->
<!DOCTYPE svg PUBLIC "-//W3C//DTD SVG 1.1//EN" "http://www.w3.org/Graphics/SVG/1.1/DTD/svg11.dtd">
<svg version="1.1" id="Layer_1" xmlns="http://www.w3.org/2000/svg" xmlns:xlink="http://www.w3.org/1999/xlink" x="0px" y="0px"
	 width="100px" height="100px" viewBox="0 0 100 100" enable-background="new 0 0 100 100" xml:space="preserve">
<g id="android">
	<path fill="#FFFFFF" d="M21.321,36.333c-2.727-0.001-4.936,2.213-4.936,4.937l0.003,20.677c0,2.734,2.214,4.938,4.938,4.94
		c2.729-0.002,4.939-2.209,4.937-4.94v-20.68C26.263,38.545,24.049,36.331,21.321,36.333"/>
	<path fill="#FFFFFF" d="M61.14,17.767l3.446-6.293c0.183-0.33,0.063-0.75-0.27-0.932c-0.337-0.182-0.753-0.058-0.931,0.273
		l-3.482,6.356c-2.928-1.299-6.207-2.032-9.673-2.027c-3.459-0.003-6.733,0.725-9.652,2.021l-3.485-6.342
		c-0.179-0.335-0.6-0.457-0.928-0.273c-0.335,0.179-0.457,0.599-0.272,0.928l3.449,6.288c-6.774,3.495-11.352,10.147-11.349,17.784
		l44.477-0.004C72.472,27.907,67.903,21.268,61.14,17.767 M40.115,27.491c-1.024-0.002-1.859-0.835-1.859-1.863
		c0-1.024,0.834-1.867,1.86-1.867c1.031-0.001,1.866,0.843,1.867,1.867C41.984,26.655,41.147,27.491,40.115,27.491 M60.364,27.487
		c-1.026,0.001-1.865-0.831-1.863-1.864c0-1.022,0.835-1.866,1.866-1.868c1.023,0.002,1.86,0.846,1.86,1.869
		C62.228,26.654,61.394,27.487,60.364,27.487"/>
	<path fill="#FFFFFF" d="M28.185,69.307c-0.002,2.917,2.353,5.271,5.267,5.271h3.587l0.005,10.941c0,2.723,2.212,4.938,4.933,4.938
		c2.728,0,4.938-2.217,4.936-4.944V74.575h6.667v10.939c0.001,2.725,2.218,4.941,4.938,4.936c2.729,0.002,4.939-2.215,4.939-4.939
		l-0.003-10.938l3.601-0.001c2.906,0.001,5.269-2.359,5.269-5.271l-0.007-32.044l-44.14,0.008L28.185,69.307z"/>
	<path fill="#FFFFFF" d="M79.16,36.327c-2.726-0.002-4.936,2.212-4.936,4.938l0.003,20.677c0.002,2.73,2.21,4.938,4.939,4.936
		c2.726,0,4.933-2.207,4.936-4.938l-0.007-20.676C84.096,38.538,81.888,36.326,79.16,36.327"/>
</g>
</svg>
