<?xml version="1.0" encoding="utf-8"?>
<!-- Generator: Adobe Illustrator 15.1.0, SVG Export Plug-In . SVG Version: 6.00 Build 0)  -->
<!DOCTYPE svg PUBLIC "-//W3C//DTD SVG 1.1 Basic//EN" "http://www.w3.org/Graphics/SVG/1.1/DTD/svg11-basic.dtd">
<svg version="1.1" baseProfile="basic" id="Layer_1"
	 xmlns="http://www.w3.org/2000/svg" xmlns:xlink="http://www.w3.org/1999/xlink" x="0px" y="0px" width="100px" height="100px"
	 viewBox="0 0 100 100" xml:space="preserve">
<path fill="#FFFFFF" d="M81.429,26.767H17.566c-3.063,0-5.568,2.502-5.566,5.575v37.124c-0.002,3.075,2.5,5.574,5.566,5.574h63.862
	c3.07,0,5.568-2.499,5.568-5.574L87,32.342C86.997,29.268,84.499,26.767,81.429,26.767z M15.378,32.341
	c-0.001-1.216,0.984-2.198,2.188-2.198h63.862c1.209,0,2.196,0.982,2.192,2.198v6.244H15.378V32.341z M81.429,71.666H17.566
	c-1.202,0-2.188-0.985-2.188-2.202V50.903h3.894c0.271-0.648,0.595-1.223,0.95-1.641c2.269-2.679,9.635-3.238,15.42-3.238
	c0.407,0,0.674,0.002,0.768,0.004c0.093-0.002,0.363-0.004,0.77-0.004c5.781,0,13.151,0.56,15.418,3.238
	c0.355,0.417,0.678,0.993,0.947,1.641h30.077l0.004,18.563C83.621,70.681,82.641,71.666,81.429,71.666z"/>
<path fill="#FFFFFF" d="M27.089,57.008c0.601-0.321,0.875-0.884,1.063-1.484c0.001-0.007,0.005-0.014,0.007-0.02l-7.864,0.002
	c0.001,0.006,0.004,0.013,0.005,0.018c0.071,0.329,0.191,0.622,0.365,0.868c0.194,0.274,0.454,0.49,0.803,0.615l5.55,0.002
	L27.089,57.008L27.089,57.008z"/>
<path fill="#FFFFFF" d="M44.668,55.527c0.184,0.598,0.46,1.16,1.06,1.48h0.071h5.551c0.348-0.123,0.607-0.339,0.802-0.614
	c0.174-0.246,0.294-0.54,0.364-0.866c0.002-0.009,0.005-0.014,0.007-0.021l-7.86-0.002C44.664,55.512,44.667,55.519,44.668,55.527z"
	/>
<path fill="#FFFFFF" d="M44.417,58.213l-0.499-1.229l-0.951-1.088l-1.27-1.45v-1.649c0.911,0.137,1.68,0.315,2.027,0.551
	c0.155,0.105,0.268,0.254,0.366,0.421c0.145,0.246,0.246,0.545,0.335,0.869c0.002,0.007,0.004,0.015,0.006,0.021h8.174
	c0-0.007-0.001-0.017-0.001-0.021c0-0.282-0.027-0.574-0.065-0.867c-0.145-1.07-0.52-2.151-0.923-2.868
	c-0.114-0.204-0.23-0.387-0.343-0.521c-0.119-0.139-0.267-0.269-0.428-0.394c-0.025-0.02-0.051-0.04-0.077-0.059
	c-0.162-0.119-0.345-0.23-0.544-0.336c-0.034-0.018-0.067-0.035-0.102-0.052c-0.21-0.108-0.435-0.209-0.679-0.304
	c-0.006-0.002-0.017-0.006-0.023-0.009c-0.251-0.097-0.517-0.187-0.795-0.271c-0.021-0.007-0.042-0.014-0.064-0.02
	c-0.279-0.084-0.573-0.16-0.874-0.232c-0.034-0.008-0.066-0.016-0.1-0.023c-0.308-0.072-0.626-0.139-0.951-0.201
	c-0.007,0-0.015-0.002-0.023-0.004c-0.68-0.126-1.389-0.232-2.104-0.318c-0.018-0.001-0.035-0.004-0.052-0.005
	c-2.914-0.348-5.907-0.395-7.278-0.395c-0.486,0-0.77,0.005-0.77,0.005s-0.281-0.005-0.768-0.005c-0.685,0-1.777,0.011-3.063,0.066
	c-0.005,0-0.01,0-0.015,0.001c-0.315,0.014-0.642,0.03-0.977,0.049c-0.014,0-0.027,0.001-0.041,0.002
	c-0.661,0.038-1.354,0.089-2.057,0.155c-0.028,0.003-0.056,0.005-0.085,0.007c-0.334,0.032-0.669,0.068-1.003,0.108
	c-0.044,0.005-0.089,0.01-0.134,0.016c-0.337,0.041-0.672,0.085-1.004,0.135c-0.016,0.001-0.032,0.005-0.047,0.006
	c-0.322,0.049-0.642,0.104-0.953,0.161c-0.036,0.006-0.071,0.012-0.105,0.019c-0.307,0.058-0.608,0.122-0.899,0.189
	c-0.051,0.012-0.101,0.023-0.151,0.036c-0.289,0.069-0.57,0.142-0.837,0.222c-0.036,0.011-0.068,0.021-0.102,0.032
	c-0.261,0.079-0.51,0.164-0.746,0.254c-0.019,0.007-0.04,0.014-0.059,0.021c-0.237,0.093-0.455,0.192-0.662,0.297
	c-0.039,0.02-0.078,0.04-0.115,0.059c-0.197,0.105-0.376,0.215-0.537,0.333c-0.028,0.021-0.053,0.042-0.08,0.063
	c-0.162,0.125-0.309,0.253-0.427,0.392c-0.113,0.133-0.229,0.317-0.342,0.519c-0.404,0.715-0.778,1.796-0.922,2.868
	c-0.04,0.293-0.067,0.585-0.066,0.867c0,0.005-0.001,0.013-0.001,0.017h8.172c0.002-0.006,0.003-0.012,0.005-0.017
	c0.088-0.325,0.19-0.621,0.335-0.87c0.098-0.167,0.211-0.314,0.367-0.42c0.35-0.234,1.114-0.412,2.027-0.554v1.653l-1.268,1.448
	l-0.951,1.088l-0.499,1.23l-2.736,6.74l-0.001,1.619l0.001,0.949c0,0.51,0.413,0.924,0.923,0.927h9.817l9.821-0.003
	c0.509,0,0.926-0.414,0.923-0.924l0.003-0.951l-0.003-1.616L44.417,58.213z M36.409,54.212l-3.515-0.002l-0.723-1.551
	c2.023-0.218,4.237-0.276,4.237-0.276s2.212,0.059,4.236,0.279l-0.719,1.548L36.409,54.212z M36.409,64.871
	c-2.395-0.002-4.339-1.944-4.339-4.338c0-2.398,1.944-4.339,4.339-4.337c0.136,0,0.265,0.026,0.398,0.04
	c0.16,0.015,0.323,0.016,0.478,0.048c0.03,0.006,0.056,0.02,0.085,0.026c1.933,0.438,3.377,2.158,3.377,4.223
	C40.747,62.927,38.806,64.871,36.409,64.871z"/>
<path fill="#FFFFFF" d="M22.05,49.929c0.161-0.117,0.341-0.228,0.537-0.333C22.392,49.701,22.211,49.812,22.05,49.929z"/>
<path fill="#FFFFFF" d="M21.544,50.384c0.118-0.139,0.265-0.268,0.426-0.393C21.809,50.116,21.661,50.245,21.544,50.384z"/>
<path fill="#FFFFFF" d="M50.846,49.988c0.161,0.125,0.308,0.254,0.428,0.394C51.155,50.243,51.008,50.113,50.846,49.988z"/>
<path fill="#FFFFFF" d="M48.625,48.958c0.278,0.084,0.545,0.174,0.795,0.271C49.17,49.131,48.904,49.042,48.625,48.958z"/>
<path fill="#FFFFFF" d="M49.446,49.236c0.244,0.095,0.466,0.197,0.679,0.304C49.913,49.433,49.69,49.332,49.446,49.236z"/>
<path fill="#FFFFFF" d="M47.688,48.705c0.302,0.073,0.595,0.149,0.874,0.233C48.283,48.854,47.989,48.777,47.688,48.705z"/>
<path fill="#FFFFFF" d="M46.636,48.481c0.326,0.061,0.643,0.128,0.951,0.2C47.279,48.609,46.961,48.542,46.636,48.481z"/>
<path fill="#FFFFFF" d="M44.456,48.154c-3.951-0.472-8.047-0.39-8.047-0.39s0.283-0.004,0.77-0.004
	C38.549,47.759,41.542,47.804,44.456,48.154z"/>
<path fill="#FFFFFF" d="M44.508,48.159c0.716,0.087,1.425,0.191,2.105,0.318C45.933,48.351,45.224,48.246,44.508,48.159z"/>
<path fill="#FFFFFF" d="M50.225,49.593c0.199,0.105,0.381,0.218,0.544,0.336C50.605,49.811,50.424,49.698,50.225,49.593z"/>
<path fill="#FFFFFF" d="M36.409,47.764c0,0-1.634-0.032-3.83,0.062c1.284-0.055,2.376-0.066,3.062-0.066
	C36.128,47.759,36.409,47.764,36.409,47.764z"/>
<path fill="#FFFFFF" d="M27.263,48.3c0.332-0.05,0.667-0.094,1.004-0.135C27.931,48.206,27.595,48.25,27.263,48.3z"/>
<path fill="#FFFFFF" d="M25.259,48.676c0.292-0.068,0.592-0.131,0.9-0.189C25.851,48.544,25.552,48.608,25.259,48.676z"/>
<path fill="#FFFFFF" d="M31.586,47.875c0.335-0.019,0.662-0.036,0.978-0.049C32.249,47.839,31.923,47.855,31.586,47.875z"/>
<path fill="#FFFFFF" d="M24.27,48.933c0.268-0.08,0.549-0.153,0.838-0.222C24.82,48.78,24.538,48.854,24.27,48.933z"/>
<path fill="#FFFFFF" d="M23.423,49.219c0.235-0.09,0.485-0.175,0.746-0.254C23.909,49.045,23.659,49.129,23.423,49.219z"/>
<path fill="#FFFFFF" d="M26.263,48.467c0.312-0.057,0.629-0.111,0.953-0.161C26.894,48.356,26.575,48.409,26.263,48.467z"/>
<path fill="#FFFFFF" d="M28.401,48.149c0.334-0.04,0.669-0.076,1.002-0.108C29.071,48.072,28.736,48.108,28.401,48.149z"/>
<path fill="#FFFFFF" d="M29.49,48.033c0.702-0.066,1.395-0.118,2.057-0.155C30.885,47.915,30.192,47.967,29.49,48.033z"/>
<path fill="#FFFFFF" d="M22.703,49.537c0.207-0.105,0.425-0.204,0.663-0.297C23.127,49.334,22.91,49.433,22.703,49.537z"/>
</svg>
