<?xml version="1.0" encoding="utf-8"?>
<!-- Generator: Adobe Illustrator 15.1.0, SVG Export Plug-In . SVG Version: 6.00 Build 0)  -->
<!DOCTYPE svg PUBLIC "-//W3C//DTD SVG 1.1 Basic//EN" "http://www.w3.org/Graphics/SVG/1.1/DTD/svg11-basic.dtd">
<svg version="1.1" baseProfile="basic" id="Layer_1"
	 xmlns="http://www.w3.org/2000/svg" xmlns:xlink="http://www.w3.org/1999/xlink" x="0px" y="0px" width="100px" height="100px"
	 viewBox="0 0 100 100" xml:space="preserve">
<path fill="#FFFFFF" d="M88.064,41.613L88.064,41.613c-0.803-8.083-7.621-14.4-15.919-14.4c-3.086,0-5.956,0.889-8.399,2.4H35.743
	c-2.443-1.512-5.313-2.4-8.398-2.4c-8.297,0-15.116,6.317-15.919,14.4l-0.001,0c-0.279,3.341-1.679,26.154-1.679,26.402
	c0,3.533,2.865,6.398,6.399,6.398c14.702,0,20.755-12.549,22.934-19.198h21.334c2.178,6.649,8.232,19.198,22.933,19.198
	c3.536,0,6.4-2.865,6.4-6.398C89.745,67.767,88.345,44.954,88.064,41.613z M27.345,52.813c-5.303,0-9.6-4.299-9.6-9.601
	c0-5.301,4.297-9.6,9.6-9.6c5.304,0,9.601,4.299,9.601,9.6C36.945,48.515,32.648,52.813,27.345,52.813z M72.146,52.813
	c-5.305,0-9.602-4.299-9.602-9.601c0-5.301,4.297-9.6,9.602-9.6c5.303,0,9.6,4.299,9.6,9.6
	C81.745,48.515,77.448,52.813,72.146,52.813z"/>
<polygon fill="#FFFFFF" points="34.545,40.813 29.745,40.813 29.745,36.014 24.944,36.014 24.944,40.813 20.146,40.813 
	20.146,45.613 24.944,45.613 24.944,50.413 29.745,50.413 29.745,45.613 34.545,45.613 "/>
<path fill="#FFFFFF" d="M72.146,40.014c0,1.768-1.433,3.199-3.2,3.199c-1.765,0-3.2-1.431-3.2-3.199s1.436-3.2,3.2-3.2
	C70.713,36.813,72.146,38.246,72.146,40.014z"/>
<path fill="#FFFFFF" d="M78.544,46.414c0,1.767-1.43,3.199-3.2,3.199c-1.762,0-3.198-1.432-3.198-3.199
	c0-1.768,1.437-3.201,3.198-3.201C77.114,43.213,78.544,44.646,78.544,46.414z"/>
</svg>
