<?xml version="1.0" encoding="utf-8"?>
<!-- Generator: Adobe Illustrator 15.1.0, SVG Export Plug-In . SVG Version: 6.00 Build 0)  -->
<!DOCTYPE svg PUBLIC "-//W3C//DTD SVG 1.1 Basic//EN" "http://www.w3.org/Graphics/SVG/1.1/DTD/svg11-basic.dtd">
<svg version="1.1" baseProfile="basic" id="Layer_1"
	 xmlns="http://www.w3.org/2000/svg" xmlns:xlink="http://www.w3.org/1999/xlink" x="0px" y="0px" width="100px" height="100px"
	 viewBox="0 0 100 100" xml:space="preserve">
<path fill="#FFFFFF" d="M50.001,50.271c-1.569,0-2.845,1.276-2.845,2.845s1.276,2.845,2.845,2.845c1.566,0,2.844-1.276,2.844-2.845
	S51.567,50.271,50.001,50.271z"/>
<path fill="#FFFFFF" d="M55.173,46.943l8.823-10.532c-0.733-0.616-1.512-1.183-2.323-1.701l-7.361,11.609
	C54.611,46.508,54.9,46.714,55.173,46.943z"/>
<path fill="#FFFFFF" d="M53.956,48.396c-0.208-0.173-0.43-0.332-0.66-0.478c-0.237-0.153-0.488-0.289-0.747-0.408
	c-0.778-0.355-1.639-0.558-2.548-0.558c-3.398,0-6.164,2.765-6.164,6.164c0,0.807,0.161,1.577,0.444,2.287
	c0.383,0.949,0.992,1.784,1.765,2.433c0.206,0.174,0.429,0.332,0.659,0.477c0.239,0.154,0.489,0.29,0.749,0.408
	c0.778,0.356,1.638,0.558,2.548,0.558c3.397,0,6.163-2.764,6.163-6.162c0-0.807-0.161-1.579-0.445-2.287
	C55.336,49.878,54.728,49.044,53.956,48.396z M50.001,57.856c-2.614,0-4.741-2.128-4.741-4.74c0-2.614,2.127-4.742,4.741-4.742
	c2.612,0,4.739,2.128,4.739,4.742C54.74,55.729,52.616,57.856,50.001,57.856z"/>
<path fill="#FFFFFF" d="M44.83,59.288L36.005,69.82c0.734,0.617,1.512,1.184,2.324,1.701l7.36-11.608
	C45.391,59.724,45.102,59.518,44.83,59.288z"/>
<path fill="#FFFFFF" d="M77.264,12.5H22.736c-1.2,0-2.174,0.974-2.174,2.174v70.652c0,1.201,0.974,2.174,2.174,2.174h54.528
	c1.201,0,2.175-0.973,2.175-2.174V14.674C79.438,13.473,78.465,12.5,77.264,12.5z M24.91,19.137v-1.087
	c0-1.2,0.974-2.174,2.174-2.174H71.65c1.2,0,2.173,0.974,2.173,2.174v1.087c0,1.201-0.973,2.174-2.173,2.174H27.083
	C25.884,21.311,24.91,20.337,24.91,19.137z M26.298,53.116c0-13.069,10.634-23.703,23.703-23.703
	c13.068,0,23.702,10.633,23.702,23.703c0,6.155-2.358,11.771-6.219,15.988v-5.946l-8.331-5.071l-0.426,0.423l5.269,4.892v8.833
	c-3.926,2.881-8.765,4.585-13.995,4.585C36.932,76.818,26.298,66.186,26.298,53.116z M64.916,62.479
	c0,0.291-0.235,0.528-0.527,0.528s-0.528-0.236-0.528-0.528c0-0.293,0.236-0.528,0.528-0.528S64.916,62.187,64.916,62.479z
	 M63.406,61.377c0,0.183-0.149,0.332-0.331,0.332c-0.184,0-0.332-0.15-0.332-0.332c0-0.184,0.148-0.332,0.332-0.332
	C63.257,61.045,63.406,61.193,63.406,61.377z M59.521,84.316c-0.847,0-1.533-0.687-1.533-1.533s0.687-1.534,1.533-1.534
	c0.848,0,1.534,0.688,1.534,1.534S60.368,84.316,59.521,84.316z M63.996,84.316c-0.846,0-1.532-0.687-1.532-1.533
	s0.687-1.534,1.532-1.534c0.847,0,1.534,0.688,1.534,1.534S64.843,84.316,63.996,84.316z M65.587,70.958
	c-0.417-0.088-0.731-0.456-0.731-0.901c0-0.507,0.412-0.92,0.921-0.92c0.467,0,0.848,0.348,0.908,0.798
	C66.33,70.287,65.964,70.629,65.587,70.958z M65.853,68.23c-0.501,0-0.906-0.405-0.906-0.904c0-0.5,0.405-0.906,0.906-0.906
	c0.5,0,0.904,0.406,0.904,0.906C66.759,67.825,66.353,68.23,65.853,68.23z M65.822,65.514c-0.518,0-0.938-0.418-0.938-0.937
	c0-0.517,0.42-0.937,0.938-0.937c0.517,0,0.937,0.42,0.937,0.937C66.759,65.096,66.339,65.514,65.822,65.514z M68.473,84.316
	c-0.847,0-1.534-0.687-1.534-1.533s0.688-1.534,1.534-1.534s1.533,0.688,1.533,1.534S69.319,84.316,68.473,84.316z M72.948,84.316
	c-0.847,0-1.533-0.687-1.533-1.533s0.687-1.534,1.533-1.534c0.846,0,1.533,0.688,1.533,1.534S73.794,84.316,72.948,84.316z"/>
</svg>
