<?xml version="1.0" encoding="utf-8"?>
<!-- Generator: Adobe Illustrator 15.1.0, SVG Export Plug-In . SVG Version: 6.00 Build 0)  -->
<!DOCTYPE svg PUBLIC "-//W3C//DTD SVG 1.1 Basic//EN" "http://www.w3.org/Graphics/SVG/1.1/DTD/svg11-basic.dtd">
<svg version="1.1" baseProfile="basic" id="Layer_1"
	 xmlns="http://www.w3.org/2000/svg" xmlns:xlink="http://www.w3.org/1999/xlink" x="0px" y="0px" width="100px" height="100px"
	 viewBox="0 0 100 100" xml:space="preserve">
<path fill="#FFFFFF" d="M79.747,21.95H20.253c-1.406,0-2.55,1.143-2.55,2.55v0.848v34.848c0,1.413,1.144,2.552,2.55,2.552h0.854
	h57.798h0.842c1.408,0,2.549-1.139,2.549-2.552V25.348V24.5C82.296,23.093,81.16,21.95,79.747,21.95z M78.905,59.348H21.107v-34
	h57.798V59.348z"/>
<path fill="#FFFFFF" d="M82.39,64.462c-0.514-0.472-1.512-0.861-2.209-0.861H19.826c-0.704,0-1.69,0.39-2.202,0.861L7.5,73.796V75.5
	c0,0,0,2.552,2.55,2.552h79.898c2.552,0,2.552-2.552,2.552-2.552v-1.704L82.39,64.462z M38.83,69.859h22.34l1.723,2.773H37.109
	L38.83,69.859z M55.948,74.646c0,0.472-0.382,0.854-0.848,0.854H44.905c-0.474,0-0.855-0.382-0.855-0.854v-0.851h11.898V74.646z"/>
</svg>
