<?xml version="1.0" encoding="utf-8"?>
<!-- Generator: Adobe Illustrator 15.1.0, SVG Export Plug-In . SVG Version: 6.00 Build 0)  -->
<!DOCTYPE svg PUBLIC "-//W3C//DTD SVG 1.1 Basic//EN" "http://www.w3.org/Graphics/SVG/1.1/DTD/svg11-basic.dtd">
<svg version="1.1" baseProfile="basic" id="Layer_1"
	 xmlns="http://www.w3.org/2000/svg" xmlns:xlink="http://www.w3.org/1999/xlink" x="0px" y="0px" width="100px" height="100px"
	 viewBox="0 0 100 100" xml:space="preserve">
<g>
	<path fill="#FFFFFF" d="M62.354,22.495c0.004-0.072,0.034-0.126,0.034-0.195v-6.728c0-1.605-1.713-2.904-3.287-2.904
		c-1.582,0-3.421,1.299-3.421,2.904v6.454H39.372c-4.919,0-8.911,3.988-8.911,8.906V78.76c0,4.918,3.992,8.907,8.911,8.907h20.257
		c4.918,0,8.911-3.989,8.911-8.907V30.932C68.54,26.965,65.933,23.648,62.354,22.495z M41.622,75.669h-3.284
		c-0.965,0-1.747-0.782-1.747-1.749c0-0.971,0.782-1.756,1.747-1.756h3.284c0.969,0,1.753,0.785,1.753,1.756
		C43.375,74.887,42.591,75.669,41.622,75.669z M38.338,65.211h3.284c0.969,0,1.753,0.782,1.753,1.75
		c0,0.966-0.785,1.747-1.753,1.747h-3.284c-0.965,0-1.747-0.781-1.747-1.747C36.591,65.993,37.374,65.211,38.338,65.211z
		 M36.591,60.099c0-0.971,0.782-1.751,1.747-1.751h3.284c0.969,0,1.753,0.78,1.753,1.751c0,0.963-0.785,1.746-1.753,1.746h-3.284
		C37.374,61.845,36.591,61.062,36.591,60.099z M55.36,82.686H44.698c-0.73,0-1.321-0.589-1.321-1.318
		c0-0.734,0.591-1.322,1.321-1.322h10.664c0.73,0,1.323,0.588,1.323,1.322C56.684,82.097,56.092,82.686,55.36,82.686z
		 M48.078,65.211h3.282c0.967,0,1.752,0.782,1.752,1.75c0,0.966-0.785,1.747-1.752,1.747h-3.282c-0.97,0-1.754-0.781-1.754-1.747
		C46.324,65.993,47.107,65.211,48.078,65.211z M46.324,60.099c0-0.971,0.784-1.751,1.754-1.751h3.282
		c0.967,0,1.752,0.78,1.752,1.751c0,0.963-0.785,1.746-1.752,1.746h-3.282C47.107,61.845,46.324,61.062,46.324,60.099z
		 M48.078,72.164h3.282c0.967,0,1.752,0.785,1.752,1.756c0,0.967-0.785,1.749-1.752,1.749h-3.282c-0.97,0-1.754-0.782-1.754-1.749
		C46.324,72.949,47.107,72.164,48.078,72.164z M61.177,75.669h-3.283c-0.968,0-1.747-0.782-1.747-1.749
		c0-0.971,0.779-1.756,1.747-1.756h3.283c0.976,0,1.755,0.785,1.755,1.756C62.931,74.887,62.152,75.669,61.177,75.669z
		 M61.177,68.708h-3.283c-0.968,0-1.747-0.781-1.747-1.747c0-0.968,0.779-1.75,1.747-1.75h3.283c0.976,0,1.755,0.782,1.755,1.75
		C62.931,67.927,62.152,68.708,61.177,68.708z M61.177,61.845h-3.283c-0.968,0-1.747-0.783-1.747-1.746
		c0-0.971,0.779-1.751,1.747-1.751h3.283c0.976,0,1.755,0.78,1.755,1.751C62.931,61.062,62.152,61.845,61.177,61.845z
		 M63.938,49.376c0,2.537-2.051,4.593-4.592,4.593H40.092c-2.536,0-4.596-2.056-4.596-4.593V31.023c0-2.541,2.061-4.597,4.596-4.597
		h19.255c2.541,0,4.592,2.056,4.592,4.597V49.376z"/>
</g>
</svg>
