<?xml version="1.0" encoding="utf-8"?>
<!-- Generator: Adobe Illustrator 15.1.0, SVG Export Plug-In . SVG Version: 6.00 Build 0)  -->
<!DOCTYPE svg PUBLIC "-//W3C//DTD SVG 1.1 Basic//EN" "http://www.w3.org/Graphics/SVG/1.1/DTD/svg11-basic.dtd">
<svg version="1.1" baseProfile="basic" id="Layer_1"
	 xmlns="http://www.w3.org/2000/svg" xmlns:xlink="http://www.w3.org/1999/xlink" x="0px" y="0px" width="100px" height="100px"
	 viewBox="0 0 100 100" xml:space="preserve">
<g>
	<path fill="#FFFFFF" d="M82.5,40.591v25.292c0,2.935-2.418,5.354-5.182,5.354h-5.265l2.33,10.529H26.65l1.899-10.529h-5.698
		c-3.107,0-5.351-2.419-5.351-5.354V40.591c0-2.934,2.244-5.351,5.351-5.351h6.647v-8.116h2.33v-8.89h36.427v8.89h2.331v8.116h6.732
		C80.082,35.24,82.5,37.657,82.5,40.591z M30.275,44.648c0-1.986-1.726-3.711-3.798-3.711c-1.986,0-3.712,1.726-3.712,3.711
		c0,2.072,1.727,3.711,3.712,3.711C28.549,48.36,30.275,46.72,30.275,44.648z M69.98,78.573l-3.278-16.661H33.296l-2.503,16.661
		H69.98z M34.245,41.627h31.593V21.515H34.245V41.627z M48.229,68.388h-9.582v2.416h9.582V68.388z M61.869,68.388h-9.581v2.416
		h9.581V68.388z"/>
</g>
</svg>
