<?xml version="1.0" encoding="utf-8"?>
<!-- Generator: Adobe Illustrator 15.1.0, SVG Export Plug-In . SVG Version: 6.00 Build 0)  -->
<!DOCTYPE svg PUBLIC "-//W3C//DTD SVG 1.1 Basic//EN" "http://www.w3.org/Graphics/SVG/1.1/DTD/svg11-basic.dtd">
<svg version="1.1" baseProfile="basic" id="Layer_1"
	 xmlns="http://www.w3.org/2000/svg" xmlns:xlink="http://www.w3.org/1999/xlink" x="0px" y="0px" width="100px" height="100px"
	 viewBox="0 0 100 100" xml:space="preserve">
<path id="sim_x5F_card" fill="#FFFFFF" d="M83.434,28.74H16.566c-1.104,0-2,0.896-2,2v32.427l8.093,8.093h60.772
	c1.104,0,2-0.896,2-2V30.74C85.434,29.637,84.537,28.74,83.434,28.74z M80.332,40.083v2.583H69.5v-8.583h4.832
	C77.646,34.083,80.332,36.771,80.332,40.083z M68.5,57.334v8.583H57.664v-8.583V50.5v-1v-6.834v-8.583H68.5v8.583V49.5v1V57.334z
	 M56.664,49.5H45.832v-5.834h10.832V49.5z M45.832,50.5h10.832v5.834H45.832V50.5z M69.5,43.666h10.832V49.5H69.5V43.666z
	 M69.5,50.5h10.832v5.834H69.5V50.5z M51.832,34.083h4.832v8.583H45.832v-2.583C45.832,36.771,48.519,34.083,51.832,34.083z
	 M45.832,59.917v-2.583h10.832v8.583h-4.832C48.519,65.917,45.832,63.23,45.832,59.917z M74.332,65.917H69.5v-8.583h10.832v2.583
	C80.332,63.23,77.646,65.917,74.332,65.917z"/>
</svg>
