<?xml version="1.0" encoding="utf-8"?>
<!-- Generator: Adobe Illustrator 15.1.0, SVG Export Plug-In . SVG Version: 6.00 Build 0)  -->
<!DOCTYPE svg PUBLIC "-//W3C//DTD SVG 1.1 Basic//EN" "http://www.w3.org/Graphics/SVG/1.1/DTD/svg11-basic.dtd">
<svg version="1.1" baseProfile="basic" id="Layer_1"
	 xmlns="http://www.w3.org/2000/svg" xmlns:xlink="http://www.w3.org/1999/xlink" x="0px" y="0px" width="100px" height="100px"
	 viewBox="0 0 100 100" xml:space="preserve">
<g id="source_x5F_code">
	<path fill="#FFFFFF" d="M11.374,53.279C10.25,52.529,9.5,51.031,9.5,49.719c0-1.312,0.563-2.53,1.968-3.186h-0.094
		c6.654-3.936,15.932-9.184,22.118-12.839v8.716c-2.437,1.406-5.717,3-13.964,7.404l0.093,0.093
		c4.405,1.968,9.465,4.966,13.87,7.591v8.809L11.374,53.279z"/>
	<path fill="#FFFFFF" d="M87.626,46.72c1.122,0.75,1.874,2.25,1.874,3.562c0,1.312-0.563,2.528-1.969,3.185h0.095
		c-6.654,3.938-15.933,9.186-22.118,12.84v-8.715c2.438-1.406,5.717-3,13.964-7.404l-0.094-0.092
		c-4.403-1.969-9.466-4.967-13.87-7.592v-8.809L87.626,46.72z"/>
	<path fill="#FFFFFF" d="M46.621,67.475h-5.608l11.272-34.95h5.703L46.621,67.475z"/>
</g>
</svg>
