<?xml version="1.0" encoding="utf-8"?>
<!-- Generator: Adobe Illustrator 15.1.0, SVG Export Plug-In . SVG Version: 6.00 Build 0)  -->
<!DOCTYPE svg PUBLIC "-//W3C//DTD SVG 1.1 Basic//EN" "http://www.w3.org/Graphics/SVG/1.1/DTD/svg11-basic.dtd">
<svg version="1.1" baseProfile="basic" id="Layer_1"
	 xmlns="http://www.w3.org/2000/svg" xmlns:xlink="http://www.w3.org/1999/xlink" x="0px" y="0px" width="100px" height="100px"
	 viewBox="0 0 100 100" xml:space="preserve">
<path id="tablet" fill="#FFFFFF" d="M9.473,24.65v50.698c0,4.22,3.684,7.639,8.229,7.639h63.542c4.544,0,8.229-3.419,8.229-7.639
	V24.649c0-4.216-3.685-7.637-8.229-7.637H17.701C13.156,17.014,9.473,20.435,9.473,24.65z M87.124,50.829
	c0,1.607-1.302,2.907-2.907,2.907c-1.609,0-2.913-1.3-2.913-2.907c0-1.604,1.304-2.91,2.913-2.91
	C85.822,47.919,87.124,49.225,87.124,50.829z M78.273,23.803v51.76H17.931v-51.76H78.273z"/>
</svg>
