<?xml version="1.0" encoding="utf-8"?>
<!-- Generator: Adobe Illustrator 15.1.0, SVG Export Plug-In . SVG Version: 6.00 Build 0)  -->
<!DOCTYPE svg PUBLIC "-//W3C//DTD SVG 1.1 Basic//EN" "http://www.w3.org/Graphics/SVG/1.1/DTD/svg11-basic.dtd">
<svg version="1.1" baseProfile="basic" id="Layer_1"
	 xmlns="http://www.w3.org/2000/svg" xmlns:xlink="http://www.w3.org/1999/xlink" x="0px" y="0px" width="100px" height="100px"
	 viewBox="0 0 100 100" xml:space="preserve">
<g id="tv">
	<g id="Layer_2">
		<path fill="#FFFFFF" d="M94.546,18.818H5.455C2.996,18.818,1,20.813,1,23.272v46.772C1,72.502,2.996,74.5,5.455,74.5h89.091
			c2.457,0,4.454-1.998,4.454-4.455V23.272C99,20.813,97.003,18.818,94.546,18.818z M94.546,59.354c0,4.01,0,4.01-4.455,4.01H9.909
			c-4.454,0-4.454,0-4.454-4.01V27.281c0-4.008,0-4.008,4.454-4.008h80.182c4.455,0,4.455,0,4.455,4.008V59.354z"/>
	</g>
	<g id="Layer_3">
		<rect x="27.727" y="78.953" fill="#FFFFFF" width="44.545" height="2.229"/>
	</g>
	<g id="Layer_7">
		<rect x="47.773" y="74.5" fill="#FFFFFF" width="4.455" height="4.453"/>
	</g>
</g>
</svg>
