<?xml version="1.0" encoding="utf-8"?>
<!-- Generator: Adobe Illustrator 15.1.0, SVG Export Plug-In . SVG Version: 6.00 Build 0)  -->
<!DOCTYPE svg PUBLIC "-//W3C//DTD SVG 1.1 Basic//EN" "http://www.w3.org/Graphics/SVG/1.1/DTD/svg11-basic.dtd">
<svg version="1.1" baseProfile="basic" id="Layer_1"
	 xmlns="http://www.w3.org/2000/svg" xmlns:xlink="http://www.w3.org/1999/xlink" x="0px" y="0px" width="100px" height="100px"
	 viewBox="0 0 100 100" xml:space="preserve">
<path fill="#FFFFFF" d="M22.745,43.531c-3.574,0-6.47,2.896-6.47,6.47c0,3.573,2.896,6.468,6.47,6.468
	c3.572,0,6.468-2.896,6.468-6.468C29.211,46.427,26.316,43.531,22.745,43.531z M68.93,72.932c-3.096,1.787-4.155,5.741-2.368,8.833
	c1.785,3.094,5.739,4.154,8.833,2.367c3.096-1.785,4.155-5.738,2.368-8.833C75.977,72.207,72.021,71.146,68.93,72.932z
	 M36.794,50.001c0-6.392,3.176-12.04,8.034-15.46l-4.729-7.92c-5.66,3.783-9.871,9.563-11.62,16.334
	c2.042,1.667,3.349,4.203,3.349,7.046c0,2.842-1.307,5.378-3.349,7.044c1.748,6.772,5.958,12.554,11.62,16.338l4.729-7.925
	C39.971,62.042,36.794,56.395,36.794,50.001z M55.689,31.105c9.869,0,17.969,7.568,18.817,17.219l9.217-0.136
	c-0.453-7.125-3.565-13.521-8.349-18.226c-2.46,0.929-5.301,0.786-7.757-0.628c-2.459-1.42-4.001-3.814-4.424-6.414
	c-2.391-0.66-4.906-1.021-7.507-1.021c-4.473,0-8.7,1.05-12.453,2.908l4.495,8.054C50.147,31.738,52.846,31.105,55.689,31.105z
	 M55.689,68.896c-2.844,0-5.542-0.632-7.959-1.758l-4.495,8.055c3.754,1.859,7.981,2.91,12.454,2.91
	c2.601,0,5.116-0.361,7.506-1.022c0.423-2.6,1.965-4.992,4.425-6.414c2.457-1.417,5.296-1.558,7.756-0.628
	c4.783-4.704,7.896-11.101,8.349-18.226l-9.219-0.136C73.657,61.33,65.559,68.896,55.689,68.896z M68.927,27.068
	c3.095,1.787,7.049,0.729,8.833-2.365c1.787-3.094,0.73-7.048-2.365-8.835c-3.094-1.785-7.048-0.725-8.835,2.369
	C64.774,21.329,65.834,25.283,68.927,27.068z"/>
</svg>
