<?xml version="1.0" encoding="utf-8"?>
<!-- Generator: Adobe Illustrator 15.1.0, SVG Export Plug-In . SVG Version: 6.00 Build 0)  -->
<!DOCTYPE svg PUBLIC "-//W3C//DTD SVG 1.1 Basic//EN" "http://www.w3.org/Graphics/SVG/1.1/DTD/svg11-basic.dtd">
<svg version="1.1" baseProfile="basic" id="Layer_1"
	 xmlns="http://www.w3.org/2000/svg" xmlns:xlink="http://www.w3.org/1999/xlink" x="0px" y="0px" width="100px" height="100px"
	 viewBox="0 0 100 100" xml:space="preserve">
<path fill="#FFFFFF" d="M89.5,48.5c0-9.925-8.076-18-18-18c-9.925,0-18,8.075-18,18c0,4.417,1.602,8.464,4.252,11.6H41.249
	c2.649-3.136,4.251-7.183,4.251-11.6c0-9.925-8.075-18-18-18c-9.925,0-18,8.075-18,18c0,9.849,7.95,17.869,17.769,17.993V66.5h44.46
	v-0.007C81.55,66.369,89.5,58.349,89.5,48.5z M15.9,48.5c0-6.396,5.205-11.6,11.6-11.6c6.396,0,11.6,5.204,11.6,11.6
	c0,6.396-5.204,11.6-11.6,11.6C21.104,60.1,15.9,54.896,15.9,48.5z M71.5,60.1c-6.396,0-11.601-5.203-11.601-11.6
	c0-6.396,5.204-11.6,11.601-11.6s11.601,5.204,11.601,11.6C83.101,54.896,77.896,60.1,71.5,60.1z"/>
</svg>
