<?xml version="1.0" encoding="utf-8"?>
<!-- Generator: Adobe Illustrator 15.1.0, SVG Export Plug-In . SVG Version: 6.00 Build 0)  -->
<!DOCTYPE svg PUBLIC "-//W3C//DTD SVG 1.1 Basic//EN" "http://www.w3.org/Graphics/SVG/1.1/DTD/svg11-basic.dtd">
<svg version="1.1" baseProfile="basic" id="Layer_1"
	 xmlns="http://www.w3.org/2000/svg" xmlns:xlink="http://www.w3.org/1999/xlink" x="0px" y="0px" width="100px" height="100px"
	 viewBox="0 0 100 100" xml:space="preserve">
<path fill="#FFFFFF" d="M64.693,55.339C60.79,51.467,55.42,49.07,49.5,49.07s-11.289,2.397-15.192,6.269
	c-0.041,0.041-0.082,0.082-0.123,0.123l4.922,4.923c0.041-0.041,0.082-0.083,0.124-0.122c2.642-2.613,6.27-4.229,10.269-4.229
	c4,0,7.628,1.616,10.27,4.229c0.043,0.039,0.082,0.081,0.123,0.122l4.924-4.923C64.773,55.421,64.732,55.38,64.693,55.339z"/>
<path fill="#FFFFFF" d="M74.534,45.497C68.109,39.103,59.259,35.145,49.5,35.145c-9.758,0-18.609,3.958-25.035,10.353
	c-0.041,0.041-0.082,0.082-0.123,0.123l4.921,4.921c0.041-0.041,0.082-0.081,0.123-0.122c5.165-5.134,12.275-8.312,20.114-8.312
	c7.84,0,14.949,3.178,20.112,8.312c0.042,0.041,0.085,0.081,0.124,0.122l4.921-4.921C74.616,45.579,74.575,45.538,74.534,45.497z"/>
<path fill="#FFFFFF" d="M84.377,35.655C75.43,26.739,63.098,21.219,49.5,21.219s-25.93,5.52-34.877,14.436
	c-0.04,0.041-0.082,0.083-0.123,0.123l4.921,4.921c0.041-0.041,0.082-0.082,0.123-0.123C27.23,32.92,37.821,28.182,49.5,28.182
	c11.68,0,22.271,4.739,29.955,12.394c0.043,0.042,0.083,0.083,0.124,0.124l4.921-4.921C84.459,35.737,84.418,35.696,84.377,35.655z"
	/>
<circle fill="#FFFFFF" cx="49.542" cy="70.807" r="5.601"/>
</svg>
