<?xml version="1.0" encoding="utf-8"?>
<!-- Generator: Adobe Illustrator 15.1.0, SVG Export Plug-In . SVG Version: 6.00 Build 0)  -->
<!DOCTYPE svg PUBLIC "-//W3C//DTD SVG 1.1 Basic//EN" "http://www.w3.org/Graphics/SVG/1.1/DTD/svg11-basic.dtd">
<svg version="1.1" baseProfile="basic" id="Layer_1"
	 xmlns="http://www.w3.org/2000/svg" xmlns:xlink="http://www.w3.org/1999/xlink" x="0px" y="0px" width="100px" height="100px"
	 viewBox="0 0 100 100" xml:space="preserve">
<g id="g3420">
	<g id="g3422">
		<g id="g3424">
			<path id="path3443" fill="#FFFFFF" d="M19.685,48.577c14.512-5.978,21.537-2.789,27.828,1.482l-7.266,24.969
				c-6.313-4.244-13.177-7.74-27.747-1.716l7.102-24.699L19.685,48.577z"/>
		</g>
	</g>
</g>
<g id="g3648">
	<path id="path3665" fill="#FFFFFF" d="M51.318,52.474c6.308,4.244,12.761,7.356,27.589,2.286l-6.922,24.075
		c-14.554,6.021-21.541,2.612-27.843-1.659L51.318,52.474z"/>
</g>
<path id="path3838" fill="#FFFFFF" d="M48.722,45.558c-3.796-2.558-7.883-4.949-13.688-4.992c-3.829-0.03-8.388,1.06-14.177,3.45
	l7.172-24.853c14.56-6.021,21.556-2.608,27.865,1.658L48.722,45.558z"/>
<path id="path4024" fill="#FFFFFF" d="M87.5,25.038c-14.54,6.009-21.528,2.63-27.822-1.61l-7.174,24.874
	c6.29,4.265,13.891,7.763,27.832,1.527L87.5,25.038z"/>
</svg>
