<?xml version="1.0" encoding="UTF-8"?>
<svg width="23px" height="23px" viewBox="0 0 23 23" version="1.1" xmlns="http://www.w3.org/2000/svg" xmlns:xlink="http://www.w3.org/1999/xlink">
    <!-- Generator: Sketch 58 (84663) - https://sketch.com -->
    <title>所有项目-999</title>
    <desc>Created with Sketch.</desc>
    <g id="网页" stroke="none" stroke-width="1" fill="none" fill-rule="evenodd">
        <g id="网页第四版-效果图2" transform="translate(-54.000000, -153.000000)">
            <g id="下部分左" transform="translate(0.000000, 100.000000)">
                <g id="编组" transform="translate(53.000000, 45.000000)">
                    <g id="所有项目-999备份" transform="translate(0.000000, 7.000000)">
                        <g id="所有项目">
                            <rect id="矩形" x="0" y="0" width="25.6" height="25.6"></rect>
                            <path d="M3.2,1.6 L10.4,1.6 C11.2836556,1.6 12,2.3163444 12,3.2 L12,10.4 C12,11.2836556 11.2836556,12 10.4,12 L3.2,12 C2.3163444,12 1.6,11.2836556 1.6,10.4 L1.6,3.2 C1.6,2.3163444 2.3163444,1.6 3.2,1.6 Z M3.2,13.6 L10.4,13.6 C11.2836556,13.6 12,14.3163444 12,15.2 L12,22.4 C12,23.2836556 11.2836556,24 10.4,24 L3.2,24 C2.3163444,24 1.6,23.2836556 1.6,22.4 L1.6,15.2 C1.6,14.3163444 2.3163444,13.6 3.2,13.6 Z M15.2,1.6 L22.4,1.6 C23.2836556,1.6 24,2.3163444 24,3.2 L24,10.4 C24,11.2836556 23.2836556,12 22.4,12 L15.2,12 C14.3163444,12 13.6,11.2836556 13.6,10.4 L13.6,3.2 C13.6,2.3163444 14.3163444,1.6 15.2,1.6 Z M15.2,13.6 L22.4,13.6 C23.2836556,13.6 24,14.3163444 24,15.2 L24,22.4 C24,23.2836556 23.2836556,24 22.4,24 L15.2,24 C14.3163444,24 13.6,23.2836556 13.6,22.4 L13.6,15.2 C13.6,14.3163444 14.3163444,13.6 15.2,13.6 Z" id="形状" fill="#046BDA"></path>
                        </g>
                    </g>
                </g>
            </g>
        </g>
    </g>
</svg>