<?xml version="1.0" encoding="UTF-8"?>
<svg width="20px" height="23px" viewBox="0 0 20 23" version="1.1" xmlns="http://www.w3.org/2000/svg" xmlns:xlink="http://www.w3.org/1999/xlink">
    <!-- Generator: Sketch 58 (84663) - https://sketch.com -->
    <title>密码-999</title>
    <desc>Created with Sketch.</desc>
    <g id="网页" stroke="none" stroke-width="1" fill="none" fill-rule="evenodd">
        <g id="网页第四版-效果图2" transform="translate(-56.000000, -232.000000)">
            <g id="下部分左" transform="translate(0.000000, 100.000000)">
                <g id="编组" transform="translate(53.000000, 45.000000)">
                    <g id="密码-999" transform="translate(0.000000, 86.000000)">
                        <g id="密码">
                            <rect id="矩形备份-5" x="0" y="0" width="25.6" height="25.6"></rect>
                            <path d="M12.8,1.6 C16.3346224,1.6 19.2,4.4653776 19.2,8 L19.2,9.599 L20.8,9.6 C21.6836556,9.6 22.4,10.3163444 22.4,11.2 L22.4,22.4 C22.4,23.2836556 21.6836556,24 20.8,24 L4.8,24 C3.9163444,24 3.2,23.2836556 3.2,22.4 L3.2,11.2 C3.2,10.3163444 3.9163444,9.6 4.8,9.6 L6.4,9.599 L6.4,8 C6.4,4.4653776 9.2653776,1.6 12.8,1.6 Z M12.8,13.6 C11.9163444,13.6 11.2,14.3163444 11.2,15.2 C11.2,15.7923229 11.5218643,16.3094703 12.000235,16.5860844 L12.000235,16.5860844 L12,19.2 C12,19.6418278 12.3581722,20 12.8,20 C13.2418278,20 13.6,19.6418278 13.6,19.2 L13.6,19.2 L13.6007397,16.5855203 C14.0785729,16.3087676 14.4,15.7919205 14.4,15.2 C14.4,14.3163444 13.6836556,13.6 12.8,13.6 Z M12.8,3.2 C10.1490332,3.2 8,5.3490332 8,8 L8,9.599 L17.6,9.599 L17.6,8 C17.6,5.3490332 15.4509668,3.2 12.8,3.2 Z" id="形状结合" fill="#A8B1C6" fill-rule="nonzero"></path>
                        </g>
                    </g>
                </g>
            </g>
        </g>
    </g>
</svg>