<?xml version="1.0" encoding="UTF-8"?>
<svg width="24px" height="28px" viewBox="0 0 24 28" version="1.1" xmlns="http://www.w3.org/2000/svg" xmlns:xlink="http://www.w3.org/1999/xlink">
    <!-- Generator: Sketch 58 (84663) - https://sketch.com -->
    <title>密码</title>
    <desc>Created with Sketch.</desc>
    <g id="组件" stroke="none" stroke-width="1" fill="none" fill-rule="evenodd">
        <g id="密码-999备份" transform="translate(-4.000000, -2.000000)">
            <g id="密码">
                <rect id="矩形备份-5" x="0" y="0" width="32" height="32"></rect>
                <path d="M16,2 C20.418278,2 24,5.581722 24,10 L24,12 L26,12 C27.1045695,12 28,12.8954305 28,14 L28,28 C28,29.1045695 27.1045695,30 26,30 L6,30 C4.8954305,30 4,29.1045695 4,28 L4,14 C4,12.8954305 4.8954305,12 6,12 L8,12 L8,10 C8,5.581722 11.581722,2 16,2 Z M16,17 C14.8954305,17 14,17.8954305 14,19 C14,19.7402524 14.4021661,20.3865739 14.9999275,20.7323937 L14.9999275,20.7323937 L15,24 C15,24.5522847 15.4477153,25 16,25 C16.5522847,25 17,24.5522847 17,24 L17,24 L17.0010775,20.7318119 C17.5982846,20.3858493 18,19.7398375 18,19 C18,17.8954305 17.1045695,17 16,17 Z M16,4 C12.6862915,4 10,6.6862915 10,10 L10,12 L22,12 L22,10 C22,6.6862915 19.3137085,4 16,4 Z" id="形状结合" fill="#046BDA" fill-rule="nonzero"></path>
            </g>
        </g>
    </g>
</svg>