<?xml version="1.0" encoding="UTF-8"?>
<svg width="29px" height="27px" viewBox="0 0 29 27" version="1.1" xmlns="http://www.w3.org/2000/svg" xmlns:xlink="http://www.w3.org/1999/xlink">
    <!-- Generator: Sketch 58 (84663) - https://sketch.com -->
    <title>收藏</title>
    <desc>Created with Sketch.</desc>
    <g id="组件" stroke="none" stroke-width="1" fill="none" fill-rule="evenodd">
        <g id="收藏-999备份" transform="translate(-2.000000, -3.000000)">
            <g id="收藏">
                <rect id="矩形备份-4" x="0" y="0" width="32" height="32"></rect>
                <path d="M15.6026025,25.9853159 L8.45685175,29.7420594 C7.96800716,29.9990602 7.36338001,29.8111137 7.1063792,29.3222691 C7.00404013,29.1276086 6.96872545,28.9046405 7.0059023,28.6878829 L8.37061925,20.7309725 C8.42625719,20.4065784 8.31870871,20.0755782 8.08302262,19.8458411 L2.30198882,14.2107258 C1.90650524,13.8252246 1.89841294,13.1921113 2.28391415,12.7966278 C2.43742275,12.6391441 2.63856517,12.536657 2.8562022,12.5050324 L10.8453944,11.3441349 C11.1711046,11.2968064 11.4526702,11.092237 11.5983322,10.7970936 L15.1712076,3.55765732 C15.4156298,3.06240366 16.0152557,2.85906466 16.5105093,3.10348696 C16.7077219,3.20081719 16.8673495,3.36044472 16.9646797,3.55765732 L20.5375551,10.7970936 C20.6832171,11.092237 20.9647827,11.2968064 21.2904928,11.3441349 L29.2796851,12.5050324 C29.8262299,12.5844501 30.2049114,13.0918929 30.1254938,13.6384378 C30.0938693,13.8560748 29.9913821,14.0572172 29.8338984,14.2107258 L24.0528646,19.8458411 C23.8171786,20.0755782 23.7096301,20.4065784 23.765268,20.7309725 L25.129985,28.6878829 C25.223346,29.2322193 24.8577581,29.7491753 24.3134217,29.8425363 C24.0966641,29.8797131 23.873696,29.8443984 23.6790355,29.7420594 L16.5332848,25.9853159 C16.2419607,25.8321578 15.8939265,25.8321578 15.6026025,25.9853159 Z" id="星形" fill="#046BDA"></path>
            </g>
        </g>
    </g>
</svg>