<?xml version="1.0" encoding="UTF-8"?>
<svg width="22px" height="24px" viewBox="0 0 22 24" version="1.1" xmlns="http://www.w3.org/2000/svg" xmlns:xlink="http://www.w3.org/1999/xlink">
    <!-- Generator: Sketch 58 (84663) - https://sketch.com -->
    <title>未标记-999</title>
    <desc>Created with Sketch.</desc>
    <g id="网页" stroke="none" stroke-width="1" fill="none" fill-rule="evenodd">
        <g id="网页第四版-效果图2" transform="translate(-55.000000, -276.000000)">
            <g id="下部分左" transform="translate(0.000000, 100.000000)">
                <g id="编组" transform="translate(53.000000, 45.000000)">
                    <g id="未标记-999" transform="translate(0.000000, 130.000000)">
                        <g id="未标记">
                            <rect id="矩形备份-6" x="0" y="0" width="25.6" height="25.6"></rect>
                            <g id="标签" transform="translate(12.600000, 12.800000) scale(-1, -1) rotate(-270.000000) translate(-12.600000, -12.800000) translate(0.600000, 1.800000)" fill="#A8B1C6" fill-rule="nonzero">
                                <path d="M18.7568364,0.61665359 C19.8851041,0.617862875 20.7994994,1.52450364 20.8008941,2.64336908 L20.8008941,8.88398572 C20.8022994,9.42178135 20.5866904,9.9377782 20.2020926,10.3169194 L10.478607,19.957872 C9.83550062,20.5990932 8.96045971,20.9585603 8.04849395,20.9562653 C7.13644008,20.9586108 6.26128998,20.5991421 5.6180895,19.9578758 L1.29684367,15.6726403 C0.00258161299,14.3892508 -0.0437125396,12.3368676 1.15801664,10.9984636 L1.296678,10.8527656 C1.29673322,10.8527108 1.29678843,10.8526561 1.29684365,10.8526013 L11.0203292,1.21014478 C11.4029386,0.829018373 11.9232898,0.615355156 12.4655975,0.61665359 L18.7568364,0.61665359 Z M15.2,4.8 C14.3654342,4.8 13.68011,5.43895942 13.6065387,6.25436704 L13.6,6.4 C13.6,7.28365795 14.3163468,8 15.2,8 C16.0345658,8 16.71989,7.36103638 16.7934613,6.54563226 L16.8,6.4 C16.8,5.51634205 16.0836579,4.8 15.2,4.8 Z" id="形状结合"></path>
                                <path d="M11.5445853,20.8372298 C11.5445853,20.5980269 11.6404622,20.3686331 11.8109996,20.1994645 L21.5344852,10.557008 C21.5765433,10.5154165 21.6001256,10.4589012 21.6,10.4 L21.6,4.16118805 C21.5999999,3.6628382 22.0073897,3.25884339 22.5099275,3.25884339 C23.0124653,3.25884339 23.4199732,3.6628382 23.4199732,4.16118819 L23.4199732,10.4000001 C23.4213297,10.9378905 23.2057237,11.4539866 22.8211076,11.8332391 L13.0976221,21.4756957 C12.927138,21.6450724 12.6956282,21.7401089 12.4543033,21.7397957 C11.9517809,21.7397957 11.5445853,21.3355798 11.5445853,20.8372298 Z" id="路径"></path>
                            </g>
                        </g>
                    </g>
                </g>
            </g>
        </g>
    </g>
</svg>