<?xml version="1.0" encoding="UTF-8"?>
<svg width="23px" height="21px" viewBox="0 0 23 21" version="1.1" xmlns="http://www.w3.org/2000/svg" xmlns:xlink="http://www.w3.org/1999/xlink">
    <!-- Generator: Sketch 58 (84663) - https://sketch.com -->
    <title>模板-999</title>
    <desc>Created with Sketch.</desc>
    <g id="网页" stroke="none" stroke-width="1" fill="none" fill-rule="evenodd">
        <g id="网页第四版-效果图2" transform="translate(-54.000000, -314.000000)">
            <g id="下部分左" transform="translate(0.000000, 100.000000)">
                <g id="编组" transform="translate(53.000000, 45.000000)">
                    <g id="模板-999" transform="translate(0.000000, 166.000000)">
                        <g id="模板">
                            <rect id="矩形备份-7" x="0" y="0" width="25.6" height="25.6"></rect>
                            <path d="M12.8,3.2 C13.6836556,3.2 14.4,3.9163444 14.4,4.8 L14.4,8 L22.4,8 C23.2836556,8 24,8.7163444 24,9.6 L24,21.6 C24,22.4836556 23.2836556,23.2 22.4,23.2 L3.2,23.2 C2.3163444,23.2 1.6,22.4836556 1.6,21.6 L1.6,9.6 L1.6,4.8 C1.6,3.9163444 2.3163444,3.2 3.2,3.2 L12.8,3.2 Z" id="形状结合" fill="#A8B1C6"></path>
                        </g>
                    </g>
                </g>
            </g>
        </g>
    </g>
</svg>