<?xml version="1.0" encoding="UTF-8"?>
<svg width="25px" height="23px" viewBox="0 0 25 23" version="1.1" xmlns="http://www.w3.org/2000/svg" xmlns:xlink="http://www.w3.org/1999/xlink">
    <!-- Generator: Sketch 58 (84663) - https://sketch.com -->
    <title>垃圾桶-999</title>
    <desc>Created with Sketch.</desc>
    <g id="网页" stroke="none" stroke-width="1" fill="none" fill-rule="evenodd">
        <g id="网页第四版-效果图2" transform="translate(-53.000000, -355.000000)">
            <g id="下部分左" transform="translate(0.000000, 100.000000)">
                <g id="编组" transform="translate(53.000000, 45.000000)">
                    <g id="垃圾桶-999" transform="translate(0.000000, 209.000000)">
                        <g id="垃圾桶">
                            <rect id="矩形备份-9" x="0" y="0" width="25.6" height="25.6"></rect>
                            <g id="编组" transform="translate(0.800000, 1.600000)" fill="#A8B1C6">
                                <path d="M17.6,0 C18.4836556,-1.623249e-16 19.2,0.7163444 19.2,1.6 L19.2,3.2 L23.2,3.2 C23.6418278,3.2 24,3.5581722 24,4 C24,4.4418278 23.6418278,4.8 23.2,4.8 L0.8,4.8 C0.3581722,4.8 6.09219812e-16,4.4418278 0,4 C-5.41083001e-17,3.5581722 0.3581722,3.2 0.8,3.2 L4.8,3.2 L4.8,1.6 C4.8,0.7163444 5.5163444,1.623249e-16 6.4,0 L17.6,0 Z" id="形状结合"></path>
                                <path d="M19.2,6.4 C20.0836556,6.4 20.8,7.1163444 20.8,8 L20.8,20.8 C20.8,21.6836556 20.0836556,22.4 19.2,22.4 L4.8,22.4 C3.9163444,22.4 3.2,21.6836556 3.2,20.8 L3.2,8 C3.2,7.1163444 3.9163444,6.4 4.8,6.4 L19.2,6.4 Z M9.6,9.6 C9.19215895,9.6 8.85559842,9.90518815 8.80623314,10.2996497 L8.8,10.4 L8.8,18.4 C8.8,18.8418278 9.1581722,19.2 9.6,19.2 C10.007841,19.2 10.3444016,18.8948119 10.3937669,18.5003503 L10.4,18.4 L10.4,10.4 C10.4,9.9581722 10.0418278,9.6 9.6,9.6 Z M14.4,9.6 C13.9581722,9.6 13.6,9.9581722 13.6,10.4 L13.6,10.4 L13.6,18.4 C13.6,18.8418278 13.9581722,19.2 14.4,19.2 C14.8418278,19.2 15.2,18.8418278 15.2,18.4 L15.2,18.4 L15.2,10.4 C15.2,9.9581722 14.8418278,9.6 14.4,9.6 Z" id="形状结合"></path>
                            </g>
                        </g>
                    </g>
                </g>
            </g>
        </g>
    </g>
</svg>