<?xml version="1.0" standalone="no"?><!DOCTYPE svg PUBLIC "-//W3C//DTD SVG 1.1//EN" "http://www.w3.org/Graphics/SVG/1.1/DTD/svg11.dtd"><svg t="1597041413835" class="icon" viewBox="0 0 1024 1024" version="1.1" xmlns="http://www.w3.org/2000/svg" p-id="2664" width="48" height="48" xmlns:xlink="http://www.w3.org/1999/xlink"><defs><style type="text/css"></style></defs><path d="M883.093 797.867H140.907c-4.8 0-8.64 3.84-8.64 8.533v64c0 4.693 3.84 8.533 8.64 8.533h742.186c4.8 0 8.64-3.84 8.64-8.533v-64c0-4.693-3.84-8.533-8.64-8.533z m-377.813-118.4c3.413 4.373 10.027 4.373 13.44 0L638.187 528.32c4.373-5.547 0.426-13.76-6.72-13.76h-79.04V153.6c0-4.693-3.84-8.533-8.534-8.533h-64c-4.693 0-8.533 3.84-8.533 8.533v360.853h-78.827c-7.146 0-11.093 8.214-6.72 13.76L505.28 679.467z" fill="#333333" p-id="2665"></path></svg>