<?xml version="1.0" standalone="no"?><!DOCTYPE svg PUBLIC "-//W3C//DTD SVG 1.1//EN" "http://www.w3.org/Graphics/SVG/1.1/DTD/svg11.dtd"><svg class="icon" width="200px" height="200.00px" viewBox="0 0 1024 1024" version="1.1" xmlns="http://www.w3.org/2000/svg"><path fill="red" d="M511.98158 761.241574c-55.244208 0-100.184747 44.940538-100.184746 100.18577 0 55.241139 44.940538 100.181677 100.184746 100.181677 55.239092 0 100.180654-44.940538 100.180654-100.181677-0.001023-55.244208-44.941562-100.18577-100.180654-100.18577zM512.022513 62.389956c-55.244208 0-100.184747 44.940538-100.184747 100.180653v0.385787l46.579875 419.32018c0.10847 55.991222 23.595394 99.791797 53.563939 99.791798 29.92659 0 53.451376-43.794435 53.648875-99.785658l46.530756-418.940534 0.040932-0.771573c0.001023-55.240115-44.940538-100.180654-100.17963-100.180653z" /></svg>