<?xml version="1.0" encoding="UTF-8"?>
<svg width="22px" height="24px" viewBox="0 0 22 24" version="1.1" xmlns="http://www.w3.org/2000/svg" xmlns:xlink="http://www.w3.org/1999/xlink">
    <!-- Generator: Sketch 58 (84663) - https://sketch.com -->
    <title>ICON-LJT</title>
    <desc>Created with Sketch.</desc>
    <g id="网页" stroke="none" stroke-width="1" fill="none" fill-rule="evenodd">
        <g id="网页第四版-效果图2" transform="translate(-453.000000, -38.000000)" stroke="#72E46F">
            <g id="上部分">
                <g id="ICON-LJT" transform="translate(454.000000, 39.000000)">
                    <g>
                        <path d="M14.6525018,21.953008 L5.34770182,21.953008 C3.63933818,21.953008 2.25453818,20.776668 2.25453818,19.054288 L2.25453818,4.407128 L17.7454473,4.407128 L17.7454473,19.054288 C17.7454473,20.776668 16.3606473,21.953008 14.6525018,21.953008 Z" id="Stroke-15" stroke-width="1.44"></path>
                        <path d="M-2.99849034e-12,4.40715 L20.0000727,4.40715" id="Stroke-17" stroke-width="1.44" stroke-linecap="round"></path>
                        <path d="M7.27276364,16.50726 L7.27276364,9.504" id="Stroke-19" stroke-width="1.44" stroke-linecap="round"></path>
                        <path d="M12.4728,16.50726 L12.4728,9.504" id="Stroke-21" stroke-width="1.44" stroke-linecap="round"></path>
                        <path d="M14.1091636,4.26052 L5.63629091,4.26052 L5.63629091,1.2947 C5.63629091,0.5797 6.2112,0 6.92029091,0 L12.8251636,0 C13.5342545,0 14.1091636,0.5797 14.1091636,1.2947 L14.1091636,4.26052 Z" id="Stroke-23" stroke-width="1.44" stroke-linecap="round"></path>
                    </g>
                </g>
            </g>
        </g>
    </g>
</svg>