<?xml version="1.0" encoding="UTF-8"?>
<svg width="30px" height="30px" viewBox="0 0 30 30" version="1.1" xmlns="http://www.w3.org/2000/svg" xmlns:xlink="http://www.w3.org/1999/xlink">
    <!-- Generator: Sketch 58 (84663) - https://sketch.com -->
    <title>设置</title>
    <desc>Created with Sketch.</desc>
    <g id="网页" stroke="none" stroke-width="1" fill="none" fill-rule="evenodd">
        <g id="网页第四版-效果图2" transform="translate(-1567.000000, -35.000000)">
            <g id="上部分">
                <g id="设置" transform="translate(1566.000000, 34.000000)">
                    <g>
                        <rect id="矩形备份-12" x="0" y="0" width="32" height="32"></rect>
                        <g id="设-置" transform="translate(1.000000, 1.000000)" fill="#999999" fill-rule="nonzero">
                            <path d="M26.8916346,15.0000192 C26.8916346,13.3113454 27.9518897,11.8804843 29.437536,11.3100735 C29.0830434,9.91788438 28.5351912,8.60626176 27.8197607,7.40098692 C26.3631184,8.04874158 24.603546,7.78448346 23.4111618,6.5888766 C22.2187776,5.3964924 21.9545195,3.63369738 22.6022741,2.18027772 C21.3937766,1.4648472 20.082154,0.916995 18.6899649,0.5625024 C18.1163314,2.04814866 16.6854704,3.1084038 15.0000192,3.1084038 C13.3113454,3.1084038 11.8804843,2.04814866 11.3100735,0.5625024 C9.91788438,0.916995 8.60626176,1.4648472 7.40098692,2.18027772 C8.04874158,3.63692004 7.78448346,5.3964924 6.59209926,6.5888766 C5.39971506,7.7812608 3.63692004,8.04551892 2.18350038,7.40098692 C1.4648472,8.60626176 0.916995,9.91788438 0.5625024,11.3100735 C2.04814866,11.883707 3.1084038,13.314568 3.1084038,15.0000192 C3.1084038,16.688693 2.04814866,18.1195541 0.5625024,18.6899649 C0.916995,20.082154 1.4648472,21.3937766 2.18027772,22.5990515 C3.63692004,21.9512968 5.3964924,22.2155549 6.5888766,23.4111618 C7.7812608,24.603546 8.04551892,26.366341 7.39776426,27.8197607 C8.60626176,28.5351912 9.91788438,29.0830434 11.3100735,29.437536 C11.883707,27.9518897 13.314568,26.8916346 15.0000192,26.8916346 C16.688693,26.8916346 18.1195541,27.9518897 18.6899649,29.437536 C20.082154,29.0830434 21.3937766,28.5351912 22.5990515,27.8197607 C21.9512968,26.3631184 22.2155549,24.603546 23.4079391,23.4111618 C24.6003233,22.2187776 26.3631184,21.9545195 27.816538,22.5990515 C28.5351912,21.3937766 29.0830434,20.082154 29.437536,18.6899649 C27.9518897,18.1195541 26.8916346,16.688693 26.8916346,15.0000192 Z M15.0000192,18.963891 C12.8118331,18.963891 11.0361474,17.1882053 11.0361474,15.0000192 C11.0361474,12.8118331 12.8118331,11.0361474 15.0000192,11.0361474 C17.1882053,11.0361474 18.963891,12.8118331 18.963891,15.0000192 C18.963891,17.1882053 17.1882053,18.963891 15.0000192,18.963891 Z" id="形状"></path>
                        </g>
                    </g>
                </g>
            </g>
        </g>
    </g>
</svg>