<?xml version="1.0" encoding="UTF-8"?>
<svg width="24px" height="30px" viewBox="0 0 24 30" version="1.1" xmlns="http://www.w3.org/2000/svg" xmlns:xlink="http://www.w3.org/1999/xlink">
    <!-- Generator: Sketch 58 (84663) - https://sketch.com -->
    <title>通知</title>
    <desc>Created with Sketch.</desc>
    <g id="网页" stroke="none" stroke-width="1" fill="none" fill-rule="evenodd">
        <g id="网页第四版-效果图2" transform="translate(-1503.000000, -35.000000)">
            <g id="上部分">
                <g id="通知" transform="translate(1499.000000, 34.000000)">
                    <g>
                        <g id="收藏">
                            <rect id="矩形备份-4" x="0" y="0" width="32" height="32"></rect>
                        </g>
                        <path d="M11.1720192,28.8566692 C10.6069451,28.8693876 10.1589409,29.3481923 10.1713761,29.926109 C10.1714263,30.5283344 10.6114268,31 11.1720178,31 L20.5,31 C21.0650742,30.9872816 21.5130783,30.508477 21.5006403,29.9305603 C21.5005901,29.3283349 21.0605896,28.8566692 20.4999986,28.8566692 L11.1720192,28.8566692 Z M27.4145087,25.1851181 C27.425916,25.1151182 27.4356938,25.0584515 27.4356938,25.0001184 C27.4356938,24.8967853 27.4471012,24.8384519 27.4471012,24.7817852 C27.4471012,24.7234519 27.4471012,24.6767854 27.4356938,24.6201187 C27.4356938,24.5267855 27.425916,24.4934521 27.425916,24.4467856 C27.4047309,24.3667857 27.3933236,24.3084524 27.381916,24.2634526 C27.3703062,24.2127458 27.3561643,24.1626806 27.3395459,24.1134536 C27.3069532,24.031787 27.2857681,23.9967872 27.2743608,23.9634537 C27.2417681,23.8934537 27.2319904,23.8467873 27.2091757,23.8134538 L24.9814754,19.6084685 L24.9814754,13.7084811 C24.9814754,11.8884839 24.3556979,9.97514672 23.2361429,8.31682448 C22.3081543,6.95700257 21.0696446,5.8493919 19.6281387,5.09015079 C19.6038507,4.00846195 19.180656,2.97613848 18.4434031,2.20015711 C18.3912507,2.14015264 18.345621,2.09515259 18.3032509,2.06015275 C18.2598252,2.01426909 18.2129671,1.97191836 18.163103,1.93348638 C18.0881402,1.87515301 18.0555475,1.84181987 18.0229551,1.81681993 C18.0017699,1.79681996 17.9691774,1.78348679 17.9479923,1.76181997 C17.9268071,1.73848665 17.8942146,1.72848653 17.8730295,1.7051533 L17.7752517,1.63348662 C17.6807332,1.57681995 17.6383629,1.5418201 17.5927334,1.51848687 C17.5063633,1.4618202 17.4525855,1.43848697 17.3988078,1.40348713 C16.878582,1.13456043 16.3031839,0.996298354 15.7202921,1.00015383 C15.117331,1.00015383 14.5453303,1.15015371 14.0385162,1.4034873 C13.9823995,1.4295231 13.9284441,1.46017947 13.8771829,1.49515383 C13.8022201,1.54182058 13.7582201,1.57682043 13.7158497,1.59848696 C13.664753,1.6317802 13.6147508,1.66679879 13.5659259,1.70348526 C13.5431111,1.72681858 13.5105185,1.7368187 13.4893335,1.76015193 C13.4681483,1.78348525 13.4355557,1.79515178 13.4143707,1.8184853 C13.381778,1.84181862 13.3491856,1.87515197 13.3165929,1.8984852 C13.2318521,1.96848518 13.1992597,2.00181833 13.1552596,2.03681846 C13.0900745,2.10681845 13.0477041,2.14015159 13.0053338,2.18681835 C12.2677,2.96321845 11.8444745,3.99620695 11.8205953,5.07848165 C10.3810922,5.84070795 9.14322693,6.94774146 8.21259147,8.30515515 C7.08162974,9.96348618 6.46888892,11.8768292 6.46888892,13.6968118 L6.46888892,19.5967992 L4.23629596,23.8001439 C4.21393134,23.8367261 4.19587978,23.8758875 4.1825182,23.9168104 C4.16133304,23.9834769 4.14014781,24.0184771 4.12874046,24.0534769 C4.10618633,24.1016119 4.08817871,24.1518397 4.07496294,24.2034763 L4.03259255,24.398476 C4.01140739,24.468476 4.01140739,24.5151424 4.01140739,24.5601425 C4.01140739,24.6534757 4,24.6984757 4,24.7568088 C4,24.8251421 4,24.8834755 4.01140739,24.9401418 C4.02118517,25.0451417 4.02118517,25.1018083 4.03259255,25.1601417 C4.06932221,25.3700578 4.13864206,25.5726154 4.2379252,25.7601391 C4.46281387,26.1851376 4.84088631,26.496804 5.25970321,26.6351382 C5.34607336,26.6568048 5.39985111,26.6801382 5.44385116,26.6918048 C5.50903626,26.7034715 5.56118434,26.7151381 5.61496208,26.7151381 C5.70133224,26.7151381 5.75510998,26.7268048 5.81051739,26.7268048 L25.6691499,26.7268048 C25.7229276,26.7268048 25.7767054,26.7268048 25.8304831,26.7151381 C25.9168533,26.7034715 25.970631,26.7034715 26.0244088,26.6918048 C26.0800651,26.6850408 26.1344338,26.669876 26.1857417,26.6468051 C26.7720165,26.4498092 27.2267782,25.9716344 27.4030735,25.3668056 C27.3953517,25.3055971 27.3986657,25.2434592 27.4128512,25.1834726 L27.4145087,25.1851181 Z M15.7088909,4.21515233 L15.6534835,4.21515233 C14.9853358,4.21515233 14.3171882,4.271819 13.6930406,4.39848553 C13.9945211,3.52348629 14.7800022,2.8901545 15.7072603,2.8901545 C16.6328885,2.8901545 17.4183696,3.52348629 17.7198511,4.39848553 C17.0742449,4.27276048 16.4182373,4.21136207 15.761041,4.21515221 L15.7072632,4.21515221 L15.7088909,4.21515233 Z M5.99466985,24.5967975 L8.24355658,20.3568024 C8.26637138,20.3101356 8.27614927,20.2651358 8.29896399,20.2184691 C8.30874177,20.1501358 8.30874177,20.0918024 8.30874177,20.0218028 C8.32014915,19.9651361 8.32014915,19.9068027 8.32014915,19.8501363 L8.3641492,17.2334712 C8.38533437,17.1768045 8.35274182,17.0734714 8.35274179,17.0034714 L8.35274179,13.6867976 C8.35274179,10.7701351 10.4745182,7.70513051 13.2742163,6.56512919 C13.9309571,6.33512941 14.4801414,6.19679673 14.9543622,6.12679762 C15.1808806,6.09346448 15.4383628,6.08179757 15.6974733,6.08179757 C15.956584,6.08179757 16.2140642,6.09346421 16.4405843,6.12679762 C16.9131752,6.1967976 17.4639894,6.34679749 18.1207302,6.56512919 C20.9318379,7.70512758 23.0422047,10.7584544 23.0422047,13.6851277 L23.0422047,17.0034714 C23.0422047,17.0734714 23.0324269,17.3618048 23.0536121,17.4301369 L23.0862048,19.8501349 C23.0862048,19.9068015 23.0959826,19.9651349 23.0959826,20.0218013 C23.0959826,20.0801347 23.0959826,20.1501346 23.10739,20.2184676 C23.1285752,20.2651344 23.1399827,20.3101341 23.1611677,20.3568009 L25.4116844,24.5967961 C25.4300789,24.6397198 25.4554221,24.679162 25.4866472,24.7134625 L5.91807739,24.7134625 C5.94089219,24.6784638 5.97185513,24.643464 5.99466985,24.5967975 Z" id="形状" fill="#C0C4CC" fill-rule="nonzero"></path>
                    </g>
                </g>
            </g>
        </g>
    </g>
</svg>