<?xml version="1.0" encoding="UTF-8"?>
<svg width="20px" height="26px" viewBox="0 0 20 26" version="1.1" xmlns="http://www.w3.org/2000/svg" xmlns:xlink="http://www.w3.org/1999/xlink">
    <!-- Generator: Sketch 58 (84663) - https://sketch.com -->
    <title>ICON-BOOK</title>
    <desc>Created with Sketch.</desc>
    <defs>
        <path d="M2.11168421,0.0808906883 C1.04873684,0.0808906883 0.187105263,0.9648583 0.187105263,2.05506073 L0.187105263,2.05506073 L0.187105263,21.3760324 C0.187105263,22.4659919 1.04873684,23.3497166 2.11168421,23.3497166 L2.11168421,23.3497166 L15.9465789,23.3497166 C17.0095263,23.3497166 17.8711579,22.4659919 17.8711579,21.3760324 L17.8711579,21.3760324 L17.8711579,2.05506073 C17.8711579,0.9648583 17.0095263,0.0808906883 15.9465789,0.0808906883 L15.9465789,0.0808906883 L2.11168421,0.0808906883 Z" id="path-1"></path>
        <path d="M2.11168421,0.0808906883 C1.04873684,0.0808906883 0.187105263,0.9648583 0.187105263,2.05506073 L0.187105263,2.05506073 L0.187105263,21.3760324 C0.187105263,22.4659919 1.04873684,23.3497166 2.11168421,23.3497166 L2.11168421,23.3497166 L15.9465789,23.3497166 C17.0095263,23.3497166 17.8711579,22.4659919 17.8711579,21.3760324 L17.8711579,21.3760324 L17.8711579,2.05506073 C17.8711579,0.9648583 17.0095263,0.0808906883 15.9465789,0.0808906883 L15.9465789,0.0808906883 L2.11168421,0.0808906883 Z" id="path-3"></path>
    </defs>
    <g id="网页" stroke="none" stroke-width="1" fill="none" fill-rule="evenodd">
        <g id="网页第四版-效果图2" transform="translate(-807.000000, -38.000000)">
            <g id="上部分">
                <g id="ICON-BOOK" transform="translate(808.000000, 39.000000)">
                    <g>
                        <g id="编组">
                            <mask id="mask-2" fill="white">
                                <use xlink:href="#path-1"></use>
                            </mask>
                            <g id="Clip-2"></g>
                            <path d="M15.9466737,20.7714899 L2.11177895,20.7714899 C1.04883158,20.7714899 0.186963158,19.8875223 0.186963158,18.7975628 L0.186963158,2.05489069 C0.186963158,0.964688259 1.04883158,0.0809635628 2.11177895,0.0809635628 L15.9466737,0.0809635628 C17.0096211,0.0809635628 17.8712526,0.964688259 17.8712526,2.05489069 L17.8712526,18.7975628 C17.8712526,19.8875223 17.0096211,20.7714899 15.9466737,20.7714899 Z" id="Stroke-1" stroke="#FFCB5C" stroke-width="1.57894737" mask="url(#mask-2)"></path>
                        </g>
                        <g id="编组">
                            <mask id="mask-4" fill="white">
                                <use xlink:href="#path-3"></use>
                            </mask>
                            <use id="Clip-4" stroke="#CCCCCC" stroke-width="0.5" xlink:href="#path-3"></use>
                            <polygon id="Stroke-3" stroke="#FFCB5C" stroke-width="1.57894737" stroke-linecap="round" stroke-linejoin="round" mask="url(#mask-4)" points="7.80546316 7.20643725 5.65422632 5.52619433 3.50275263 7.20643725 3.50275263 3.6640081 3.50275263 0.121336032 5.65422632 0.121336032 7.80546316 0.121336032 7.80546316 3.6640081"></polygon>
                        </g>
                        <path d="M15.9466737,23.3498381 L2.11177895,23.3498381 C1.04883158,23.3498381 0.186963158,22.4661134 0.186963158,21.3759109 L0.186963158,2.05493927 C0.186963158,0.964736842 1.04883158,0.0810121457 2.11177895,0.0810121457 L15.9466737,0.0810121457 C17.0096211,0.0810121457 17.8712526,0.964736842 17.8712526,2.05493927 L17.8712526,21.3759109 C17.8712526,22.4661134 17.0096211,23.3498381 15.9466737,23.3498381 Z" id="Stroke-5" stroke="#FFCB5C" stroke-width="1.57894737"></path>
                    </g>
                </g>
            </g>
        </g>
    </g>
</svg>