<?xml version="1.0" encoding="UTF-8"?>
<svg width="28px" height="28px" viewBox="0 0 28 28" version="1.1" xmlns="http://www.w3.org/2000/svg" xmlns:xlink="http://www.w3.org/1999/xlink">
    <!-- Generator: Sketch 56.3 (81716) - https://sketch.com -->
    <title>所有项目</title>
    <desc>Created with Sketch.</desc>
    <defs>
        <linearGradient x1="0%" y1="0%" x2="73.1449286%" y2="100%" id="linearGradient-1">
            <stop stop-color="#53E0FF" offset="0%"></stop>
            <stop stop-color="#076DD4" offset="100%"></stop>
        </linearGradient>
    </defs>
    <g id="组件" stroke="none" stroke-width="1" fill="none" fill-rule="evenodd">
        <g id="所有项目点击" transform="translate(-2.000000, -2.000000)">
            <g id="所有项目">
                <rect id="矩形" x="0" y="0" width="32" height="32"></rect>
                <path d="M4,2 L13,2 C14.1045695,2 15,2.8954305 15,4 L15,13 C15,14.1045695 14.1045695,15 13,15 L4,15 C2.8954305,15 2,14.1045695 2,13 L2,4 C2,2.8954305 2.8954305,2 4,2 Z M4,17 L13,17 C14.1045695,17 15,17.8954305 15,19 L15,28 C15,29.1045695 14.1045695,30 13,30 L4,30 C2.8954305,30 2,29.1045695 2,28 L2,19 C2,17.8954305 2.8954305,17 4,17 Z M19,2 L28,2 C29.1045695,2 30,2.8954305 30,4 L30,13 C30,14.1045695 29.1045695,15 28,15 L19,15 C17.8954305,15 17,14.1045695 17,13 L17,4 C17,2.8954305 17.8954305,2 19,2 Z M19,17 L28,17 C29.1045695,17 30,17.8954305 30,19 L30,28 C30,29.1045695 29.1045695,30 28,30 L19,30 C17.8954305,30 17,29.1045695 17,28 L17,19 C17,17.8954305 17.8954305,17 19,17 Z" id="形状" fill="url(#linearGradient-1)"></path>
            </g>
        </g>
    </g>
</svg>