<?xml version="1.0" encoding="UTF-8"?>
<svg width="32px" height="32px" viewBox="0 0 32 32" version="1.1" xmlns="http://www.w3.org/2000/svg" xmlns:xlink="http://www.w3.org/1999/xlink">
    <!-- Generator: Sketch 55.2 (78181) - https://sketchapp.com -->
    <title>密码备份</title>
    <desc>Created with Sketch.</desc>
    <defs>
        <linearGradient x1="13.2653061%" y1="0%" x2="67.0044374%" y2="100%" id="linearGradient-1">
            <stop stop-color="#53E0FF" offset="0%"></stop>
            <stop stop-color="#076DD4" offset="100%"></stop>
        </linearGradient>
    </defs>
    <g id="密码备份" stroke="none" stroke-width="1" fill="none" fill-rule="evenodd">
        <g id="密码">
            <rect id="矩形备份-5" x="0" y="0" width="32" height="32"></rect>
            <path d="M24,12 L26,12 C27.1045695,12 28,12.8954305 28,14 L28,28 C28,29.1045695 27.1045695,30 26,30 L6,30 C4.8954305,30 4,29.1045695 4,28 L4,14 C4,12.8954305 4.8954305,12 6,12 L8,12 L8,10 C8,5.581722 11.581722,2 16,2 C20.418278,2 24,5.581722 24,10 L24,12 Z M22,12 L22,10 C22,6.6862915 19.3137085,4 16,4 C12.6862915,4 10,6.6862915 10,10 L10,12 L22,12 Z M15,20.7324356 L15,24 C15,24.5522847 15.4477153,25 16,25 C16.5522847,25 17,24.5522847 17,24 L17,20.7324356 C17.5978014,20.3866262 18,19.7402824 18,19 C18,17.8954305 17.1045695,17 16,17 C14.8954305,17 14,17.8954305 14,19 C14,19.7402824 14.4021986,20.3866262 15,20.7324356 Z" id="形状结合" fill="url(#linearGradient-1)"></path>
        </g>
    </g>
</svg>