<?xml version="1.0" encoding="UTF-8"?>
<svg width="32px" height="32px" viewBox="0 0 32 32" version="1.1" xmlns="http://www.w3.org/2000/svg" xmlns:xlink="http://www.w3.org/1999/xlink">
    <!-- Generator: Sketch 55.2 (78181) - https://sketchapp.com -->
    <title>垃圾桶备份</title>
    <desc>Created with Sketch.</desc>
    <defs>
        <linearGradient x1="0%" y1="6.44444444%" x2="73.1449286%" y2="93.5555556%" id="linearGradient-1">
            <stop stop-color="#53E0FF" offset="0%"></stop>
            <stop stop-color="#076DD4" offset="100%"></stop>
        </linearGradient>
    </defs>
    <g id="垃圾桶备份" stroke="none" stroke-width="1" fill="none" fill-rule="evenodd">
        <g id="垃圾桶">
            <rect id="矩形备份-9" x="0" y="0" width="32" height="32"></rect>
            <g id="编组" transform="translate(1.000000, 2.000000)" fill="url(#linearGradient-1)">
                <path d="M24,4 L29,4 C29.5522847,4 30,4.44771525 30,5 C30,5.55228475 29.5522847,6 29,6 L1,6 C0.44771525,6 6.76353751e-17,5.55228475 0,5 C-6.76353751e-17,4.44771525 0.44771525,4 1,4 L6,4 L6,2 C6,0.8954305 6.8954305,2.02906125e-16 8,0 L22,0 C23.1045695,-2.02906125e-16 24,0.8954305 24,2 L24,4 Z M6,8 L24,8 C25.1045695,8 26,8.8954305 26,10 L26,26 C26,27.1045695 25.1045695,28 24,28 L6,28 C4.8954305,28 4,27.1045695 4,26 L4,10 C4,8.8954305 4.8954305,8 6,8 Z M12,12 C11.4477153,12 11,12.4477153 11,13 L11,23 C11,23.5522847 11.4477153,24 12,24 C12.5522847,24 13,23.5522847 13,23 L13,13 C13,12.4477153 12.5522847,12 12,12 Z M18,12 C17.4477153,12 17,12.4477153 17,13 L17,23 C17,23.5522847 17.4477153,24 18,24 C18.5522847,24 19,23.5522847 19,23 L19,13 C19,12.4477153 18.5522847,12 18,12 Z" id="形状结合"></path>
            </g>
        </g>
    </g>
</svg>