<?xml version="1.0" standalone="no"?><!DOCTYPE svg PUBLIC "-//W3C//DTD SVG 1.1//EN"
        "http://www.w3.org/Graphics/SVG/1.1/DTD/svg11.dtd">
<svg class="icon" width="200px" height="200.00px" viewBox="0 0 1024 1024" version="1.1"
     xmlns="http://www.w3.org/2000/svg">
    <path fill="#5FE1FF"
          d="M51.2 0h921.6a51.2 51.2 0 0 1 51.2 51.2v307.2a51.2 51.2 0 0 1-51.2 51.2H51.2a51.2 51.2 0 0 1-51.2-51.2V51.2a51.2 51.2 0 0 1 51.2-51.2z m76.8 102.4a25.6 25.6 0 0 0-25.6 25.6v153.6a25.6 25.6 0 0 0 25.6 25.6h768a25.6 25.6 0 0 0 25.6-25.6v-153.6a25.6 25.6 0 0 0-25.6-25.6h-768zM51.2 512h307.2a51.2 51.2 0 0 1 51.2 51.2v409.6a51.2 51.2 0 0 1-51.2 51.2H51.2a51.2 51.2 0 0 1-51.2-51.2v-409.6a51.2 51.2 0 0 1 51.2-51.2z m76.8 102.4a25.6 25.6 0 0 0-25.6 25.6v256a25.6 25.6 0 0 0 25.6 25.6h153.6a25.6 25.6 0 0 0 25.6-25.6v-256a25.6 25.6 0 0 0-25.6-25.6h-153.6z m435.2-102.4h409.6a51.2 51.2 0 0 1 0 102.4h-409.6a51.2 51.2 0 0 1 0-102.4z m0 204.8h409.6a51.2 51.2 0 0 1 0 102.4h-409.6a51.2 51.2 0 0 1 0-102.4z m0 204.8h409.6a51.2 51.2 0 0 1 0 102.4h-409.6a51.2 51.2 0 0 1 0-102.4z"/>
</svg>
