<?xml version="1.0" encoding="UTF-8"?>
<svg width="24px" height="22px" viewBox="0 0 24 22" version="1.1" xmlns="http://www.w3.org/2000/svg" xmlns:xlink="http://www.w3.org/1999/xlink">
    <!-- Generator: Sketch 58 (84663) - https://sketch.com -->
    <title>收藏-999</title>
    <desc>Created with Sketch.</desc>
    <g id="网页" stroke="none" stroke-width="1" fill="none" fill-rule="evenodd">
        <g id="网页第四版-效果图2" transform="translate(-625.000000, -287.000000)">
            <g id="下中" transform="translate(300.000000, 100.000000)">
                <g id="内容备份" transform="translate(30.000000, 169.000000)">
                    <g id="收藏-999" transform="translate(294.000000, 16.000000)">
                        <g id="收藏">
                            <rect id="矩形备份-4" x="0" y="0" width="25.6" height="25.6"></rect>
                            <path d="M12.482082,20.7882527 L6.7654814,23.7936475 C6.37440573,23.9992481 5.89070401,23.8488909 5.68510336,23.4578153 C5.6032321,23.3020869 5.57498036,23.1237124 5.60472184,22.9503063 L6.6964954,16.584778 C6.74100575,16.3252627 6.65496697,16.0604626 6.4664181,15.8766728 L1.84159106,11.3685807 C1.5252042,11.0601797 1.51873035,10.5536891 1.82713132,10.2373022 C1.9499382,10.1113153 2.11085213,10.0293256 2.28496176,10.004026 L8.67631553,9.07530789 C8.93688366,9.03744513 9.16213613,8.87378963 9.27866574,8.63767485 L12.136966,2.84612586 C12.3325039,2.44992293 12.8122045,2.28725173 13.2084075,2.48278956 C13.3661776,2.56065376 13.4938796,2.68835577 13.5717438,2.84612586 L16.4300441,8.63767485 C16.5465737,8.87378963 16.7718261,9.03744513 17.0323943,9.07530789 L23.4237481,10.004026 C23.8609839,10.0675601 24.1639291,10.4735143 24.100395,10.9107502 C24.0750954,11.0848598 23.9931057,11.2457738 23.8671188,11.3685807 L19.2422917,15.8766728 C19.0537428,16.0604626 18.9677041,16.3252627 19.0122144,16.584778 L20.103988,22.9503063 C20.1786768,23.3857755 19.8862065,23.7993402 19.4507374,23.874029 C19.2773313,23.9037705 19.0989568,23.8755188 18.9432284,23.7936475 L13.2266278,20.7882527 C12.9935686,20.6657262 12.7151412,20.6657262 12.482082,20.7882527 Z" id="星形" fill="#A8B1C6"></path>
                        </g>
                    </g>
                </g>
            </g>
        </g>
    </g>
</svg>