<?xml version="1.0" standalone="no"?><!DOCTYPE svg PUBLIC "-//W3C//DTD SVG 1.1//EN"
        "http://www.w3.org/Graphics/SVG/1.1/DTD/svg11.dtd">
<svg class="icon" width="200px" height="200.00px" viewBox="0 0 1024 1024" version="1.1"
     xmlns="http://www.w3.org/2000/svg">
    <path fill="#2234FF"
          d="M763.372313 773.165212h-87.770965a21.942741 21.942741 0 0 0 0 43.885482h87.770965v87.770965a21.942741 21.942741 0 0 0 43.885482 0v-87.770965h87.770964a21.942741 21.942741 0 1 0 0-43.885482h-87.770964v-87.770965a21.942741 21.942741 0 1 0-43.885482 0v87.770965z m21.942741 248.684399c-129.257374 0-234.055906-104.783903-234.055906-234.055905 0-129.257374 104.798532-234.055906 234.055906-234.055906 129.272002 0 234.055906 104.798532 234.055905 234.055906 0 129.272002-104.783903 234.055906-234.055905 234.055905z m-299.884129-936.223622a21.942741 21.942741 0 0 1 43.885482 0v914.280881a21.942741 21.942741 0 1 1-43.885482 0v-914.280881z m102.399458 936.223622a21.942741 21.942741 0 1 1 0-43.885482 21.942741 21.942741 0 0 1 0 43.885482zM219.645815 289.474054a21.942741 21.942741 0 1 1 7.621446-43.212572l86.439771 15.242891a21.942741 21.942741 0 0 1-7.621445 43.212572l-86.439772-15.242891z m-29.256988 146.284941a21.942741 21.942741 0 1 1 7.621445-43.212572l86.439772 15.242891a21.942741 21.942741 0 0 1-7.621445 43.212572l-86.439772-15.242891z"/>
    <path fill="#2234FF"
          d="M203.715385 46.216825L46.225017 939.403419l201.683049 35.54724L405.398433 81.778695 203.715385 46.216825zM196.927764 0.444267l230.501181 40.637957a29.256988 29.256988 0 0 1 23.727418 33.894221L288.589908 996.9958a29.256988 29.256988 0 0 1-33.894221 23.727417L24.194505 980.085261A29.256988 29.256988 0 0 1 0.467088 946.176411L163.033543 24.186313A29.256988 29.256988 0 0 1 196.927764 0.458896z m376.274125 85.167093a21.942741 21.942741 0 0 1 43.885482 0v475.426059a21.942741 21.942741 0 1 1-43.885482 0v-475.426059z m87.770965 0a21.942741 21.942741 0 0 1 43.885482 0v431.540576a21.942741 21.942741 0 1 1-43.885482 0v-431.540576z"/>
</svg>

