<?xml version="1.0" standalone="no"?><!DOCTYPE svg PUBLIC "-//W3C//DTD SVG 1.1//EN" "http://www.w3.org/Graphics/SVG/1.1/DTD/svg11.dtd"><svg t="1597041355013" class="icon" viewBox="0 0 1024 1024" version="1.1" xmlns="http://www.w3.org/2000/svg" p-id="2471" width="48" height="48" xmlns:xlink="http://www.w3.org/1999/xlink"><defs><style type="text/css"></style></defs><path d="M838.156 189.5H185.844c-4.219 0-7.594 3.375-7.594 7.5v56.25c0 4.125 3.375 7.5 7.594 7.5h652.312c4.219 0 7.594-3.375 7.594-7.5V197c0-4.125-3.375-7.5-7.594-7.5z m-320.25 175.313c-3-3.844-8.812-3.844-11.812 0l-105 132.843c-3.844 4.875-0.375 12.094 5.906 12.094h69.281V827c0 4.125 3.375 7.5 7.5 7.5h56.25c4.125 0 7.5-3.375 7.5-7.5V509.844H617c6.281 0 9.75-7.219 5.906-12.094l-105-132.938z" fill="#333333" p-id="2472"></path></svg>