<?xml version="1.0" encoding="iso-8859-1"?>
<!-- Generator: Adobe Illustrator 19.0.0, SVG Export Plug-In . SVG Version: 6.00 Build 0)  -->
<svg version="1.1" id="Capa_1" xmlns="http://www.w3.org/2000/svg" xmlns:xlink="http://www.w3.org/1999/xlink" x="0px" y="0px"
	 viewBox="0 0 511.999 511.999" style="enable-background:new 0 0 511.999 511.999;" xml:space="preserve">
<g>
	<g>
		<path d="M394.538,111.989l5.277-22.636c3.195-13.704-1.469-27.894-12.172-37.029c-8.371-7.145-19.404-10.24-30.274-8.504
			l-14.391,2.307c-0.96,0.154-1.929,0.121-2.877-0.1l-16.825-3.906c-7.037-1.634-14.417-1.403-21.337,0.662l-8.924,2.665
			c-4.595,1.373-9.49-0.17-12.468-3.93c-5.832-7.362-14.083-12.587-23.232-14.711l-24.564-5.703
			c-6.811-1.583-13.762-1.805-20.65-0.659l-0.807,0.133c-6.061,1.007-12.376-0.498-17.333-4.12
			c-5.797-4.237-12.286-7.21-19.288-8.837L141.847,0l-6.895,29.071c-2.144,9.039-0.892,18.519,3.525,26.694L142.388,63
			c1.385,2.563,0.94,4.94,0.552,6.129c-0.388,1.188-1.432,3.369-4.063,4.62c-10.401,4.944-17.89,14.207-20.549,25.413l-3.042,12.827
			h-31l43.244,400.01h256.939l43.244-400.01H394.538z M147.519,106.087c0.548-2.312,2.093-4.222,4.239-5.242
			c9.315-4.429,16.495-12.593,19.7-22.398c3.203-9.805,2.228-20.634-2.676-29.709l-3.91-7.235c-0.912-1.687-1.17-3.643-0.728-5.507
			l0.004-0.02l3.738,0.868c3.039,0.706,5.855,1.996,8.372,3.835c11.425,8.349,25.984,11.813,39.936,9.496l0.808-0.133
			c2.993-0.496,6.009-0.401,8.963,0.285l24.565,5.703c2.559,0.594,4.867,2.056,6.498,4.115c10.645,13.44,28.14,18.953,44.569,14.049
			l8.925-2.665c1.936-0.579,4-0.643,5.968-0.186l16.825,3.906c4.75,1.103,9.599,1.269,14.411,0.499l14.388-2.306
			c2.174-0.354,4.377,0.272,6.05,1.699c2.139,1.825,3.071,4.66,2.432,7.399l-6.864,29.447H146.118L147.519,106.087z
			 M199.429,178.211l-35.356-35.357l0.863-0.863h68.987l0.863,0.863L199.429,178.211z M256,164.067l35.356,35.356L256,234.779
			l-35.356-35.356L256,164.067z M199.43,220.638l35.356,35.356l-35.356,35.356l-35.356-35.356L199.43,220.638z M234.786,369.133
			l-35.357,35.357l-35.356-35.356l35.357-35.357L234.786,369.133z M220.643,312.564l35.356-35.356l35.356,35.356l-35.356,35.356
			L220.643,312.564z M312.569,333.777l35.357,35.357L312.57,404.49l-35.357-35.357L312.569,333.777z M277.213,255.993l35.356-35.356
			l35.356,35.356l-35.356,35.356L277.213,255.993z M277.213,142.855l0.863-0.863h68.987l0.863,0.863l-35.357,35.357L277.213,142.855
			z M125.903,217.824l-3.59-33.21l20.547-20.547l35.357,35.357l-35.356,35.356L125.903,217.824z M139.617,344.678l-6.266-57.961
			l9.509-9.509l35.356,35.356l-35.357,35.357L139.617,344.678z M144.76,392.247l33.456,33.456l-26.928,26.928L144.76,392.247z
			 M164.346,481.999l35.083-35.083l35.083,35.083H164.346z M220.643,425.704L256,390.347l35.357,35.357L256,461.061L220.643,425.704
			z M277.486,481.999l35.083-35.083l35.083,35.083H277.486z M360.711,452.631l-26.928-26.928l33.456-33.456L360.711,452.631z
			 M372.381,344.678l-3.242,3.242l-35.357-35.357l35.356-35.356l9.509,9.509L372.381,344.678z M386.096,217.824l-16.956,16.956
			l-35.356-35.356l35.357-35.357l20.547,20.547L386.096,217.824z"/>
	</g>
</g>
<g>
</g>
<g>
</g>
<g>
</g>
<g>
</g>
<g>
</g>
<g>
</g>
<g>
</g>
<g>
</g>
<g>
</g>
<g>
</g>
<g>
</g>
<g>
</g>
<g>
</g>
<g>
</g>
<g>
</g>
</svg>
