<?xml version="1.0" standalone="no"?><!DOCTYPE svg PUBLIC "-//W3C//DTD SVG 1.1//EN" "http://www.w3.org/Graphics/SVG/1.1/DTD/svg11.dtd"><svg class="icon" width="200px" height="86.20px" viewBox="0 0 2376 1024" version="1.1" xmlns="http://www.w3.org/2000/svg"><path fill="#515151" d="M1569.86763917 250.52993119a59.73335358 59.73335358 0 0 0-10.14843822-74.86698942 47.80448724 47.80448724 0 0 0-71.21711273 10.77158776c-2.31455648 2.58162066-282.73193748 352.79177231-616.56215424 352.791773C548.34717801 539.22630253 255.02169441 186.52355138 252.52909559 183.67486655a49.22882932 49.22882932 0 0 0-71.21711272-5.34128364 56.52858339 56.52858339 0 0 0-5.07421946 74.86699011 1167.42652103 1167.42652103 0 0 0 161.92991009 160.23850382L209.53176363 555.25015278a53.41283438 53.41283438 0 0 0 0.71217139 73.08656201l1.78042811 1.78042743a32.67085071 32.67085071 0 0 0 30.35629422 16.02385025 48.60567979 48.60567979 0 0 0 35.60855604-16.02385025l138.87336994-152.40462138A968.55273399 968.55273399 0 0 0 646.98287896 603.41072536l-53.41283437 189.79360551a54.0359846 54.0359846 0 0 0 34.18421395 66.40995746H644.13419481a49.31785047 49.31785047 0 0 0 48.07155075-40.05962596l53.41283505-189.7936055a652.52679561 652.52679561 0 0 0 126.32135337 13.70929445 658.75829297 658.75829297 0 0 0 126.41037522-13.3532091l53.41283438 186.94492136a51.54338511 51.54338511 0 0 0 48.07155142 40.05962595 17.80427836 17.80427836 0 0 0 12.64103773-2.67064183 53.41283438 53.41283438 0 0 0 35.60855602-65.43072257v-1.42434208l-53.41283438-186.94492135a968.73077633 968.73077633 0 0 0 230.12029564-125.69820384l136.55881347 149.73397954a47.09231586 47.09231586 0 0 0 70.77200622 0 56.43956155 56.43956155 0 0 0 2.49259881-74.86698943l-129.25905938-141.6330336A1019.91807608 1019.91807608 0 0 0 1569.86763917 250.52993119z" /></svg>