<?xml version="1.0" standalone="no"?><!DOCTYPE svg PUBLIC "-//W3C//DTD SVG 1.1//EN" "http://www.w3.org/Graphics/SVG/1.1/DTD/svg11.dtd"><svg class="icon" width="200px" height="112.40px" viewBox="0 0 1822 1024" version="1.1" xmlns="http://www.w3.org/2000/svg"><path fill="#515151" d="M31.550913 492.28068a2.05297 2.05297 0 0 1 1.08051 0.756357c7.563575 5.726707 34.684394 26.148359 70.125146 50.567901a9.616545 9.616545 0 0 1 1.188561 14.694946c-27.553023 26.472512-54.025536 54.025536-79.525588 82.76712-1.188562 1.188562-2.05297 2.485175-3.02543 3.673737a98.002321 98.002321 0 0 0-2.485175 114.858288 56.618761 56.618761 0 0 0 14.694946 14.911048 49.487391 49.487391 0 0 0 36.737364 8.536035c24.527593-3.889839 42.464071-24.635644 54.025536-40.194999 94.436636-119.504485 418.6979-428.74665 786.503746-428.962752a872.944603 872.944603 0 0 1 285.903134 51.000106l80.930252 32.415321a1266.790757 1266.790757 0 0 1 219.235623 126.851957l57.267067 43.220429a970.082516 970.082516 0 0 1 142.735465 134.631634 47.326369 47.326369 0 0 0 4.538145 4.646196l3.673737 3.457635a134.523583 134.523583 0 0 0 36.30516 27.553023 48.947135 48.947135 0 0 0 54.025535-10.156801c38.790334-34.684394 28.957687-84.279835 6.699166-118.856178a69.909043 69.909043 0 0 0-7.779677-9.832647c-32.415321-32.415321-66.667511-64.290387-102.216313-93.78833a9.832647 9.832647 0 0 1-3.457634-7.563575 9.07629 9.07629 0 0 1 4.105941-7.347473c25.932257-18.368682 45.057297-32.415321 50.351799-36.30516l1.404664-0.864408a66.667511 66.667511 0 0 0 31.658963-41.167458 65.587 65.587 0 0 0-8.752136-53.269178 70.773452 70.773452 0 0 0-93.572228-24.419542 388.983856 388.983856 0 0 0-41.815764 28.525482c-15.12715 10.805107-33.819985 25.067848-57.48317 40.951356a10.805107 10.805107 0 0 1-11.777567 0 1532.380289 1532.380289 0 0 0-185.199536-109.347684 10.04875 10.04875 0 0 1-5.0784-5.942809 8.968239 8.968239 0 0 1 0.864409-7.347472l58.56368-98.542577a65.478949 65.478949 0 0 0 7.131371-51.216208 67.099715 67.099715 0 0 0-32.415321-41.38356 71.63786 71.63786 0 0 0-94.868841 24.419542l-67.099715 114.642186a10.805107 10.805107 0 0 1-12.425873 4.322043 1004.87496 1004.87496 0 0 0-242.14245-55.862403 9.940699 9.940699 0 0 1-9.184341-9.616546V67.856073a70.017094 70.017094 0 0 0-139.926137 0v101.135802a9.940699 9.940699 0 0 1-9.184341 9.616545 930.859977 930.859977 0 0 0-238.684816 57.48317 10.805107 10.805107 0 0 1-12.641975-4.105941l-69.800992-118.856178a70.773452 70.773452 0 0 0-94.004432-25.28395h-0.648307a67.531919 67.531919 0 0 0-32.415321 41.38356 64.830643 64.830643 0 0 0 7.131371 51.000105l63.53403 109.023531a9.400443 9.400443 0 0 1-3.889839 13.07418 1532.48834 1532.48834 0 0 0-224.422074 149.650733 10.805107 10.805107 0 0 1-12.209771 0.648306c-51.216208-33.603883-92.81587-63.642081-104.269284-72.178115a53.161127 53.161127 0 0 0-11.885618-6.699166 71.205656 71.205656 0 0 0-87.737469 27.553023 66.55946 66.55946 0 0 0 21.610214 90.979002z m0 0"  /><path fill="#515151" d="M905.684077 786.287644m-237.712356 0a237.712356 237.712356 0 1 0 475.424712 0 237.712356 237.712356 0 1 0-475.424712 0Z"  /></svg>