<?xml version="1.0" standalone="no"?><!DOCTYPE svg PUBLIC "-//W3C//DTD SVG 1.1//EN" "http://www.w3.org/Graphics/SVG/1.1/DTD/svg11.dtd"><svg t="1574306640585" class="icon" viewBox="0 0 1024 1024" version="1.1" xmlns="http://www.w3.org/2000/svg" p-id="6442" xmlns:xlink="http://www.w3.org/1999/xlink" width="200" height="200"><defs><style type="text/css"></style></defs><path d="M740.817455 364.059927h49.896727v40.513164h-41.3696c-22.788655-0.055855-41.313745 18.059636-41.3696 40.513164 0.055855 22.416291 18.580945 40.5504 41.3696 40.494545h41.350982v85.699491c-100.221673 22.360436-162.946327 120.087273-140.101819 218.260945 22.844509 98.173673 122.619345 159.613673 222.841019 137.234619 100.240291-22.360436 162.964945-120.087273 140.120436-218.260946-15.899927-68.328727-70.376727-121.669818-140.120436-137.234618V242.501818h-82.7392v40.513164h-49.896728c-22.788655-0.055855-41.313745 18.078255-41.3696 40.513163 0.055855 22.434909 18.580945 40.587636 41.3696 40.531782z m194.65309 384.856437c0 55.947636-46.2848 101.282909-103.405381 101.282909-57.101964 0-103.405382-45.335273-103.405382-101.282909 0-55.929018 46.303418-101.282909 103.405382-101.282909 57.120582 0 103.405382 45.353891 103.405381 101.282909z" fill="#535252" p-id="6443"></path><path d="M204.8 484.072727h335.127273a37.236364 37.236364 0 1 1 0 74.472728H204.8a37.236364 37.236364 0 1 1 0-74.472728zM204.334545 260.654545h335.127273a37.236364 37.236364 0 1 1 0 74.472728h-335.127273a37.236364 37.236364 0 1 1 0-74.472728zM204.8 707.490909h186.181818a37.236364 37.236364 0 1 1 0 74.472727H204.8a37.236364 37.236364 0 1 1 0-74.472727z" fill="#535252" p-id="6444"></path></svg>