<?xml version="1.0" encoding="utf-8"?>
<!-- Generator: Adobe Illustrator 15.1.0, SVG Export Plug-In . SVG Version: 6.00 Build 0)  -->
<!DOCTYPE svg PUBLIC "-//W3C//DTD SVG 1.1 Basic//EN" "http://www.w3.org/Graphics/SVG/1.1/DTD/svg11-basic.dtd">
<svg version="1.1" baseProfile="basic" id="Layer_1"
	 xmlns="http://www.w3.org/2000/svg" xmlns:xlink="http://www.w3.org/1999/xlink" x="0px" y="0px" width="100px" height="100px"
	 viewBox="0 0 100 100" xml:space="preserve">
<g id="alarm">
	<path fill="#FFFFFF" d="M72.466,35.142c-0.358,0-0.708-0.187-0.897-0.521c-3.013-5.278-7.813-9.307-13.521-11.344
		c-0.537-0.191-0.816-0.783-0.625-1.32c0.19-0.538,0.782-0.818,1.319-0.625c6.171,2.204,11.363,6.559,14.619,12.266
		c0.283,0.495,0.11,1.126-0.386,1.408C72.814,35.099,72.64,35.142,72.466,35.142z"/>
	<path fill="#FFFFFF" d="M21.248,35.142c-0.174,0-0.35-0.043-0.511-0.135c-0.495-0.282-0.667-0.913-0.384-1.408
		c3.251-5.699,8.436-10.048,14.596-12.247c0.537-0.192,1.128,0.087,1.32,0.625c0.192,0.537-0.088,1.128-0.625,1.32
		c-5.697,2.033-10.491,6.055-13.499,11.326C21.956,34.955,21.607,35.142,21.248,35.142z"/>
	<path fill="#FFFFFF" d="M77.789,32.11c-0.358,0-0.706-0.187-0.896-0.521c-3.74-6.553-9.701-11.555-16.784-14.083
		c-0.537-0.192-0.817-0.783-0.626-1.32c0.19-0.537,0.784-0.818,1.319-0.625c7.549,2.694,13.898,8.023,17.884,15.005
		c0.282,0.495,0.109,1.125-0.386,1.408C78.139,32.067,77.963,32.11,77.789,32.11z"/>
	<path fill="#FFFFFF" d="M15.932,32.116c-0.174,0-0.35-0.043-0.511-0.136c-0.495-0.282-0.667-0.914-0.384-1.409
		c3.978-6.972,10.32-12.292,17.856-14.982c0.537-0.191,1.127,0.088,1.32,0.625c0.192,0.538-0.088,1.128-0.625,1.32
		c-7.071,2.524-13.023,7.518-16.758,14.061C16.64,31.929,16.291,32.116,15.932,32.116z"/>
	<path fill="#FFFFFF" d="M81.731,59.753c0.606-0.812,0.972-1.817,0.972-2.91c0-2.688-2.178-4.866-4.865-4.866
		c-2.688,0-4.867,2.178-4.867,4.866c0,2.689,2.179,4.866,4.867,4.866c0.236,0,0.468-0.021,0.694-0.054
		c2.137,4.063,2.432,7.787,0.815,10.518c-1.166,1.969-3.233,3.215-5.781,3.545c-0.213-0.794-0.892-1.392-1.729-1.484v-1.082
		c0-1.824-1.479-3.305-3.305-3.305H67.63c-5.12,5.679-12.535,9.25-20.784,9.25c-8.249,0-15.663-3.571-20.784-9.25h-0.904
		c-1.825,0-3.304,1.479-3.304,3.305v9.045c0,1.824,1.479,3.304,3.304,3.304h43.374c1.825,0,3.305-1.479,3.305-3.304v-1.082
		c0.897-0.1,1.618-0.777,1.773-1.657c3.851-0.387,7.128-2.339,8.936-5.392C84.87,70.138,84.576,65.063,81.731,59.753z"/>
	<path fill="#FFFFFF" d="M46.846,26.121c-13.803,0-24.992,11.189-24.992,24.992c0,13.802,11.189,24.991,24.992,24.991
		c13.801,0,24.992-11.188,24.992-24.991C71.838,37.31,60.647,26.121,46.846,26.121z M46.846,57.645c-3.602,0-6.532-2.93-6.532-6.531
		c0-3.602,2.93-6.533,6.532-6.533c3.602,0,6.533,2.93,6.533,6.533C53.379,54.713,50.448,57.645,46.846,57.645z"/>
	<path fill="#FFFFFF" d="M46.846,46.645c-2.463,0-4.467,2.004-4.467,4.467s2.004,4.467,4.467,4.467s4.466-2.004,4.466-4.467
		S49.31,46.645,46.846,46.645z"/>
</g>
</svg>
