<?xml version="1.0" encoding="utf-8"?>
<!-- Generator: Adobe Illustrator 15.1.0, SVG Export Plug-In . SVG Version: 6.00 Build 0)  -->
<!DOCTYPE svg PUBLIC "-//W3C//DTD SVG 1.1 Basic//EN" "http://www.w3.org/Graphics/SVG/1.1/DTD/svg11-basic.dtd">
<svg version="1.1" baseProfile="basic" id="Layer_1"
	 xmlns="http://www.w3.org/2000/svg" xmlns:xlink="http://www.w3.org/1999/xlink" x="0px" y="0px" width="100px" height="100px"
	 viewBox="0 0 100 100" xml:space="preserve">
<path fill="#FFFFFF" d="M36.058,30.541l3.111,1.712l2.958-1.712l3.034,1.79l3.112-1.945l2.958,1.868l2.956-1.79l3.191,1.867
	l2.879-1.79l3.112,1.79l3.035-1.867l2.763,1.828l1.955-1.342l-5.894-4.115L61.959,28.8l-2.833-1.772
	c-0.854-5.23-5.523-9.528-11.14-9.528c-5.999,0-10.917,4.865-11.261,10.668l-2.024-1.266l-3.026,1.894l-3.027-1.894l-1.935,1.782
	l6.076,3.568L36.058,30.541z M47.987,20.545c4.499,0,8.161,3.109,8.236,8.049L55.9,28.797l-3.031-1.894l-3.024,1.894l-3.031-1.894
	l-3.029,1.894l-3.029-1.894l-0.92,0.576C40.422,23.184,43.854,20.545,47.987,20.545z"/>
<polygon fill="#FFFFFF" points="25.798,76.846 28.785,81.58 28.857,31.889 25.884,30.161 "/>
<polygon fill="#FFFFFF" points="72.132,32.513 69.308,34.364 66.412,32.504 63.478,34.361 60.523,32.503 57.565,34.36 
	54.597,32.501 51.628,34.36 48.657,32.503 45.688,34.36 42.717,32.503 39.748,34.36 36.778,32.503 33.646,34.36 30.507,32.5 
	30.507,37.904 30.507,82.5 74.201,82.5 74.201,37.904 74.201,34.004 "/>
</svg>
