<?xml version="1.0" encoding="utf-8"?>
<!-- Generator: Adobe Illustrator 15.1.0, SVG Export Plug-In . SVG Version: 6.00 Build 0)  -->
<!DOCTYPE svg PUBLIC "-//W3C//DTD SVG 1.1 Basic//EN" "http://www.w3.org/Graphics/SVG/1.1/DTD/svg11-basic.dtd">
<svg version="1.1" baseProfile="basic" id="Layer_1"
	 xmlns="http://www.w3.org/2000/svg" xmlns:xlink="http://www.w3.org/1999/xlink" x="0px" y="0px" width="100px" height="100px"
	 viewBox="0 0 100 100" xml:space="preserve">
<g id="default">
	<path fill="#FFFFFF" d="M21.631,21.463v56.402c0,3.262,2.596,5.86,5.858,5.86H44v-3.917H27.489c-1.102,0-1.98-0.84-1.98-1.943
		V21.463c0-1.055,0.884-1.939,1.98-1.939h29.149v13.957c0,0.879,0.742,1.634,1.621,1.634h13.918v12.282l3.917,4.537V34.106
		l-0.098-0.09c0.054-0.181,0.098-0.354,0.098-0.53L58.26,15.659c-0.166,0-0.391,0.044-0.576,0.09l-0.078-0.09H27.489
		C24.227,15.654,21.631,18.25,21.631,21.463z"/>
	<g>
		<path fill="#FFFFFF" d="M75.26,63.508H51.662c-1.541,0-2.815,1.24-2.815,2.783v16.604c0,1.523,1.274,2.764,2.815,2.764H75.26
			c1.548,0,2.778-1.24,2.778-2.764V66.291C78.038,64.748,76.808,63.508,75.26,63.508z"/>
		<path fill="#FFFFFF" d="M57.479,59.864c0.039-1.24,0-5.826,5.978-5.826c5.943,0,5.909,4.635,5.943,5.826v2.286h4.448v-2.286
			c0,0,0-10.177-10.392-10.177c-10.432,0-10.432,10.177-10.432,10.177v2.286h4.454V59.864z"/>
	</g>
</g>
</svg>
