<?xml version="1.0" encoding="utf-8"?>
<!-- Generator: Adobe Illustrator 15.1.0, SVG Export Plug-In . SVG Version: 6.00 Build 0)  -->
<!DOCTYPE svg PUBLIC "-//W3C//DTD SVG 1.1 Basic//EN" "http://www.w3.org/Graphics/SVG/1.1/DTD/svg11-basic.dtd">
<svg version="1.1" baseProfile="basic" id="Layer_1"
	 xmlns="http://www.w3.org/2000/svg" xmlns:xlink="http://www.w3.org/1999/xlink" x="0px" y="0px" width="100px" height="100px"
	 viewBox="0 0 100 100" xml:space="preserve">
<path id="key" fill="#FFFFFF" d="M92.148,44.594l-47.111-0.263c-2.637-7.806-9.88-13.078-18.153-13.164l-0.204-0.001
	c-10.562,0-19.242,8.609-19.352,19.19c-0.11,10.685,8.487,19.467,19.166,19.579l0.205,0.001c8.172,0,15.436-5.124,18.204-12.791
	l2.208,0.025c0.444,0.765,1.661,2.717,2.845,3.341c0.309,0.164,0.76,0.244,1.382,0.244c0.383,0,0.691-0.032,0.691-0.032l0.483-0.05
	l0.106-3.535l3.362,0.117l2.778,3.374l3.567-3.309l2.897,0.034l2.843-2.196l2.785,2.386l3.03-1.775l3.252,1.606l2.458,3.064
	l2.737-3.065l3.171-1.366l3.885,3.317l2.388-1.807l5.555-8.149L92.148,44.594z M17.124,44.016l0.061,0.552
	c1.567,0.017,3.035,0.643,4.131,1.763c1.1,1.125,1.697,2.609,1.681,4.179c-0.034,3.209-2.667,5.821-5.934,5.821c0,0,0,0,0,0
	c-3.238-0.034-5.845-2.7-5.812-5.943c0.033-3.21,2.668-5.821,5.873-5.821L17.124,44.016C17.123,44.016,17.123,44.016,17.124,44.016z
	"/>
</svg>
