<?xml version="1.0" encoding="utf-8"?>
<!-- Generator: Adobe Illustrator 15.1.0, SVG Export Plug-In . SVG Version: 6.00 Build 0)  -->
<!DOCTYPE svg PUBLIC "-//W3C//DTD SVG 1.1//EN" "http://www.w3.org/Graphics/SVG/1.1/DTD/svg11.dtd">
<svg version="1.1" id="Layer_1" xmlns="http://www.w3.org/2000/svg" xmlns:xlink="http://www.w3.org/1999/xlink" x="0px" y="0px"
	 width="100px" height="100px" viewBox="0 0 100 100" enable-background="new 0 0 100 100" xml:space="preserve">
<g>
	<polygon id="_118148960" fill="#FFFFFF" points="72.461,35.222 72.461,64.859 83.633,64.859 89.688,64.859 89.688,35.222 
		83.961,35.222 72.523,35.222 	"/>
	<polygon id="_118148960-1" fill="#FFFFFF" points="10.082,35.184 10.02,35.184 10.02,64.82 21.535,64.82 27.773,64.82 
		27.773,35.184 21.875,35.184 	"/>
	<path fill="#FFFFFF" d="M40.816,35.222H30.094v29.637h10.313h28.46h0.727h0.719h0.094V35.222H40.816z M61.484,51.25l-19.152,9.688
		c-1.012,0.516-1.84,0.211-1.84-0.672V40.379l0,0c0-0.884,0.828-1.188,1.84-0.676l19.152,9.69C62.5,49.907,62.5,50.742,61.484,51.25
		z"/>
	<path fill="#FFFFFF" d="M89.922,26.473v-2.054H49.316H47.98H9.93l0.031,2.031h1.516v4.402h-0.11v0.008l-1.215,0.003v-0.011h-0.129
		l0.035,2.313h4.579h32.218h1.117h1.121h0.148h27.11h13.57V30.86h-4.32v-4.39L89.922,26.473z M21.36,30.859h-6.676l0,0l0.004-4.39
		l6.672,0.004V30.859z M24.667,30.859l0.004-4.39l6.668,0.008l0.004,4.383L24.667,30.859L24.667,30.859z M34.648,30.855v-4.383
		h6.672l0.008,4.386L34.648,30.855z M52.328,30.863h-3.016h-1.34h-3.336l-0.004-4.391h3.348h1.328h3.028L52.328,30.863z
		 M62.313,30.863l-6.664-0.004l-0.008-4.386l6.68-0.004L62.313,30.863z M65.633,30.863v-4.391l6.664,0.004v4.383L65.633,30.863z
		 M82.289,30.859h-6.672v-4.39l6.672,0.004V30.859z"/>
	<path fill="#FFFFFF" d="M89.906,68.93v-2.063H49.301h-1.333H9.922l0.027,2.031h1.516v4.406h-0.11v0.008H10.14v-0.008h-0.128
		l0.035,2.313h4.578l0,0h32.219h1.117h1.121h0.149h27.114h13.563v-2.305h-4.32l0.008-4.391L89.906,68.93z M21.348,73.313h-6.676
		l0.004-4.391h6.672V73.313z M24.656,73.313l0.004-4.391l6.668,0.008l0.004,4.384L24.656,73.313L24.656,73.313z M34.636,73.313
		v-4.391h6.672l0.008,4.391H34.636z M52.316,73.313H49.3h-1.34h-3.336l-0.004-4.391h3.348h1.328h3.027L52.316,73.313z
		 M62.305,73.313h-6.672v-4.391h6.672V73.313z M65.625,73.313v-4.391l6.656,0.008l0.008,4.384L65.625,73.313L65.625,73.313z
		 M82.281,73.313h-6.68l0.008-4.391h6.672V73.313z"/>
</g>
</svg>
