<?xml version="1.0" encoding="utf-8"?>
<!-- Generator: Adobe Illustrator 15.1.0, SVG Export Plug-In . SVG Version: 6.00 Build 0)  -->
<!DOCTYPE svg PUBLIC "-//W3C//DTD SVG 1.1 Basic//EN" "http://www.w3.org/Graphics/SVG/1.1/DTD/svg11-basic.dtd">
<svg version="1.1" baseProfile="basic" id="Layer_1"
	 xmlns="http://www.w3.org/2000/svg" xmlns:xlink="http://www.w3.org/1999/xlink" x="0px" y="0px" width="100px" height="100px"
	 viewBox="0 0 100 100" xml:space="preserve">
<path id="music" fill="#FFFFFF" d="M56.265,20.074c-14.381,3.834-23.514,7.991-23.514,7.991v10.212v2.496v29.051
	c-2.119-0.729-4.689-0.841-7.3-0.161c-5.646,1.47-9.334,6.075-8.237,10.288c1.097,4.211,6.562,6.436,12.208,4.966
	c4.784-1.246,8.161-4.742,8.414-8.346h0.007v-0.131c0.01-0.215,0.012-0.429,0-0.645V38.986c4.495-1.455,11.559-3.468,19.522-4.722
	c8.517-1.341,15.264-1.668,19.523-1.7v31.298c-2.12-0.734-4.695-0.848-7.31-0.167c-5.646,1.47-9.335,6.076-8.239,10.287
	c1.097,4.214,6.563,6.437,12.208,4.967c5.09-1.325,8.589-5.2,8.425-9.037h0.007V32.69v-1.074V15.369
	C81.979,15.369,69.731,16.483,56.265,20.074z M37.908,35.682l-0.065-4.441c0,0,11.454-4.398,19.795-6.429
	c12.812-3.119,19.25-3.312,19.25-3.312v6.15c0,0-6.57,0.289-19.523,2.975C46.823,32.809,37.908,35.682,37.908,35.682z"/>
</svg>
