<?xml version="1.0" encoding="utf-8"?>
<!-- Generator: Adobe Illustrator 15.1.0, SVG Export Plug-In . SVG Version: 6.00 Build 0)  -->
<!DOCTYPE svg PUBLIC "-//W3C//DTD SVG 1.1 Basic//EN" "http://www.w3.org/Graphics/SVG/1.1/DTD/svg11-basic.dtd">
<svg version="1.1" baseProfile="basic" id="Layer_1"
	 xmlns="http://www.w3.org/2000/svg" xmlns:xlink="http://www.w3.org/1999/xlink" x="0px" y="0px" width="100px" height="100px"
	 viewBox="0 0 100 100" xml:space="preserve">
<g id="safe">
	<g>
		<path fill="#FFFFFF" d="M49.998,41.666c-4.595,0-8.335,3.739-8.335,8.334c0,4.595,3.74,8.334,8.335,8.334
			c4.595,0,8.334-3.739,8.334-8.334C58.332,45.405,54.593,41.666,49.998,41.666z"/>
		<path fill="#FFFFFF" d="M68.981,50C68.984,50,69,49.945,69,49.833c0-4.499-1.574-8.541-4.186-11.797l-4.195,4.239l-1.886-1.864
			l4.375-4.253c-3.146-2.961-7.777-4.838-11.778-5.104v5.611h-2.666v-5.589c-5.334,0.369-8.718,2.317-11.791,5.304l3.999,4.054
			l-1.915,1.885L35,38.376c-2.493,3.215-4,7.075-4,11.458c0,0.112,0.009,0.167,0.011,0.167h5.651v2.668h-5.409
			c0.61,4,2.363,7.458,4.911,10.167l3.709-3.626l1.886,1.927l-3.53,3.662c2.873,2.307,6.434,3.81,10.434,4.126v-5.59h2.666v5.611
			c4.001-0.229,7.463-1.655,10.403-3.937l-3.886-3.833l1.856-1.885l3.931,3.776c2.664-2.743,4.478-6.4,5.107-10.4h-5.409V50H68.981z
			 M49.998,59.668c-5.332,0-9.668-4.337-9.668-9.668c0-5.332,4.336-9.668,9.668-9.668c5.33,0,9.668,4.336,9.668,9.668
			C59.666,55.331,55.328,59.668,49.998,59.668z"/>
	</g>
	<path fill="#FFFFFF" d="M76.647,87.5H23.354c-5.985,0-10.854-4.869-10.854-10.854V23.354c0-5.985,4.869-10.854,10.854-10.854
		h53.293c5.983,0,10.853,4.869,10.853,10.854v53.293C87.5,82.631,82.631,87.5,76.647,87.5z M23.354,17.38
		c-3.294,0-5.974,2.68-5.974,5.974v53.293c0,3.294,2.68,5.974,5.974,5.974h53.293c3.294,0,5.974-2.68,5.974-5.974V23.354
		c0-3.294-2.68-5.974-5.974-5.974H23.354z"/>
</g>
</svg>
