<?xml version="1.0" encoding="utf-8"?>
<!-- Generator: Adobe Illustrator 15.1.0, SVG Export Plug-In . SVG Version: 6.00 Build 0)  -->
<!DOCTYPE svg PUBLIC "-//W3C//DTD SVG 1.1 Basic//EN" "http://www.w3.org/Graphics/SVG/1.1/DTD/svg11-basic.dtd">
<svg version="1.1" baseProfile="basic" id="Layer_1"
	 xmlns="http://www.w3.org/2000/svg" xmlns:xlink="http://www.w3.org/1999/xlink" x="0px" y="0px" width="100px" height="100px"
	 viewBox="0 0 100 100" xml:space="preserve">
<g id="sale">
	<path fill="#FFFFFF" d="M85.181,60.935l-7.988-9.986l7.787-9.343c0.597-0.718,0.768-1.7,0.444-2.579
		c-0.32-0.881-1.086-1.519-2.005-1.682l-11.002-1.925l0.843-12.464c0.057-0.892-0.342-1.754-1.057-2.285
		c-0.724-0.532-1.664-0.653-2.499-0.338l-11.658,4.496l-5.571-10.444C52.033,13.55,51.17,13.02,50.225,13
		c-0.969,0.016-1.827,0.468-2.31,1.279l-6.17,10.375l-11.225-4.63c-0.847-0.349-1.811-0.232-2.542,0.31
		c-0.739,0.538-1.142,1.418-1.07,2.328l0.984,12.056l-11.606,2.656c-0.94,0.214-1.69,0.93-1.946,1.86
		c-0.25,0.93,0.023,1.925,0.721,2.592l8.224,7.819l-9.284,9.423c-0.685,0.695-0.928,1.715-0.627,2.644
		c0.299,0.932,1.093,1.614,2.057,1.777l12.304,2.078L25.761,79.35c-0.14,0.992,0.297,1.979,1.129,2.543
		c0.829,0.56,1.909,0.597,2.777,0.096l11.48-6.641l6.044,11.272c0.45,0.84,1.326,1.369,2.281,1.38c0.01,0,0.018,0,0.028,0
		c0.941,0,1.815-0.512,2.279-1.333l6.088-10.795l10.754,5.511c0.819,0.422,1.798,0.378,2.584-0.111
		c0.783-0.49,1.248-1.356,1.229-2.279l-0.287-12.445L83.45,65.17c0.945-0.114,1.751-0.729,2.108-1.61
		C85.917,62.682,85.772,61.674,85.181,60.935z M69.158,61.637c-1.336,0.161-2.333,1.313-2.302,2.657l0.237,10.421l-9.074-4.649
		c-1.253-0.643-2.785-0.183-3.476,1.042l-4.986,8.84l-5.077-9.463c-0.333-0.622-0.907-1.085-1.591-1.278
		c-0.235-0.067-0.476-0.102-0.713-0.102c-0.458,0-0.912,0.122-1.315,0.354l-9.149,5.294l1.571-10.976
		c0.199-1.408-0.759-2.718-2.16-2.956l-9.86-1.661l7.625-7.739c0.493-0.5,0.765-1.178,0.754-1.883
		c-0.013-0.7-0.305-1.37-0.812-1.853l-6.619-6.294l9.059-2.072c1.269-0.29,2.134-1.468,2.028-2.765l-0.819-10.056l9.364,3.86
		c1.199,0.494,2.583,0.037,3.248-1.083l4.954-8.322l4.469,8.384c0.623,1.166,2.021,1.68,3.254,1.215l9.988-3.85l-0.724,10.715
		c-0.09,1.335,0.844,2.524,2.161,2.757l8.865,1.553l-6.263,7.511c-0.795,0.956-0.811,2.343-0.033,3.313l6.391,7.989L69.158,61.637z"
		/>
	<path fill="#FFFFFF" d="M58.138,37.342c-0.604-0.395-1.418-0.232-1.813,0.38L40.486,61.845c-0.398,0.604-0.228,1.415,0.375,1.813
		c0.225,0.145,0.47,0.214,0.721,0.214c0.426,0,0.842-0.206,1.093-0.592l15.838-24.125C58.911,38.553,58.74,37.74,58.138,37.342z"/>
	<path fill="#FFFFFF" d="M45.971,44.665c0-2.344-1.896-4.235-4.237-4.235c-2.338,0-4.232,1.891-4.232,4.235
		c0,2.338,1.894,4.232,4.232,4.232C44.075,48.896,45.971,47.003,45.971,44.665z"/>
	<path fill="#FFFFFF" d="M57.265,52.101c-2.341,0-4.237,1.896-4.237,4.237c0,2.339,1.896,4.235,4.237,4.235
		c2.338,0,4.238-1.896,4.238-4.235C61.503,53.996,59.603,52.101,57.265,52.101z"/>
</g>
</svg>
