<?xml version="1.0" encoding="utf-8"?>
<!-- Generator: Adobe Illustrator 15.1.0, SVG Export Plug-In . SVG Version: 6.00 Build 0)  -->
<!DOCTYPE svg PUBLIC "-//W3C//DTD SVG 1.1 Basic//EN" "http://www.w3.org/Graphics/SVG/1.1/DTD/svg11-basic.dtd">
<svg version="1.1" baseProfile="basic" id="Layer_1"
	 xmlns="http://www.w3.org/2000/svg" xmlns:xlink="http://www.w3.org/1999/xlink" x="0px" y="0px" width="100px" height="100px"
	 viewBox="0 0 100 100" xml:space="preserve">
<g id="shopping_x5F_cart">
	<path fill="#FFFFFF" d="M84.849,27.341c-0.572-0.694-1.425-1.096-2.326-1.096H31.056l-2.477-8.321
		c-0.381-1.28-1.556-2.156-2.891-2.156h-9.208c-1.666,0-3.017,1.351-3.017,3.017c0,1.666,1.351,3.016,3.017,3.016h6.958
		l11.274,37.868c-1.222,2.24-2.381,5.448-1.067,8.135c1.164,2.38,3.793,3.586,7.814,3.586c0.073,0,0.146-0.003,0.218-0.011
		c0.262-0.023,26.25-2.406,35.209-1.899c1.306,0.071,2.438-0.929,2.512-2.243c0.074-1.313-0.931-2.438-2.244-2.51
		c-9.097-0.514-33.663,1.703-35.801,1.899c-2.205-0.014-3.226-0.499-3.43-0.914c-0.227-0.462-0.065-1.336,0.317-2.325
		c0.064-0.004,0.127-0.005,0.193-0.013l39.371-4.762c1.301-0.158,2.352-1.138,2.599-2.425l5.082-26.353
		C85.654,28.949,85.422,28.035,84.849,27.341z M62.996,41.974H50.612v-9.696h12.384V41.974z M36.59,44.831h11.165v11.338l-7.52,0.91
		L36.59,44.831z M50.612,44.831h12.384v9.493l-12.384,1.499V44.831z M77.002,41.974H65.854v-9.696H78.87L77.002,41.974z
		 M47.755,32.278v9.696H35.739l-2.886-9.696H47.755z M65.854,53.979v-9.147H76.45l-1.554,8.054L65.854,53.979z"/>
	<circle fill="#FFFFFF" cx="37.759" cy="79.741" r="6.027"/>
	<circle fill="#FFFFFF" cx="72.05" cy="79.741" r="6.027"/>
</g>
</svg>
