<?xml version="1.0" encoding="utf-8"?>
<!-- Generator: Adobe Illustrator 15.1.0, SVG Export Plug-In . SVG Version: 6.00 Build 0)  -->
<!DOCTYPE svg PUBLIC "-//W3C//DTD SVG 1.1 Basic//EN" "http://www.w3.org/Graphics/SVG/1.1/DTD/svg11-basic.dtd">
<svg version="1.1" baseProfile="basic" id="Layer_1"
	 xmlns="http://www.w3.org/2000/svg" xmlns:xlink="http://www.w3.org/1999/xlink" x="0px" y="0px" width="100px" height="100px"
	 viewBox="0 0 100 100" xml:space="preserve">
<path fill="#FFFFFF" d="M65.743,55.162c-1.6-2.216-3.298-4.012-3.298-8.11V33.417c0-5.772,0.406-11.076-3.852-15.051
	c-3.359-3.224-8.922-4.356-13.18-4.356c-8.319,0-17.61,3.101-19.566,13.389c-0.197,1.095,0.59,1.674,1.304,1.833l8.491,0.911
	c0.788-0.037,1.366-0.812,1.514-1.6c0.726-3.543,3.704-5.254,7.039-5.254c1.797,0,3.839,0.665,4.911,2.277
	c1.218,1.796,1.058,4.258,1.058,6.337v1.132c-5.07,0.578-11.703,0.947-16.453,3.04c-5.476,2.363-9.328,7.199-9.328,14.299
	c0,9.095,5.735,13.636,13.094,13.636c6.227,0,9.624-1.465,14.423-6.362c1.6,2.302,2.116,3.421,5.021,5.833
	c0.652,0.345,1.489,0.308,2.067-0.209l0.025,0.024c1.747-1.551,4.922-4.319,6.706-5.809C66.433,56.896,66.311,55.949,65.743,55.162z
	 M48.527,51.224c-1.39,2.461-3.593,3.975-6.054,3.975c-3.36,0-5.316-2.56-5.316-6.338c0-7.457,6.682-8.811,13.007-8.811v1.896
	C50.164,45.354,50.251,48.196,48.527,51.224z"/>
<path id="path8" fill="#FFFFFF" d="M85.433,68.433C75.58,80.214,61.301,86.5,49.008,86.5c-17.237,0-32.755-10.344-44.496-27.549
	c-0.923-1.354-0.096-3.198,1.011-2.146c12.67,11.964,28.335,19.16,44.518,19.16c10.914,0,22.921-3.665,33.959-11.267
	C85.668,63.548,87.062,66.47,85.433,68.433"/>
<path id="path10" fill="#FFFFFF" d="M89.527,60.83c-1.255-2.612-8.324-1.234-11.496-0.624c-0.967,0.193-1.115-1.171-0.244-2.153
	c5.629-6.431,14.868-4.574,15.945-2.418C94.812,57.8,93.453,72.828,88.162,80c-0.813,1.102-1.586,0.514-1.226-0.947
	C88.126,74.239,90.788,63.452,89.527,60.83"/>
</svg>
