<?xml version="1.0" encoding="utf-8"?>
<!-- Generator: Adobe Illustrator 15.1.0, SVG Export Plug-In . SVG Version: 6.00 Build 0)  -->
<!DOCTYPE svg PUBLIC "-//W3C//DTD SVG 1.1 Basic//EN" "http://www.w3.org/Graphics/SVG/1.1/DTD/svg11-basic.dtd">
<svg version="1.1" baseProfile="basic" id="Layer_1"
	 xmlns="http://www.w3.org/2000/svg" xmlns:xlink="http://www.w3.org/1999/xlink" x="0px" y="0px" width="100px" height="100px"
	 viewBox="0 0 100 100" xml:space="preserve">
<g>
	<path fill="#FFFFFF" d="M39.966,25.091c-16.57,0-30.003,9.011-30.003,20.133c0,5.996,3.908,11.375,10.103,15.062
		c-1.318,2.442-3.924,5.562-9.312,9.788c-0.88,0.688-1.98,1.688,1.58,0.977c5.958-1.193,12.316-4.23,17.164-6.955
		c3.26,0.815,6.786,1.262,10.47,1.262c16.569,0,30.001-9.012,30.001-20.133C69.969,34.103,56.535,25.091,39.966,25.091z"/>
	<path fill="#FFFFFF" d="M89.226,75.586c-4.623-3.627-5.284-5.676-5.511-7.164c3.228-2.338,5.201-5.465,5.201-8.902
		c0-6.397-6.827-11.719-15.854-12.876c-0.749,9.151-8.691,16.729-20.026,20.056c3.49,3.57,9.506,5.93,16.346,5.93
		c2.943,0,5.732-0.439,8.239-1.223c2.637,1.691,7.148,4.282,11.164,5.084C90.623,76.857,89.681,75.942,89.226,75.586z"/>
</g>
</svg>
