<?xml version="1.0" encoding="utf-8"?>
<!-- Generator: Adobe Illustrator 15.1.0, SVG Export Plug-In . SVG Version: 6.00 Build 0)  -->
<!DOCTYPE svg PUBLIC "-//W3C//DTD SVG 1.1 Basic//EN" "http://www.w3.org/Graphics/SVG/1.1/DTD/svg11-basic.dtd">
<svg version="1.1" baseProfile="basic" id="Layer_1"
	 xmlns="http://www.w3.org/2000/svg" xmlns:xlink="http://www.w3.org/1999/xlink" x="0px" y="0px" width="100px" height="100px"
	 viewBox="0 0 100 100" xml:space="preserve">
<g>
	<path fill="#FFFFFF" d="M57.561,33.709H42.438c-2.423,0-4.388,1.963-4.388,4.388v20.579c0,2.424,1.965,4.389,4.388,4.389h0.025
		v14.577c0,2.423,1.91,4.39,4.266,4.39h6.542c2.354,0,4.266-1.965,4.266-4.39V63.064h0.023c2.423,0,4.389-1.965,4.389-4.389V38.097
		C61.949,35.672,59.983,33.709,57.561,33.709z"/>
	<circle fill="#FFFFFF" cx="50" cy="25.131" r="7.162"/>
</g>
<g>
	<path fill="#FFFFFF" d="M83.738,35.42H70.78c-2.076,0-3.761,1.684-3.761,3.76v17.636c0,2.078,1.685,3.763,3.761,3.763h0.021v12.488
		c0,2.078,1.638,3.761,3.654,3.761h5.605c2.02,0,3.655-1.683,3.655-3.761V60.578h0.021c2.079,0,3.762-1.687,3.762-3.763V39.18
		C87.5,37.104,85.817,35.42,83.738,35.42z"/>
	<path fill="#FFFFFF" d="M77.262,21.933c3.389,0,6.137,2.748,6.137,6.137s-2.748,6.138-6.137,6.138c-3.393,0-6.14-2.749-6.14-6.138
		S73.869,21.933,77.262,21.933z"/>
</g>
<g>
	<path fill="#FFFFFF" d="M29.219,35.42H16.26c-2.076,0-3.76,1.684-3.76,3.76v17.636c0,2.076,1.685,3.763,3.76,3.763h0.022v12.488
		c0,2.078,1.638,3.761,3.655,3.761h5.606c2.019,0,3.655-1.683,3.655-3.761V60.578h0.022c2.076,0,3.761-1.687,3.761-3.763V39.18
		C32.978,37.104,31.295,35.42,29.219,35.42z"/>
	<circle fill="#FFFFFF" cx="22.74" cy="28.07" r="6.137"/>
</g>
</svg>
