<?xml version="1.0" encoding="utf-8"?>
<!-- Generator: Adobe Illustrator 15.1.0, SVG Export Plug-In . SVG Version: 6.00 Build 0)  -->
<!DOCTYPE svg PUBLIC "-//W3C//DTD SVG 1.1 Basic//EN" "http://www.w3.org/Graphics/SVG/1.1/DTD/svg11-basic.dtd">
<svg version="1.1" baseProfile="basic" id="Layer_1"
	 xmlns="http://www.w3.org/2000/svg" xmlns:xlink="http://www.w3.org/1999/xlink" x="0px" y="0px" width="100px" height="100px"
	 viewBox="0 0 100 100" xml:space="preserve">
<path id="Arrow" fill="#FFFFFF" d="M51.564,87.837c-0.649,0.278-1.347,0.422-2.094,0.422c-0.747,0-1.435-0.144-2.063-0.422
	c-0.708-0.362-1.318-0.785-1.828-1.267l-17.69-18.074c-0.473-0.482-0.866-1.086-1.179-1.809c-0.277-0.683-0.415-1.415-0.415-2.199
	c0-0.781,0.138-1.505,0.414-2.169c0.273-0.662,0.667-1.255,1.179-1.775c0.589-0.563,1.198-0.986,1.827-1.267
	c0.628-0.281,1.316-0.421,2.064-0.421c0.787,0,1.494,0.14,2.123,0.421c0.708,0.322,1.316,0.743,1.828,1.267l8.256,8.373V39.719
	c0-0.763,0.136-1.476,0.412-2.139c0.273-0.662,0.668-1.266,1.18-1.807c0.509-0.543,1.119-0.976,1.828-1.296
	c0.629-0.24,1.317-0.361,2.064-0.361c0.748,0,1.435,0.122,2.065,0.362c0.708,0.32,1.315,0.754,1.828,1.297
	c0.511,0.542,0.915,1.144,1.208,1.807c0.297,0.663,0.443,1.376,0.443,2.14v29.198l8.196-8.373c0.511-0.523,1.121-0.945,1.828-1.267
	c0.668-0.281,1.377-0.422,2.122-0.422c0.746,0,1.435,0.141,2.064,0.422c0.668,0.279,1.276,0.702,1.829,1.267
	c0.508,0.52,0.912,1.112,1.209,1.775c0.293,0.662,0.441,1.387,0.441,2.168c0,0.784-0.14,1.517-0.414,2.201
	c-0.354,0.722-0.767,1.325-1.236,1.808L53.363,86.57C52.812,87.133,52.214,87.555,51.564,87.837z"/>
<path id="Cloud" fill="#FFFFFF" d="M78.131,34.904c-0.913-3.164-3.47-5.625-6.689-6.408c0.037-0.336,0.06-0.677,0.06-1.022
	c0-5.107-4.142-9.247-9.25-9.247c-1.063,0-2.078,0.187-3.028,0.517c-2.938-4.374-7.93-7.251-13.597-7.251
	c-8.491,0-15.472,6.462-16.292,14.737c-0.028,0-0.055-0.004-0.082-0.004c-4.995,0-9.055,3.96-9.233,8.911
	c-3.202,1.044-5.518,3.96-5.518,7.509c0,4.417,3.581,7.908,8.001,7.908h18.005V39.719c0-1.225,0.229-2.396,0.681-3.478
	c0.433-1.044,1.06-2.009,1.863-2.858c0.816-0.87,1.803-1.57,2.924-2.078l0.189-0.079c2.05-0.785,4.556-0.786,6.613-0.001
	l0.194,0.081c1.115,0.504,2.1,1.204,2.924,2.079c0.78,0.826,1.407,1.765,1.859,2.788c0.491,1.098,0.741,2.294,0.741,3.547v10.833
	h18.005c4.418,0,8-3.49,8-7.907C84.5,38.786,81.768,35.658,78.131,34.904z"/>
</svg>
