<?xml version="1.0" encoding="utf-8"?>
<!-- Generator: Adobe Illustrator 15.1.0, SVG Export Plug-In . SVG Version: 6.00 Build 0)  -->
<!DOCTYPE svg PUBLIC "-//W3C//DTD SVG 1.1 Basic//EN" "http://www.w3.org/Graphics/SVG/1.1/DTD/svg11-basic.dtd">
<svg version="1.1" baseProfile="basic" id="Layer_1"
	 xmlns="http://www.w3.org/2000/svg" xmlns:xlink="http://www.w3.org/1999/xlink" x="0px" y="0px" width="100px" height="100px"
	 viewBox="0 0 100 100" xml:space="preserve">
<path id="f" fill="#FFFFFF" d="M81.244,15.5H17.756c-1.798,0-3.256,1.458-3.256,3.256v63.488c0,1.798,1.458,3.256,3.256,3.256
	h34.179V58.287h-9.327V47.804h9.327v-8.032c0,0-0.495-13.963,13.071-13.666c3.755,0.082,6.621,0.156,8.804,0.222v9.808h-5.437
	c0,0-5.581-0.475-5.581,4.626v7.042h10.423l-1.303,10.483h-9.12V85.5h18.451c1.798,0,3.256-1.458,3.256-3.256l0,0V18.756
	C84.5,16.958,83.043,15.5,81.244,15.5z"/>
</svg>
