<?xml version="1.0" encoding="utf-8"?>
<!-- Generator: Adobe Illustrator 15.1.0, SVG Export Plug-In . SVG Version: 6.00 Build 0)  -->
<!DOCTYPE svg PUBLIC "-//W3C//DTD SVG 1.1 Basic//EN" "http://www.w3.org/Graphics/SVG/1.1/DTD/svg11-basic.dtd">
<svg version="1.1" baseProfile="basic" id="Layer_1"
	 xmlns="http://www.w3.org/2000/svg" xmlns:xlink="http://www.w3.org/1999/xlink" x="0px" y="0px" width="100px" height="100px"
	 viewBox="0 0 100 100" xml:space="preserve">
<path id="g" fill-rule="evenodd" clip-rule="evenodd" fill="#FFFFFF" d="M62.033,16.288c2.262,1.869,6.986,5.808,6.986,13.289
	c0,7.282-4.136,10.726-8.267,13.975c-1.277,1.277-2.756,2.658-2.756,4.822c0,2.166,1.479,3.346,2.558,4.233l3.544,2.754
	c4.333,3.643,8.269,6.992,8.269,13.78c0,9.255-8.958,18.604-25.888,18.604c-14.271,0-21.162-6.791-21.162-14.075
	c0-3.548,1.772-8.563,7.582-12.012c6.101-3.739,14.369-4.229,18.797-4.526c-1.378-1.771-2.953-3.64-2.953-6.688
	c0-1.675,0.494-2.662,0.986-3.839c-1.084,0.096-2.165,0.194-3.15,0.194c-10.432,0-16.338-7.777-16.338-15.453
	c0-4.527,2.067-9.547,6.299-13.189c5.611-4.626,12.304-5.411,17.619-5.411h20.274l-6.3,3.542H62.033L62.033,16.288z M55.045,59.986
	c-0.79-0.097-1.281-0.097-2.264-0.097c-0.886,0-6.203,0.197-10.337,1.575c-2.165,0.786-8.463,3.147-8.463,10.138
	c0,6.984,6.791,12.006,17.323,12.006c9.449,0,14.467-4.527,14.467-10.629C65.771,67.961,62.525,65.302,55.045,59.986L55.045,59.986z
	 M57.9,41.288c2.26-2.266,2.457-5.415,2.457-7.185c0-7.088-4.229-18.112-12.4-18.112c-2.561,0-5.314,1.281-6.891,3.249
	c-1.674,2.068-2.167,4.727-2.167,7.284c0,6.594,3.84,17.519,12.305,17.519C53.666,44.042,56.322,42.86,57.9,41.288L57.9,41.288z"/>
</svg>
