<?xml version="1.0" encoding="utf-8"?>
<!-- Generator: Adobe Illustrator 15.1.0, SVG Export Plug-In . SVG Version: 6.00 Build 0)  -->
<!DOCTYPE svg PUBLIC "-//W3C//DTD SVG 1.1 Basic//EN" "http://www.w3.org/Graphics/SVG/1.1/DTD/svg11-basic.dtd">
<svg version="1.1" baseProfile="basic" id="Layer_1"
	 xmlns="http://www.w3.org/2000/svg" xmlns:xlink="http://www.w3.org/1999/xlink" x="0px" y="0px" width="100px" height="100px"
	 viewBox="0 0 100 100" xml:space="preserve">
<path id="in" fill="#FFFFFF" d="M78.037,15.811h-56c-3.864,0-7,3.133-7,7v56c0,3.864,3.136,6.999,7,6.999h56
	c3.865,0,7-3.135,7-6.999v-56C85.037,18.944,81.902,15.811,78.037,15.811z M40.439,68.858h-8.094V44.504h8.094V68.858z
	 M36.392,41.18L36.392,41.18h-0.053c-2.716,0-4.473-1.871-4.473-4.208c0-2.39,1.811-4.208,4.579-4.208
	c2.77,0,4.474,1.818,4.527,4.208C40.972,39.309,39.215,41.18,36.392,41.18z M69.629,68.858h-8.095V55.83
	c0-3.274-1.172-5.508-4.101-5.508c-2.236,0-3.568,1.506-4.154,2.96c-0.213,0.521-0.267,1.248-0.267,1.976v13.601h-8.094
	c0,0,0.105-22.068,0-24.354h8.095v3.446c1.076-1.659,3.002-4.017,7.295-4.017c5.326,0,9.32,3.481,9.32,10.96V68.858z"/>
</svg>
