<?xml version="1.0" encoding="utf-8"?>
<!-- Generator: Adobe Illustrator 15.1.0, SVG Export Plug-In . SVG Version: 6.00 Build 0)  -->
<!DOCTYPE svg PUBLIC "-//W3C//DTD SVG 1.1//EN" "http://www.w3.org/Graphics/SVG/1.1/DTD/svg11.dtd">
<svg version="1.1" id="Layer_1" xmlns="http://www.w3.org/2000/svg" xmlns:xlink="http://www.w3.org/1999/xlink" x="0px" y="0px"
	 width="100px" height="100px" viewBox="0 0 100 100" enable-background="new 0 0 100 100" xml:space="preserve">
<path id="instagram" fill-rule="evenodd" clip-rule="evenodd" fill="#FFFFFF" d="M22.495,12.796H78.24
	c5.296,0,9.626,4.332,9.626,9.626V78.17c0,5.294-4.33,9.627-9.626,9.627H22.495c-5.295,0-9.627-4.333-9.627-9.627V22.423
	C12.868,17.128,17.2,12.796,22.495,12.796L22.495,12.796z M67.502,21.129c-1.858,0-3.375,1.52-3.375,3.377v8.082
	c0,1.857,1.517,3.376,3.375,3.376h8.477c1.858,0,3.377-1.52,3.377-3.376v-8.082c0-1.857-1.519-3.377-3.377-3.377H67.502
	L67.502,21.129z M79.392,44.513H72.79c0.624,2.039,0.961,4.199,0.961,6.435c0,12.475-10.438,22.586-23.312,22.586
	c-12.875,0-23.312-10.111-23.312-22.586c0-2.236,0.336-4.396,0.961-6.435h-6.888v31.68c0,1.641,1.342,2.981,2.981,2.981h52.227
	c1.641,0,2.982-1.341,2.982-2.981V44.513L79.392,44.513z M50.439,35.539c-8.319,0-15.063,6.535-15.063,14.595
	s6.744,14.595,15.063,14.595c8.319,0,15.063-6.534,15.063-14.595S58.759,35.539,50.439,35.539z"/>
</svg>
