<?xml version="1.0" encoding="utf-8"?>
<!-- Generator: Adobe Illustrator 15.1.0, SVG Export Plug-In . SVG Version: 6.00 Build 0)  -->
<!DOCTYPE svg PUBLIC "-//W3C//DTD SVG 1.1//EN" "http://www.w3.org/Graphics/SVG/1.1/DTD/svg11.dtd">
<svg version="1.1" id="Layer_1" xmlns="http://www.w3.org/2000/svg" xmlns:xlink="http://www.w3.org/1999/xlink" x="0px" y="0px"
	 width="100px" height="100px" viewBox="0 0 100 100" enable-background="new 0 0 100 100" xml:space="preserve">
<g id="joomla">
	<g>
		<g>
			<path fill="#FFFFFF" d="M25.904,50.251l-1.444-1.443c-4.48-4.479-5.866-10.879-4.169-16.552
				c-4.479-1.013-7.822-5.017-7.822-9.802c0.001-5.546,4.497-10.046,10.044-10.046c4.993,0.002,9.136,3.646,9.913,8.419
				c5.42-1.271,11.352,0.207,15.578,4.433l0.577,0.578l-7.415,7.409l-0.574-0.576c-2.405-2.403-6.305-2.403-8.712,0.002
				c-2.415,2.415-2.41,6.326-0.014,8.723l1.451,1.448l7.413,7.408l7.842,7.835L41.167,65.5l-7.849-7.841L25.904,50.251"/>
			<path fill="#FFFFFF" d="M34.196,41.965l7.849-7.841l7.413-7.408l1.446-1.443c4.463-4.461,10.822-5.865,16.475-4.205
				c0.675-4.892,4.873-8.66,9.95-8.66c5.549,0,10.047,4.497,10.046,10.046c0,5.1-3.799,9.313-8.723,9.96
				c1.618,5.631,0.209,11.943-4.226,16.379l-0.576,0.581l-7.407-7.416l0.571-0.574c2.408-2.406,2.408-6.308,0.003-8.712
				c-2.398-2.397-6.288-2.401-8.704,0.013l-1.446,1.444l-7.415,7.409l-7.842,7.835L34.196,41.965"/>
		</g>
	</g>
	<g>
		<g>
			<g>
				<path fill="#FFFFFF" d="M67.579,79.366c-5.702,1.754-12.163,0.374-16.675-4.138l-0.567-0.565l7.407-7.416l0.569,0.57
					c2.408,2.406,6.31,2.406,8.715,0.003c2.396-2.399,2.402-6.288-0.014-8.705l-1.448-1.451l-7.408-7.413l-7.829-7.836l7.415-7.406
					l7.822,7.829l7.406,7.414l1.454,1.456c4.264,4.261,5.735,10.257,4.408,15.711c4.881,0.685,8.634,4.878,8.634,9.946
					c0,5.551-4.5,10.044-10.044,10.044C72.561,87.408,68.505,83.957,67.579,79.366"/>
				<path fill="#FFFFFF" d="M64.688,58.543l-7.82,7.829l-7.409,7.413l-1.453,1.455c-4.279,4.28-10.314,5.735-15.792,4.376
					c-1.023,4.466-5.019,7.79-9.793,7.792c-5.548,0-10.047-4.495-10.046-10.044c0-4.75,3.297-8.732,7.727-9.777
					c-1.401-5.504,0.051-11.585,4.36-15.892l0.567-0.565l7.413,7.407l-0.573,0.569c-2.404,2.407-2.403,6.304,0.003,8.714
					c2.414,2.413,6.324,2.408,8.723,0.009l1.451-1.452l7.408-7.411l7.828-7.836L64.688,58.543"/>
			</g>
		</g>
	</g>
</g>
</svg>
