<?xml version="1.0" encoding="utf-8"?>
<!-- Generator: Adobe Illustrator 15.1.0, SVG Export Plug-In . SVG Version: 6.00 Build 0)  -->
<!DOCTYPE svg PUBLIC "-//W3C//DTD SVG 1.1 Basic//EN" "http://www.w3.org/Graphics/SVG/1.1/DTD/svg11-basic.dtd">
<svg version="1.1" baseProfile="basic" id="Layer_1"
	 xmlns="http://www.w3.org/2000/svg" xmlns:xlink="http://www.w3.org/1999/xlink" x="0px" y="0px" width="100px" height="100px"
	 viewBox="0 0 100 100" xml:space="preserve">
<g id="mail.ru">
	<path fill="#FFFFFF" d="M78,15H22c-3.864,0-7,3.134-7,7v56.001C15,81.865,18.136,85,22,85h56c3.865,0,7-3.135,7-6.999v-56
		C85,18.134,81.865,15,78,15z M71.114,68.268c-4.318,3.374-10.731,0.09-10.689-4.83l-0.046-1.608
		c-3.008,2.984-7.008,4.725-11.368,4.725c-8.613,0-16.193-7.578-16.193-16.191c0-8.699,7.58-16.366,16.193-16.366
		c4.36,0,8.457,1.927,11.469,4.944v0.012c0-1.449,0.974-2.54,2.326-2.54l0.344-0.002c2.115,0,2.551,2.001,2.551,2.637l0.011,22.521
		c-0.151,1.475,1.521,2.235,2.446,1.29c3.618-3.717,7.942-19.106-2.247-28.022c-9.497-8.313-22.24-6.943-29.018-2.271
		c-7.205,4.969-11.815,15.967-7.336,26.298c4.882,11.268,18.852,14.626,27.153,11.273c4.202-1.697,6.146,3.987,1.78,5.843
		c-6.597,2.811-24.96,2.528-33.538-12.332c-5.795-10.033-5.487-27.685,9.884-36.832c11.758-6.998,27.26-5.062,36.609,4.701
		C81.214,41.725,80.646,60.837,71.114,68.268z"/>
	<path fill="#FFFFFF" d="M49.192,39.64h-0.212c-6.524,0-10.143,5.131-10.143,10.959c0,6.525,4.377,10.647,10.117,10.647
		c6.4,0,10.607-4.686,10.912-10.232l-0.015-1.274C59.526,43.433,54.845,39.64,49.192,39.64z"/>
</g>
</svg>
