<?xml version="1.0" encoding="utf-8"?>
<!-- Generator: Adobe Illustrator 15.1.0, SVG Export Plug-In . SVG Version: 6.00 Build 0)  -->
<!DOCTYPE svg PUBLIC "-//W3C//DTD SVG 1.1 Basic//EN" "http://www.w3.org/Graphics/SVG/1.1/DTD/svg11-basic.dtd">
<svg version="1.1" baseProfile="basic" id="Layer_1"
	 xmlns="http://www.w3.org/2000/svg" xmlns:xlink="http://www.w3.org/1999/xlink" x="0px" y="0px" width="100px" height="100px"
	 viewBox="0 0 100 100" xml:space="preserve">
<path id="s" fill="#FFFFFF" d="M84.483,58.606c0.541-2.473,0.828-5.042,0.828-7.677c0-19.753-16.015-35.768-35.771-35.768
	c-2.084,0-4.13,0.179-6.116,0.522c-3.197-2.014-6.979-3.182-11.036-3.182c-11.457,0-20.746,9.289-20.746,20.742
	c0,3.832,1.042,7.415,2.853,10.492c-0.474,2.327-0.726,4.73-0.726,7.194c0,19.756,16.015,35.771,35.771,35.771
	c2.239,0,4.428-0.207,6.552-0.6c2.918,1.567,6.255,2.46,9.803,2.46c11.458,0,20.747-9.285,20.747-20.743
	C86.643,64.51,85.862,61.382,84.483,58.606z M67.887,68.024c-1.655,2.342-4.101,4.197-7.268,5.514
	c-3.136,1.305-6.897,1.966-11.178,1.966c-5.137,0-9.445-0.903-12.807-2.687c-2.404-1.299-4.385-3.058-5.889-5.227
	c-1.52-2.191-2.291-4.366-2.291-6.462c0-1.312,0.502-2.447,1.493-3.38c0.979-0.92,2.235-1.388,3.732-1.388
	c1.229,0,2.29,0.369,3.151,1.098c0.824,0.697,1.53,1.729,2.098,3.063c0.633,1.452,1.325,2.678,2.055,3.643
	c0.701,0.929,1.71,1.709,3,2.319c1.296,0.613,3.045,0.925,5.195,0.925c2.958,0,5.381-0.632,7.206-1.876
	c1.78-1.217,2.646-2.676,2.646-4.463c0-1.413-0.452-2.523-1.383-3.395c-0.972-0.91-2.257-1.618-3.815-2.104
	c-1.626-0.507-3.833-1.054-6.563-1.625c-3.713-0.795-6.867-1.738-9.375-2.806c-2.564-1.09-4.632-2.604-6.145-4.496
	c-1.536-1.922-2.315-4.334-2.315-7.169c0-2.702,0.816-5.138,2.428-7.239c1.6-2.086,3.936-3.708,6.943-4.82
	c2.969-1.098,6.5-1.655,10.497-1.655c3.194,0,6.003,0.37,8.348,1.099c2.357,0.735,4.345,1.727,5.907,2.946
	c1.572,1.229,2.743,2.544,3.478,3.91c0.742,1.38,1.119,2.752,1.119,4.08c0,1.278-0.494,2.44-1.469,3.452
	c-0.979,1.019-2.215,1.535-3.673,1.535c-1.325,0-2.36-0.324-3.081-0.96c-0.669-0.592-1.364-1.515-2.135-2.842
	c-0.892-1.695-1.971-3.031-3.21-3.972c-1.201-0.915-3.211-1.378-5.971-1.378c-2.564,0-4.649,0.514-6.198,1.529
	c-1.492,0.978-2.217,2.1-2.217,3.429c0,0.815,0.233,1.497,0.713,2.083c0.508,0.621,1.225,1.166,2.131,1.62
	c0.941,0.473,1.909,0.848,2.879,1.115c0.994,0.276,2.663,0.685,4.95,1.214c2.894,0.621,5.554,1.317,7.906,2.07
	c2.383,0.762,4.44,1.702,6.12,2.795c1.713,1.115,3.069,2.549,4.032,4.26c0.965,1.716,1.454,3.835,1.454,6.298
	C70.39,62.988,69.548,65.674,67.887,68.024z"/>
</svg>
