<?xml version="1.0" encoding="utf-8"?>
<!-- Generator: Adobe Illustrator 15.1.0, SVG Export Plug-In . SVG Version: 6.00 Build 0)  -->
<!DOCTYPE svg PUBLIC "-//W3C//DTD SVG 1.1 Basic//EN" "http://www.w3.org/Graphics/SVG/1.1/DTD/svg11-basic.dtd">
<svg version="1.1" baseProfile="basic" id="Layer_1"
	 xmlns="http://www.w3.org/2000/svg" xmlns:xlink="http://www.w3.org/1999/xlink" x="0px" y="0px" width="100px" height="100px"
	 viewBox="0 0 100 100" xml:space="preserve">
<path id="t" fill="#FFFFFF" d="M85,28.292c-2.575,1.142-5.344,1.914-8.249,2.262c2.966-1.777,5.243-4.592,6.315-7.946
	c-2.775,1.646-5.85,2.841-9.12,3.485c-2.619-2.792-6.352-4.535-10.483-4.535c-7.931,0-14.361,6.43-14.361,14.361
	c0,1.125,0.127,2.222,0.372,3.272c-11.936-0.599-22.518-6.316-29.601-15.005c-1.236,2.122-1.945,4.588-1.945,7.22
	c0,4.982,2.536,9.378,6.389,11.954c-2.354-0.075-4.569-0.721-6.505-1.796c-0.001,0.06-0.001,0.12-0.001,0.181
	c0,6.958,4.95,12.763,11.52,14.082c-1.205,0.328-2.474,0.504-3.783,0.504c-0.926,0-1.825-0.09-2.703-0.258
	c1.828,5.706,7.132,9.857,13.417,9.974c-4.915,3.853-11.108,6.147-17.836,6.147c-1.159,0-2.302-0.068-3.426-0.201
	c6.355,4.075,13.904,6.453,22.015,6.453c26.416,0,40.861-21.883,40.861-40.861c0-0.623-0.015-1.242-0.042-1.858
	C80.64,33.701,83.074,31.172,85,28.292z"/>
</svg>
