<?xml version="1.0" encoding="utf-8"?>
<!-- Generator: Adobe Illustrator 15.1.0, SVG Export Plug-In . SVG Version: 6.00 Build 0)  -->
<!DOCTYPE svg PUBLIC "-//W3C//DTD SVG 1.1 Basic//EN" "http://www.w3.org/Graphics/SVG/1.1/DTD/svg11-basic.dtd">
<svg version="1.1" baseProfile="basic" id="Layer_1"
	 xmlns="http://www.w3.org/2000/svg" xmlns:xlink="http://www.w3.org/1999/xlink" x="0px" y="0px" width="100px" height="100px"
	 viewBox="0 0 100 100" xml:space="preserve">
<path id="tumblr" fill="#FFFFFF" d="M73.465,15.64H26.429c-6.332,0-11.484,5.152-11.484,11.484v47.031
	c0,6.332,5.152,11.484,11.484,11.484h47.036c6.33,0,11.479-5.152,11.479-11.484V27.124C84.944,20.792,79.795,15.64,73.465,15.64z
	 M65.083,72.184c-2.078,0.978-3.964,1.666-5.65,2.063c-1.688,0.392-3.512,0.59-5.471,0.59c-2.226,0-3.539-0.28-5.249-0.84
	c-1.709-0.564-3.169-1.369-4.375-2.403c-1.21-1.041-2.045-2.148-2.513-3.319c-0.467-1.172-0.7-2.872-0.7-5.099V46.101h-6.614v-6.894
	c1.912-0.62,4.13-1.511,5.49-2.67c1.367-1.163,2.461-2.553,3.286-4.181c0.827-1.624,1.396-3.695,1.705-6.205h6.925v11.261h11.256
	v8.689H51.917v12.484c0,2.824-0.037,4.452,0.263,5.253c0.297,0.797,1.042,1.623,1.854,2.102c1.078,0.646,2.308,0.969,3.694,0.969
	c2.466,0,4.918-0.801,7.355-2.402V72.184z"/>
</svg>
