<?xml version="1.0" encoding="utf-8"?>
<!-- Generator: Adobe Illustrator 15.1.0, SVG Export Plug-In . SVG Version: 6.00 Build 0)  -->
<!DOCTYPE svg PUBLIC "-//W3C//DTD SVG 1.1 Basic//EN" "http://www.w3.org/Graphics/SVG/1.1/DTD/svg11-basic.dtd">
<svg version="1.1" baseProfile="basic" id="Layer_1"
	 xmlns="http://www.w3.org/2000/svg" xmlns:xlink="http://www.w3.org/1999/xlink" x="0px" y="0px" width="100px" height="100px"
	 viewBox="0 0 100 100" xml:space="preserve">
<path id="web_x5F_site" fill="#FFFFFF" d="M49.5,15.5c-19.299,0-35,15.701-35,35c0,19.298,15.701,35,35,35c19.298,0,35-15.702,35-35
	C84.5,31.201,68.798,15.5,49.5,15.5z M37.627,22.128c-1.6,2.026-3.018,4.455-4.2,7.216c-1.504-0.516-2.988-1.084-4.434-1.743
	C31.529,25.327,34.441,23.466,37.627,22.128z M25.881,30.823c1.969,0.965,3.997,1.806,6.07,2.521
	c-1.411,4.47-2.279,9.565-2.458,15.035h-10.67C19.279,41.728,21.853,35.651,25.881,30.823z M18.823,52.621h10.67
	c0.179,5.471,1.047,10.564,2.458,15.035c-2.073,0.715-4.102,1.557-6.07,2.521C21.853,65.35,19.279,59.272,18.823,52.621z
	 M28.993,73.397c1.445-0.657,2.931-1.227,4.434-1.741c1.183,2.761,2.6,5.19,4.2,7.217C34.441,77.534,31.529,75.672,28.993,73.397z
	 M47.379,80.959c-3.864-1.061-7.331-4.96-9.808-10.547c3.205-0.794,6.496-1.251,9.808-1.393V80.959z M47.379,64.758
	c-3.827,0.151-7.625,0.714-11.318,1.666c-1.309-4.102-2.135-8.811-2.32-13.803h13.638V64.758z M47.379,48.379H33.741
	c0.185-4.993,1.011-9.701,2.32-13.802c3.693,0.952,7.491,1.513,11.318,1.665V48.379z M47.379,31.982
	c-3.312-0.143-6.604-0.6-9.809-1.394c2.478-5.586,5.945-9.487,9.809-10.548V31.982z M80.177,48.379h-10.67
	c-0.179-5.47-1.047-10.565-2.458-15.035c2.073-0.715,4.102-1.556,6.07-2.521C77.148,35.651,79.721,41.728,80.177,48.379z
	 M70.008,27.602c-1.445,0.659-2.931,1.227-4.435,1.743c-1.182-2.761-2.6-5.19-4.2-7.216C64.56,23.466,67.472,25.327,70.008,27.602z
	 M51.621,20.041c3.863,1.061,7.33,4.961,9.808,10.547c-3.204,0.794-6.496,1.251-9.808,1.394V20.041z M51.621,36.242
	c3.826-0.152,7.625-0.714,11.318-1.665c1.309,4.101,2.135,8.809,2.32,13.802H51.621V36.242z M51.621,52.621H65.26
	c-0.186,4.992-1.012,9.7-2.32,13.803c-3.693-0.952-7.492-1.515-11.318-1.666V52.621z M51.621,80.959V69.018
	c3.312,0.143,6.603,0.6,9.808,1.395C58.951,75.999,55.484,79.898,51.621,80.959z M61.373,78.872c1.601-2.026,3.019-4.455,4.2-7.216
	c1.504,0.517,2.989,1.084,4.435,1.743C67.472,75.673,64.56,77.534,61.373,78.872z M73.119,70.177
	c-1.969-0.965-3.997-1.806-6.07-2.521c1.411-4.47,2.279-9.563,2.458-15.035h10.67C79.721,59.272,77.148,65.35,73.119,70.177z"/>
</svg>
