<?xml version="1.0" encoding="utf-8"?>
<!-- Generator: Adobe Illustrator 15.1.0, SVG Export Plug-In . SVG Version: 6.00 Build 0)  -->
<!DOCTYPE svg PUBLIC "-//W3C//DTD SVG 1.1 Basic//EN" "http://www.w3.org/Graphics/SVG/1.1/DTD/svg11-basic.dtd">
<svg version="1.1" baseProfile="basic" id="Layer_1"
	 xmlns="http://www.w3.org/2000/svg" xmlns:xlink="http://www.w3.org/1999/xlink" x="0px" y="0px" width="100px" height="100px"
	 viewBox="0 0 100 100" xml:space="preserve">
<g>
	<path fill="#FFFFFF" d="M19.975,49.999c0,11.885,6.906,22.154,16.921,27.021L22.574,37.78
		C20.908,41.514,19.975,45.646,19.975,49.999z"/>
	<path fill="#FFFFFF" d="M70.268,48.484c0-3.711-1.333-6.281-2.476-8.281c-1.522-2.473-2.949-4.568-2.949-7.041
		c0-2.76,2.094-5.329,5.042-5.329c0.133,0,0.259,0.017,0.389,0.024c-5.342-4.894-12.458-7.881-20.274-7.881
		c-10.489,0-19.717,5.381-25.086,13.533c0.704,0.021,1.368,0.036,1.932,0.036c3.14,0,8.002-0.381,8.002-0.381
		c1.618-0.096,1.809,2.282,0.192,2.473c0,0-1.626,0.191-3.437,0.286l10.934,32.521l6.571-19.705l-4.678-12.817
		c-1.617-0.095-3.148-0.287-3.148-0.287c-1.618-0.095-1.428-2.568,0.19-2.473c0,0,4.958,0.381,7.908,0.381
		c3.14,0,8.002-0.381,8.002-0.381c1.619-0.095,1.811,2.282,0.192,2.473c0,0-1.63,0.191-3.437,0.287l10.851,32.275l2.994-10.007
		C69.28,54.037,70.268,51.055,70.268,48.484z"/>
	<path fill="#FFFFFF" d="M50.526,52.626l-9.008,26.176c2.689,0.791,5.534,1.224,8.481,1.224c3.496,0,6.85-0.604,9.971-1.702
		c-0.081-0.129-0.154-0.266-0.214-0.414L50.526,52.626z"/>
	<path fill="#FFFFFF" d="M76.344,35.594c0.129,0.957,0.203,1.983,0.203,3.087c0,3.047-0.569,6.472-2.283,10.754l-9.171,26.516
		c8.925-5.206,14.93-14.876,14.93-25.953C80.022,44.78,78.688,39.871,76.344,35.594z"/>
	<path fill="#FFFFFF" d="M49.999,15.001C30.701,15.001,15,30.701,15,49.999c0,19.301,15.701,35,34.999,35
		C69.297,84.999,85,69.3,85,49.999C84.999,30.701,69.297,15.001,49.999,15.001z M49.999,83.395
		c-18.413,0-33.395-14.981-33.395-33.396c0-18.413,14.981-33.393,33.395-33.393c18.412,0,33.393,14.98,33.393,33.393
		C83.392,68.413,68.411,83.395,49.999,83.395z"/>
</g>
</svg>
