<?xml version="1.0" encoding="utf-8"?>
<!-- Generator: Adobe Illustrator 15.1.0, SVG Export Plug-In . SVG Version: 6.00 Build 0)  -->
<!DOCTYPE svg PUBLIC "-//W3C//DTD SVG 1.1 Basic//EN" "http://www.w3.org/Graphics/SVG/1.1/DTD/svg11-basic.dtd">
<svg version="1.1" baseProfile="basic" id="Layer_1"
	 xmlns="http://www.w3.org/2000/svg" xmlns:xlink="http://www.w3.org/1999/xlink" x="0px" y="0px" width="100px" height="100px"
	 viewBox="0 0 100 100" xml:space="preserve">
<path id="ya" fill="#FFFFFF" d="M66.369,12.513H55.001c-11.162,0-20.634,8.5-20.634,25.001c0,9.9,4.588,17.199,12.759,20.799
	l-15.25,27.602c-0.499,0.901,0,1.599,0.794,1.599h7.079c0.598,0,0.997-0.198,1.197-0.697l13.856-27.103h4.986v27.103
	c0,0.299,0.3,0.697,0.695,0.697h6.184c0.599,0,0.798-0.3,0.798-0.798V13.513C67.466,12.813,67.067,12.513,66.369,12.513z
	 M59.789,53.314H55.6c-6.578,0-12.958-4.8-12.958-16.801c0-12.502,5.981-17.602,12.062-17.602h5.085V53.314z"/>
</svg>
