<?xml version="1.0" encoding="utf-8"?>
<!-- Generator: Adobe Illustrator 15.1.0, SVG Export Plug-In . SVG Version: 6.00 Build 0)  -->
<!DOCTYPE svg PUBLIC "-//W3C//DTD SVG 1.1 Basic//EN" "http://www.w3.org/Graphics/SVG/1.1/DTD/svg11-basic.dtd">
<svg version="1.1" baseProfile="basic" id="Layer_1"
	 xmlns="http://www.w3.org/2000/svg" xmlns:xlink="http://www.w3.org/1999/xlink" x="0px" y="0px" width="100px" height="100px"
	 viewBox="0 0 100 100" xml:space="preserve">
<path fill="#FFFFFF" d="M22.292,72.572C17.097,66.575,14.5,59.644,14.5,51.779c0-9.358,3.155-17.308,9.469-23.853
	c7.005-7.289,16.403-10.932,28.199-10.932c10.218,0,18.255,2.582,24.108,7.749C81.758,29.621,84.5,35.95,84.5,43.73
	c0,6.542-1.96,12.132-5.875,16.767c-3.919,4.635-8.302,6.953-13.151,6.953c-2.843,0-4.94-0.685-6.287-2.045
	c-1.349-1.365-2.024-3.01-2.024-4.931c0-0.313,0.028-0.644,0.087-0.987c0.057-0.349,0.128-0.706,0.217-1.08
	c-1.521,3.303-3.447,5.633-5.771,6.998c-2.324,1.36-4.72,2.045-7.189,2.045c-3.529,0-6.394-1.277-8.588-3.834
	c-2.195-2.554-3.293-5.839-3.293-9.856c0-5.712,1.872-10.748,5.619-15.111c3.741-4.364,7.767-6.543,12.074-6.543
	c2.927,0,5.346,0.847,7.253,2.54c1.91,1.693,2.92,3.73,3.037,6.114l2.15-7.233h6.328l-5.725,18.857
	c-0.431,1.465-0.749,2.641-0.947,3.53c-0.201,0.889-0.303,1.676-0.303,2.367c0,1.289,0.394,2.231,1.184,2.819
	s1.686,0.882,2.69,0.882c3.271,0,6.207-1.703,8.805-5.121c2.596-3.415,3.896-7.877,3.896-13.388c0-6.66-2.323-11.891-6.977-15.692
	c-4.648-3.803-10.903-5.705-18.768-5.705c-10.908,0-19.245,3.186-25.013,9.558c-4.935,5.423-7.403,12.239-7.403,20.447
	c0,7.175,2.353,13.202,7.06,18.083c5.51,5.77,13.36,8.649,23.548,8.649c4.766,0,9.199-0.752,13.303-2.258
	c4.104-1.507,7.866-3.538,11.278-6.094l2.842,3.875c-2.581,2.296-6.443,4.449-11.58,6.458c-5.137,2.012-10.79,3.016-16.962,3.016
	C38.019,83.81,28.777,80.063,22.292,72.572z M56.774,38.712c-1.19-1.419-2.826-2.129-4.919-2.129c-3.268,0-6.101,1.928-8.497,5.789
	c-2.39,3.863-3.588,7.7-3.588,11.517c0,2.813,0.616,4.958,1.851,6.436c1.227,1.48,2.776,2.218,4.643,2.218
	c3.868,0,6.887-2.261,9.046-6.78c2.169-4.523,3.252-8.604,3.252-12.25C58.562,41.734,57.965,40.135,56.774,38.712z"/>
</svg>
