<?xml version="1.0" encoding="utf-8"?>
<!-- Generator: Adobe Illustrator 15.1.0, SVG Export Plug-In . SVG Version: 6.00 Build 0)  -->
<!DOCTYPE svg PUBLIC "-//W3C//DTD SVG 1.1 Basic//EN" "http://www.w3.org/Graphics/SVG/1.1/DTD/svg11-basic.dtd">
<svg version="1.1" baseProfile="basic" id="Layer_1"
	 xmlns="http://www.w3.org/2000/svg" xmlns:xlink="http://www.w3.org/1999/xlink" x="0px" y="0px" width="100px" height="100px"
	 viewBox="0 0 100 100" xml:space="preserve">
<g id="ebay">
	<path id="e" fill="#FFFFFF" d="M13.672,38.935C6.759,38.935,1,41.867,1,50.714c0,7.009,3.873,11.423,12.851,11.423
		c10.566,0,11.244-6.96,11.244-6.96h-5.12c0,0-1.098,3.747-6.436,3.747c-4.349,0-7.476-2.938-7.476-7.054H25.63v-2.584
		C25.63,45.213,23.044,38.935,13.672,38.935z M13.493,42.236c4.139,0,6.961,2.536,6.961,6.336H6.175
		C6.176,44.538,9.858,42.236,13.493,42.236z"/>
	<path id="b" fill="#FFFFFF" d="M25.626,30.368v27.327c0,1.551-0.111,3.729-0.111,3.729h4.884c0,0,0.175-1.564,0.175-2.994
		c0,0,2.413,3.775,8.973,3.775c6.909,0,11.601-4.797,11.601-11.668c0-6.393-4.31-11.534-11.589-11.534
		c-6.817,0-8.935,3.681-8.935,3.681V30.368H25.626L25.626,30.368z M38.299,42.381c4.691,0,7.674,3.482,7.674,8.154
		c0,5.011-3.445,8.288-7.641,8.288c-5.008,0-7.708-3.909-7.708-8.243C30.624,46.542,33.048,42.381,38.299,42.381z"/>
	<path id="a" fill="#FFFFFF" d="M63.286,38.935c-10.399,0-11.065,5.694-11.065,6.604h5.175c0,0,0.271-3.324,5.533-3.324
		c3.42,0,6.068,1.565,6.068,4.574v1.071h-6.068c-8.057,0-12.315,2.356-12.315,7.14c0,4.706,3.935,7.267,9.253,7.267
		c7.248,0,9.582-4.005,9.582-4.005c0,1.593,0.123,3.163,0.123,3.163h4.601c0,0-0.178-1.946-0.178-3.19V47.474
		C73.995,40.419,68.304,38.935,63.286,38.935L63.286,38.935z M68.997,51.071v1.428c0,1.861-1.149,6.492-7.915,6.492
		c-3.704,0-5.292-1.849-5.292-3.993C55.79,51.097,61.139,51.071,68.997,51.071L68.997,51.071z"/>
	<path id="y_1_" fill="#FFFFFF" d="M71.208,39.828h5.821l8.357,16.743l8.338-16.743H99L83.813,69.635h-5.533l4.383-8.309
		L71.208,39.828z"/>
</g>
</svg>
