<?xml version="1.0" encoding="utf-8"?>
<!-- Generator: Adobe Illustrator 15.1.0, SVG Export Plug-In . SVG Version: 6.00 Build 0)  -->
<!DOCTYPE svg PUBLIC "-//W3C//DTD SVG 1.1 Basic//EN" "http://www.w3.org/Graphics/SVG/1.1/DTD/svg11-basic.dtd">
<svg version="1.1" baseProfile="basic" id="Layer_1"
	 xmlns="http://www.w3.org/2000/svg" xmlns:xlink="http://www.w3.org/1999/xlink" x="0px" y="0px" width="100px" height="100px"
	 viewBox="0 0 100 100" xml:space="preserve">
<path id="pinterest" fill-rule="evenodd" clip-rule="evenodd" fill="#FFFFFF" d="M33.933,83.215
	c-0.4-6.854,1.343-11.234,2.639-16.715c0.443-1.876,0.81-4.042,1.32-6.157c0.458-1.905,1.526-4.379,1.466-6.013
	c-0.042-1.137-0.825-2.464-1.026-3.665c-0.917-5.477,1.726-11.864,6.891-12.022c7.842-0.241,4.473,9.798,3.225,13.929
	c-0.667,2.21-1.892,5.189-1.465,7.624c0.531,3.031,4.265,5.668,8.797,4.105c2.964-1.021,4.755-3.489,5.865-5.425
	c2.328-4.058,3.765-9.088,3.226-15.688c-0.474-5.796-3.825-9.477-8.211-11.29c-8.148-3.368-16.649-0.585-21.114,4.252
	c-3.248,3.52-6.271,11.146-3.812,17.153c0.549,1.341,2.221,2.27,2.346,3.813c0.085,1.051-0.868,4.614-1.906,4.839
	c-0.96,0.207-2.814-1.046-3.52-1.612c-1.062-0.855-1.989-2.005-2.492-2.786c-6.01-9.347-0.511-21.581,5.278-26.832
	c4.321-3.919,9.58-5.924,16.421-6.451c7.387-0.569,13.028,1.222,17.741,4.838c4.259,3.267,7.854,7.982,8.357,14.516
	c0.655,8.505-1.583,14.683-4.839,19.353c-3.079,4.418-8.289,8.721-15.981,8.212c-2.989-0.199-5.519-1.481-7.037-2.933
	c-0.549-0.524-1.023-1.545-1.467-1.32c-1.41,5.591-2.819,11.838-5.278,16.129c-0.321,0.561-0.923,1.123-0.733,1.759
	c13.885,4.828,28.525-1.777,35.922-8.649c6.589-6.123,11.014-14.439,11.876-25.513c0.423-5.436-0.942-11.337-2.786-15.834
	c-1.366-3.335-3.073-6.344-5.121-9.012c-2.073-2.625-4.489-4.967-7.18-6.958c-5.308-3.809-11.919-6.271-19.868-7.262
	c-0.805-0.052-1.616-0.081-2.433-0.081c-0.968,0-1.927,0.037-2.876,0.108c-5.776,0.793-10.837,2.301-15.188,4.519
	c-6.235,3.43-11.389,8.58-14.825,14.811c-2.154,4.21-3.648,9.082-4.483,14.612c-0.105,1.147-0.162,2.309-0.162,3.485
	c0,1.255,0.063,2.494,0.183,3.718C13.773,68.245,22.021,77.561,33.933,83.215z"/>
</svg>
