<?xml version="1.0" encoding="utf-8"?>
<!-- Generator: Adobe Illustrator 15.1.0, SVG Export Plug-In . SVG Version: 6.00 Build 0)  -->
<!DOCTYPE svg PUBLIC "-//W3C//DTD SVG 1.1 Basic//EN" "http://www.w3.org/Graphics/SVG/1.1/DTD/svg11-basic.dtd">
<svg version="1.1" baseProfile="basic" id="Layer_1"
	 xmlns="http://www.w3.org/2000/svg" xmlns:xlink="http://www.w3.org/1999/xlink" x="0px" y="0px" width="100px" height="100px"
	 viewBox="0 0 100 100" xml:space="preserve">
<g id="v">
	<path fill="#FFFFFF" d="M77.893,15.5H21.108c-3.65,0-6.608,2.958-6.608,6.608v56.785c0,3.648,2.958,6.607,6.608,6.607h56.784
		c3.648,0,6.607-2.959,6.607-6.607V22.108C84.5,18.458,81.541,15.5,77.893,15.5z M72.199,44.176l-0.121,0.366
		c-0.669,2.021-2.137,4.963-3.832,7.676c-1.867,2.987-4.717,6.901-7.166,9.834c-4.792,5.741-8.905,8.858-12.533,9.497
		c-0.677,0.12-1.685,0.113-2.195-0.015c-2.248-0.563-4.115-2.836-5.733-6.984c-0.137-0.352-0.818-2.808-2.113-7.628
		c-1.051-3.912-1.994-7.394-2.092-7.741c-0.652-2.272-1.51-4.355-2.258-5.485c-0.575-0.869-1.296-1.434-1.906-1.495
		c-0.248-0.025-0.288-0.015-0.671,0.179c-0.402,0.203-1.561,0.948-2.553,1.641c-0.277,0.194-0.529,0.366-0.559,0.384
		c-0.034,0.02-0.429-0.459-1.098-1.332c-0.574-0.749-1.071-1.394-1.105-1.435c-0.055-0.063,0.03-0.155,0.738-0.787
		c1.181-1.056,3.576-3.229,4.78-4.336c2.172-1.996,3.432-3.021,4.885-3.975c1.555-1.02,2.537-1.408,3.69-1.459
		c2.902-0.128,4.829,1.612,5.873,5.303c0.25,0.881,0.362,1.47,0.743,3.868c0.994,6.252,1.414,8.507,2.068,11.111
		c0.78,3.097,1.646,4.904,2.568,5.358c0.248,0.123,0.324,0.141,0.548,0.123c1.01-0.077,2.452-1.652,4.431-4.838
		c1.632-2.626,2.619-4.742,2.968-6.361c0.089-0.403,0.103-0.607,0.105-1.438c0.001-0.804-0.011-1.017-0.079-1.26
		c-0.232-0.823-0.663-1.373-1.336-1.704c-0.545-0.267-0.911-0.337-1.777-0.337c-1.017,0-1.907,0.168-2.921,0.551
		c-0.285,0.107-0.46,0.153-0.469,0.121c-0.007-0.027,0.099-0.377,0.235-0.777c0.814-2.399,1.77-4.253,3.022-5.862
		c0.453-0.584,1.352-1.507,1.882-1.937c0.885-0.716,2.064-1.392,3.103-1.774c2.271-0.839,5.378-1.047,7.32-0.341
		C75.51,33.386,72.197,44.175,72.199,44.176z"/>
	<g id="Layer_2">
	</g>
</g>
</svg>
