<?xml version="1.0" encoding="utf-8"?>
<!-- Generator: Adobe Illustrator 15.1.0, SVG Export Plug-In . SVG Version: 6.00 Build 0)  -->
<!DOCTYPE svg PUBLIC "-//W3C//DTD SVG 1.1 Basic//EN" "http://www.w3.org/Graphics/SVG/1.1/DTD/svg11-basic.dtd">
<svg version="1.1" baseProfile="basic" id="Layer_1"
	 xmlns="http://www.w3.org/2000/svg" xmlns:xlink="http://www.w3.org/1999/xlink" x="0px" y="0px" width="100px" height="100px"
	 viewBox="0 0 100 100" xml:space="preserve">
<path id="vk" fill-rule="evenodd" clip-rule="evenodd" fill="#FFFFFF" d="M28.639,15.133h42.562c7.548,0,13.72,6.172,13.72,13.716
	v42.569c0,7.541-6.172,13.717-13.72,13.717H28.639c-7.544,0-13.718-6.176-13.718-13.717V28.849
	C14.921,21.305,21.095,15.133,28.639,15.133L28.639,15.133z M67.756,58.043c0-2.654-0.729-4.766-2.182-6.336
	c-1.448-1.568-3.383-2.6-5.793-3.11V48.39c1.674-0.707,2.99-1.799,3.938-3.288c0.959-1.488,1.438-3.182,1.438-5.09
	c0-1.65-0.352-3.102-1.042-4.364c-0.688-1.254-1.737-2.269-3.137-3.021c-1.289-0.7-2.678-1.156-4.157-1.37
	c-1.48-0.226-3.656-0.332-6.523-0.332h-13.81v39.089h15.646c2.714,0,4.944-0.243,6.701-0.736c1.769-0.494,3.384-1.31,4.85-2.463
	c1.246-0.969,2.229-2.178,2.966-3.647C67.388,61.696,67.756,59.987,67.756,58.043L67.756,58.043z M55.183,41.983
	c0-0.635-0.16-1.281-0.486-1.945c-0.319-0.662-0.82-1.146-1.513-1.441c-0.645-0.289-1.407-0.439-2.294-0.467
	c-0.886-0.026-2.204-0.037-3.951-0.037h-0.683v8.272h1.236c1.676,0,2.859-0.018,3.532-0.054c0.671-0.035,1.371-0.215,2.088-0.545
	c0.778-0.368,1.327-0.879,1.618-1.523C55.029,43.588,55.183,42.834,55.183,41.983L55.183,41.983z M57.645,57.862
	c0-1.209-0.239-2.15-0.732-2.831c-0.493-0.691-1.229-1.202-2.205-1.549c-0.595-0.236-1.416-0.361-2.454-0.386
	c-1.041-0.028-2.438-0.038-4.186-0.038h-1.812v9.788h0.53c2.553,0,4.319-0.018,5.296-0.056c0.977-0.035,1.982-0.268,2.993-0.705
	c0.896-0.39,1.538-0.952,1.955-1.695C57.44,59.647,57.645,58.804,57.645,57.862z"/>
</svg>
