<?xml version="1.0" encoding="utf-8"?>
<!-- Generator: Adobe Illustrator 15.1.0, SVG Export Plug-In . SVG Version: 6.00 Build 0)  -->
<!DOCTYPE svg PUBLIC "-//W3C//DTD SVG 1.1 Basic//EN" "http://www.w3.org/Graphics/SVG/1.1/DTD/svg11-basic.dtd">
<svg version="1.1" baseProfile="basic" id="Layer_1"
	 xmlns="http://www.w3.org/2000/svg" xmlns:xlink="http://www.w3.org/1999/xlink" x="0px" y="0px" width="100px" height="100px"
	 viewBox="0 0 100 100" xml:space="preserve">
<g id="y">
	<polygon fill-rule="evenodd" clip-rule="evenodd" fill="#FFFFFF" points="85.806,75.028 76.612,73.903 77.634,65.836 
		86.827,66.958 85.806,75.028 	"/>
	<polygon fill-rule="evenodd" clip-rule="evenodd" fill="#FFFFFF" points="95,26.094 79.269,24.155 79.37,60.627 86.215,61.544 
		95,26.094 	"/>
	<path fill-rule="evenodd" clip-rule="evenodd" fill="#FFFFFF" d="M63.332,32.429c-6.335-4.801-14.506-7.15-24.416-7.15
		c-10.011,0-18.183,2.35-24.416,7.15C8.167,37.127,5,43.156,5,50.613c0,7.561,3.167,13.689,9.5,18.39
		c5.168,3.896,11.673,6.178,19.454,6.844h9.883c7.725-0.666,14.24-2.947,19.494-6.844c6.231-4.7,9.398-10.829,9.398-18.39
		C72.73,43.156,69.563,37.127,63.332,32.429z M58.632,44.381l-4.801,1.023c-0.716,0.202-2.656,1.633-6.027,4.393
		c-3.576,2.859-5.415,4.698-5.721,5.619l-0.204,2.553l-0.103,1.533l0.409,3.881l6.333,0.102l-0.103,1.941H38.099l-9.194,0.103
		l0.306-1.84l2.962-0.101c1.533-0.104,2.454-0.307,2.759-0.615c0.205-0.202,0.306-1.429,0.306-3.574v-1.326l-0.102-2.656
		c-0.205-0.614-1.839-2.86-5.005-6.743c-3.269-3.984-5.415-6.335-6.438-7.153l-5.924-0.817v-1.737
		c0.307-0.202,3.576-0.202,9.604-0.101c4.188-0.101,7.661-0.101,10.42,0.101l-0.205,1.432l-6.232,0.615
		c1.941,2.859,4.904,6.842,8.888,11.847c5.21-3.983,7.967-6.538,8.069-7.66l-5.311-0.818l-0.409-1.838h8.889l8.375,0.102
		L58.632,44.381z"/>
</g>
</svg>
