<?xml version="1.0" encoding="utf-8"?>
<!-- Generator: Adobe Illustrator 15.1.0, SVG Export Plug-In . SVG Version: 6.00 Build 0)  -->
<!DOCTYPE svg PUBLIC "-//W3C//DTD SVG 1.1 Basic//EN" "http://www.w3.org/Graphics/SVG/1.1/DTD/svg11-basic.dtd">
<svg version="1.1" baseProfile="basic" id="Layer_1"
	 xmlns="http://www.w3.org/2000/svg" xmlns:xlink="http://www.w3.org/1999/xlink" x="0px" y="0px" width="100px" height="100px"
	 viewBox="0 0 100 100" xml:space="preserve">
<g id="folder">
	<path fill="#FFFFFF" d="M84.406,41.525h-53.32c-1.963,0-4.123,1.596-4.814,3.558L14.191,71.441C13.499,73.404,14.533,75,16.496,75
		h53.319c1.962,0,4.122-1.596,4.813-3.559l12.08-26.357C87.401,43.121,86.368,41.525,84.406,41.525z"/>
	<path fill="#FFFFFF" d="M24.113,44.199c1.064-2.861,4.041-5.004,6.973-5.004h41.427v-4.21c0-1.962-1.598-3.559-3.56-3.559H37.167
		c-0.643,0-1.165-0.521-1.165-1.165v-1.703c0-1.962-1.598-3.559-3.56-3.559h-16.81c-1.962,0-3.558,1.597-3.558,3.559v41.909
		L24.113,44.199z"/>
</g>
</svg>
