<?xml version="1.0" encoding="utf-8"?>
<!-- Generator: Adobe Illustrator 15.1.0, SVG Export Plug-In . SVG Version: 6.00 Build 0)  -->
<!DOCTYPE svg PUBLIC "-//W3C//DTD SVG 1.1 Basic//EN" "http://www.w3.org/Graphics/SVG/1.1/DTD/svg11-basic.dtd">
<svg version="1.1" baseProfile="basic" id="Layer_1"
	 xmlns="http://www.w3.org/2000/svg" xmlns:xlink="http://www.w3.org/1999/xlink" x="0px" y="0px" width="100px" height="100px"
	 viewBox="0 0 100 100" xml:space="preserve">
<path id="lock" fill="#FFFFFF" d="M73.875,61.234c0,13.223-10.694,24.014-23.916,24.014c-13.223,0-23.917-10.791-23.917-24.014
	c0-6.027,2.042-11.568,5.736-15.847l0.292-12.25c0-9.821,8.07-17.89,17.889-17.89c9.916,0,17.985,8.069,17.985,17.89v12.25
	C71.64,49.666,73.875,55.207,73.875,61.234z M33.528,62.888h6.806l0.875-1.653l-0.875-1.847h-6.806V62.888z M42.473,67.457
	l-0.195-1.848l-1.555-1.068l-5.833,3.401l1.653,2.917L42.473,67.457z M34.986,54.431l5.833,3.401l1.75-1.069l0.097-1.847
	l-6.027-3.403L34.986,54.431z M39.653,39.847c6.222-2.916,13.806-3.015,20.708,0v-6.708c0-5.735-4.765-10.306-10.402-10.306
	c-5.639,0-10.306,4.569-10.306,10.306V39.847z M46.556,70.567l-0.972-1.75l-1.848-0.098l-3.5,5.932l2.917,1.652L46.556,70.567z
	 M46.75,52.097l-3.402-6.028l-2.917,1.75l3.403,5.931l1.847-0.098L46.75,52.097z M51.611,70.957l-1.75-0.875l-1.652,0.875v6.806
	h3.402V70.957z M51.903,44.901h-3.5v6.806l1.75,0.875l1.75-0.875V44.901z M56.181,68.817l-1.847,0.195l-1.069,1.652l3.401,5.735
	l3.015-1.652L56.181,68.817z M59.777,48.013l-2.818-1.75l-3.5,5.931l1.069,1.557l1.847,0.097L59.777,48.013z M59.098,64.832
	l-1.557,1.069l-0.097,1.943l6.027,3.307l1.653-2.917L59.098,64.832z M57.64,55.109l0.097,1.848l1.556,1.069l5.932-3.402
	l-1.653-2.917L57.64,55.109z M66.486,59.681h-6.709l-0.973,1.75l0.973,1.651h6.709V59.681z"/>
</svg>
