<?xml version="1.0" encoding="utf-8"?>
<!-- Generator: Adobe Illustrator 15.1.0, SVG Export Plug-In . SVG Version: 6.00 Build 0)  -->
<!DOCTYPE svg PUBLIC "-//W3C//DTD SVG 1.1 Basic//EN" "http://www.w3.org/Graphics/SVG/1.1/DTD/svg11-basic.dtd">
<svg version="1.1" baseProfile="basic" id="Layer_1"
	 xmlns="http://www.w3.org/2000/svg" xmlns:xlink="http://www.w3.org/1999/xlink" x="0px" y="0px" width="100px" height="100px"
	 viewBox="0 0 100 100" xml:space="preserve">
<g>
	<path fill="#FFFFFF" d="M30.213,75.1c0,1.625-1.354,2.946-3.023,2.946H7.107c-1.67,0-3.023-1.32-3.023-2.946V63.575
		c0-1.629,1.353-2.949,3.023-2.949H27.19c1.67,0,3.023,1.32,3.023,2.949V75.1z"/>
	<path fill="#FFFFFF" d="M62.146,75.1c0,1.625-1.354,2.946-3.023,2.946H39.042c-1.67,0-3.023-1.32-3.023-2.946V63.575
		c0-1.629,1.353-2.949,3.023-2.949h20.081c1.67,0,3.023,1.32,3.023,2.949V75.1z"/>
	<path fill="#FFFFFF" d="M94.084,75.1c0,1.625-1.354,2.946-3.024,2.946H70.978c-1.671,0-3.022-1.32-3.022-2.946V63.575
		c0-1.629,1.352-2.949,3.022-2.949H91.06c1.67,0,3.022,1.32,3.022,2.949V75.1H94.084z"/>
	<path fill="#FFFFFF" d="M63.876,38.792c0,1.891-1.531,3.424-3.423,3.424H37.712c-1.891,0-3.423-1.533-3.423-3.424v-13.38
		c0.002-1.892,1.533-3.424,3.423-3.424h22.741c1.892,0,3.423,1.533,3.423,3.424V38.792z"/>
	<polygon fill="#FFFFFF" points="50.62,49.37 50.62,43.744 47.547,43.744 47.547,49.37 15.612,49.37 15.612,58.843 18.685,58.843 
		18.685,52.442 47.547,52.442 47.547,58.843 50.62,58.843 50.62,52.442 79.483,52.442 79.483,58.843 82.555,58.843 82.555,49.37 	
		"/>
</g>
</svg>
