<?xml version="1.0" encoding="utf-8"?>
<!-- Generator: Adobe Illustrator 15.1.0, SVG Export Plug-In . SVG Version: 6.00 Build 0)  -->
<!DOCTYPE svg PUBLIC "-//W3C//DTD SVG 1.1 Basic//EN" "http://www.w3.org/Graphics/SVG/1.1/DTD/svg11-basic.dtd">
<svg version="1.1" baseProfile="basic" id="Layer_1"
	 xmlns="http://www.w3.org/2000/svg" xmlns:xlink="http://www.w3.org/1999/xlink" x="0px" y="0px" width="100px" height="100px"
	 viewBox="0 0 100 100" xml:space="preserve">
<path id="note" fill="#FFFFFF" d="M67.879,20.934c3.623,0,7.564,2.983,7.564,6.5v51.567c0,3.622-2.876,6.499-6.498,6.499h-38.89
	c-3.623,0-6.5-2.877-6.5-6.499V27.433c0-3.516,2.876-6.499,6.5-6.499h1.492v-3.516c0-1.065,0.853-1.918,1.918-1.918
	c1.066,0,1.918,0.853,1.918,1.918v3.516h6.819v-3.516c0-1.065,0.853-1.918,1.918-1.918s1.918,0.853,1.918,1.918v3.516h6.818v-3.516
	c0-1.065,0.854-1.918,1.918-1.918c1.065,0,1.918,0.853,1.918,1.918v3.516h6.818v-3.516c0-1.065,0.853-1.918,1.917-1.918
	c1.065,0,1.918,0.853,1.918,1.918v3.516H67.879z M69.69,24.77c0-1.705-0.959-3.09-2.345-3.729v4.155
	c0,1.065-0.853,1.917-1.918,1.917c-1.064,0-1.917-0.852-1.917-1.917v-4.155c-1.278,0.64-2.237,2.024-2.237,3.729h-2.237
	c0-1.705-0.958-3.09-2.344-3.729v4.155c0,1.065-0.853,1.918-1.918,1.918c-1.064,0-1.918-0.852-1.918-1.918v-4.155
	c-1.278,0.64-2.237,2.024-2.237,3.729h-2.237c0-1.705-0.958-3.09-2.344-3.729v4.155c0,1.065-0.853,1.918-1.918,1.918
	s-1.918-0.852-1.918-1.918v-4.155c-1.279,0.64-2.237,2.024-2.237,3.729h-2.237c0-1.705-0.959-3.09-2.345-3.729v4.155
	c0,1.065-0.852,1.918-1.918,1.918c-1.065,0-1.918-0.852-1.918-1.918v-4.155c-1.279,0.64-2.237,2.024-2.237,3.729v54.977h40.381
	L69.69,24.77L69.69,24.77z M38.153,41.498h22.693v2.876H38.153V41.498z M38.153,51.832h22.693v2.876H38.153V51.832z M38.153,62.272
	h22.693v2.877H38.153V62.272z"/>
</svg>
