<?xml version="1.0" encoding="utf-8"?>
<!-- Generator: Adobe Illustrator 15.1.0, SVG Export Plug-In . SVG Version: 6.00 Build 0)  -->
<!DOCTYPE svg PUBLIC "-//W3C//DTD SVG 1.1//EN" "http://www.w3.org/Graphics/SVG/1.1/DTD/svg11.dtd">
<svg version="1.1" id="Layer_1" xmlns="http://www.w3.org/2000/svg" xmlns:xlink="http://www.w3.org/1999/xlink" x="0px" y="0px"
	 width="100px" height="100px" viewBox="0 0 100 100" enable-background="new 0 0 100 100" xml:space="preserve">
<g id="picture">
	<path fill="#FFFFFF" d="M84.113,20.077H39.539h-4.616H17.724c-2.286,0-4.724,1.867-4.724,4.04v51.248
		c0,2.173,2.438,3.559,4.724,3.559h66.389c2.292,0,3.887-1.386,3.887-3.559v-17.21v-4.616V24.117
		C88,21.944,86.405,20.077,84.113,20.077z M82.23,58.154v15H19.923V25.846h15h4.616H82.23v27.692V58.154z"/>
	<polygon fill="#FFFFFF" points="62.395,46.444 48.842,61.855 39.539,52.171 39.363,51.711 23.951,69.692 77.886,69.692 	"/>
	<circle fill="#FFFFFF" cx="33.769" cy="39.692" r="5.769"/>
</g>
</svg>
