<?xml version="1.0" encoding="utf-8"?>
<!-- Generator: Adobe Illustrator 15.1.0, SVG Export Plug-In . SVG Version: 6.00 Build 0)  -->
<!DOCTYPE svg PUBLIC "-//W3C//DTD SVG 1.1 Basic//EN" "http://www.w3.org/Graphics/SVG/1.1/DTD/svg11-basic.dtd">
<svg version="1.1" baseProfile="basic" id="Layer_1"
	 xmlns="http://www.w3.org/2000/svg" xmlns:xlink="http://www.w3.org/1999/xlink" x="0px" y="0px" width="100px" height="100px"
	 viewBox="0 0 100 100" xml:space="preserve">
<path fill="#FFFFFF" d="M76.384,30.4H64.399L58.584,22h-9.5h-9.5l-5.815,8.4H21.784c-4.253,0-7.7,3.447-7.7,7.7v32.2
	c0,4.253,3.447,7.7,7.7,7.7h54.6c4.252,0,7.7-3.447,7.7-7.7V38.1C84.084,33.847,80.636,30.4,76.384,30.4z M44.884,38.8h-2.8v-5.6
	h2.8V38.8z M50.483,38.8h-2.8v-5.6h2.8V38.8z M56.083,38.8h-2.8v-5.6h2.8V38.8z M38.876,30.4l2.908-4.2h7.3h7.299l2.908,4.2H38.876z
	"/>
</svg>
