<?xml version="1.0" encoding="utf-8"?>
<!-- Generator: Adobe Illustrator 16.0.0, SVG Export Plug-In . SVG Version: 6.00 Build 0)  -->
<!DOCTYPE svg PUBLIC "-//W3C//DTD SVG 1.1 Basic//EN" "http://www.w3.org/Graphics/SVG/1.1/DTD/svg11-basic.dtd">
<svg version="1.1" baseProfile="basic" id="Layer_1"
	 xmlns="http://www.w3.org/2000/svg" xmlns:xlink="http://www.w3.org/1999/xlink" x="0px" y="0px" width="100px" height="100px"
	 viewBox="0 0 100 100" xml:space="preserve">
<g id="Layer_1_1_">
	<rect fill="none" width="100" height="100"/>
</g>
<g>
	<path fill="#FFFFFF" d="M32.492,75.041V23.853h17.543c2.765,0,5.25,0.276,7.454,0.826c2.202,0.551,4.066,1.389,5.59,2.514
		s2.689,2.561,3.498,4.307c0.809,1.746,1.213,3.814,1.213,6.205c0,2.344-0.633,4.453-1.898,6.328
		c-1.266,1.875-3.117,3.328-5.555,4.359c1.477,0.399,2.76,0.979,3.85,1.74c1.09,0.762,1.992,1.659,2.707,2.69s1.248,2.168,1.6,3.41
		s0.527,2.531,0.527,3.867c0,2.461-0.404,4.623-1.213,6.486s-1.98,3.422-3.516,4.676s-3.398,2.197-5.59,2.83
		c-2.192,0.633-4.671,0.949-7.436,0.949H32.492z M41.386,45.404h8.719c2.765,0,4.927-0.627,6.487-1.881
		c1.559-1.253,2.338-3.029,2.338-5.326c0-2.531-0.721-4.359-2.162-5.484s-3.687-1.688-6.733-1.688h-8.648V45.404z M41.386,51.943
		v15.996h9.879c1.453,0,2.736-0.188,3.85-0.562c1.112-0.375,2.044-0.908,2.795-1.6c0.75-0.691,1.312-1.518,1.688-2.479
		c0.374-0.961,0.562-2.027,0.562-3.199c0-2.531-0.668-4.523-2.004-5.977s-3.504-2.18-6.504-2.18H41.386z"/>
</g>
</svg>
