<?xml version="1.0" encoding="utf-8"?>
<!-- Generator: Adobe Illustrator 16.0.0, SVG Export Plug-In . SVG Version: 6.00 Build 0)  -->
<!DOCTYPE svg PUBLIC "-//W3C//DTD SVG 1.1 Basic//EN" "http://www.w3.org/Graphics/SVG/1.1/DTD/svg11-basic.dtd">
<svg version="1.1" baseProfile="basic" id="Layer_1"
	 xmlns="http://www.w3.org/2000/svg" xmlns:xlink="http://www.w3.org/1999/xlink" x="0px" y="0px" width="100px" height="100px"
	 viewBox="0 0 100 100" xml:space="preserve">
<g id="Layer_1_1_">
	<rect fill="none" width="100" height="100"/>
</g>
<g>
	<path fill="#FFFFFF" d="M70.76,58.377c-0.234,2.508-0.82,4.822-1.758,6.943s-2.238,3.955-3.902,5.502s-3.697,2.754-6.1,3.621
		c-2.403,0.866-5.174,1.301-8.314,1.301c-3.142,0-5.983-0.568-8.526-1.705c-2.543-1.137-4.711-2.754-6.504-4.852
		s-3.17-4.635-4.131-7.611c-0.961-2.977-1.441-6.316-1.441-10.02v-4.149c0-3.679,0.492-7.014,1.477-10.002s2.391-5.537,4.219-7.646
		s4.037-3.738,6.627-4.887c2.589-1.148,5.49-1.723,8.702-1.723c3.046,0,5.742,0.439,8.086,1.318s4.33,2.098,5.959,3.656
		c1.629,1.559,2.906,3.416,3.832,5.572c0.926,2.157,1.518,4.512,1.775,7.066H61.9c-0.188-1.617-0.51-3.07-0.967-4.359
		c-0.457-1.289-1.107-2.385-1.951-3.287c-0.844-0.902-1.911-1.587-3.199-2.057c-1.289-0.469-2.848-0.703-4.676-0.703
		c-2.017,0-3.78,0.381-5.292,1.143c-1.512,0.762-2.772,1.863-3.779,3.305c-1.008,1.441-1.764,3.217-2.268,5.326
		c-0.504,2.109-0.756,4.512-0.756,7.207v4.219c0,2.555,0.223,4.875,0.668,6.961c0.445,2.086,1.137,3.873,2.074,5.361
		c0.937,1.488,2.145,2.643,3.621,3.463s3.246,1.23,5.309,1.23c1.921,0,3.545-0.223,4.869-0.668c1.323-0.445,2.42-1.102,3.287-1.969
		c0.866-0.867,1.541-1.934,2.021-3.199s0.826-2.719,1.037-4.359H70.76z"/>
</g>
</svg>
