<?xml version="1.0" encoding="utf-8"?>
<!-- Generator: Adobe Illustrator 16.0.0, SVG Export Plug-In . SVG Version: 6.00 Build 0)  -->
<!DOCTYPE svg PUBLIC "-//W3C//DTD SVG 1.1 Basic//EN" "http://www.w3.org/Graphics/SVG/1.1/DTD/svg11-basic.dtd">
<svg version="1.1" baseProfile="basic" id="Layer_1"
	 xmlns="http://www.w3.org/2000/svg" xmlns:xlink="http://www.w3.org/1999/xlink" x="0px" y="0px" width="100px" height="100px"
	 viewBox="0 0 100 100" xml:space="preserve">
<g id="Layer_1_1_">
	<rect fill="none" width="100" height="100"/>
</g>
<g>
	<path fill="#FFFFFF" d="M31.683,75.041V23.853H46.8c3.422,0,6.544,0.575,9.37,1.723c2.824,1.148,5.25,2.783,7.277,4.904
		c2.027,2.122,3.604,4.682,4.729,7.682c1.125,3,1.688,6.352,1.688,10.055v2.532c0,3.703-0.557,7.049-1.67,10.037
		s-2.695,5.537-4.746,7.646s-4.523,3.738-7.418,4.887c-2.896,1.148-6.112,1.723-9.651,1.723H31.683z M40.578,31.025v36.915h5.801
		c2.414,0,4.536-0.393,6.364-1.178s3.345-1.916,4.553-3.393c1.207-1.477,2.114-3.281,2.725-5.414
		c0.609-2.133,0.914-4.535,0.914-7.207v-2.602c0-5.555-1.208-9.796-3.621-12.727c-2.414-2.93-5.919-4.395-10.512-4.395H40.578z"/>
</g>
</svg>
