<?xml version="1.0" encoding="utf-8"?>
<!-- Generator: Adobe Illustrator 16.0.0, SVG Export Plug-In . SVG Version: 6.00 Build 0)  -->
<!DOCTYPE svg PUBLIC "-//W3C//DTD SVG 1.1 Basic//EN" "http://www.w3.org/Graphics/SVG/1.1/DTD/svg11-basic.dtd">
<svg version="1.1" baseProfile="basic" id="Layer_1"
	 xmlns="http://www.w3.org/2000/svg" xmlns:xlink="http://www.w3.org/1999/xlink" x="0px" y="0px" width="100px" height="100px"
	 viewBox="0 0 100 100" xml:space="preserve">
<g id="Layer_1_1_">
	<rect fill="none" width="100" height="100"/>
</g>
<g>
	<path fill="#FFFFFF" d="M69.934,68.396c-0.539,0.703-1.289,1.482-2.25,2.338s-2.197,1.652-3.709,2.391s-3.328,1.359-5.449,1.863
		c-2.122,0.504-4.611,0.756-7.471,0.756c-3.212,0-6.159-0.551-8.842-1.652c-2.684-1.102-4.987-2.695-6.908-4.781
		c-1.922-2.086-3.416-4.652-4.482-7.699c-1.067-3.047-1.6-6.527-1.6-10.441v-3.375c0-3.89,0.48-7.365,1.441-10.424
		c0.961-3.059,2.343-5.643,4.148-7.752c1.805-2.109,4.008-3.714,6.609-4.816c2.602-1.102,5.555-1.652,8.859-1.652
		c3.117,0,5.836,0.404,8.157,1.213s4.277,1.939,5.871,3.393c1.594,1.454,2.848,3.182,3.762,5.186s1.523,4.201,1.828,6.592H61.18
		c-0.211-1.336-0.562-2.566-1.055-3.691s-1.166-2.097-2.021-2.918c-0.856-0.82-1.911-1.464-3.164-1.934
		c-1.254-0.469-2.748-0.703-4.483-0.703c-2.086,0-3.897,0.387-5.432,1.16c-1.535,0.773-2.812,1.904-3.832,3.393
		c-1.02,1.489-1.781,3.317-2.285,5.484c-0.504,2.168-0.756,4.635-0.756,7.4v3.446c0,2.812,0.304,5.303,0.914,7.471
		c0.609,2.168,1.482,3.99,2.619,5.467c1.137,1.477,2.519,2.602,4.148,3.375c1.629,0.773,3.475,1.16,5.538,1.16
		c1.523,0,2.83-0.1,3.92-0.299s2.009-0.451,2.76-0.756c0.75-0.305,1.365-0.639,1.846-1.002s0.873-0.709,1.178-1.037v-10.02H50.527
		v-6.75h19.406V68.396z"/>
</g>
</svg>
