<?xml version="1.0" encoding="utf-8"?>
<!-- Generator: Adobe Illustrator 16.0.0, SVG Export Plug-In . SVG Version: 6.00 Build 0)  -->
<!DOCTYPE svg PUBLIC "-//W3C//DTD SVG 1.1 Basic//EN" "http://www.w3.org/Graphics/SVG/1.1/DTD/svg11-basic.dtd">
<svg version="1.1" baseProfile="basic" id="Layer_1"
	 xmlns="http://www.w3.org/2000/svg" xmlns:xlink="http://www.w3.org/1999/xlink" x="0px" y="0px" width="100px" height="100px"
	 viewBox="0 0 100 100" xml:space="preserve">
<g id="Layer_1_1_">
	<rect fill="none" width="100" height="100"/>
</g>
<g>
	<path fill="#FFFFFF" d="M56.17,23.853h8.859v35.895c0,2.531-0.416,4.793-1.248,6.785s-1.992,3.668-3.48,5.027
		s-3.252,2.396-5.291,3.111s-4.266,1.072-6.68,1.072c-2.438,0-4.682-0.305-6.732-0.914c-2.051-0.609-3.814-1.547-5.291-2.812
		s-2.631-2.859-3.463-4.781c-0.832-1.922-1.248-4.184-1.248-6.785h8.859c0,1.477,0.193,2.736,0.58,3.779s0.926,1.887,1.617,2.531
		c0.691,0.645,1.517,1.119,2.479,1.424c0.961,0.305,2.027,0.457,3.199,0.457c1.148,0,2.203-0.193,3.164-0.58
		s1.787-0.955,2.479-1.705s1.23-1.676,1.617-2.777s0.58-2.379,0.58-3.832V23.853z"/>
</g>
</svg>
