<?xml version="1.0" encoding="utf-8"?>
<!-- Generator: Adobe Illustrator 16.0.0, SVG Export Plug-In . SVG Version: 6.00 Build 0)  -->
<!DOCTYPE svg PUBLIC "-//W3C//DTD SVG 1.1 Basic//EN" "http://www.w3.org/Graphics/SVG/1.1/DTD/svg11-basic.dtd">
<svg version="1.1" baseProfile="basic" id="Layer_1"
	 xmlns="http://www.w3.org/2000/svg" xmlns:xlink="http://www.w3.org/1999/xlink" x="0px" y="0px" width="100px" height="100px"
	 viewBox="0 0 100 100" xml:space="preserve">
<g id="Layer_1_1_">
	<rect fill="none" width="100" height="100"/>
</g>
<g>
	<path fill="#FFFFFF" d="M41.088,56.021v19.02h-8.895V23.853h19.582c2.977,0,5.619,0.404,7.928,1.213s4.26,1.939,5.854,3.393
		c1.594,1.454,2.807,3.176,3.639,5.168c0.832,1.992,1.248,4.161,1.248,6.504c0,2.484-0.416,4.711-1.248,6.68
		s-2.045,3.633-3.639,4.993s-3.545,2.402-5.854,3.129s-4.951,1.09-7.928,1.09H41.088z M41.088,48.884h10.688
		c1.711,0,3.182-0.211,4.412-0.633s2.244-1.02,3.041-1.793s1.377-1.693,1.74-2.76c0.363-1.066,0.545-2.232,0.545-3.498
		c0-1.195-0.182-2.343-0.545-3.445c-0.363-1.102-0.943-2.08-1.74-2.936c-0.797-0.855-1.811-1.535-3.041-2.039
		c-1.23-0.504-2.701-0.756-4.412-0.756H41.088V48.884z"/>
</g>
</svg>
