<?xml version="1.0" encoding="utf-8"?>
<!-- Generator: Adobe Illustrator 16.0.0, SVG Export Plug-In . SVG Version: 6.00 Build 0)  -->
<!DOCTYPE svg PUBLIC "-//W3C//DTD SVG 1.1 Basic//EN" "http://www.w3.org/Graphics/SVG/1.1/DTD/svg11-basic.dtd">
<svg version="1.1" baseProfile="basic" id="Layer_1"
	 xmlns="http://www.w3.org/2000/svg" xmlns:xlink="http://www.w3.org/1999/xlink" x="0px" y="0px" width="100px" height="100px"
	 viewBox="0 0 100 100" xml:space="preserve">
<g id="Layer_1_1_">
	<rect fill="none" width="100" height="100"/>
</g>
<g>
	<path fill="#FFFFFF" d="M71.023,50.783c0,4.852-0.768,9.053-2.303,12.604s-3.686,6.369-6.451,8.455l8.789,6.855L65.293,83.9
		l-10.898-8.613c-1.43,0.304-2.965,0.457-4.605,0.457c-3.117,0-5.977-0.575-8.578-1.723c-2.602-1.148-4.846-2.795-6.732-4.939
		c-1.887-2.145-3.352-4.758-4.395-7.84c-1.043-3.082-1.564-6.568-1.564-10.459v-2.602c0-3.89,0.521-7.383,1.564-10.477
		c1.042-3.094,2.496-5.718,4.359-7.875c1.863-2.156,4.096-3.809,6.697-4.957c2.602-1.148,5.461-1.723,8.578-1.723
		c3.188,0,6.094,0.575,8.719,1.723c2.625,1.148,4.869,2.801,6.732,4.957c1.863,2.157,3.305,4.781,4.324,7.875
		s1.529,6.586,1.529,10.477V50.783z M62.094,48.111c0-5.766-1.078-10.137-3.234-13.113c-2.156-2.976-5.203-4.465-9.141-4.465
		c-1.898,0-3.604,0.381-5.115,1.143c-1.512,0.762-2.801,1.881-3.867,3.357c-1.067,1.477-1.887,3.311-2.461,5.502
		c-0.575,2.192-0.861,4.717-0.861,7.576v2.672c0,2.859,0.293,5.391,0.879,7.594c0.585,2.203,1.412,4.049,2.479,5.537
		c1.066,1.488,2.361,2.613,3.885,3.375c1.523,0.762,3.234,1.143,5.133,1.143c3.961,0,7.002-1.5,9.123-4.5s3.182-7.383,3.182-13.148
		V48.111z"/>
</g>
</svg>
