<?xml version="1.0" encoding="utf-8"?>
<!-- Generator: Adobe Illustrator 16.0.0, SVG Export Plug-In . SVG Version: 6.00 Build 0)  -->
<!DOCTYPE svg PUBLIC "-//W3C//DTD SVG 1.1 Basic//EN" "http://www.w3.org/Graphics/SVG/1.1/DTD/svg11-basic.dtd">
<svg version="1.1" baseProfile="basic" id="Layer_1"
	 xmlns="http://www.w3.org/2000/svg" xmlns:xlink="http://www.w3.org/1999/xlink" x="0px" y="0px" width="100px" height="100px"
	 viewBox="0 0 100 100" xml:space="preserve">
<g id="Layer_1_1_">
	<rect fill="none" width="100" height="100"/>
</g>
<g>
	<path fill="#FFFFFF" d="M69.178,23.853v34.243c0,2.93-0.498,5.496-1.494,7.699s-2.361,4.043-4.096,5.52s-3.762,2.584-6.082,3.322
		s-4.805,1.107-7.453,1.107c-2.742,0-5.279-0.369-7.611-1.107c-2.333-0.738-4.354-1.846-6.064-3.322
		c-1.711-1.477-3.047-3.316-4.008-5.52c-0.961-2.203-1.441-4.77-1.441-7.699V23.853h8.859v34.243c0,1.828,0.24,3.404,0.721,4.729
		c0.48,1.324,1.166,2.42,2.057,3.287c0.891,0.867,1.969,1.506,3.234,1.916s2.684,0.615,4.254,0.615s2.994-0.205,4.271-0.615
		s2.355-1.049,3.234-1.916s1.559-1.963,2.039-3.287s0.721-2.9,0.721-4.729V23.853H69.178z"/>
</g>
</svg>
