<?xml version="1.0" encoding="utf-8"?>
<!-- Generator: Adobe Illustrator 15.1.0, SVG Export Plug-In . SVG Version: 6.00 Build 0)  -->
<!DOCTYPE svg PUBLIC "-//W3C//DTD SVG 1.1 Basic//EN" "http://www.w3.org/Graphics/SVG/1.1/DTD/svg11-basic.dtd">
<svg version="1.1" baseProfile="basic" id="Layer_1"
	 xmlns="http://www.w3.org/2000/svg" xmlns:xlink="http://www.w3.org/1999/xlink" x="0px" y="0px" width="100px" height="100px"
	 viewBox="0 0 100 100" xml:space="preserve">
<g>
	<path fill="#FFFFFF" d="M20.783,47.748h4.262v-6.872l3.046,6.872h1.84l3.039-6.866l0.008,6.866h2.148v-8.767h-3.489l-2.52,5.948
		l-2.743-5.948h-3.42v8.301l-3.564-8.301h-3.113l-3.753,8.767h2.276l0.813-1.955h4.363L20.783,47.748z M16.36,43.965l1.426-3.495
		l1.434,3.495H16.36z"/>
	<path fill="#FFFFFF" d="M84.198,60.96h-4.032v1.881h4.048c1.343,0,2.335-0.378,2.844-1.122c0.296-0.429,0.442-0.976,0.442-1.646
		c0-0.766-0.146-1.241-0.442-1.641c-0.059-0.075-0.109-0.149-0.193-0.218c-0.467-0.48-1.233-0.677-2.379-0.705l-1.135-0.03
		c-0.35,0-0.587-0.023-0.808-0.1c-0.272-0.098-0.459-0.322-0.459-0.653c0-0.278,0.085-0.489,0.306-0.631
		c0.214-0.144,0.468-0.158,0.849-0.158h3.819V11.586H12.5v31.469l2.538-5.813h5.465l0.704,1.444v-1.444h6.408l1.401,3.158
		l1.365-3.158h20.344c0.925,0,1.756,0.172,2.366,0.714v-0.714h5.569v0.714c0.959-0.525,2.146-0.714,3.497-0.714h8.069l0.748,1.444
		v-1.444h5.975l0.814,1.444v-1.444h5.822V49.47h-5.883l-1.112-1.849v1.849h-7.341l-0.796-1.947h-1.809l-0.814,1.947h-3.81
		c-1.495,0-2.632-0.353-3.361-0.744v0.744h-9.056v-2.775c0-0.391-0.069-0.413-0.307-0.421H48.96l0.008,3.196H31.461v-1.511
		l-0.629,1.517h-3.657l-0.629-1.495v1.489h-7.045l-0.806-1.947h-1.807l-0.807,1.947H12.5v36.944h74.558V63.998
		c-0.839,0.406-1.943,0.564-3.073,0.564h-5.43v-0.783c-0.63,0.504-1.765,0.783-2.852,0.783H58.584v-2.829
		c0-0.346-0.034-0.359-0.381-0.359h-0.272v3.188h-5.635V61.26c-0.943,0.408-2.012,0.444-2.919,0.43h-0.672v2.88l-6.832-0.007
		l-1.68-1.901l-1.783,1.901H27.327V52.326h11.296l1.621,1.873l1.73-1.873h7.562c0.875,0,2.309,0.092,2.954,0.717v-0.717h6.757
		c0.635,0,2.011,0.129,2.825,0.717v-0.717h10.244v0.717c0.51-0.488,1.586-0.717,2.503-0.717h5.737v0.717
		c0.602-0.437,1.452-0.717,2.622-0.717h3.879v1.745h-4.174c-2.199,0-3.007,1.34-3.007,2.61c0,2.775,2.454,2.647,4.422,2.715
		c0.365,0,0.586,0.061,0.738,0.194c0.154,0.121,0.256,0.324,0.256,0.58c0,0.239-0.102,0.436-0.248,0.572
		C84.877,60.907,84.598,60.96,84.198,60.96z"/>
	<polygon fill="#FFFFFF" points="43.688,45.936 38.784,45.936 38.784,44.184 43.571,44.184 43.571,42.387 38.784,42.387 
		38.784,40.807 43.688,40.807 43.688,38.981 36.688,38.981 36.688,47.748 43.688,47.748 	"/>
	<path fill="#FFFFFF" d="M76.017,60.96h-4.064v1.881h4.081c2.113,0,3.292-0.881,3.292-2.768c0-0.902-0.219-1.436-0.627-1.858
		c-0.475-0.48-1.256-0.677-2.393-0.704l-1.128-0.031c-0.358,0-0.595-0.022-0.816-0.1c-0.264-0.098-0.458-0.322-0.458-0.653
		c0-0.278,0.085-0.488,0.314-0.631c0.211-0.144,0.459-0.157,0.84-0.157h3.844v-1.867H74.7c-2.197,0-2.996,1.34-2.996,2.61
		c0,2.775,2.454,2.647,4.414,2.715c0.365,0,0.586,0.061,0.746,0.194c0.145,0.121,0.256,0.324,0.256,0.58
		c0,0.239-0.104,0.436-0.247,0.572C76.695,60.907,76.414,60.96,76.017,60.96z"/>
	<path fill="#FFFFFF" d="M62.098,47.748h2.452l0.791-1.955h4.353l0.816,1.955h4.267v-6.58l3.974,6.58h2.969v-8.767h-2.146v6.106
		l-3.685-6.106h-3.189v8.292l-3.549-8.292h-3.14l-2.954,6.895h-0.941c-0.552,0-1.138-0.105-1.46-0.452
		c-0.39-0.442-0.576-1.119-0.576-2.059c0-0.919,0.245-1.617,0.603-1.986c0.416-0.406,0.848-0.519,1.612-0.519h1.986v-1.879h-2.029
		c-1.443,0-2.505,0.323-3.183,1.022c-0.899,0.939-1.129,2.128-1.129,3.428c0,1.594,0.383,2.603,1.119,3.347
		C59.789,47.523,61.078,47.748,62.098,47.748z M67.529,40.47l1.451,3.495h-2.894L67.529,40.47z"/>
	<path fill="#FFFFFF" d="M47.237,44.56h2.25c0.754,0,1.221,0.067,1.527,0.375c0.381,0.422,0.331,1.181,0.331,1.708l0.007,1.105
		h2.115v-1.722c0-0.783-0.052-1.172-0.348-1.608c-0.187-0.255-0.578-0.564-1.037-0.739c0.544-0.216,1.478-0.938,1.478-2.336
		c0-0.978-0.398-1.55-1.061-1.941c-0.678-0.392-1.467-0.42-2.538-0.42h-4.819v8.767h2.095V44.56z M47.236,40.807h2.581
		c0.365,0,0.746,0.017,0.994,0.158c0.271,0.127,0.439,0.399,0.439,0.775c0,0.383-0.16,0.691-0.431,0.833
		c-0.289,0.174-0.629,0.18-1.037,0.18h-2.545V40.807z"/>
	<rect x="54.774" y="38.981" fill="#FFFFFF" width="2.139" height="8.767"/>
	<path fill="#FFFFFF" d="M49.587,54.071h-6.696l-2.666,2.874l-2.578-2.874h-8.428v8.77h8.301l2.682-2.903l2.58,2.903h4.074v-2.941
		h2.614c1.832,0,3.649-0.503,3.649-2.939C53.119,54.532,51.25,54.071,49.587,54.071z M36.459,61.013h-5.152v-1.744h4.601v-1.789
		h-4.601v-1.595h5.254l2.292,2.555L36.459,61.013z M44.768,62.043l-3.218-3.571l3.218-3.46V62.043z M49.563,58.118h-2.708v-2.233
		h2.732c0.757,0,1.282,0.309,1.282,1.075C50.87,57.719,50.368,58.118,49.563,58.118z"/>
	<polygon fill="#FFFFFF" points="70.696,55.885 70.696,54.071 63.701,54.071 63.701,62.841 70.696,62.841 70.696,61.021 
		65.789,61.013 65.789,59.269 70.576,59.269 70.576,57.479 65.789,57.479 65.789,55.885 	"/>
	<path fill="#FFFFFF" d="M62.54,56.432c0-1-0.416-1.547-1.077-1.947c-0.688-0.366-1.461-0.413-2.522-0.413h-4.838v8.77h2.106v-3.203
		h2.239c0.765,0,1.231,0.074,1.538,0.39c0.389,0.407,0.338,1.188,0.338,1.716v1.098h2.104v-1.739
		c-0.008-0.772-0.051-1.172-0.347-1.6c-0.179-0.257-0.56-0.565-1.026-0.736C61.605,58.547,62.54,57.832,62.54,56.432z
		 M59.789,57.674c-0.28,0.166-0.628,0.18-1.034,0.18h-2.546v-1.969h2.58c0.372,0,0.746,0.009,1,0.158
		c0.271,0.142,0.434,0.414,0.434,0.79C60.223,57.207,60.061,57.51,59.789,57.674z"/>
	<rect x="12.5" y="43.056" fill="#FFFFFF" width="0" height="6.414"/>
</g>
</svg>
