<?xml version="1.0" encoding="utf-8"?>
<!-- Generator: Adobe Illustrator 15.1.0, SVG Export Plug-In . SVG Version: 6.00 Build 0)  -->
<!DOCTYPE svg PUBLIC "-//W3C//DTD SVG 1.1 Basic//EN" "http://www.w3.org/Graphics/SVG/1.1/DTD/svg11-basic.dtd">
<svg version="1.1" baseProfile="basic" id="Layer_1"
	 xmlns="http://www.w3.org/2000/svg" xmlns:xlink="http://www.w3.org/1999/xlink" x="0px" y="0px" width="100px" height="100px"
	 viewBox="0 0 100 100" xml:space="preserve">
<g>
	<polygon fill="#FFFFFF" points="49.999,15.783 16.784,34.562 83.216,34.562 	"/>
	<rect x="16.784" y="36.662" fill="#FFFFFF" width="66.432" height="5.229"/>
	<polygon fill="#FFFFFF" points="82.2,75.642 82.2,72.566 78.737,72.566 78.737,43.909 69.76,43.909 69.76,72.566 62.578,72.566 
		62.578,43.909 53.602,43.909 53.602,72.566 46.419,72.566 46.419,43.909 37.442,43.909 37.442,72.566 30.26,72.566 30.26,43.909 
		21.283,43.909 21.275,72.566 17.8,72.566 17.8,75.642 15,75.642 15,82.217 85,82.217 85,75.642 	"/>
</g>
</svg>
