<?xml version="1.0" encoding="utf-8"?>
<!-- Generator: Adobe Illustrator 15.1.0, SVG Export Plug-In . SVG Version: 6.00 Build 0)  -->
<!DOCTYPE svg PUBLIC "-//W3C//DTD SVG 1.1 Basic//EN" "http://www.w3.org/Graphics/SVG/1.1/DTD/svg11-basic.dtd">
<svg version="1.1" baseProfile="basic" id="Layer_1"
	 xmlns="http://www.w3.org/2000/svg" xmlns:xlink="http://www.w3.org/1999/xlink" x="0px" y="0px" width="100px" height="100px"
	 viewBox="0 0 100 100" xml:space="preserve">
<path id="bitcoin" fill="#FFFFFF" d="M70.549,35.645c-0.707-7.641-7.291-10.225-15.613-10.984l0.039-10.595l-6.449-0.023
	l-0.037,10.315c-1.696-0.006-3.429,0.021-5.15,0.049l0.039-10.383L36.932,14l-0.041,10.591c-1.396,0.024-2.768,0.044-4.104,0.041
	l-0.001-0.033l-8.895-0.035l-0.023,6.887c0,0,4.763-0.073,4.683,0.014c2.612,0.01,3.457,1.53,3.699,2.839l-0.043,12.07
	c0.18,0.002,0.416,0.01,0.682,0.047c-0.215,0-0.444-0.002-0.681-0.001l-0.063,16.908c-0.118,0.821-0.606,2.131-2.431,2.127
	c0.083,0.073-4.688-0.019-4.688-0.019l-1.309,7.697l8.393,0.03c1.562,0.008,3.098,0.039,4.606,0.055L36.68,83.934l6.441,0.025
	l0.039-10.603c1.768,0.043,3.48,0.063,5.151,0.068L48.27,83.978L54.719,84l0.041-10.696c10.844-0.583,18.442-3.287,19.421-13.464
	c0.79-8.195-3.053-11.868-9.201-13.368C68.726,44.581,71.075,41.235,70.549,35.645L70.549,35.645z M61.442,58.523
	c-0.024,8.007-13.733,7.047-18.103,7.035l0.053-14.197C47.765,51.378,61.474,50.171,61.442,58.523z M58.517,38.482
	c-0.029,7.286-11.46,6.394-15.101,6.381l0.047-12.876C47.103,32,58.543,30.884,58.517,38.482z"/>
</svg>
