<?xml version="1.0" encoding="utf-8"?>
<!-- Generator: Adobe Illustrator 15.1.0, SVG Export Plug-In . SVG Version: 6.00 Build 0)  -->
<!DOCTYPE svg PUBLIC "-//W3C//DTD SVG 1.1 Basic//EN" "http://www.w3.org/Graphics/SVG/1.1/DTD/svg11-basic.dtd">
<svg version="1.1" baseProfile="basic" id="Layer_1"
	 xmlns="http://www.w3.org/2000/svg" xmlns:xlink="http://www.w3.org/1999/xlink" x="0px" y="0px" width="100px" height="100px"
	 viewBox="0 0 100 100" xml:space="preserve">
<g id="coins">
	<path fill="#FFFFFF" d="M47.113,24.175c0,3.675-8.405,6.652-18.775,6.652c-10.365,0-18.773-2.978-18.773-6.652
		c0-3.675,8.407-6.653,18.773-6.653C38.708,17.522,47.113,20.5,47.113,24.175"/>
	<path fill="#FFFFFF" d="M47.113,29.882"/>
	<path fill="#FFFFFF" d="M47.113,36.839"/>
	<path fill="#FFFFFF" d="M47.113,28.881c0,3.674-8.405,6.653-18.775,6.653c-10.365,0-18.773-2.979-18.773-6.653v6.957
		c0,3.675,8.407,6.653,18.773,6.653c10.37,0,18.775-2.978,18.775-6.653V28.881z"/>
	<path fill="#FFFFFF" d="M47.113,41.189c0,3.674-8.405,6.652-18.775,6.652c-10.365,0-18.773-2.979-18.773-6.652v6.957
		c0,3.673,8.407,6.652,18.773,6.652c10.37,0,18.775-2.979,18.775-6.652V41.189z"/>
	<path fill="#FFFFFF" d="M89.564,48.967c0,3.677-8.405,6.655-18.775,6.655c-10.364,0-18.771-2.979-18.771-6.655
		c0-3.673,8.407-6.651,18.771-6.651C81.159,42.316,89.564,45.293,89.564,48.967"/>
	<path fill="#FFFFFF" d="M89.564,53.675c0,3.674-8.405,6.652-18.775,6.652c-10.364,0-18.771-2.979-18.771-6.652v6.957
		c0,3.674,8.407,6.651,18.771,6.651c10.37,0,18.775-2.978,18.775-6.651V53.675z"/>
	<path fill="#FFFFFF" d="M89.564,65.981c0,3.676-8.405,6.653-18.775,6.653c-10.364,0-18.771-2.978-18.771-6.653v6.957
		c0,3.674,8.407,6.652,18.771,6.652c10.37,0,18.775-2.979,18.775-6.652V65.981z"/>
	<path fill="#FFFFFF" d="M47.113,53.317c0,3.675-8.405,6.653-18.775,6.653c-10.365,0-18.773-2.979-18.773-6.653v6.957
		c0,3.675,8.407,6.652,18.773,6.652c10.37,0,18.775-2.978,18.775-6.652V53.317z"/>
	<path fill="#FFFFFF" d="M47.113,65.804c0,3.676-8.405,6.653-18.775,6.653c-10.365,0-18.773-2.978-18.773-6.653v6.957
		c0,3.674,8.407,6.652,18.773,6.652c10.37,0,18.775-2.979,18.775-6.652V65.804z"/>
</g>
</svg>
