<?xml version="1.0" encoding="utf-8"?>
<!-- Generator: Adobe Illustrator 15.1.0, SVG Export Plug-In . SVG Version: 6.00 Build 0)  -->
<!DOCTYPE svg PUBLIC "-//W3C//DTD SVG 1.1 Basic//EN" "http://www.w3.org/Graphics/SVG/1.1/DTD/svg11-basic.dtd">
<svg version="1.1" baseProfile="basic" id="Layer_1"
	 xmlns="http://www.w3.org/2000/svg" xmlns:xlink="http://www.w3.org/1999/xlink" x="0px" y="0px" width="100px" height="100px"
	 viewBox="0 0 100 100" xml:space="preserve">
<path id="dollar" fill="#FFFFFF" d="M53.099,44.273c-0.023-0.005-0.043-0.01-0.065-0.015v-8.521
	c3.746,0.707,7.669,2.375,11.343,4.959l7.548-10.658c-5.139-4.123-11.296-6.515-18.891-7.08V14.5h-5v8.372
	c-12.171,0.546-19.596,7.642-19.596,17.355v0.158c0,10.89,8.471,14.276,19.596,16.891v8.992c-4.871-0.736-9.514-2.82-13.759-6.2
	l-8.401,10.032c5.907,5.288,13.764,8.241,22.16,8.862V85.5h5v-6.447c12.289-0.533,20.369-7.018,20.369-17.662v-0.16
	C73.402,51.043,65.624,46.997,53.099,44.273z M43.687,38.987v-0.161c0-1.727,1.456-3.123,4.346-3.41v7.524
	C44.675,41.842,43.687,40.778,43.687,38.987z M58.156,62.863c0,2.106-1.809,3.422-5.123,3.666v-7.951
	c3.979,1.229,5.123,2.377,5.123,4.129V62.863z"/>
</svg>
