<?xml version="1.0" encoding="utf-8"?>
<!-- Generator: Adobe Illustrator 15.1.0, SVG Export Plug-In . SVG Version: 6.00 Build 0)  -->
<!DOCTYPE svg PUBLIC "-//W3C//DTD SVG 1.1 Basic//EN" "http://www.w3.org/Graphics/SVG/1.1/DTD/svg11-basic.dtd">
<svg version="1.1" baseProfile="basic" id="Layer_1"
	 xmlns="http://www.w3.org/2000/svg" xmlns:xlink="http://www.w3.org/1999/xlink" x="0px" y="0px" width="100px" height="100px"
	 viewBox="0 0 100 100" xml:space="preserve">
<g>
	<path fill="#FFFFFF" d="M49.51,49.096c0-0.963-0.624-1.53-1.683-1.53c-1.131,0-1.94,0.759-2.269,2.129l3.922,0.007
		C49.499,49.455,49.51,49.252,49.51,49.096z"/>
	<path fill="#FFFFFF" d="M33.28,53.49c0,0.739,0.497,1.212,1.275,1.212c1.45,0,2.495-1.214,2.555-2.969
		c-0.373-0.04-0.536-0.05-0.794-0.05C34.3,51.684,33.28,52.292,33.28,53.49z"/>
	<path fill="#FFFFFF" d="M83.715,47.707c-1.814,0-2.938,2.161-2.938,4.069c0,1.609,0.77,2.69,2.042,2.668
		c0.771,0,2.415-1.059,2.741-2.905c0.076-0.433,0.114-0.905,0.114-1.417C85.674,48.878,85.174,47.707,83.715,47.707z"/>
	<path fill="#FFFFFF" d="M67.859,23.86c-6.383,0-12.191,2.234-16.778,5.98c3.499,3.378,6.17,7.609,7.604,12.39l-2.215,0.001
		c-1.387-4.252-3.822-8.003-6.991-11.013c-3.148,3.002-5.562,6.768-6.945,11.001h-2.214c1.428-4.756,4.053-8.993,7.526-12.36
		c-4.578-3.708-10.358-5.999-16.707-5.999C16.428,23.86,4.5,35.788,4.5,50.501c0,14.712,11.928,26.64,26.64,26.64
		c6.349,0,12.13-2.293,16.706-5.998c-3.473-3.371-6.098-7.606-7.526-12.361h2.215c1.383,4.232,3.797,7.998,6.945,11
		c3.168-3.01,5.603-6.76,6.991-11.012h2.215c-1.435,4.783-4.106,9.012-7.604,12.392c4.587,3.745,10.396,5.979,16.778,5.979
		c14.715,0,26.641-11.928,26.641-26.64C94.5,35.788,82.574,23.86,67.859,23.86z M24.586,57.022L26.7,45.801l-4.867,11.222H18.59
		l-0.592-11.158l-2.122,11.158h-3.228l2.759-14.597h5.55l0.294,9.037l3.913-9.037h5.783l-2.804,14.597H24.586z M40.761,50.717
		l-0.744,4.211l-0.125,0.755l-0.091,0.604l-0.06,0.413l-0.035,0.322H36.75l0.069-1.231c-0.9,0.974-2.1,1.436-3.731,1.436
		c-1.927,0-3.25-1.321-3.25-3.242c0-2.892,2.297-4.577,6.248-4.577c0.405,0,0.919,0.032,1.45,0.091c0.11-0.39,0.14-0.558,0.14-0.771
		c0-0.786-0.62-1.08-2.281-1.08c-1.016,0-2.164,0.129-2.957,0.331l-0.493,0.126l-0.319,0.077l0.493-2.669
		c1.773-0.457,2.943-0.629,4.258-0.629c3.057,0,4.672,1.206,4.672,3.481C41.05,48.95,40.996,49.396,40.761,50.717z M48.272,54.551
		c1.271,0,2.418-0.233,3.693-0.752l-0.591,2.966c-1.218,0.326-2.398,0.484-3.645,0.482c-3.976-0.002-6.048-1.827-6.048-5.318
		c0-4.075,2.636-7.076,6.215-7.076c2.928,0,4.798,1.681,4.798,4.314c0,0.875-0.128,1.728-0.436,2.932h-7.073
		c-0.026,0.183-0.034,0.264-0.034,0.372C45.151,53.849,46.207,54.551,48.272,54.551z M61.854,47.868
		c-0.915-0.111-1.88-0.178-2.585-0.178c-1.163,0-1.762,0.33-1.762,0.969c0,0.554,0.175,0.688,1.682,1.289
		c1.804,0.72,2.538,1.674,2.538,3.305c0,2.707-1.756,3.959-5.552,3.959c-0.467,0-1.129-0.031-1.983-0.098
		c-0.416-0.032-0.73-0.067-0.94-0.104l-0.661-0.12l-0.158-0.027l0.493-2.738c1.152,0.324,2.15,0.47,3.226,0.47
		c1.423,0,2.065-0.335,2.065-1.074c0-0.538-0.227-0.713-1.683-1.309c-1.9-0.776-2.74-1.809-2.74-3.309
		c-0.012-2.19,1.381-4.014,5.406-4.014c0.821,0,2.234,0.104,3.167,0.233L61.854,47.868z M67.404,54.36
		c0.405,0,0.719-0.038,0.958-0.111l-0.47,2.628c-0.975,0.268-1.734,0.385-2.556,0.385c-1.821,0-2.813-0.92-2.813-2.608
		c0-0.334,0.035-0.688,0.104-1.064l0.216-1.161l0.166-0.94l1.648-9.063h3.538l-0.513,2.726H69.5l-0.489,2.886h-1.822l-0.938,4.953
		c-0.041,0.217-0.06,0.381-0.06,0.491C66.19,54.093,66.558,54.36,67.404,54.36z M76.126,48.49c-1.707,0-2.254,1.272-3.526,8.532
		h-3.56l2.168-11.873h3.221l-0.313,1.799c1.09-1.404,1.929-1.927,3.097-1.927c0.13,0,0.252,0.01,0.359,0.03
		c0.017,0.003,0.117,0.027,0.305,0.069c0.035,0.01,0.105,0.01,0.403,0.128l-1.29,3.357l-0.415-0.086
		C76.403,48.5,76.254,48.49,76.126,48.49z M82.429,57.34c-4.024,0-5.65-2.459-5.65-5.473c0-4.206,2.752-7.058,7.005-7.058
		c3.689,0,5.648,2.345,5.648,5.357c0,0.733-0.001,0.783-0.094,1.473C88.805,55.589,86.067,57.34,82.429,57.34z"/>
</g>
</svg>
