<?xml version="1.0" encoding="utf-8"?>
<!-- Generator: Adobe Illustrator 15.1.0, SVG Export Plug-In . SVG Version: 6.00 Build 0)  -->
<!DOCTYPE svg PUBLIC "-//W3C//DTD SVG 1.1 Basic//EN" "http://www.w3.org/Graphics/SVG/1.1/DTD/svg11-basic.dtd">
<svg version="1.1" baseProfile="basic" id="Layer_1"
	 xmlns="http://www.w3.org/2000/svg" xmlns:xlink="http://www.w3.org/1999/xlink" x="0px" y="0px" width="100px" height="100px"
	 viewBox="0 0 100 100" xml:space="preserve">
<g id="money">
	<path fill="#FFFFFF" d="M49.667,43.399c0.497-0.139,0.963-0.313,1.403-0.517c0.439-0.206,0.806-0.449,1.095-0.729
		c0.47-0.455,0.55-0.794,0.229-1.015c-0.317-0.222-1.043-0.417-2.184-0.588l-3.499,3.321c0.431-0.022,0.909-0.072,1.43-0.147
		C48.661,43.647,49.171,43.54,49.667,43.399z"/>
	<path fill="#FFFFFF" d="M51.136,37.839l2.997-2.805c-0.382,0.013-0.78,0.052-1.202,0.12c-0.415,0.066-0.838,0.165-1.257,0.291
		c-0.422,0.128-0.808,0.282-1.168,0.463c-0.358,0.18-0.668,0.391-0.925,0.628c-0.407,0.375-0.486,0.659-0.239,0.855
		C49.595,37.584,50.192,37.735,51.136,37.839z"/>
	<path fill="#FFFFFF" d="M72.493,51.55c0.313,0,0.612-0.124,0.834-0.344l21.328-20.799c0.336-0.336,0.438-0.842,0.255-1.283
		c-0.181-0.44-0.611-0.726-1.086-0.726H28.311c-0.284,0-0.558,0.102-0.772,0.288L5.404,49.485c-0.369,0.322-0.502,0.84-0.33,1.299
		c0.171,0.461,0.611,0.766,1.103,0.766H72.493z M38.672,41.671l4.808-0.038c-0.728,0.646-0.94,1.155-0.644,1.526
		c0.3,0.374,0.915,0.612,1.85,0.714l3.843-3.595c-0.089-0.022-0.215-0.044-0.374-0.071c-0.165-0.026-0.345-0.048-0.545-0.07
		c-0.712-0.102-1.394-0.226-2.041-0.367c-0.645-0.142-1.15-0.333-1.513-0.579c-0.367-0.241-0.533-0.546-0.5-0.916
		c0.036-0.368,0.364-0.832,0.985-1.391c0.635-0.571,1.411-1.08,2.333-1.529c0.92-0.45,1.9-0.835,2.944-1.156
		c1.042-0.322,2.121-0.582,3.236-0.779c1.113-0.197,2.192-0.33,3.23-0.401l1.41-1.321l1.978-0.079l-1.407,1.329
		c0.94,0.024,1.765,0.104,2.469,0.241c0.709,0.141,1.24,0.35,1.6,0.626c0.363,0.278,0.525,0.635,0.495,1.072
		c-0.032,0.437-0.326,0.96-0.888,1.574l-4.786,0.113c0.467-0.466,0.598-0.854,0.401-1.165c-0.199-0.309-0.675-0.452-1.438-0.43
		l-3.24,3.063c0.234,0.028,0.47,0.057,0.717,0.086c0.244,0.03,0.496,0.066,0.762,0.106c1.426,0.202,2.405,0.469,2.95,0.799
		c0.545,0.333,0.838,0.687,0.88,1.058c0.045,0.373-0.082,0.748-0.389,1.126c-0.308,0.378-0.61,0.715-0.91,1.012
		c-0.266,0.259-0.722,0.589-1.376,0.985c-0.648,0.397-1.493,0.785-2.526,1.163c-1.037,0.375-2.251,0.708-3.646,0.996
		c-1.398,0.286-2.985,0.455-4.755,0.505l-1.557,1.47l-2.04-0.019l1.562-1.462c-2.464-0.104-4.039-0.503-4.723-1.197
		C37.149,43.987,37.432,42.989,38.672,41.671z"/>
	<path fill="#FFFFFF" d="M73.873,55.868H5.279v4.71h69.568c0.623,0,1.222-0.248,1.664-0.69L95,41.57v-6.831L73.873,55.868z"/>
	<path fill="#FFFFFF" d="M5.279,64.893v4.709h71.924c0.623,0,1.222-0.248,1.664-0.69L95,52.849v-6.729L76.229,64.893H5.279z"/>
</g>
</svg>
