<?xml version="1.0" encoding="utf-8"?>
<!-- Generator: Adobe Illustrator 15.1.0, SVG Export Plug-In . SVG Version: 6.00 Build 0)  -->
<!DOCTYPE svg PUBLIC "-//W3C//DTD SVG 1.1 Basic//EN" "http://www.w3.org/Graphics/SVG/1.1/DTD/svg11-basic.dtd">
<svg version="1.1" baseProfile="basic" id="Layer_1"
	 xmlns="http://www.w3.org/2000/svg" xmlns:xlink="http://www.w3.org/1999/xlink" x="0px" y="0px" width="100px" height="100px"
	 viewBox="0 0 100 100" xml:space="preserve">
<path id="path42" fill="#FFFFFF" d="M81.571,41.506c-1.602,0.087-3.124,0.347-4.685,0.711c-0.345,0.081-0.693,0.196-1.043,0.249
	c-0.383,0.058-0.279,0.409-0.322,0.771c-0.129,1.071-0.257,2.143-0.385,3.214c1.657-0.792,3.781-1.117,5.599-1.127
	c0.712-0.004,1.605,0.013,2.185,0.493c0.228,0.189,0.368,0.452,0.415,0.744c0.035,0.214,0.023,0.435-0.01,0.648
	c-0.066,0.421-0.37,0.254-0.73,0.259c-3.177,0.052-7.542,0.309-9.529,3.227c-1.487,2.183-1.407,5.959,1.306,7.13
	c2.263,0.977,5.32,0.157,7.026-1.545c-0.121,0.542-0.241,1.086-0.362,1.627c0.561,0,5.381,0.203,5.429-0.019
	c0.441-2.019,0.882-4.038,1.322-6.057c0.418-1.912,1.217-4.1,1.163-6.083C88.846,41.979,84.457,41.517,81.571,41.506L81.571,41.506z
	 M81.161,51.082c0.441,0,0.883,0,1.324,0c-0.339,1.411-0.418,2.759-1.924,3.333c-0.688,0.262-1.581,0.374-2.24,0.001
	c-1.048-0.591-0.852-1.895,0.003-2.569C79.098,51.234,80.204,51.082,81.161,51.082C81.577,51.082,80.133,51.082,81.161,51.082z"/>
<path id="polygon44" fill="#FFFFFF" d="M93.437,37.25c-1.493,6.885-2.986,13.77-4.479,20.654c0.693,0,5.44,0.302,5.534-0.123
	c0.445-2.028,0.891-4.057,1.336-6.084c1.058-4.815,2.115-9.631,3.173-14.447C97.146,37.25,95.291,37.25,93.437,37.25L93.437,37.25z"
	/>
<path id="path48" fill="#FFFFFF" d="M58.072,37.318c-1.488,6.863-2.975,13.726-4.463,20.588c1.211,0,2.423,0,3.634,0
	c0.634,0,2.134,0.376,2.295-0.35c0.321-1.446,0.642-2.893,0.963-4.34c0.132-0.594,0.264-1.189,0.396-1.784
	c0.088-0.4,0.063-0.351,0.485-0.351c3.445,0,7.025,0.305,9.729-2.288c2.966-2.844,3.993-8.828-0.367-10.892
	c-1.871-0.886-4.21-0.583-6.22-0.583C62.374,37.318,60.223,37.318,58.072,37.318L58.072,37.318z M63.024,41.506
	c1.358,0,3.706-0.446,4.627,0.82c0.793,1.091,0.326,2.583-0.479,3.517c-1.398,1.622-3.423,1.303-5.361,1.303
	C62.216,45.267,62.62,43.387,63.024,41.506L63.024,41.506z"/>
<path id="path52" fill="#FFFFFF" d="M28.803,41.506c-1.575,0.087-3.072,0.34-4.604,0.711c-0.332,0.081-0.667,0.191-1.005,0.249
	c-0.354,0.06-0.258,0.438-0.297,0.771c-0.129,1.071-0.257,2.143-0.386,3.214c1.574-0.824,3.721-1.118,5.47-1.127
	c0.708-0.004,1.59,0.017,2.166,0.493c0.23,0.189,0.374,0.452,0.427,0.744c0.039,0.213,0.034,0.434,0.008,0.648
	c-0.054,0.423-0.357,0.254-0.714,0.259c-3.149,0.053-7.45,0.322-9.404,3.227c-1.46,2.171-1.407,5.95,1.284,7.13
	c2.22,0.972,5.232,0.159,6.883-1.545c-0.121,0.542-0.242,1.086-0.363,1.627c0.561,0,5.382,0.2,5.43-0.019
	c0.435-2.019,0.87-4.038,1.305-6.057c0.41-1.907,1.195-4.079,1.145-6.056C36.053,42.028,31.695,41.493,28.803,41.506L28.803,41.506z
	 M28.393,51.082c0.458,0,0.915,0,1.372,0c-0.34,1.432-0.426,2.764-1.956,3.333c-0.678,0.253-1.552,0.381-2.201,0.001
	c-1.023-0.599-0.791-1.908,0.039-2.569C26.394,51.25,27.463,51.082,28.393,51.082C28.869,51.082,27.442,51.082,28.393,51.082z"/>
<path id="polygon54" fill="#FFFFFF" d="M38.363,41.808c1.356,0,2.712,0,4.068,0c0.083,0,1.341-0.025,1.344,0.006
	c0.034,0.375,0.068,0.75,0.103,1.126c0.256,2.818,0.513,5.637,0.77,8.455c1.49-2.696,2.979-5.393,4.468-8.089
	c0.256-0.463,0.512-0.927,0.768-1.391c0.132-0.239,0.653-0.107,0.894-0.107c1.583,0,3.167,0,4.749,0
	c-2.276,4.063-4.553,8.126-6.83,12.188c-1.483,2.647-2.967,5.295-4.451,7.941c-0.431,0.769-0.861,1.537-1.292,2.306
	c-0.279,0.499-0.218,0.508-0.812,0.508c-1.841,0-3.683,0-5.524,0c1.145-1.95,2.289-3.9,3.434-5.851
	c0.229-0.39,0.55-0.707,0.488-1.157c-0.112-0.819-0.224-1.641-0.335-2.461C39.589,50.79,38.977,46.299,38.363,41.808L38.363,41.808z
	"/>
<path id="path58" fill="#FFFFFF" d="M5.479,37.318C3.986,44.182,2.493,51.044,1,57.906c1.189,0,2.378,0,3.567,0
	c0.514,0,2.292,0.329,2.417-0.261c0.301-1.413,0.601-2.825,0.901-4.238C8,52.87,8.033,51.082,8.676,51.082
	c3.449,0,7.057,0.345,9.792-2.21c3.005-2.807,4.14-8.893-0.257-10.97c-1.881-0.889-4.242-0.583-6.261-0.583
	C9.793,37.318,7.636,37.318,5.479,37.318L5.479,37.318z M10.509,41.506c1.355,0,3.681-0.446,4.599,0.82
	c0.765,1.054,0.309,2.6-0.482,3.517c-1.411,1.636-3.434,1.303-5.393,1.303C9.658,45.267,10.083,43.387,10.509,41.506L10.509,41.506z
	"/>
</svg>
