<?xml version="1.0" encoding="utf-8"?>
<!-- Generator: Adobe Illustrator 22.0.1, SVG Export Plug-In . SVG Version: 6.00 Build 0)  -->
<svg version="1.1" baseProfile="basic" id="Layer_1"
	 xmlns="http://www.w3.org/2000/svg" xmlns:xlink="http://www.w3.org/1999/xlink" x="0px" y="0px" width="100px" height="100px"
	 viewBox="0 0 100 100" xml:space="preserve">
<path id="path4510-9" opacity="0.9375" fill="#FFFFFF" d="M0.091,58.373c-0.1-0.066,0.588-2.715,2.227-8.581
	c1.305-4.667,2.532-9.033,2.727-9.701L5.4,38.875l5.126,0.094c5.993,0.109,6.915,0.189,7.879,0.676
	c1.709,0.865,2.18,2.195,1.591,4.498c-0.502,1.961-1.46,3.296-3.313,4.614c-0.351,0.25-0.658,0.556-0.682,0.679
	c-0.026,0.137,0.193,0.439,0.562,0.776c0.333,0.303,0.687,0.709,0.787,0.901c0.268,0.518,0.222,1.557-0.15,3.357
	c-0.182,0.883-0.366,2.144-0.408,2.803l-0.076,1.198h-2.481c-1.757,0-2.527-0.045-2.637-0.155c-0.242-0.242-0.187-0.86,0.233-2.63
	c0.468-1.97,0.496-2.743,0.118-3.224c-0.5-0.635-0.953-0.773-2.747-0.833c-1.447-0.048-1.689-0.027-1.908,0.172
	c-0.341,0.309-0.618,1.107-1.428,4.111l-0.689,2.559l-2.47-0.002C1.348,58.47,0.171,58.426,0.091,58.373L0.091,58.373L0.091,58.373z
	 M13.134,47.382c1.178-0.35,1.674-1.118,1.676-2.595c0.001-0.444-0.075-0.757-0.226-0.94c-0.358-0.432-1.435-0.579-3.455-0.47
	l-1.756,0.094l-0.256,0.861c-0.395,1.33-0.672,2.616-0.629,2.919c0.028,0.198,0.165,0.299,0.493,0.363
	C9.698,47.755,12.383,47.605,13.134,47.382L13.134,47.382L13.134,47.382z"/>
<path id="path4512-4" opacity="0.9375" fill="#FFFFFF" d="M21.443,58.753c-0.785-0.281-1.402-0.804-1.661-1.41
	c-0.493-1.152-0.04-3.711,1.759-9.938c0.431-1.491,0.783-2.726,0.783-2.744s0.092-0.124,0.204-0.236
	c0.166-0.166,0.545-0.204,2.064-0.204c1.023,0,2.006,0.055,2.183,0.122l0.322,0.122l-0.321,1.141
	c-0.788,2.797-1.605,6.19-1.746,7.251c-0.128,0.964-0.123,1.22,0.03,1.539c0.348,0.726,1.611,0.879,2.686,0.326
	c1.261-0.649,1.498-1.204,3.525-8.273c0.297-1.037,0.524-1.575,0.777-1.846l0.357-0.382h2.025c1.566,0,2.04,0.039,2.091,0.172
	c0.051,0.132-2.523,9.713-3.607,13.43l-0.17,0.583l-2.165,0.065c-1.191,0.036-2.165,0.028-2.165-0.016s0.089-0.331,0.196-0.637
	c0.438-1.241-0.108-1.319-1.702-0.243c-1.575,1.063-2.236,1.315-3.6,1.373C22.385,58.988,21.981,58.946,21.443,58.753L21.443,58.753
	L21.443,58.753z"/>
<path id="path4514-8" opacity="0.9375" fill="#FFFFFF" d="M35.835,58.369c-0.115-0.073,0.551-2.644,2.527-9.747l2.683-9.647
	l4.534,0.038c5.656,0.047,6.812,0.148,7.906,0.686c0.899,0.443,1.327,0.838,1.727,1.597c0.672,1.275,0.661,2.754-0.036,4.783
	c-1.072,3.119-3.073,5.169-5.711,5.852c-0.428,0.111-1.768,0.26-2.98,0.333c-4.002,0.239-3.761,0.194-3.975,0.743
	c-0.102,0.262-0.502,1.599-0.888,2.971l-0.702,2.494l-2.464-0.002C37.1,58.47,35.921,58.424,35.835,58.369L35.835,58.369z
	 M47.502,47.986c1.319-0.17,2.011-0.577,2.451-1.439c0.473-0.927,0.598-1.936,0.296-2.396c-0.411-0.627-0.973-0.764-3.092-0.753
	c-1.055,0.005-1.97,0.062-2.033,0.126c-0.145,0.146-1.036,3.668-1.036,4.096c0,0.174,0.039,0.356,0.086,0.403
	C44.298,48.145,46.449,48.121,47.502,47.986L47.502,47.986L47.502,47.986z"/>
<path id="path4516-8" opacity="0.9375" fill="#FFFFFF" d="M54.906,58.807c-1.526-0.639-1.921-1.695-1.424-3.804
	c0.695-2.948,2.226-3.933,7.481-4.817c3.173-0.534,3.965-0.924,4.194-2.065c0.169-0.844-0.555-1.306-2.049-1.307
	c-0.933-0.001-1.283,0.135-2.092,0.813l-0.652,0.546l-1.68,0.043c-1.947,0.05-2.547-0.028-2.547-0.329
	c0-0.351,0.764-1.425,1.478-2.077c0.767-0.7,1.782-1.237,2.881-1.523c2.308-0.601,6.28-0.531,7.646,0.134
	c0.731,0.356,1.38,0.948,1.69,1.539c0.293,0.56,0.188,1.14-1.192,6.611c-0.677,2.685-1.231,5.111-1.231,5.391v0.509h-1.601
	c-0.881,0-1.87,0.037-2.2,0.082l-0.598,0.082l-0.263-0.614c-0.309-0.721-0.345-0.721-1.974,0.012
	c-1.769,0.796-2.418,0.973-3.792,1.037C55.809,59.126,55.607,59.101,54.906,58.807L54.906,58.807L54.906,58.807z M61.869,55.78
	c0.893-0.395,1.902-2.012,1.908-3.059l0.003-0.505l-0.823,0.077c-0.911,0.085-2.837,0.706-3.543,1.142
	c-0.596,0.368-0.945,0.962-0.943,1.603c0.002,0.615,0.092,0.784,0.519,0.966C59.478,56.213,61.193,56.079,61.869,55.78L61.869,55.78
	z"/>
<path id="path4518-2" opacity="0.9375" fill="#FFFFFF" d="M69.004,64.609c-0.519-0.117-0.539-0.311-0.178-1.732
	c0.484-1.905,0.452-1.865,1.645-2.051c1.288-0.2,1.863-0.483,2.151-1.058c0.318-0.637,0.295-3.138-0.09-9.846
	c-0.214-3.733-0.268-5.426-0.174-5.538c0.098-0.118,0.754-0.162,2.442-0.162h2.308l0.04,4.334c0.028,2.956,0.086,4.379,0.184,4.477
	c0.236,0.236,1.103-1.23,4.655-7.872l0.502-0.939h2.038c1.121,0,2.065,0.045,2.099,0.099c0.065,0.105-3.023,5.61-6.122,10.912
	c-4.404,7.537-5.232,8.576-7.298,9.151C72.532,64.573,69.549,64.732,69.004,64.609L69.004,64.609L69.004,64.609z"/>
<path id="path6141-55" fill="#FFFFFF" d="M88.097,62.881l6.056-22.185l5.765,11.465L88.097,62.881z"/>
<path id="path6141-5-1" fill="#FFFFFF" d="M84.349,62.961l6.056-22.185l5.765,11.465L84.349,62.961z"/>
</svg>
