<?xml version="1.0" encoding="utf-8"?>
<!-- Generator: Adobe Illustrator 15.1.0, SVG Export Plug-In . SVG Version: 6.00 Build 0)  -->
<!DOCTYPE svg PUBLIC "-//W3C//DTD SVG 1.1 Basic//EN" "http://www.w3.org/Graphics/SVG/1.1/DTD/svg11-basic.dtd">
<svg version="1.1" baseProfile="basic" id="Layer_1"
	 xmlns="http://www.w3.org/2000/svg" xmlns:xlink="http://www.w3.org/1999/xlink" x="0px" y="0px" width="100px" height="100px"
	 viewBox="0 0 100 100" xml:space="preserve">
<path fill-rule="evenodd" clip-rule="evenodd" fill="#FFFFFF" d="M28.104,36.492c0,0.773-0.118,1.366-0.416,1.782L17.29,56.398
	l-0.653-22.104H0l5.585,2.674c1.604,1.01,2.436,2.316,2.436,3.98L9.565,64.42h8.141l19.489-30.126h-9.982
	C27.808,34.829,28.104,35.66,28.104,36.492L28.104,36.492z"/>
<path fill-rule="evenodd" clip-rule="evenodd" fill="#FFFFFF" d="M95.367,35.185l0.653-0.891H85.859
	c0.356,0.356,0.476,0.535,0.476,0.653c-0.119,0.475-0.356,0.772-0.476,1.129L71.063,63.052c-0.354,0.476-0.713,0.892-1.127,1.368
	h8.377l-0.416-0.893c0-0.771,0.416-2.197,1.307-4.219l1.782-3.327h8.617c0.355,2.793,0.593,5.109,0.713,6.833l-0.713,1.605H100
	l-1.543-2.259L95.367,35.185L95.367,35.185z M89.187,51.764h-6.179l5.288-10.162L89.187,51.764L89.187,51.764z"/>
<path fill-rule="evenodd" clip-rule="evenodd" fill="#FFFFFF" d="M63.518,32.749c-3.208,0-5.941,0.891-8.378,2.673
	c-2.672,1.546-3.98,3.506-3.98,5.942c0,2.793,0.95,5.229,2.853,7.071l5.763,3.979c2.08,1.486,3.09,2.793,3.09,3.983
	c0,1.128-0.534,2.139-1.545,2.91c-1.01,0.773-2.139,1.129-3.565,1.129c-2.079,0-5.645-1.486-10.576-4.219v5.525
	c3.862,2.319,7.606,3.507,11.229,3.507c3.447,0,6.359-0.951,8.854-3.09c2.675-1.962,3.979-4.279,3.979-6.834
	c0-2.139-0.95-4.101-3.088-6.179l-5.526-3.981c-1.842-1.485-2.853-2.792-2.853-3.803c0-2.316,1.368-3.506,4.16-3.506
	c1.901,0,4.694,1.069,8.437,3.328l1.131-5.765C70.351,33.64,67.082,32.749,63.518,32.749L63.518,32.749z"/>
<path fill-rule="evenodd" clip-rule="evenodd" fill="#FFFFFF" d="M41.414,64.42c-0.119-1.249-0.355-2.38-0.476-3.566l7.547-24.361
	l1.782-2.198H39.395c0.119,0.535,0.237,1.248,0.355,1.782c0,0.535,0,1.189-0.118,1.782l-7.546,24.123l-1.545,2.438H41.414
	L41.414,64.42z"/>
</svg>
