<?xml version="1.0" encoding="utf-8"?>
<!-- Generator: Adobe Illustrator 15.1.0, SVG Export Plug-In . SVG Version: 6.00 Build 0)  -->
<!DOCTYPE svg PUBLIC "-//W3C//DTD SVG 1.1 Basic//EN" "http://www.w3.org/Graphics/SVG/1.1/DTD/svg11-basic.dtd">
<svg version="1.1" baseProfile="basic" id="Layer_1"
	 xmlns="http://www.w3.org/2000/svg" xmlns:xlink="http://www.w3.org/1999/xlink" x="0px" y="0px" width="100px" height="100px"
	 viewBox="0 0 100 100" xml:space="preserve">
<g id="airplane">
	<path fill="#FFFFFF" d="M96.929,39.562c-0.681-2.476-7.003-2.688-9.548-1.841c-9.251,3.077-18.505,6.155-27.76,9.233L27.503,34.126
		l-3.39,3.614l13.745,16.507c-8.86,3.063-25.087,8.718-28.032,9.697c-2.535,0.844,16.385,3.528,20.722,2.807
		c0,0,33.328-10.87,48.064-15.773c3.787-1.26,7.576-2.52,11.364-3.781C92.512,46.355,97.667,42.248,96.929,39.562z"/>
	<polygon fill="#FFFFFF" points="4.575,52.202 2,54.581 8.828,62.546 18.722,59.061 	"/>
</g>
</svg>
