<?xml version="1.0" encoding="utf-8"?>
<!-- Generator: Adobe Illustrator 15.1.0, SVG Export Plug-In . SVG Version: 6.00 Build 0)  -->
<!DOCTYPE svg PUBLIC "-//W3C//DTD SVG 1.1 Basic//EN" "http://www.w3.org/Graphics/SVG/1.1/DTD/svg11-basic.dtd">
<svg version="1.1" baseProfile="basic" id="Layer_1"
	 xmlns="http://www.w3.org/2000/svg" xmlns:xlink="http://www.w3.org/1999/xlink" x="0px" y="0px" width="100px" height="100px"
	 viewBox="0 0 100 100" xml:space="preserve">
<path id="bicycle" fill="#FFFFFF" d="M77.036,43.864c-1.953,0-3.829,0.327-5.585,0.921c-1.36-3.017-2.951-6.546-4.813-10.69
	l1.188-3.268l4.083-0.075v-3.416H56.54c-1.345,1.84,0.545,1.832,7.352,3.341l-1.188,3.342H32.334
	c2.046-7.146,0.89-6.625,10.098-6.609v-3.489c-12.675,0.123-10.478-1.305-17.266,20.529c-1.039-0.193-2.108-0.3-3.204-0.3
	c-9.629,0-17.462,7.835-17.462,17.463c0,9.63,7.833,17.464,17.462,17.464c9.63,0,17.464-7.834,17.464-17.464
	c0-7.205-4.387-13.405-10.631-16.069c0.38-1.195,0.789-2.472,1.227-3.834c25.547,26.947,15.964,22.578,29.711,23.124
	c0.065,0,0.129,0,0.194-0.002c1.627,7.956,8.682,13.957,17.108,13.957c9.63,0,17.464-7.833,17.464-17.462
	C94.5,51.698,86.666,43.864,77.036,43.864z M35.341,61.614c0,7.378-6.001,13.379-13.378,13.379c-7.376,0-13.378-6.001-13.378-13.379
	c0-7.376,6.001-13.377,13.377-13.377c0.666,0,1.319,0.05,1.958,0.145c-4.262,13.439-3.75,11.909-3.777,13.042
	c-0.021,0.955,0.75,1.713,1.721,1.778c1.739-0.176,1.347,0.112,5.692-13.734C32.147,51.59,35.341,56.233,35.341,61.614z
	 M52.585,60.783L31.456,37.757l29.718-0.053L52.585,60.783z M59.574,61.267l-3.249-0.011l8.431-22.129l3.271,7.247
	C62.98,49.424,59.597,54.956,59.574,61.267z M69.724,50.134l5.044,11.175l-11.108-0.031C63.678,56.619,66.089,52.516,69.724,50.134z
	 M77.036,74.705c-6.168,0-11.374-4.198-12.913-9.889c13.924,0.013,15.167,0.727,15.36-1.688c-0.019-0.704-0.28-1.187-6.341-14.598
	c1.232-0.376,2.539-0.581,3.894-0.581c7.376,0,13.377,6.001,13.377,13.379C90.413,68.705,84.413,74.705,77.036,74.705z"/>
</svg>
