<?xml version="1.0" encoding="utf-8"?>
<!-- Generator: Adobe Illustrator 15.1.0, SVG Export Plug-In . SVG Version: 6.00 Build 0)  -->
<!DOCTYPE svg PUBLIC "-//W3C//DTD SVG 1.1 Basic//EN" "http://www.w3.org/Graphics/SVG/1.1/DTD/svg11-basic.dtd">
<svg version="1.1" baseProfile="basic" id="Layer_1"
	 xmlns="http://www.w3.org/2000/svg" xmlns:xlink="http://www.w3.org/1999/xlink" x="0px" y="0px" width="100px" height="100px"
	 viewBox="0 0 100 100" xml:space="preserve">
<g id="car">
	<path fill="#FFFFFF" d="M16.552,53.386c-4.026,0-7.291,3.267-7.291,7.293s3.265,7.291,7.291,7.291c4.028,0,7.292-3.265,7.292-7.291
		S20.579,53.386,16.552,53.386z M16.552,63.738c-1.7,0-3.076-1.377-3.076-3.078c0-1.699,1.376-3.076,3.076-3.076
		c1.698,0,3.076,1.377,3.076,3.076C19.627,62.361,18.25,63.738,16.552,63.738z"/>
	<path fill="#FFFFFF" d="M80.588,53.384c-4.029,0-7.294,3.266-7.294,7.291c0,4.027,3.265,7.293,7.294,7.293
		c4.026,0,7.293-3.266,7.293-7.293C87.881,56.649,84.614,53.384,80.588,53.384z M80.588,63.738c-1.699,0-3.078-1.377-3.078-3.078
		c0-1.699,1.378-3.076,3.078-3.076s3.081,1.377,3.081,3.076C83.669,62.361,82.288,63.738,80.588,63.738z"/>
	<path fill="#FFFFFF" d="M76.479,43.025c0,0-17.933-8.362-23.657-9.574c-5.723-1.212-25.419-0.11-27.289,1.1l-11.004,5.39
		L3.747,45.223L2,55.401c0,0-0.047,6.038,0.371,7.428h5.282l0.068-2.15c0-4.876,3.955-8.829,8.833-8.829
		c4.877,0,8.829,3.954,8.829,8.829l0.15,2.15H71.75l0.007-2.703c0-4.878,3.685-8.479,8.562-8.479c4.878,0,9.103,3.602,9.103,8.479
		l0.18,2.498c0,0,5.587,0.315,7.347-0.345c0,0,0.66-9.353-2.749-12.765C91.171,46.65,85.063,44.864,76.479,43.025z M26.521,44.345
		c0,0,2.258-4.788,4.724-6.617c1.827-1.555,11.895-1.513,11.895-1.513l0.372,9.284L26.521,44.345z M70.155,46.544L46.552,45.61
		L46,36.2c8.749-0.328,18.708,4.348,24.429,7.704C76.155,47.259,70.155,46.544,70.155,46.544z"/>
</g>
</svg>
