<?xml version="1.0" encoding="utf-8"?>
<!-- Generator: Adobe Illustrator 15.1.0, SVG Export Plug-In . SVG Version: 6.00 Build 0)  -->
<!DOCTYPE svg PUBLIC "-//W3C//DTD SVG 1.1 Basic//EN" "http://www.w3.org/Graphics/SVG/1.1/DTD/svg11-basic.dtd">
<svg version="1.1" baseProfile="basic" id="Layer_1"
	 xmlns="http://www.w3.org/2000/svg" xmlns:xlink="http://www.w3.org/1999/xlink" x="0px" y="0px" width="100px" height="100px"
	 viewBox="0 0 100 100" xml:space="preserve">
<path id="gas" fill="#FFFFFF" d="M48.151,36.108c0,0.921-0.729,1.638-1.655,1.638H29.168c-0.934,0-1.656-0.717-1.656-1.638v-14.61
	c0-0.921,0.722-1.638,1.656-1.638h17.327c0.927,0,1.655,0.716,1.655,1.638V36.108z M68.35,37.975
	c-2.191-0.481-2.986-1.607-2.986-2.644v-3.776c0,0,1.458,0.325,1.807,0.416c0.711,0.187,1.162,1.277,1.18,2.229
	C68.375,35.151,68.35,37.975,68.35,37.975z M72.766,60.914c0-0.035-0.607-4.637-0.607-4.637V35.03c0-2.276-0.748-4.125-2.291-5.678
	l-9.84-9.792c-0.68,0-2.561,1.873-2.561,1.873c0,0.68,4.886,5.528,4.886,5.528l-0.145,8.245c0,2.927,2.378,5.3,5.318,5.3
	l1.318,0.018l-0.47,15.754l0.657,5.402l2.957,15.941c0.109,2.592-2.259,4.132-4.124,4.132c-1.73,0-3.735-1.428-3.735-3.271
	l0.036-27.938c0-3.397-2.758-6.155-6.154-6.155c0,0-5.908,0-5.938,0c0.414-0.023,0.433-18.295,0.433-22.174c0-0.458,0-0.718,0-0.718
	c-0.003-3.306-2.7-5.998-6.012-5.998H29.168c-3.313,0-6.011,2.692-6.011,5.998V85.5h29.357l0.021-37.184h5.541
	c1.271,0,2.307,1.037,2.307,2.307v27.86c0,3.74,3.493,7.017,7.48,7.017c3.764,0,7.979-2.993,7.979-7.017
	C75.776,77.556,72.766,60.914,72.766,60.914z"/>
</svg>
