<?xml version="1.0" encoding="utf-8"?>
<!-- Generator: Adobe Illustrator 15.1.0, SVG Export Plug-In . SVG Version: 6.00 Build 0)  -->
<!DOCTYPE svg PUBLIC "-//W3C//DTD SVG 1.1 Basic//EN" "http://www.w3.org/Graphics/SVG/1.1/DTD/svg11-basic.dtd">
<svg version="1.1" baseProfile="basic" id="Layer_1"
	 xmlns="http://www.w3.org/2000/svg" xmlns:xlink="http://www.w3.org/1999/xlink" x="0px" y="0px" width="100px" height="100px"
	 viewBox="0 0 100 100" xml:space="preserve">
<g id="parking">
	<path fill="#FFFFFF" d="M49.5,8.5C36,8.5,25.056,19.444,25.056,32.944c0,7.062,2.998,13.42,7.787,17.883l1.102,13.229l10,12.22
		V88.5h11.112V76.278l10-12.222l1.102-13.229c4.79-4.463,7.787-10.821,7.787-17.883C73.944,19.444,63.001,8.5,49.5,8.5z
		 M43.944,50.722h-6.667V38.5h6.667V50.722z M58.389,52.06v5.329h-3.333v-5.331c-1.628-0.657-2.777-2.248-2.777-4.113
		s1.149-3.455,2.777-4.115V38.5h3.333v5.33c1.628,0.66,2.778,2.25,2.778,4.115C61.166,49.81,60.017,51.4,58.389,52.06z
		 M50.612,32.944v-2.222h3.333L49.5,22.944l-4.444,7.778h3.333v2.222H30.611c0-10.432,8.458-18.889,18.889-18.889
		c10.432,0,18.888,8.457,18.888,18.889H50.612z"/>
	<rect x="39.777" y="39.611" fill="#FFFFFF" width="1.667" height="10"/>
	<rect x="48.389" y="17.389" fill="#FFFFFF" width="2.223" height="3.333"/>
	
		<rect x="40.888" y="19.803" transform="matrix(-0.4995 -0.8663 0.8663 -0.4995 45.6938 68.2262)" fill="#FFFFFF" width="3.333" height="2.222"/>
	
		<rect x="35.802" y="24.888" transform="matrix(-0.866 -0.5 0.5 -0.866 56.9147 67.251)" fill="#FFFFFF" width="3.332" height="2.222"/>
	
		<rect x="55.332" y="19.246" transform="matrix(-0.866 -0.5 0.5 -0.866 94.8674 67.2467)" fill="#FFFFFF" width="2.223" height="3.335"/>
	
		<rect x="60.417" y="24.332" transform="matrix(-0.4998 -0.8662 0.8662 -0.4998 69.7593 92.2849)" fill="#FFFFFF" width="2.222" height="3.333"/>
</g>
</svg>
