<?xml version="1.0" encoding="utf-8"?>
<!-- Generator: Adobe Illustrator 15.1.0, SVG Export Plug-In . SVG Version: 6.00 Build 0)  -->
<!DOCTYPE svg PUBLIC "-//W3C//DTD SVG 1.1 Basic//EN" "http://www.w3.org/Graphics/SVG/1.1/DTD/svg11-basic.dtd">
<svg version="1.1" baseProfile="basic" id="Layer_1"
	 xmlns="http://www.w3.org/2000/svg" xmlns:xlink="http://www.w3.org/1999/xlink" x="0px" y="0px" width="100px" height="100px"
	 viewBox="0 0 100 100" xml:space="preserve">
<g id="scooter">
	<g>
		<path fill="#FFFFFF" d="M82.469,55.257c-6.64,0-12.027,5.388-12.027,12.042c0,6.631,5.388,12.009,12.027,12.009
			c6.654,0,12.031-5.378,12.031-12.009C94.5,60.646,89.123,55.257,82.469,55.257z"/>
		<path fill="#FFFFFF" d="M82.469,67.299"/>
	</g>
	<path fill="#FFFFFF" d="M13.473,69.808c1.187,5.388,6.003,9.6,11.738,9.6c5.813,0,10.663-4.121,11.784-9.6H13.473z"/>
	<path fill="#FFFFFF" d="M81.519,47.059l-3.125-10.483c-0.101-0.392,0.481-0.583,0.481-0.583l4.962-1.467l-0.683-6.99l-5.836-0.492
		c-1.658,0.202-2.039-1.366-2.039-1.366l-0.684-2.431c-0.48-1.849-2.139-1.647-2.139-1.647h-11.56
		c-1.658,1.266,0.291,2.241,0.291,2.241h7.091c0.683-0.112,1.064,0.682,1.064,0.682l3.942,24.419
		c-4.458,2.017-8.434,5.779-10.596,11.638H49.808c-8.266-6.228-4.57-15.167-4.57-15.167h3.204v-6.497H6.349v6.497h6.429
		C3.83,53.971,4.512,66.604,4.512,66.604h62.445c0.414-8.231,7.18-14.807,15.512-14.807c3.642,0,6.956,1.311,9.612,3.405H94.5
		C93.963,50.083,88.149,46.948,81.519,47.059z"/>
</g>
</svg>
