<?xml version="1.0" encoding="utf-8"?>
<!-- Generator: Adobe Illustrator 15.1.0, SVG Export Plug-In . SVG Version: 6.00 Build 0)  -->
<!DOCTYPE svg PUBLIC "-//W3C//DTD SVG 1.1 Basic//EN" "http://www.w3.org/Graphics/SVG/1.1/DTD/svg11-basic.dtd">
<svg version="1.1" baseProfile="basic" id="Layer_1"
	 xmlns="http://www.w3.org/2000/svg" xmlns:xlink="http://www.w3.org/1999/xlink" x="0px" y="0px" width="100px" height="100px"
	 viewBox="0 0 100 100" xml:space="preserve">
<path id="ship" fill="#FFFFFF" d="M93.306,57.532l-2.085-3.999H38.025l1.28-3.995h49.811l-2.082-4.018h-4.417v-9.979h-7.9
	l-5.589,9.979H44.92l-3.261-3.506l3.054-9.68h4.147v-2.802h-3.26l1.3-4.104H44.92l-9.246,16.5h-8.602l-3.736,7.609h8.088
	l-2.248,3.995h-7.802l-1.98,3.999H2L13.361,75.57l0.121-0.005c0.125,0.002,0.25,0.006,0.375,0.006c0.698,0,1.387-0.041,2.067-0.111
	l0.361-0.018l1.445-0.232l0.195-0.064c1.327-0.281,2.604-0.697,3.818-1.234l0.213-0.069l0.234-0.14
	c1.102-0.521,2.146-1.142,3.123-1.852l0.461-0.273l0.068,0.042c1.955,1.482,4.195,2.602,6.627,3.266l0.012,0.005l0.013,0.001
	c1.384,0.376,2.828,0.606,4.316,0.666l0.109,0.016l0.148-0.01c0.179,0.005,0.36,0.01,0.541,0.01c1.211,0,2.394-0.112,3.543-0.324
	l0.224-0.019l0.198-0.062c1.366-0.283,2.678-0.706,3.924-1.257l0.148-0.048l0.173-0.101c1.153-0.537,2.244-1.183,3.262-1.923
	l0.445-0.262l0.051,0.031c2.321,1.764,5.052,3.017,8.021,3.598l0.079,0.025l0.087,0.006c1.165,0.218,2.367,0.337,3.596,0.337
	c0.204,0,0.405-0.008,0.607-0.014l0.166,0.014l0.261-0.031c0.825-0.043,1.636-0.138,2.431-0.278l0.279-0.033l0.163-0.053
	c1.403-0.285,2.751-0.721,4.025-1.287l0.083-0.028l0.097-0.056c1.221-0.561,2.372-1.242,3.442-2.027l0.34-0.203l0.231,0.148
	c1.498,1.115,3.163,2.021,4.951,2.671l0.1,0.044l0.084,0.023c0.865,0.305,1.758,0.549,2.672,0.731l0.129,0.036l0.094,0.006
	c1.165,0.218,2.366,0.337,3.595,0.337c0.202,0,0.404-0.008,0.606-0.014l0.165,0.014l0.147-0.023c1.419-0.066,2.797-0.285,4.12-0.639
	l0.147-0.022l0.144-0.062c1.364-0.389,2.667-0.917,3.892-1.576l0.131-0.053l0.264-0.169c0.603-0.341,1.187-0.715,1.746-1.117
	L97,71.577v-0.055v-5.892v-8.099H93.306z"/>
</svg>
