<?xml version="1.0" encoding="utf-8"?>
<!-- Generator: Adobe Illustrator 15.1.0, SVG Export Plug-In . SVG Version: 6.00 Build 0)  -->
<!DOCTYPE svg PUBLIC "-//W3C//DTD SVG 1.1 Basic//EN" "http://www.w3.org/Graphics/SVG/1.1/DTD/svg11-basic.dtd">
<svg version="1.1" baseProfile="basic" id="Layer_1"
	 xmlns="http://www.w3.org/2000/svg" xmlns:xlink="http://www.w3.org/1999/xlink" x="0px" y="0px" width="100px" height="100px"
	 viewBox="0 0 100 100" xml:space="preserve">
<g id="train">
	<path fill="#FFFFFF" d="M45.754,16.119c-1.546-0.006-2.806-1.266-2.809-2.809c0.003-1.566,1.263-2.827,2.809-2.81
		c1.562-0.017,2.821,1.244,2.809,2.81C48.576,14.853,47.315,16.113,45.754,16.119L45.754,16.119z"/>
	<path fill="#FFFFFF" d="M53.246,16.119c1.549-0.006,2.81-1.266,2.81-2.809c0-1.566-1.261-2.826-2.81-2.81
		c-1.561-0.017-2.82,1.244-2.81,2.81C50.426,14.853,51.686,16.113,53.246,16.119L53.246,16.119z"/>
	<path fill="#FFFFFF" d="M64.399,72.951c3.898-0.647,7.785-4.719,7.776-9.688V26.989c0.009-5.115-4.3-9.817-10.139-9.811H49.54H37
		c-5.873-0.006-10.183,4.696-10.177,9.811v36.275c-0.005,4.969,3.882,9.041,7.775,9.688L22.916,90.5h6.757l8.346-12.296H49.5H60.98
		L69.365,90.5h6.718L64.399,72.951z M42.904,20.925c0.001-0.909,0.775-1.658,1.668-1.67h4.926h4.928
		c0.893,0.013,1.67,0.762,1.67,1.67v2.847c0,0.907-0.732,1.674-1.67,1.67H49.5h-4.927c-0.934,0.003-1.666-0.764-1.668-1.67
		L42.904,20.925L42.904,20.925z M36.756,67.66c-2.447-0.018-4.442-2.014-4.437-4.479c-0.005-2.457,1.99-4.449,4.437-4.438
		c2.472-0.013,4.467,1.98,4.479,4.438C41.225,65.646,39.229,67.643,36.756,67.66z M37.327,44.089
		c-2.807-0.017-5.095-1.937-5.09-5.09v-6.513c0.021-2.717,1.775-5.084,5.09-5.09H49.5h12.172c3.317,0.005,5.074,2.373,5.091,5.09
		v6.513c0.008,3.153-2.281,5.074-5.091,5.09H49.5H37.327z M57.684,63.183c-0.007-2.458,1.985-4.45,4.436-4.438
		c2.473-0.013,4.468,1.979,4.48,4.438c-0.013,2.464-2.008,4.46-4.48,4.479C59.669,67.643,57.677,65.646,57.684,63.183z"/>
</g>
</svg>
