<?xml version="1.0" encoding="utf-8"?>
<!-- Generator: Adobe Illustrator 16.0.0, SVG Export Plug-In . SVG Version: 6.00 Build 0)  -->
<!DOCTYPE svg PUBLIC "-//W3C//DTD SVG 1.1 Basic//EN" "http://www.w3.org/Graphics/SVG/1.1/DTD/svg11-basic.dtd">
<svg version="1.1" baseProfile="basic" id="Layer_1"
	 xmlns="http://www.w3.org/2000/svg" xmlns:xlink="http://www.w3.org/1999/xlink" x="0px" y="0px" width="100px" height="100px"
	 viewBox="0 0 100 100" xml:space="preserve">
<g id="Layer_1_1_">
	<rect fill="none" width="100" height="100"/>
</g>
<g>
	<path fill="#FFFFFF" d="M71.199,50.783c0,3.891-0.51,7.377-1.529,10.459s-2.455,5.695-4.307,7.84s-4.078,3.791-6.68,4.939
		c-2.602,1.147-5.484,1.723-8.648,1.723c-3.141,0-6.012-0.575-8.613-1.723c-2.602-1.148-4.846-2.795-6.732-4.939
		c-1.887-2.145-3.352-4.758-4.395-7.84c-1.043-3.082-1.564-6.568-1.564-10.459v-2.602c0-3.89,0.521-7.383,1.564-10.477
		c1.042-3.094,2.496-5.718,4.359-7.875c1.863-2.156,4.096-3.809,6.697-4.957c2.602-1.148,5.472-1.723,8.613-1.723
		c3.164,0,6.053,0.575,8.666,1.723c2.613,1.148,4.852,2.801,6.715,4.957c1.863,2.157,3.305,4.781,4.324,7.875
		s1.529,6.586,1.529,10.477V50.783z M62.305,48.111c0-2.859-0.275-5.384-0.826-7.576c-0.551-2.191-1.354-4.025-2.408-5.502
		s-2.35-2.596-3.885-3.357c-1.535-0.761-3.275-1.143-5.221-1.143c-1.898,0-3.609,0.381-5.133,1.143
		c-1.524,0.762-2.818,1.881-3.885,3.357c-1.067,1.477-1.887,3.311-2.461,5.502c-0.575,2.192-0.861,4.717-0.861,7.576v2.672
		c0,2.859,0.287,5.391,0.861,7.594c0.574,2.203,1.4,4.049,2.479,5.537c1.078,1.488,2.385,2.613,3.92,3.375
		c1.535,0.762,3.252,1.143,5.15,1.143c3.938,0,6.967-1.5,9.088-4.5s3.182-7.383,3.182-13.148V48.111z"/>
</g>
</svg>
