<?xml version="1.0" encoding="utf-8"?>
<!-- Generator: Adobe Illustrator 16.0.0, SVG Export Plug-In . SVG Version: 6.00 Build 0)  -->
<!DOCTYPE svg PUBLIC "-//W3C//DTD SVG 1.1 Basic//EN" "http://www.w3.org/Graphics/SVG/1.1/DTD/svg11-basic.dtd">
<svg version="1.1" baseProfile="basic" id="Layer_1"
	 xmlns="http://www.w3.org/2000/svg" xmlns:xlink="http://www.w3.org/1999/xlink" x="0px" y="0px" width="100px" height="100px"
	 viewBox="0 0 100 100" xml:space="preserve">
<g id="Layer_1_1_">
	<rect fill="none" width="100" height="100"/>
</g>
<g>
	<path fill="#FFFFFF" d="M51.547,55.318h-9.914v19.723h-8.895V23.853h18c2.93,0,5.543,0.334,7.84,1.002s4.236,1.652,5.818,2.953
		S67.18,30.721,68,32.642c0.82,1.922,1.23,4.148,1.23,6.68c0,3.422-0.826,6.288-2.479,8.596c-1.652,2.309-3.955,4.084-6.908,5.327
		l11.496,21.34v0.457h-9.527L51.547,55.318z M41.633,48.181h9.141c1.594,0,2.988-0.211,4.184-0.633s2.191-1.007,2.988-1.758
		c0.797-0.75,1.395-1.64,1.793-2.672c0.398-1.031,0.598-2.167,0.598-3.41c0-1.312-0.188-2.501-0.562-3.568
		c-0.375-1.066-0.949-1.98-1.723-2.742c-0.773-0.761-1.764-1.348-2.971-1.758c-1.207-0.41-2.654-0.615-4.342-0.615h-9.105V48.181z"
		/>
</g>
</svg>
