<?xml version="1.0" encoding="utf-8"?>
<!-- Generator: Adobe Illustrator 16.0.0, SVG Export Plug-In . SVG Version: 6.00 Build 0)  -->
<!DOCTYPE svg PUBLIC "-//W3C//DTD SVG 1.1 Basic//EN" "http://www.w3.org/Graphics/SVG/1.1/DTD/svg11-basic.dtd">
<svg version="1.1" baseProfile="basic" id="Layer_1"
	 xmlns="http://www.w3.org/2000/svg" xmlns:xlink="http://www.w3.org/1999/xlink" x="0px" y="0px" width="100px" height="100px"
	 viewBox="0 0 100 100" xml:space="preserve">
<g id="Layer_1_1_">
	<rect fill="none" width="100" height="100"/>
</g>
<g>
	<path fill="#FFFFFF" d="M60.23,61.857c0-1.031-0.152-1.951-0.457-2.76s-0.861-1.553-1.67-2.232s-1.922-1.33-3.34-1.951
		s-3.24-1.271-5.467-1.951c-2.438-0.727-4.688-1.559-6.75-2.497c-2.062-0.937-3.838-2.027-5.326-3.27
		c-1.489-1.242-2.654-2.672-3.498-4.289s-1.266-3.468-1.266-5.555c0-2.062,0.439-3.96,1.318-5.695
		c0.879-1.734,2.115-3.234,3.709-4.5c1.594-1.266,3.503-2.25,5.73-2.953c2.227-0.703,4.688-1.055,7.383-1.055
		c2.883,0,5.473,0.417,7.77,1.248c2.297,0.832,4.236,1.963,5.818,3.393c1.582,1.43,2.795,3.088,3.639,4.975
		c0.844,1.887,1.266,3.897,1.266,6.029H60.23c0-1.242-0.193-2.385-0.58-3.428c-0.387-1.042-0.979-1.945-1.775-2.707
		c-0.797-0.761-1.805-1.354-3.023-1.775s-2.66-0.633-4.324-0.633c-1.57,0-2.93,0.176-4.078,0.527
		c-1.148,0.352-2.104,0.844-2.865,1.477c-0.762,0.633-1.324,1.383-1.688,2.25c-0.364,0.867-0.545,1.805-0.545,2.812
		c0,1.898,0.896,3.48,2.689,4.746s4.529,2.438,8.209,3.516c2.883,0.844,5.379,1.781,7.488,2.812
		c2.109,1.032,3.861,2.198,5.256,3.499s2.432,2.766,3.111,4.395s1.02,3.463,1.02,5.502c0,2.156-0.428,4.096-1.283,5.818
		S65.768,70.793,64.186,72s-3.498,2.133-5.748,2.777s-4.758,0.967-7.523,0.967c-2.461,0-4.887-0.334-7.277-1.002
		s-4.535-1.676-6.434-3.023s-3.428-3.029-4.588-5.045s-1.74-4.383-1.74-7.102h8.895c0,1.617,0.287,3.006,0.861,4.166
		c0.574,1.16,1.359,2.109,2.355,2.848c0.996,0.738,2.174,1.277,3.533,1.617c1.359,0.34,2.824,0.51,4.395,0.51
		c3.094,0,5.42-0.627,6.979-1.881S60.23,63.92,60.23,61.857z"/>
</g>
</svg>
