<?xml version="1.0" encoding="UTF-8"?>
<svg width="32px" height="32px" viewBox="0 0 32 32" version="1.1" xmlns="http://www.w3.org/2000/svg" xmlns:xlink="http://www.w3.org/1999/xlink">
    <!-- Generator: Sketch 55.2 (78181) - https://sketchapp.com -->
    <title>未标记</title>
    <desc>Created with Sketch.</desc>
    <g id="未标记" stroke="none" stroke-width="1" fill="none" fill-rule="evenodd">
        <g>
            <rect id="矩形备份-6" x="0" y="0" width="32" height="32"></rect>
            <g id="标签" transform="translate(16.000000, 16.000000) scale(-1, -1) rotate(-270.000000) translate(-16.000000, -16.000000) translate(1.000000, 2.000000)" fill="#FFFFFF" fill-rule="nonzero">
                <path d="M7.02261188,24.9473447 L1.62105458,19.5908004 C-0.0566925234,17.9271473 -0.0567873075,15.2297304 1.6208475,13.565957 C1.62091652,13.5658885 1.62098554,13.5658201 1.62105456,13.5657516 L13.7754115,1.51268097 C14.2536733,1.03627297 14.9041122,0.769193945 15.5819969,0.770816987 L23.4460455,0.770816987 C24.8563801,0.772328593 25.9993742,1.90562954 26.0011177,3.30421135 L26.0011177,11.1049821 C26.0028742,11.7772267 25.733363,12.4222227 25.2526157,12.8961493 L13.0982587,24.9473401 C12.2943758,25.7488665 11.2005746,26.1982004 10.0606174,26.1953317 C8.92055009,26.1982635 7.82661247,25.7489277 7.02261188,24.9473447 Z M17,8 C17,9.10457244 17.8954334,10 19,10 C20.1045724,10 21,9.10456656 21,8 C21,6.89542756 20.1045724,6 19,6 C17.8954276,6 17,6.89542756 17,8 Z" id="形状结合"></path>
                <path d="M14.4307316,26.0465372 C14.4307316,25.7475336 14.5505778,25.4607914 14.7637496,25.2493306 L26.9181065,13.19626 C26.9706791,13.1442706 27.000157,13.0736264 27,13 L27,5.20148507 C26.9999999,4.57854774 27.5092372,4.07355424 28.1374094,4.07355424 C28.7655817,4.07355424 29.2749665,4.57854774 29.2749665,5.20148524 L29.2749665,13.0000002 C29.2766621,13.6723631 29.0071546,14.3174833 28.5263845,14.7915489 L16.3720276,26.8446196 C16.1589225,27.0563405 15.8695352,27.1751361 15.5678791,27.1747446 C14.9397261,27.1747446 14.4307316,26.6694747 14.4307316,26.0465372 Z" id="路径"></path>
            </g>
        </g>
    </g>
</svg>