<?xml version="1.0" encoding="UTF-8"?>
<svg width="32px" height="32px" viewBox="0 0 32 32" version="1.1" xmlns="http://www.w3.org/2000/svg" xmlns:xlink="http://www.w3.org/1999/xlink">
    <!-- Generator: Sketch 55.2 (78181) - https://sketchapp.com -->
    <title>搜索</title>
    <desc>Created with Sketch.</desc>
    <g id="搜索" stroke="none" stroke-width="1" fill="none" fill-rule="evenodd">
        <g>
            <rect id="矩形备份-11" x="0" y="0" width="32" height="32"></rect>
            <path d="M17.9540578,19.282485 C14.8140629,21.7648868 10.2426348,21.5563433 7.34314575,18.6568542 C4.21895142,15.5326599 4.21895142,10.4673401 7.34314575,7.34314575 C10.4673401,4.21895142 15.5326599,4.21895142 18.6568542,7.34314575 C21.5267816,10.2130731 21.7603547,14.721021 19.3575736,17.8575736 L25.7928932,24.2928932 C26.1834175,24.6834175 26.1834175,25.3165825 25.7928932,25.7071068 C25.4023689,26.0976311 24.7692039,26.0976311 24.3786797,25.7071068 L17.9540578,19.282485 Z M17.2426407,17.2426407 C19.5857864,14.8994949 19.5857864,11.1005051 17.2426407,8.75735931 C14.8994949,6.41421356 11.1005051,6.41421356 8.75735931,8.75735931 C6.41421356,11.1005051 6.41421356,14.8994949 8.75735931,17.2426407 C11.1005051,19.5857864 14.8994949,19.5857864 17.2426407,17.2426407 Z" id="形状结合" fill="#999999" fill-rule="nonzero"></path>
        </g>
    </g>
</svg>