<?xml version="1.0" encoding="utf-8"?>
<!-- Generator: Adobe Illustrator 15.1.0, SVG Export Plug-In . SVG Version: 6.00 Build 0)  -->
<!DOCTYPE svg PUBLIC "-//W3C//DTD SVG 1.1 Basic//EN" "http://www.w3.org/Graphics/SVG/1.1/DTD/svg11-basic.dtd">
<svg version="1.1" baseProfile="basic" id="Layer_1"
	 xmlns="http://www.w3.org/2000/svg" xmlns:xlink="http://www.w3.org/1999/xlink" x="0px" y="0px" width="100px" height="100px"
	 viewBox="0 0 100 100" xml:space="preserve">
<g>
	<path fill="#FFFFFF" d="M78.321,37.972c-5.297,3.737-7.945,8.242-7.945,13.518c0,6.337,3.267,11.196,9.8,14.578
		c-1.766,5.073-4.308,9.498-7.624,13.271C69.234,83.112,66.227,85,63.527,85c-1.337,0-3.141-0.429-5.411-1.286l-1.06-0.417
		l-1.778-0.681c-1.135-0.403-2.497-0.605-4.087-0.605c-1.563,0-3.292,0.341-5.183,1.021l-1.362,0.492l-1.703,0.719
		C41.631,84.748,40.294,85,38.933,85c-4.313,0-8.577-3.623-12.79-10.868c-4.213-7.243-6.319-14.578-6.319-21.998
		c0-6.311,1.753-11.404,5.26-15.278c3.505-3.875,8.122-5.812,13.849-5.812c2.144,0,4.162,0.391,6.054,1.173l1.287,0.53l1.362,0.567
		c1.186,0.479,2.144,0.719,2.875,0.719c0.959,0,2.019-0.214,3.179-0.643l1.778-0.681l1.286-0.492c2.145-0.782,4.478-1.173,7-1.173
		C69.809,31.043,74.664,33.353,78.321,37.972z M64.057,15c0.051,0.807,0.076,1.425,0.076,1.854c0,4.011-1.457,7.523-4.371,10.538
		c-2.913,3.014-6.313,4.521-10.197,4.521c-0.101-0.883-0.151-1.539-0.151-1.968c0-3.38,1.356-6.559,4.068-9.535
		c2.711-2.977,5.846-4.729,9.402-5.259C63.136,15.126,63.527,15.076,64.057,15z"/>
</g>
</svg>
