<?xml version="1.0" encoding="utf-8"?>
<!-- Generator: Adobe Illustrator 15.1.0, SVG Export Plug-In . SVG Version: 6.00 Build 0)  -->
<!DOCTYPE svg PUBLIC "-//W3C//DTD SVG 1.1 Basic//EN" "http://www.w3.org/Graphics/SVG/1.1/DTD/svg11-basic.dtd">
<svg version="1.1" baseProfile="basic" id="Layer_1"
	 xmlns="http://www.w3.org/2000/svg" xmlns:xlink="http://www.w3.org/1999/xlink" x="0px" y="0px" width="100px" height="100px"
	 viewBox="0 0 100 100" xml:space="preserve">
<g id="camera">
	<path id="path2780" fill="#FFFFFF" d="M55.593,37.403c5.495,0,10.267,3.026,12.899,7.483l15.524,0.018v-8.413
		c0-3.131-2.52-5.67-5.609-5.67H20.558c-3.1,0-5.592,2.54-5.592,5.67l0.016,8.341l27.705,0.019
		C45.339,40.411,50.089,37.403,55.593,37.403"/>
	<path id="path2782" fill="#FFFFFF" d="M29.475,28.15h-5.146l-0.595,1.875h6.168L29.475,28.15z"/>
	<path id="path2784" fill="#FFFFFF" d="M75.878,27.149h-6.854l-1.215,2.893h9.18L75.878,27.149z"/>
	<path id="path2786" fill="#FFFFFF" d="M52.357,29.043H46.46v-2.884h5.897V29.043z M57.765,25H41.112l-3.431,5.078h23.224L57.765,25
		z"/>
	<path id="path2788" fill="#FFFFFF" d="M69.297,46.391c0.858,1.911,1.366,4.015,1.366,6.254c0,8.412-6.748,15.241-15.068,15.241
		c-8.331,0-15.077-6.829-15.077-15.241c0-2.239,0.499-4.343,1.364-6.264H14.966v22.966c0,3.113,2.492,5.653,5.592,5.653h57.848
		c3.09,0,5.609-2.54,5.609-5.653l0.019-22.956H69.297z"/>
	<path id="path2790" fill="#FFFFFF" d="M63.811,47.637c-0.235-0.425-0.533-0.823-0.857-1.203c-1.759-2.141-4.393-3.548-7.358-3.548
		c-2.976,0-5.609,1.399-7.369,3.53c-0.323,0.389-0.622,0.788-0.875,1.221c-0.883,1.469-1.417,3.167-1.417,5.007
		c0,5.379,4.324,9.748,9.661,9.748c5.311,0,9.635-4.369,9.635-9.748C65.229,50.805,64.705,49.107,63.811,47.637"/>
</g>
</svg>
