<?xml version="1.0" encoding="utf-8"?>
<!-- Generator: Adobe Illustrator 15.1.0, SVG Export Plug-In . SVG Version: 6.00 Build 0)  -->
<!DOCTYPE svg PUBLIC "-//W3C//DTD SVG 1.1 Basic//EN" "http://www.w3.org/Graphics/SVG/1.1/DTD/svg11-basic.dtd">
<svg version="1.1" baseProfile="basic" id="Layer_1"
	 xmlns="http://www.w3.org/2000/svg" xmlns:xlink="http://www.w3.org/1999/xlink" x="0px" y="0px" width="100px" height="100px"
	 viewBox="0 0 100 100" xml:space="preserve">
<path fill="#FFFFFF" d="M49.5,15.5c-19.299,0-35,15.701-35,35s15.701,35,35,35s35-15.701,35-35S68.799,15.5,49.5,15.5z M58.601,50.5
	c0,5.018-4.083,9.101-9.101,9.101c-1.343,0-2.613-0.301-3.762-0.824c-0.383-0.176-0.752-0.376-1.105-0.601
	c-0.339-0.216-0.666-0.449-0.972-0.705c-1.141-0.959-2.04-2.19-2.604-3.594C40.637,52.832,40.4,51.694,40.4,50.5
	c0-5.018,4.082-9.1,9.1-9.1c1.342,0,2.612,0.299,3.762,0.824c0.383,0.176,0.752,0.376,1.105,0.6
	c0.338,0.215,0.665,0.449,0.972,0.706c1.143,0.958,2.041,2.189,2.604,3.593C58.363,48.168,58.601,49.307,58.601,50.5z
	 M41.864,59.615c0.401,0.337,0.828,0.641,1.271,0.922l-10.87,17.142c-1.2-0.765-2.348-1.601-3.432-2.511L41.864,59.615z
	 M57.136,41.385c-0.399-0.336-0.827-0.641-1.271-0.922l10.87-17.141c1.199,0.763,2.348,1.6,3.431,2.51L57.136,41.385z M49.5,18.3
	c4.75,0,9.257,1.042,13.32,2.896l-8.4,18.481c-1.502-0.685-3.164-1.077-4.92-1.077c-6.562,0-11.899,5.337-11.899,11.899
	c0,1.563,0.309,3.049,0.859,4.416L19.61,62.455C18.126,58.757,17.3,54.725,17.3,50.5C17.3,32.745,31.746,18.3,49.5,18.3z
	 M49.5,82.699c-4.75,0-9.257-1.041-13.319-2.895l8.401-18.482c1.5,0.686,3.163,1.078,4.918,1.078c6.562,0,11.9-5.339,11.9-11.9
	c0-1.561-0.312-3.048-0.86-4.416l18.849-7.54c1.486,3.699,2.311,7.732,2.311,11.956C81.699,68.255,67.254,82.699,49.5,82.699z"/>
<path fill="#FFFFFF" d="M49.5,43.5c-3.86,0-7,3.14-7,7c0,3.86,3.14,7,7,7c3.86,0,7-3.14,7-7C56.5,46.64,53.36,43.5,49.5,43.5z
	 M49.5,54.699c-2.316,0-4.2-1.884-4.2-4.199c0-2.316,1.883-4.2,4.2-4.2c2.315,0,4.199,1.883,4.199,4.2
	C53.699,52.815,51.815,54.699,49.5,54.699z"/>
</svg>
