<?xml version="1.0" encoding="utf-8"?>
<!-- Generator: Adobe Illustrator 15.1.0, SVG Export Plug-In . SVG Version: 6.00 Build 0)  -->
<!DOCTYPE svg PUBLIC "-//W3C//DTD SVG 1.1 Basic//EN" "http://www.w3.org/Graphics/SVG/1.1/DTD/svg11-basic.dtd">
<svg version="1.1" baseProfile="basic" id="Layer_1"
	 xmlns="http://www.w3.org/2000/svg" xmlns:xlink="http://www.w3.org/1999/xlink" x="0px" y="0px" width="100px" height="100px"
	 viewBox="0 0 100 100" xml:space="preserve">
<path fill="#FFFFFF" d="M73.83,75.662V70.6H62.611v-2.896h19.042c0.683,0,1.238-0.561,1.238-1.251V14.335
	c0-0.692-0.556-1.252-1.238-1.252H17.106c-0.683,0-1.237,0.561-1.237,1.252v52.118c0,0.69,0.554,1.251,1.237,1.251h19.271V70.6
	H25.169v5.063l-9.54,6.872v5.549h67.74v-5.549L73.83,75.662z M20.4,62.771V17.614c0-0.597,0.477-1.08,1.063-1.08h55.594
	c0.586,0,1.062,0.485,1.062,1.08v45.157c0,0.598-0.476,1.078-1.062,1.078H21.462C20.877,63.849,20.4,63.368,20.4,62.771z
	 M18.962,82.29l8.594-6.152h43.888l8.583,6.152H18.962z"/>
</svg>
