<?xml version="1.0" encoding="utf-8"?>
<!-- Generator: Adobe Illustrator 15.1.0, SVG Export Plug-In . SVG Version: 6.00 Build 0)  -->
<!DOCTYPE svg PUBLIC "-//W3C//DTD SVG 1.1 Basic//EN" "http://www.w3.org/Graphics/SVG/1.1/DTD/svg11-basic.dtd">
<svg version="1.1" baseProfile="basic" id="Layer_1"
	 xmlns="http://www.w3.org/2000/svg" xmlns:xlink="http://www.w3.org/1999/xlink" x="0px" y="0px" width="100px" height="100px"
	 viewBox="0 0 100 100" xml:space="preserve">
<path fill="#FFFFFF" d="M73.146,18H34.513l-8.737,8.737v55.247L26.792,83h46.464l0.969-1.083V18.914L73.146,18z M33.504,34.088
	H29.94V23.362h3.564V34.088z M38.33,30.188h-3.563V19.463h3.563V30.188z M43.156,30.188h-3.564V19.463h3.564V30.188z M47.981,30.188
	h-3.563V19.463h3.563V30.188z M52.806,30.188h-3.563V19.463h3.563V30.188z M57.634,30.188h-3.564V19.463h3.564V30.188z
	 M62.458,30.188h-3.564V19.463h3.564V30.188z M67.284,30.188H63.72V19.463h3.564V30.188z M72.108,30.188h-3.563V19.463h3.563V30.188
	z"/>
</svg>
