<?xml version="1.0" encoding="utf-8"?>
<!-- Generator: Adobe Illustrator 15.1.0, SVG Export Plug-In . SVG Version: 6.00 Build 0)  -->
<!DOCTYPE svg PUBLIC "-//W3C//DTD SVG 1.1 Basic//EN" "http://www.w3.org/Graphics/SVG/1.1/DTD/svg11-basic.dtd">
<svg version="1.1" baseProfile="basic" id="Layer_1"
	 xmlns="http://www.w3.org/2000/svg" xmlns:xlink="http://www.w3.org/1999/xlink" x="0px" y="0px" width="100px" height="100px"
	 viewBox="0 0 100 100" xml:space="preserve">
<g>
	<path fill="#FFFFFF" d="M45.826,31.22L21.48,28.13l-0.001,52.325L45.826,85V31.22z M32.004,80.11V55.839l2.574,0.278V80.58
		L32.004,80.11z M24.906,31.962l17.475,2.224v5.315l-17.475-2.223V31.962z M24.906,39.502l17.475,2.223v5.315l-17.475-2.223V39.502z
		 M24.906,47.04l17.475,2.224v5.315l-17.475-2.224V47.04z"/>
	<polygon fill="#FFFFFF" points="46.553,29.627 76.811,17.575 56.509,15 23.242,26.672 	"/>
	<polygon fill="#FFFFFF" points="47.497,31.05 47.497,84.71 78.521,68.08 78.521,18.69 	"/>
</g>
</svg>
