<?xml version="1.0" encoding="utf-8"?>
<!-- Generator: Adobe Illustrator 15.1.0, SVG Export Plug-In . SVG Version: 6.00 Build 0)  -->
<!DOCTYPE svg PUBLIC "-//W3C//DTD SVG 1.1 Basic//EN" "http://www.w3.org/Graphics/SVG/1.1/DTD/svg11-basic.dtd">
<svg version="1.1" baseProfile="basic" id="Layer_1"
	 xmlns="http://www.w3.org/2000/svg" xmlns:xlink="http://www.w3.org/1999/xlink" x="0px" y="0px" width="100px" height="100px"
	 viewBox="0 0 100 100" xml:space="preserve">
<path id="smartphone" fill="#FFFFFF" d="M63.795,12.941H34.676c-4.383,0-7.938,3.556-7.938,7.94v58.238
	c0,4.385,3.555,7.94,7.938,7.94h29.119c4.386,0,7.942-3.556,7.942-7.94V20.881C71.737,16.497,68.18,12.941,63.795,12.941z
	 M45.045,15.367h9.129c0.609,0,1.105,0.492,1.105,1.103c0,0.609-0.496,1.104-1.105,1.104h-9.129c-0.609,0-1.103-0.494-1.103-1.104
	C43.942,15.86,44.436,15.367,45.045,15.367z M49.237,81.103c-1.585,0-2.871-1.284-2.871-2.867c0-1.586,1.286-2.87,2.871-2.87
	c1.582,0,2.869,1.284,2.869,2.87C52.105,79.818,50.82,81.103,49.237,81.103z M67.543,71.398H31.37V20.439h36.174L67.543,71.398
	L67.543,71.398z"/>
</svg>
