<?xml version="1.0" encoding="utf-8"?>
<!-- Generator: Adobe Illustrator 15.1.0, SVG Export Plug-In . SVG Version: 6.00 Build 0)  -->
<!DOCTYPE svg PUBLIC "-//W3C//DTD SVG 1.1 Basic//EN" "http://www.w3.org/Graphics/SVG/1.1/DTD/svg11-basic.dtd">
<svg version="1.1" baseProfile="basic" id="Layer_1"
	 xmlns="http://www.w3.org/2000/svg" xmlns:xlink="http://www.w3.org/1999/xlink" x="0px" y="0px" width="100px" height="100px"
	 viewBox="0 0 100 100" xml:space="preserve">
<g id="video">
	<rect x="76.13" y="44.906" fill="#FFFFFF" width="8.37" height="21.687"/>
	<path fill="#FFFFFF" d="M50.38,51.952H24.85c-2.111,0-3.83,1.718-3.83,3.83v10.792c0,2.11,1.719,3.829,3.83,3.829H50.38
		c2.111,0,3.83-1.719,3.83-3.829V55.782C54.21,53.67,52.491,51.952,50.38,51.952z"/>
	<path fill="#FFFFFF" d="M68.388,48.085v-6.302c0-3.369-2.729-6.099-6.098-6.099h-1.556v-7.53c0-2.193-1.778-3.971-3.971-3.971
		H27.86c-2.193,0-3.972,1.778-3.972,3.971c0,2.194,1.778,3.972,3.972,3.972h24.933v3.558H20.599c-3.369,0-6.099,2.73-6.099,6.099
		v27.935c0,3.369,2.73,6.1,6.099,6.1H62.29c3.368,0,6.098-2.73,6.098-6.1v-6.303h5.075v-15.33H68.388z M56.479,66.573
		c0,3.368-2.73,6.099-6.099,6.099H24.85c-3.369,0-6.1-2.73-6.1-6.099V55.782c0-3.368,2.73-6.098,6.1-6.098H50.38
		c3.369,0,6.099,2.73,6.099,6.098V66.573z M60.734,46.95c-1.994,0-3.61-1.617-3.61-3.61s1.616-3.611,3.61-3.611
		c1.993,0,3.611,1.618,3.611,3.611S62.728,46.95,60.734,46.95z"/>
</g>
</svg>
