<?xml version="1.0" encoding="utf-8"?>
<!-- Generator: Adobe Illustrator 15.1.0, SVG Export Plug-In . SVG Version: 6.00 Build 0)  -->
<!DOCTYPE svg PUBLIC "-//W3C//DTD SVG 1.1 Basic//EN" "http://www.w3.org/Graphics/SVG/1.1/DTD/svg11-basic.dtd">
<svg version="1.1" baseProfile="basic" id="Layer_1"
	 xmlns="http://www.w3.org/2000/svg" xmlns:xlink="http://www.w3.org/1999/xlink" x="0px" y="0px" width="100px" height="100px"
	 viewBox="0 0 100 100" xml:space="preserve">
<g id="eye">
	<path fill="#FFFFFF" d="M49.991,60.66c5.465,0,9.895-4.429,9.895-9.894c0-5.466-4.43-9.896-9.895-9.896
		c-2.432,0-4.657,0.879-6.379,2.334l5.652,7.296l-8.761-2.54c-0.262,0.889-0.406,1.831-0.406,2.805
		C40.096,56.231,44.528,60.66,49.991,60.66z"/>
	<path fill="#FFFFFF" d="M85.525,49.538c-9.02-12.25-22.419-19.275-36.764-19.275c-13.708,0-26.722,6.52-35.706,17.887l-1.292,1.636
		L13,51.464c9.021,12.25,22.42,19.274,36.764,19.274c13.708,0,26.723-6.521,35.707-17.887l1.294-1.635L85.525,49.538z
		 M49.792,64.504c-7.576,0-13.739-6.163-13.739-13.737c0-1.366,0.203-2.684,0.576-3.929l-3.149-0.913
		c-0.457,1.536-0.705,3.159-0.705,4.842c0,5.129,2.291,9.724,5.892,12.846c-7.635-2.327-14.563-7.036-19.967-13.709
		c5.537-6.365,12.558-10.791,20.195-12.854l0.284,0.429l2.006,2.59c2.357-1.9,5.351-3.042,8.609-3.042
		c7.575,0,13.736,6.163,13.736,13.739C63.528,58.341,57.366,64.504,49.792,64.504z M60.98,63.555
		c3.563-3.122,5.827-7.691,5.827-12.788c0-5.283-2.421-10.011-6.209-13.134c7.343,2.401,14,7.009,19.228,13.465
		C74.619,57.085,68.095,61.35,60.98,63.555z"/>
</g>
</svg>
