<?xml version="1.0" encoding="utf-8"?>
<!-- Generator: Adobe Illustrator 15.1.0, SVG Export Plug-In . SVG Version: 6.00 Build 0)  -->
<!DOCTYPE svg PUBLIC "-//W3C//DTD SVG 1.1 Basic//EN" "http://www.w3.org/Graphics/SVG/1.1/DTD/svg11-basic.dtd">
<svg version="1.1" baseProfile="basic" id="Layer_1"
	 xmlns="http://www.w3.org/2000/svg" xmlns:xlink="http://www.w3.org/1999/xlink" x="0px" y="0px" width="100px" height="100px"
	 viewBox="0 0 100 100" xml:space="preserve">
<g id="fitness">
	<g id="Ellipse_2_copy_3">
		<g>
			<ellipse fill="#FFFFFF" cx="68.643" cy="19.781" rx="6.883" ry="6.896"/>
		</g>
	</g>
	<g id="Rounded_Rectangle_17">
		<g>
			<path fill="#FFFFFF" d="M74.393,35.348l-8.819-7.734c-1.181-1.036-2.977-0.918-4.014,0.262c-1.034,1.182-0.919,2.977,0.264,4.013
				l8.819,7.734c1.182,1.036,2.979,0.917,4.014-0.264C75.692,38.181,75.574,36.385,74.393,35.348z"/>
		</g>
	</g>
	<g id="Rounded_Rectangle_17_copy_2">
		<g>
			<path fill="#FFFFFF" d="M59.181,24.902l-11.755,0.909c-1.574,0.122-2.753,1.496-2.635,3.07c0.119,1.575,1.491,2.752,3.064,2.631
				l11.755-0.908c1.573-0.123,2.753-1.496,2.635-3.071C62.126,25.958,60.754,24.78,59.181,24.902z"/>
		</g>
	</g>
	<g id="Rounded_Rectangle_17_copy">
		<g>
			<path fill="#FFFFFF" d="M83.59,27.011c-1.127-1.093-2.929-1.064-4.022,0.063l-8.162,8.424c-1.092,1.128-1.063,2.928,0.064,4.021
				c1.127,1.093,2.928,1.064,4.021-0.063l8.162-8.424C84.747,29.905,84.718,28.104,83.59,27.011z"/>
		</g>
	</g>
	<g id="Rounded_Rectangle_17_copy_3">
		<g>
			<path fill="#FFFFFF" d="M48.577,26.834c-1.128-1.093-2.929-1.064-4.021,0.063l-8.162,8.425c-1.094,1.127-1.065,2.927,0.063,4.02
				c1.128,1.094,2.928,1.065,4.021-0.063l8.163-8.424C49.733,29.728,49.705,27.927,48.577,26.834z"/>
		</g>
	</g>
	<g id="Rounded_Rectangle_14_copy">
		<g>
			<path fill="#FFFFFF" d="M64.235,26.568l-1.181-0.711c-2.444-1.472-5.615-0.679-7.084,1.769L43.738,48.02
				c-1.469,2.448-0.678,5.626,1.766,7.097l1.18,0.709c2.444,1.474,5.616,0.681,7.085-1.767l12.233-20.393
				C67.47,31.217,66.68,28.04,64.235,26.568z"/>
		</g>
	</g>
	<g id="Rounded_Rectangle_15">
		<g>
			<path fill="#FFFFFF" d="M63.436,59.568L52.935,48.875c-1.732-1.766-4.565-1.789-6.327-0.052
				c-1.761,1.735-1.785,4.575-0.051,6.338l10.5,10.693c1.731,1.767,4.564,1.787,6.326,0.051
				C65.145,64.171,65.169,61.33,63.436,59.568z"/>
		</g>
	</g>
	<g id="Rounded_Rectangle_15_copy">
		<g>
			<path fill="#FFFFFF" d="M51.136,44.764c-2.067-1.357-4.827-0.771-6.164,1.308l-8.104,12.603
				c-1.336,2.081-0.747,4.867,1.321,6.226c2.066,1.356,4.825,0.771,6.163-1.311l8.104-12.602
				C53.792,48.908,53.202,46.121,51.136,44.764z"/>
		</g>
	</g>
	<g id="Rounded_Rectangle_16">
		<g>
			<path fill="#FFFFFF" d="M61.069,59.495c-2.141-0.409-4.172,1.207-4.536,3.604l-2.979,19.642
				c-0.365,2.397,1.074,4.674,3.215,5.081s4.172-1.207,4.535-3.604l2.981-19.642C64.648,62.179,63.208,59.903,61.069,59.495z"/>
		</g>
	</g>
	<g id="Rounded_Rectangle_16_copy">
		<g>
			<path fill="#FFFFFF" d="M40.226,59.568l-19.457-3.583c-2.376-0.438-4.712,0.793-5.218,2.749
				c-0.505,1.957,1.011,3.896,3.388,4.335l19.456,3.581c2.376,0.438,4.713-0.793,5.218-2.749
				C44.118,61.943,42.601,60.006,40.226,59.568z"/>
		</g>
	</g>
</g>
</svg>
