<?xml version="1.0" encoding="utf-8"?>
<!-- Generator: Adobe Illustrator 15.1.0, SVG Export Plug-In . SVG Version: 6.00 Build 0)  -->
<!DOCTYPE svg PUBLIC "-//W3C//DTD SVG 1.1 Basic//EN" "http://www.w3.org/Graphics/SVG/1.1/DTD/svg11-basic.dtd">
<svg version="1.1" baseProfile="basic" id="Layer_1"
	 xmlns="http://www.w3.org/2000/svg" xmlns:xlink="http://www.w3.org/1999/xlink" x="0px" y="0px" width="100px" height="100px"
	 viewBox="0 0 100 100" xml:space="preserve">
<path fill="#FFFFFF" d="M21.611,52.331h5.783c0.438,0,0.844,0.221,1.086,0.581c0,0,1.102,1.664,2.202,3.314
	c0.61-5.407,2.735-24.306,2.735-24.306c0.073-0.624,0.584-1.117,1.219-1.153c0.631-0.039,1.196,0.382,1.342,0.997
	c0,0,2.77,11.612,4.08,17.097c0.863-2.438,1.735-4.907,1.735-4.907c0.182-0.517,0.671-0.868,1.222-0.87
	c0.546-0.002,1.042,0.338,1.229,0.854c0,0,2.572,6.986,3.088,8.394c1.301,0,5.018,0,5.018,0c0.438,0,0.846,0.221,1.087,0.581
	c0,0,1.103,1.664,2.202,3.314c0.61-5.407,2.735-24.307,2.735-24.307c0.07-0.624,0.583-1.116,1.217-1.153
	c0.631-0.039,1.201,0.382,1.345,0.997c0,0,2.769,11.606,4.078,17.097c0.862-2.438,1.737-4.907,1.737-4.907
	c0.18-0.517,0.669-0.868,1.216-0.87c0.549-0.002,1.046,0.338,1.23,0.854c0,0,2.576,6.986,3.089,8.394c0.898,0,3.563,0,5.131,0
	l0.272-0.521C80.181,47.524,82,39.586,82,33.804c0-7.376-5.368-16.286-15.83-16.286c-14.949,0-16.87,14.003-16.87,14.003
	s-1.854-13.936-16.793-13.936C22.415,17.586,17,26.173,17,33.804c0,6.592,2.885,14.728,4.364,18.07L21.611,52.331z"/>
<path fill="#FFFFFF" d="M71.378,54.938c-0.549,0-1.037-0.343-1.224-0.853c0,0-1.153-3.137-2.153-5.856
	c-0.937,2.655-1.998,5.663-1.998,5.663c-0.193,0.546-0.718,0.899-1.296,0.866c-0.577-0.028-1.068-0.435-1.198-0.999
	c0,0-1.864-7.805-3.377-14.146c-0.899,7.988-2.302,20.459-2.302,20.459c-0.06,0.54-0.458,0.99-0.99,1.117
	c-0.534,0.129-1.088-0.089-1.392-0.544c0,0-3.159-4.754-3.797-5.708c-1.087,0-5.229,0-5.229,0c-0.546,0-1.035-0.343-1.22-0.853
	c0,0-1.155-3.137-2.155-5.856c-0.94,2.655-2.002,5.663-2.002,5.663c-0.192,0.546-0.718,0.899-1.296,0.866
	c-0.577-0.028-1.065-0.435-1.201-0.999c0,0-1.86-7.805-3.37-14.136c-0.899,7.98-2.301,20.45-2.301,20.45
	c-0.063,0.54-0.458,0.99-0.99,1.117c-0.534,0.129-1.086-0.089-1.393-0.544c0,0-3.158-4.754-3.797-5.708c-0.529,0-2.208,0-3.669,0
	C32.372,71.544,49.3,82.48,49.3,82.48s17.237-10.938,26.731-27.542H71.378L71.378,54.938z"/>
</svg>
