<?xml version="1.0" encoding="utf-8"?>
<!-- Generator: Adobe Illustrator 15.1.0, SVG Export Plug-In . SVG Version: 6.00 Build 0)  -->
<!DOCTYPE svg PUBLIC "-//W3C//DTD SVG 1.1 Basic//EN" "http://www.w3.org/Graphics/SVG/1.1/DTD/svg11-basic.dtd">
<svg version="1.1" baseProfile="basic" id="Layer_1"
	 xmlns="http://www.w3.org/2000/svg" xmlns:xlink="http://www.w3.org/1999/xlink" x="0px" y="0px" width="100px" height="100px"
	 viewBox="0 0 100 100" xml:space="preserve">
<polygon fill="#FFFFFF" points="75.72,45.04 54.961,45.04 54.961,24.28 44.04,24.28 44.04,45.04 23.281,45.04 23.281,55.961 
	44.04,55.961 44.04,76.72 54.961,76.72 54.961,55.961 75.72,55.961 "/>
<path fill="#FFFFFF" d="M49.5,85.5c-19.299,0-35-15.701-35-35c0-19.299,15.701-35,35-35c19.299,0,35,15.701,35,35
	C84.5,69.799,68.799,85.5,49.5,85.5L49.5,85.5z M49.5,19.28c-17.216,0-31.22,14.005-31.22,31.22c0,17.215,14.004,31.22,31.22,31.22
	c17.214,0,31.22-14.005,31.22-31.22C80.72,33.286,66.714,19.28,49.5,19.28L49.5,19.28z"/>
</svg>
