<?xml version="1.0" encoding="utf-8"?>
<!-- Generator: Adobe Illustrator 15.1.0, SVG Export Plug-In . SVG Version: 6.00 Build 0)  -->
<!DOCTYPE svg PUBLIC "-//W3C//DTD SVG 1.1 Basic//EN" "http://www.w3.org/Graphics/SVG/1.1/DTD/svg11-basic.dtd">
<svg version="1.1" baseProfile="basic" id="Layer_1"
	 xmlns="http://www.w3.org/2000/svg" xmlns:xlink="http://www.w3.org/1999/xlink" x="0px" y="0px" width="100px" height="100px"
	 viewBox="0 0 100 100" xml:space="preserve">
<g>
	<polygon fill="#FFFFFF" points="75.082,42.788 75.082,32.149 67.307,32.149 67.307,34.939 50,17.469 31.25,36.395 12.5,55.321 
		23.655,55.321 31.25,47.655 50,28.729 68.749,47.655 76.346,55.321 87.5,55.321 	"/>
	<path fill="#FFFFFF" d="M50,32.146L31.25,51.071l-6.333,6.394h0.017v25.066h50.133V57.465h0.016l-6.333-6.394L50,32.146z
		 M38.032,71.695h-3.533V68.5h3.533V71.695z M38.032,67.825h-3.533v-3.87h3.533V67.825z M42.241,71.695h-3.534V68.5h3.534V71.695z
		 M42.241,67.825h-3.534v-3.87h3.534V67.825z M66.18,80.533h-8.788V63.955h8.788V80.533z"/>
</g>
</svg>
