<?xml version="1.0" encoding="utf-8"?>
<!-- Generator: Adobe Illustrator 15.1.0, SVG Export Plug-In . SVG Version: 6.00 Build 0)  -->
<!DOCTYPE svg PUBLIC "-//W3C//DTD SVG 1.1 Basic//EN" "http://www.w3.org/Graphics/SVG/1.1/DTD/svg11-basic.dtd">
<svg version="1.1" baseProfile="basic" id="Layer_1"
	 xmlns="http://www.w3.org/2000/svg" xmlns:xlink="http://www.w3.org/1999/xlink" x="0px" y="0px" width="100px" height="100px"
	 viewBox="0 0 100 100" xml:space="preserve">
<g>
	<path fill="#FFFFFF" d="M68.391,64.92c-1.07,1.071-2.805,1.072-3.876,0l-4.154-4.156c-1.072-1.068-1.072-2.806,0-3.874l0,0
		c1.07-1.07,2.803-1.07,3.874-0.001l4.155,4.156C69.46,62.115,69.46,63.851,68.391,64.92L68.391,64.92z"/>
	<path fill="#FFFFFF" d="M63.556,69.757c-1.07,1.07-2.925,0.951-4.14-0.265l-5.872-5.874c-1.217-1.215-1.336-3.068-0.265-4.138l0,0
		c1.069-1.07,2.925-0.951,4.139,0.266l5.874,5.868C64.51,66.83,64.627,68.686,63.556,69.757L63.556,69.757z"/>
	<path fill="#FFFFFF" d="M58.721,74.592c-1.069,1.07-2.925,0.95-4.141-0.265l-5.024-5.026c-1.216-1.217-1.334-3.07-0.264-4.141l0,0
		c1.069-1.069,2.922-0.951,4.14,0.263l5.025,5.026C59.671,71.665,59.79,73.521,58.721,74.592L58.721,74.592z"/>
	<path fill="#FFFFFF" d="M48.128,70.247l-0.137,0.14c0.068-0.018,0.135-0.043,0.204-0.054C48.17,70.307,48.151,70.275,48.128,70.247
		z"/>
	<path fill="#FFFFFF" d="M53.888,79.423c-1.071,1.071-2.925,0.952-4.142-0.265l-2.315-2.314c-1.216-1.217-1.334-3.069-0.264-4.14
		l0,0c1.072-1.071,2.924-0.954,4.14,0.263l2.315,2.314C54.84,76.5,54.959,78.353,53.888,79.423L53.888,79.423z"/>
	<path fill="#FFFFFF" d="M59.364,32.539l-8.305,0.003c-0.101,0-0.194,0.017-0.294,0.025H39.937c-1.415,0-3.384,0.824-4.377,1.833
		L22.583,47.579c-0.993,1.008-0.986,2.65,0.013,3.651l6.004,6.004c1,1,2.636,1,3.636,0l17.675-17.675
		c0.647-0.648,1.702-1.215,2.751-1.538l6.702,0.001c1.72,0,3.114-1.226,3.114-2.74S61.084,32.539,59.364,32.539z"/>
	<path fill="#FFFFFF" d="M35.685,28.563l-4.828-7.331c-1-1.001-2.637-1.001-3.639,0L9.958,38.16c-1.001,1-1.001,2.637,0,3.637
		l7.665,4.828c1.001,1,2.637,1,3.638,0L35.685,32.2C36.687,31.2,36.687,29.563,35.685,28.563z M16.384,43.033
		c-0.904,0-1.638-0.733-1.638-1.638s0.734-1.638,1.638-1.638c0.904,0,1.638,0.733,1.638,1.638S17.288,43.033,16.384,43.033z"/>
	<path fill="#FFFFFF" d="M62.726,32.957l14.426,14.424c1.001,1,2.637,1,3.639,0l7.666-4.828c1.001-1.001,1.001-2.637,0-3.638
		L71.192,21.988c-1.001-1-2.638-1-3.639,0l-4.828,7.331C61.726,30.319,61.726,31.957,62.726,32.957z M80.39,42.15
		c0-0.905,0.734-1.638,1.638-1.638s1.64,0.733,1.64,1.638c0,0.905-0.736,1.638-1.64,1.638S80.39,43.055,80.39,42.15z"/>
	<path fill="#FFFFFF" d="M75.787,47.618L64.119,35.951c-0.16,0.968-0.646,1.876-1.419,2.556c-0.9,0.793-2.086,1.23-3.335,1.23
		l-6.429-0.001c-0.736,0.258-1.43,0.651-1.813,1.035L33.448,58.445c-0.653,0.653-1.486,1.055-2.385,1.191l-0.265,0.261
		c-1.071,1.071-1.071,2.805,0,3.875c1.069,1.071,2.806,1.073,3.875,0l10.173-10.147c0.138-0.138,0.332-0.226,0.544-0.226
		c0.426,0,0.771,0.344,0.771,0.771c0,0.213-0.085,0.406-0.226,0.547l0.006,0.006L33.933,66.731
		c-1.216,1.216-1.334,3.066-0.265,4.141c1.069,1.069,2.924,0.95,4.139-0.266l12.021-11.994c0.141-0.141,0.333-0.229,0.544-0.229
		c0.428,0,0.771,0.348,0.771,0.771c0,0.214-0.087,0.406-0.228,0.546l0.003,0.002L39.158,71.466c-1.215,1.215-1.333,3.07-0.264,4.141
		c1.071,1.07,2.924,0.951,4.14-0.264l1.829-1.829c0.175-0.749,0.524-1.453,1.093-2.022c0.56-0.56,1.266-0.928,2.037-1.104
		l0.137-0.14c-0.743-0.841-1.203-1.875-1.272-2.964c-0.082-1.263,0.365-2.479,1.223-3.337c0.786-0.785,1.849-1.219,2.996-1.229
		c-0.143-0.459-0.242-0.931-0.242-1.41c0-1.166,0.438-2.245,1.237-3.041c0.793-0.793,1.872-1.23,3.037-1.23
		c0.994,0,1.982,0.33,2.82,0.917c0.169-0.857,0.59-1.645,1.221-2.275c0.84-0.84,1.958-1.305,3.149-1.305
		c1.189,0,2.308,0.463,3.149,1.306l3.423,3.423l6.916-7.047C77.007,50.834,77.007,48.838,75.787,47.618z"/>
</g>
</svg>
