<?xml version="1.0" encoding="utf-8"?>
<!-- Generator: Adobe Illustrator 15.1.0, SVG Export Plug-In . SVG Version: 6.00 Build 0)  -->
<!DOCTYPE svg PUBLIC "-//W3C//DTD SVG 1.1 Basic//EN" "http://www.w3.org/Graphics/SVG/1.1/DTD/svg11-basic.dtd">
<svg version="1.1" baseProfile="basic" id="Layer_1"
	 xmlns="http://www.w3.org/2000/svg" xmlns:xlink="http://www.w3.org/1999/xlink" x="0px" y="0px" width="100px" height="100px"
	 viewBox="0 0 100 100" xml:space="preserve">
<g id="passport">
	<polygon fill="#FFFFFF" points="61.479,13 34.406,21.263 61.479,21.844 	"/>
	<path fill="#FFFFFF" d="M28.865,22.953v64.142L70.981,88V23.859L28.865,22.953z M43.24,42.888c0.958,0.041,1.796,0.51,2.338,1.215
		c0.842-1.673,2.606-2.788,4.597-2.702c1.921,0.083,3.531,1.262,4.268,2.905c0.59-0.55,1.393-0.873,2.263-0.835
		c1.724,0.077,3.061,1.533,2.985,3.257c-0.075,1.725-1.534,3.062-3.256,2.986c-0.871-0.038-1.643-0.43-2.183-1.029
		c-0.875,1.575-2.582,2.608-4.504,2.525c-1.992-0.087-3.65-1.351-4.344-3.09c-0.601,0.655-1.476,1.05-2.437,1.007
		c-1.723-0.076-3.058-1.533-2.984-3.255C40.06,44.15,41.517,42.813,43.24,42.888z M63.548,65.157c-0.006,0-0.012,0-0.018,0
		l-27.147-0.605c-0.469-0.01-0.841-0.398-0.831-0.868c0.01-0.469,0.396-0.839,0.869-0.831l27.146,0.604
		c0.469,0.011,0.842,0.399,0.831,0.868C64.389,64.787,64.01,65.157,63.548,65.157z M63.548,59.124c-0.006,0-0.012,0-0.018,0
		L36.383,58.52c-0.469-0.011-0.841-0.399-0.831-0.868c0.01-0.47,0.396-0.817,0.869-0.832l27.146,0.604
		c0.469,0.012,0.842,0.4,0.831,0.869C64.389,58.756,64.01,59.124,63.548,59.124z"/>
</g>
</svg>
