<?xml version="1.0" encoding="utf-8"?>
<!-- Generator: Adobe Illustrator 15.1.0, SVG Export Plug-In . SVG Version: 6.00 Build 0)  -->
<!DOCTYPE svg PUBLIC "-//W3C//DTD SVG 1.1 Basic//EN" "http://www.w3.org/Graphics/SVG/1.1/DTD/svg11-basic.dtd">
<svg version="1.1" baseProfile="basic" id="Layer_1"
	 xmlns="http://www.w3.org/2000/svg" xmlns:xlink="http://www.w3.org/1999/xlink" x="0px" y="0px" width="100px" height="100px"
	 viewBox="0 0 100 100" xml:space="preserve">
<g id="pets">
	<g>
		<path fill="#FFFFFF" d="M39.19,44.783c-2.063-0.672-10.909-3.558-15.298-5.029c-2.225,5.74-13.981,36.797-9.93,42.138
			c4.466,5.89,20.51-1.014,25.181,0c4.672,1.018,4.096-2.229,4.096-2.229L39.19,44.783z"/>
		<path fill="#FFFFFF" d="M50.955,27.34c-1.225-1.674-8.195-1.32-8.195-1.32s-1.769-3.795-2.908-4.497
			C38.52,20.705,34.8,20.85,34.8,20.85s0.347-5.496-1.331-5.905c-3.2-0.783-7.457,16.284-8.795,22.03
			c3.603,1.461,10.349,4.066,14.157,4.7l-0.038-0.324c0,0,0.132-2.775,1.984-3.437c1.245-0.445,7.403-1.708,9.124-3.437
			C51.17,33.201,52.023,28.796,50.955,27.34z"/>
	</g>
	<g>
		<path fill="#FFFFFF" d="M56.635,54.762c2.749-0.83,7.032-2.349,10.565-4.61c-0.137-1.839,0.455-3.89,0.707-5.141
			c0.396-1.982-0.133-3.115-1.19-5.95c-0.19-0.51-1.052-6.17-2.774-6.346c-1.699-0.172-3.967,5.552-3.967,5.552
			s-4.894,0-5.478,2.182c-0.703,2.621-3.408,4.046-3.514,4.429c-0.406,1.476,0.31,5.484,2.661,6.096
			C55.08,51.348,56.118,53.212,56.635,54.762z"/>
		<path fill="#FFFFFF" d="M68.399,52.955c-0.227-0.209-0.409-0.444-0.565-0.693c-1.9,1.031-7.614,4.059-10.783,4.925
			c1.295,6.103,0.555,21.512,0.593,22.171c0.055,0.979-0.584,1.587-0.111,2.367c0.723,1.194,2.141,1.307,3.814,1.004
			c1.676-0.308,14.144,3.148,21.955-0.119C92.885,76.838,76.897,56.288,68.399,52.955z"/>
	</g>
	<path fill="#FFFFFF" d="M13.555,79.963c-6.658-5.12-6.719-16.901-8.42-13.343c-1.591,3.329-0.036,11.36,2.938,14.887
		c2.732,3.239,8.367,3.085,8.591,1.055"/>
	<path fill="#FFFFFF" d="M86.211,76.041c2.616,1.647,7.369-5.367,3.427-7.733c-2.481-1.487-2.755-1.94-3.456-3.096
		c-1.684-2.77,0.522-10.517,4.772-11.514c3.158-0.739,3.364,2.161,1.628,3.109c-4.12,2.448-4.466,6.56-1.661,8.564
		c1.586,1.134,2.703,1.941,3.394,4.468c0.976,3.563-1.952,9.232-7.578,11.015c0,0-3.129,0.703-3.706-0.578"/>
</g>
</svg>
