<?xml version="1.0" encoding="utf-8"?>
<!-- Generator: Adobe Illustrator 15.1.0, SVG Export Plug-In . SVG Version: 6.00 Build 0)  -->
<!DOCTYPE svg PUBLIC "-//W3C//DTD SVG 1.1 Basic//EN" "http://www.w3.org/Graphics/SVG/1.1/DTD/svg11-basic.dtd">
<svg version="1.1" baseProfile="basic" id="Layer_1"
	 xmlns="http://www.w3.org/2000/svg" xmlns:xlink="http://www.w3.org/1999/xlink" x="0px" y="0px" width="100px" height="100px"
	 viewBox="0 0 100 100" xml:space="preserve">
<path fill="#FFFFFF" d="M68.965,24.576c-7.458,0-14.998-2.974-19.465-8.91c-4.466,5.936-12.007,8.909-19.465,8.909
	c-3.856,0-7.688-0.794-11.061-2.386c0.378,10.021,1.123,20.177,2.799,30.074c0.855,5.424,1.696,11.82,4.667,16.568
	c2.61,4.569,6.66,8.307,11.005,11.202c3.301,2.197,6.893,4.003,10.631,5.329c0.597,0.212,1.052,0.304,1.47,0.304
	c0.726,0,1.342-0.276,2.404-0.682c8.597-3.301,17.822-9.371,21.617-18.099c3.415-7.765,4.168-16.991,5.044-25.333
	c0.679-6.432,1.17-12.898,1.417-19.364C76.653,23.781,72.818,24.576,68.965,24.576z M71.648,40.822l-0.187,1.798
	c-0.276,2.677-0.558,5.386-0.929,8.047H49.5v27.761c0,0-0.001,0.001-0.002,0.001c-2.857-1.093-5.602-2.51-8.171-4.22
	c-3.965-2.642-7.011-5.702-8.809-8.851l-0.07-0.122l-0.075-0.12c-2.013-3.218-2.811-8.338-3.514-12.854l-0.171-1.091l-0.006-0.039
	l-0.006-0.039c-0.024-0.141-0.045-0.286-0.07-0.426H49.5V25.395l0,0c5.334,3.948,12.193,6.181,19.465,6.181
	c1.185,0,2.364-0.06,3.531-0.18C72.269,34.48,71.985,37.629,71.648,40.822z"/>
</svg>
