<?xml version="1.0" encoding="utf-8"?>
<!-- Generator: Adobe Illustrator 15.1.0, SVG Export Plug-In . SVG Version: 6.00 Build 0)  -->
<!DOCTYPE svg PUBLIC "-//W3C//DTD SVG 1.1 Basic//EN" "http://www.w3.org/Graphics/SVG/1.1/DTD/svg11-basic.dtd">
<svg version="1.1" baseProfile="basic" id="Layer_1"
	 xmlns="http://www.w3.org/2000/svg" xmlns:xlink="http://www.w3.org/1999/xlink" x="0px" y="0px" width="100px" height="100px"
	 viewBox="0 0 100 100" xml:space="preserve">
<g>
	<g>
		<path fill="#FFFFFF" d="M78.821,54.845V39.87c0-2.125,1.739-3.854,3.877-3.854c2.13,0,3.854,1.729,3.854,3.854v20.508
			c0,2.835-1.021,5.574-2.853,7.714L70.912,81.673c-1.269,1.195-1.581,2.254-1.581,3.855V88H55.412l-0.017-5.882
			c0-2.24-0.183-5.235,2.621-8.174l16.228-16.293c0.578-0.558,1.337-0.861,2.139-0.861c1.697,0,3.08,1.377,3.08,3.072
			c0,0.732-0.26,1.443-0.733,2.002l-7.827,8.385c-0.507,0.595-1.364,1.716-1.791,3.089c-0.23,0.712-0.296,1.409-0.31,2.205h2.521
			c0.011-0.567,0.051-1.023,0.188-1.447c0.246-0.794,0.737-1.506,1.107-1.963l7.943-8.72c1-1.007,1.548-2.312,1.548-3.682
			C82.105,57.674,80.869,55.779,78.821,54.845z"/>
	</g>
</g>
<g>
	<g>
		<path fill="#FFFFFF" d="M20.179,54.845V39.87c0-2.125-1.739-3.854-3.876-3.854c-2.129,0-3.853,1.729-3.853,3.854v20.508
			c0,2.835,1.02,5.574,2.851,7.714l12.789,13.58c1.268,1.195,1.58,2.253,1.58,3.855V88h13.919l0.016-5.882
			c0-2.24,0.183-5.235-2.622-8.174L24.757,57.653c-0.578-0.558-1.336-0.861-2.14-0.861c-1.697,0-3.079,1.377-3.079,3.071
			c0,0.732,0.258,1.444,0.733,2.002l7.827,8.385c0.508,0.594,1.366,1.715,1.792,3.089c0.23,0.713,0.296,1.409,0.309,2.206H27.68
			c-0.01-0.569-0.053-1.025-0.188-1.449c-0.246-0.792-0.737-1.505-1.106-1.961l-7.946-8.722c-1-1.007-1.545-2.312-1.545-3.682
			C16.894,57.674,18.131,55.779,20.179,54.845z"/>
	</g>
</g>
<path fill="#FFFFFF" d="M50.965,19.634c1.827,0,3.303-1.481,3.303-3.306c0-1.821-1.478-3.303-3.303-3.303
	c-1.823,0-3.3,1.483-3.3,3.303C47.665,18.153,49.142,19.634,50.965,19.634z"/>
<path fill="#FFFFFF" d="M33.039,19.652c-1.852,0-3.352-1.486-3.352-3.327c0-1.837,1.5-3.325,3.352-3.325
	c1.852,0,3.356,1.488,3.356,3.325C36.395,18.166,34.89,19.652,33.039,19.652z"/>
<g>
	<circle fill="#FFFFFF" cx="67.383" cy="30.089" r="2.317"/>
	<path fill="#FFFFFF" d="M70.737,33.55c-0.815,0-5.461,0-6.251,0c-0.028,0-2.093-0.188-2.093-0.188l-2.619-9.127
		c-1.054-3.675-4.135-3.563-4.135-3.563h-4.314h-4.161c0,0-3.079-0.112-4.133,3.563l-1.292,4.494l-1.289-4.494
		c-1.06-3.675-4.133-3.563-4.133-3.563h-3.283h-3.275c0,0-3.081-0.112-4.135,3.563l-2.641,9.198c-0.25,0.86,0.22,1.514,0.973,1.731
		c0.75,0.214,1.52-0.165,1.714-0.849l2.571-8.965l1.252-0.002L25.74,40.869h3.317v0.005v11.02c0,0.908,0.733,1.647,1.643,1.647
		c0.907,0,1.651-0.739,1.651-1.647V40.869h1.391v11.025c0,0.908,0.733,1.647,1.64,1.647c0.913,0,1.653-0.739,1.653-1.647v-11.02
		v-0.005h3.26l-3.715-15.522l1.248,0.002l2.543,8.871c0.042,0.151,0.109,0.291,0.198,0.41c0.249,0.376,0.683,0.586,1.167,0.57
		c0.483,0.016,0.915-0.19,1.164-0.563c0.105-0.133,0.175-0.288,0.218-0.457l2.53-8.832l1.153-0.002c0,0,0,24.647,0,26.229
		c0,1.074,0.876,1.939,1.946,1.939s1.938-0.865,1.938-1.939c0-1.582,0-14.922,0-14.922h1.433c0,0,0,13.341,0,14.922
		c0,1.074,0.87,1.939,1.937,1.939c1.072,0,1.952-0.865,1.952-1.939c0-1.582,0-26.229,0-26.229l1.252,0.002l2.462,8.965
		c0.134,0.442,0.502,0.733,0.944,0.844c0.019,0.005,0.029,0.014,0.045,0.018c0.392,0.09,2.2,0.602,3.528,0.981
		c0,2.419,0,15.259,0,16.268c0,0.75,0.614,1.359,1.366,1.359c0.749,0,1.359-0.609,1.359-1.359c0-1.114,0-8.127,0-8.127h1.068
		c0,0,0,7.013,0,8.127c0,0.75,0.608,1.359,1.359,1.359s1.367-0.609,1.367-1.359c0-1.114,0-15.196,0-15.196h1.047c0,0,0,4.5,0,5.148
		c0,0.564,0.457,1.02,1.016,1.02c0.56,0,1.002-0.456,1.002-1.02c0-0.558,0-5.02,0-5.858C73.822,34.881,72.38,33.55,70.737,33.55z"/>
</g>
</svg>
