<?xml version="1.0" encoding="utf-8"?>
<!-- Generator: Adobe Illustrator 15.1.0, SVG Export Plug-In . SVG Version: 6.00 Build 0)  -->
<!DOCTYPE svg PUBLIC "-//W3C//DTD SVG 1.1 Basic//EN" "http://www.w3.org/Graphics/SVG/1.1/DTD/svg11-basic.dtd">
<svg version="1.1" baseProfile="basic" id="Layer_1"
	 xmlns="http://www.w3.org/2000/svg" xmlns:xlink="http://www.w3.org/1999/xlink" x="0px" y="0px" width="100px" height="100px"
	 viewBox="0 0 100 100" xml:space="preserve">
<g id="user2">
	<path fill="#FFFFFF" d="M35.995,41.618c-0.997,0-1.878-0.054-2.587-0.098c-0.298-0.019-0.571-0.035-0.82-0.046
		c-0.247-0.012-0.48-0.017-0.701-0.017c-0.127,0-0.252,0.002-0.375,0.005c0.452-0.103,0.999-0.188,1.563-0.188
		c0.095,0,0.19,0.002,0.287,0.007c0.116,0.008,0.238,0.008,0.366,0.008h0.47c0.319,0.006,0.673,0.011,1.057,0.011
		c0.542,0,1.035-0.011,1.506-0.033c5.987-0.279,11.471-2.706,16.765-7.417c2.612-2.324,4.656-5.081,6.074-8.19
		c0.064-0.105,1.38-2.263,2.115-3.579c-0.549,2.241-2.47,8.042-8.376,12.822C47.755,39.421,42.082,41.618,35.995,41.618z"/>
	<g>
		<path fill="#FFFFFF" d="M56.402,35.652c-0.455,0.421-0.937,0.839-1.443,1.25c-6.062,4.906-12.265,7.291-18.964,7.291
			c-0.507,0-0.978-0.014-1.417-0.032c-0.681,3.454-0.367,7.055,0.732,10.409c1.306,3.988,3.727,7.594,6.789,10.445
			c1.752,1.634,4.098,3.306,6.622,3.306h0.098c2.525,0,4.87-1.672,6.622-3.306c3.062-2.852,5.482-6.457,6.789-10.445
			c1-3.057,1.367-8.398,0.917-12.525C58.507,40.492,56.862,37.906,56.402,35.652z"/>
		<path fill="#FFFFFF" d="M69.197,34.075c-0.126-4.584-1.931-8.792-4.826-12.082c-0.339,1.755-1.727,7.17-6.637,12.346
			c0.069,2.072,1.128,4.755,6.004,6.347c3.485,1.138,4.848,2.993,5.286,4.781c0.029,0.12,0.058,0.24,0.077,0.361l0.014-0.212
			C69.191,40.758,69.226,35.015,69.197,34.075z"/>
	</g>
	<path fill="#FFFFFF" d="M62.452,20.232C58.909,16.989,54.123,15,48.856,15c-10.913,0-19.76,8.54-19.76,19.075
		c0,0-0.292,5.53,0.48,8.715c0.42-0.115,0.901-0.218,1.411-0.252c0.097-0.006,0.194-0.01,0.292-0.012
		c0.118-0.001,0.242-0.009,0.373-0.017l0.477-0.03c0.325-0.016,0.686-0.035,1.076-0.06c0.551-0.036,1.052-0.08,1.53-0.134
		c6.071-0.677,11.49-3.463,16.566-8.517c2.506-2.493,4.405-5.38,5.644-8.578c0.063-0.109,1.258-2.35,1.921-3.712
		c-0.414,2.272-1.99,8.188-7.685,13.352c-5.307,4.812-10.852,7.373-16.94,7.833c3.973,0.202,11.146,0.085,19.789-6.912
		C61.993,29.304,63,21.231,63,21.231l0.04-0.438C62.848,20.604,62.652,20.416,62.452,20.232z"/>
	<path fill="#FFFFFF" d="M70.612,71.014c-0.494-1.533-1.304-4.763-1.56-7.649c-0.306-3.431-0.352-9.631-0.32-13.574
		c0.021-2.753-1.155-4.274-1.468-4.83c-0.474-0.938-1.324-1.703-2.576-2.306c0.361,4.266-0.063,9.351-1.054,12.376
		c-1.072,3.271-2.861,6.354-5.229,9.052l-0.022,0.482c0.034,0.872,0.166,1.967,0.565,2.703c0.379-0.037,0.871,0.026,1.398,0.387
		c1.131,0.769,7.808,3.93,10.607,4.235C70.954,71.89,70.817,71.605,70.612,71.014z"/>
	<g>
		<path fill="#FFFFFF" d="M82.726,85c-0.273-2.604-1.508-6.679-3.185-8.733c-1.679-2.056-6.475-2.648-6.475-2.648l-2.332-0.256
			c-3.152-0.347-10.129-3.703-11.28-4.486c-0.134-0.093-0.258-0.136-0.377-0.136c-0.016,0-0.032,0-0.047,0.001l-0.97,0.09
			l-0.466-0.854c-0.267-0.492-0.459-1.084-0.588-1.812l-0.091-0.517c-0.156,0.152-0.31,0.302-0.47,0.448
			c-2.674,2.492-5.169,3.704-7.629,3.704h-0.098c-2.132,0-4.292-0.914-6.573-2.781c-0.105,0.354-0.232,0.673-0.386,0.956
			l-0.466,0.854l-0.969-0.088c-0.015-0.003-0.031-0.003-0.047-0.003c-0.119,0-0.242,0.044-0.379,0.137
			c-1.148,0.783-8.125,4.139-11.28,4.484l-2.33,0.258c0,0-4.796,0.593-6.474,2.648c-1.679,2.055-2.911,6.131-3.186,8.732h33.083
			h-0.07L82.726,85L82.726,85z"/>
	</g>
	<path fill="#FFFFFF" d="M33.903,55.03c-1.193-3.642-1.467-7.423-0.81-10.949c-0.222-0.015-0.432-0.025-0.622-0.033
		c-0.207-0.011-0.401-0.015-0.585-0.015c-1.215,0-1.909,0.182-1.917,0.185l-0.248,0.066c0.241,2.62,0.682,8.232,0.538,13.046
		c-0.308,10.273-1.802,14.561-1.802,14.561c2.799-0.307,9.478-3.468,10.607-4.235c0.527-0.36,1.02-0.424,1.396-0.388
		c0.208-0.382,0.343-0.862,0.431-1.357C37.64,62.822,35.225,59.065,33.903,55.03z"/>
</g>
</svg>
