<?xml version="1.0" encoding="utf-8"?>
<!-- Generator: Adobe Illustrator 15.1.0, SVG Export Plug-In . SVG Version: 6.00 Build 0)  -->
<!DOCTYPE svg PUBLIC "-//W3C//DTD SVG 1.1 Basic//EN" "http://www.w3.org/Graphics/SVG/1.1/DTD/svg11-basic.dtd">
<svg version="1.1" baseProfile="basic" id="Layer_1"
	 xmlns="http://www.w3.org/2000/svg" xmlns:xlink="http://www.w3.org/1999/xlink" x="0px" y="0px" width="100px" height="100px"
	 viewBox="0 0 100 100" xml:space="preserve">
<g id="user">
	<g>
		<path fill="#FFFFFF" d="M89.158,81.263c-0.203-1.331-0.438-3.532-3.172-5.019c-8.296-4.507-18.627-6.937-22.105-9.597
			c-1.283-0.715-1.07-3.124-1.375-4.764c-0.291-1.55-3.241,0.794-4.373,1.771c-2.805,2.439-5.556,3.68-8.169,3.68h-0.1
			c-2.607,0-5.358-1.24-8.174-3.685c-1.484-1.283-4.988-2.892-5.297-1.254c-0.308,1.641,0.051,3.347-1.331,4.403
			c-3.481,2.663-13.842,4.802-22.062,9.444c-2.953,1.666-2.969,3.688-3.173,5.019C9.769,81.638,9.693,83.098,9.613,85h79.761
			C89.293,83.098,89.217,81.64,89.158,81.263z"/>
	</g>
	<g>
		<path fill="#FFFFFF" d="M65.401,39.827c0.702-2.954,0.678-6.608,0.491-9.451c-1.088-5.042-6.24-6.291-8.886-6.291l-0.337,0.003
			c-0.56,0.012-1.105,0.017-1.632,0.017c-0.001,0-0.001,0-0.002,0c-5.089,0-9.256-0.485-12.41-1.444
			c0.16,0.452,0.194,0.884,0.099,1.291c-0.257,1.129-1.353,1.847-3.351,2.195c-5.098,0.887-6.07,13.653-6.073,13.784l-0.041-0.041
			c-0.069-1.487-0.69-14.345,5.822-15.478c1.447-0.251,1.911-0.659,1.956-0.859c0.011-0.053,1.469-1.841-2.366-3.486
			c0.001,0.001,0.001,0.003,0.001,0.005c-9.316,0.542-6.325,14.882-6.325,14.882l0.187,0.632c0.126,1.478,0.349,2.949,0.717,4.272
			c0,0-3.231-0.381-1.145,7.208c0,0,1.039,2.491,2.923,2.14c0.189,0.964,0.442,1.916,0.773,2.844
			c1.368,3.888,3.908,7.41,7.114,10.181c1.838,1.596,4.297,3.226,6.944,3.226h0.1c2.649,0,5.11-1.63,6.944-3.226
			c3.214-2.771,5.75-6.294,7.117-10.181c0.284-0.808,0.52-1.777,0.705-2.848c1.395-0.354,2.086-2.213,2.086-2.213
			C68.623,39.344,65.401,39.827,65.401,39.827z"/>
		<path fill="#FFFFFF" d="M38.704,19.987c1.227,0.822,7.445,2.562,17.933,2.343l0.395-0.004c3.835,0,6.647,1.188,8.377,3.513
			c-0.003-0.023-0.008-0.057-0.008-0.057c-1.882-15.334-28.731-11.431-26.758-5.829L38.704,19.987z"/>
	</g>
</g>
</svg>
