<?xml version="1.0" encoding="utf-8"?>
<!-- Generator: Adobe Illustrator 15.1.0, SVG Export Plug-In . SVG Version: 6.00 Build 0)  -->
<!DOCTYPE svg PUBLIC "-//W3C//DTD SVG 1.1 Basic//EN" "http://www.w3.org/Graphics/SVG/1.1/DTD/svg11-basic.dtd">
<svg version="1.1" baseProfile="basic" id="Layer_1"
	 xmlns="http://www.w3.org/2000/svg" xmlns:xlink="http://www.w3.org/1999/xlink" x="0px" y="0px" width="100px" height="100px"
	 viewBox="0 0 100 100" xml:space="preserve">
<path id="bus" fill="#FFFFFF" d="M84.5,57.306L79.639,24.11c0,0-1.111-7.639-9.027-7.639H28.388c-7.916,0-9.027,7.64-9.027,7.64
	L14.5,57.306l1.944,10.972l-1.25,1.527v7.778h5.278v6.945H33.25v-6.945h32.499v6.945h12.778v-6.945h5.277v-7.778l-1.251-1.527
	L84.5,57.306z M34.986,18.139h29.028v7.777H34.986V18.139z M20.68,29.805l13.055-1.389h13.75v21.111H18.181L20.68,29.805z
	 M32.729,63.834c0,1.687-1.368,3.056-3.056,3.056c-1.296,0-2.403-0.81-2.847-1.948c-0.444,1.139-1.551,1.948-2.848,1.948
	c-1.688,0-3.056-1.369-3.056-3.056c0-1.688,1.369-3.056,3.056-3.056c1.297,0,2.403,0.807,2.848,1.946
	c0.444-1.14,1.551-1.946,2.847-1.946C31.361,60.776,32.729,62.146,32.729,63.834z M78.805,71.333h-58.61v-1.112h58.61V71.333z
	 M66.27,63.834c0-1.688,1.368-3.056,3.056-3.056c1.297,0,2.403,0.807,2.849,1.946c0.443-1.14,1.551-1.946,2.846-1.946
	c1.688,0,3.055,1.367,3.055,3.056c0,1.687-1.367,3.056-3.055,3.056c-1.298,0-2.402-0.81-2.846-1.948
	c-0.445,1.139-1.553,1.948-2.849,1.948C67.638,66.89,66.27,65.521,66.27,63.834z M51.514,49.528V28.417h13.75l13.056,1.389
	l2.499,19.723H51.514z"/>
</svg>
