<?xml version="1.0" encoding="utf-8"?>
<!-- Generator: Adobe Illustrator 15.1.0, SVG Export Plug-In . SVG Version: 6.00 Build 0)  -->
<!DOCTYPE svg PUBLIC "-//W3C//DTD SVG 1.1 Basic//EN" "http://www.w3.org/Graphics/SVG/1.1/DTD/svg11-basic.dtd">
<svg version="1.1" baseProfile="basic" id="Layer_1"
	 xmlns="http://www.w3.org/2000/svg" xmlns:xlink="http://www.w3.org/1999/xlink" x="0px" y="0px" width="100px" height="100px"
	 viewBox="0 0 100 100" xml:space="preserve">
<path id="garage" fill="#FFFFFF" d="M45.69,23.833L9.5,44.786h7.619v3.81v22.857v3.811c0,1.903,1.699,3.809,3.81,3.809h11.428
	V60.023c0-2.11,1.699-3.81,3.81-3.81h26.667c2.109,0,3.743,1.7,3.809,3.81v19.048h11.429c2.111,0,3.809-1.699,3.809-3.809v-3.811
	V48.595v-3.81h7.62L53.309,23.833c-1.627-0.943-3.23-1.903-3.809-1.905C48.921,21.927,47.344,22.876,45.69,23.833L45.69,23.833z
	 M36.167,60.023v3.811h26.667v-3.811H36.167z M36.167,67.643v3.81h26.667v-3.81H36.167z M36.167,75.263v3.809h26.667v-3.809H36.167z
	"/>
</svg>
