<?xml version="1.0" encoding="utf-8"?>
<!-- Generator: Adobe Illustrator 15.1.0, SVG Export Plug-In . SVG Version: 6.00 Build 0)  -->
<!DOCTYPE svg PUBLIC "-//W3C//DTD SVG 1.1 Basic//EN" "http://www.w3.org/Graphics/SVG/1.1/DTD/svg11-basic.dtd">
<svg version="1.1" baseProfile="basic" id="Layer_1"
	 xmlns="http://www.w3.org/2000/svg" xmlns:xlink="http://www.w3.org/1999/xlink" x="0px" y="0px" width="100px" height="100px"
	 viewBox="0 0 100 100" xml:space="preserve">
<path id="helicopter" fill="#FFFFFF" d="M96.56,67.148c-0.594-0.562-1.528-0.562-2.127,0l-5.251,5.357h-14.12v-6.433h11.991
	c1.146,0,2.277-0.099,3.358-0.301c1.095-0.219,2.01-0.779,2.741-1.726c0.631-0.737,0.952-1.763,0.952-3.143
	c0-0.953-0.284-2.127-0.799-3.593l-4.539-10.824c-1.446-3.327-3.358-5.654-5.72-6.953c-2.345-1.329-4.824-1.959-7.436-1.959H57.439
	v-8.617h5.32c0.315,0.532,0.698,0.865,1.113,1.013c0.401,0.167,0.768,0.236,1.083,0.236h25.555c0.829,0,1.446-0.236,1.862-0.7
	c0.415-0.463,0.682-1.013,0.779-1.644c0-0.532-0.198-1.052-0.612-1.565c-0.432-0.532-1.1-0.798-2.029-0.798H65.902
	c-1.15,0-1.893,0.148-2.265,0.396c-0.365,0.273-0.662,0.6-0.878,1.033H48.194c-0.198-0.216-0.433-0.482-0.698-0.798
	c-0.248-0.315-0.749-0.464-1.478-0.464h-25.86c-0.414,0-0.896,0.178-1.496,0.55c-0.564,0.377-0.848,0.965-0.848,1.813
	c0,0.811,0.284,1.459,0.848,1.861c0.599,0.433,1.05,0.631,1.348,0.631h26.008c0.197,0,0.532-0.087,1.014-0.236
	c0.464-0.148,0.847-0.545,1.163-1.181h5.485v8.467H20.956c-0.73-1.781-1.912-3.279-3.525-4.472c-1.626-1.2-3.476-1.8-5.566-1.8
	c-2.715,0-5.022,0.965-6.97,2.895C2.952,36.127,2,38.451,2,41.179c0,2.709,0.952,5.004,2.895,6.884
	c1.949,1.899,4.254,2.827,6.97,2.827c3.124,0,5.584-1.145,7.348-3.458l21.314,7.997l2.813,7.032
	c0.415,0.846,0.965,1.644,1.645,2.449c0.68,0.779,2.128,1.161,4.323,1.161h9.475v6.433H43.339c-0.835,0-1.515,0.668-1.515,1.498
	c0,0.827,0.68,1.495,1.515,1.495h46.552c0.47,0,0.854-0.247,1.101-0.6l5.566-5.616C97.146,68.696,97.146,67.751,96.56,67.148z
	 M79.218,41.965c1.348,0.396,2.528,1.064,3.512,1.941c0.997,0.897,1.912,2.276,2.759,4.156c0.197,0.631,0.464,1.318,0.779,2.047
	c0.303,0.712,0.618,1.499,0.934,2.344h-7.985V41.965H79.218z M10.065,43.69c0.767,0.514,1.583,0.934,2.431,1.231l3.142,1.262
	c-1.164,0.835-2.431,1.249-3.773,1.249c-1.781,0-3.296-0.6-4.558-1.793c-1.249-1.2-1.861-2.678-1.861-4.459
	c0-1.793,0.613-3.271,1.861-4.472c1.262-1.199,2.777-1.793,4.558-1.793c2.189,0,3.903,0.878,5.17,2.66h-4.391
	c-1.033,0-1.93,0.296-2.661,0.946c-0.729,0.613-1.081,1.496-1.081,2.659C8.903,42.329,9.285,43.159,10.065,43.69z M68.245,41.494
	h7.051v10.811h-7.051V41.494z M57.439,41.644h6.897v10.811h-6.897V41.644z M61.263,66.072h11.306v6.434H61.263V66.072z"/>
</svg>
