<?xml version="1.0" encoding="utf-8"?>
<!-- Generator: Adobe Illustrator 15.1.0, SVG Export Plug-In . SVG Version: 6.00 Build 0)  -->
<!DOCTYPE svg PUBLIC "-//W3C//DTD SVG 1.1 Basic//EN" "http://www.w3.org/Graphics/SVG/1.1/DTD/svg11-basic.dtd">
<svg version="1.1" baseProfile="basic" id="Layer_1"
	 xmlns="http://www.w3.org/2000/svg" xmlns:xlink="http://www.w3.org/1999/xlink" x="0px" y="0px" width="100px" height="100px"
	 viewBox="0 0 100 100" xml:space="preserve">
<g id="jeep">
	<path fill="#FFFFFF" d="M76.636,69.897c2.59,0,4.674-2.129,4.674-4.757c0-2.597-2.084-4.726-4.674-4.726
		c-2.599,0-4.684,2.129-4.684,4.726C71.954,67.769,74.037,69.897,76.636,69.897z M65.818,65.141c0-6.019,4.837-10.917,10.818-10.917
		c5.96,0,10.796,4.898,10.796,10.917c0,6.048-4.836,10.944-10.796,10.944C70.655,76.085,65.818,71.188,65.818,65.141z"/>
	<path fill="#FFFFFF" d="M92.718,53.449l-0.021-11.019c0-4.39-3.861-3.926-3.861-3.926H66.994l-7.971-13.589h-4.688l7.969,13.589
		l-6.037,10.324l-13.76-0.021c-4.752-9.866-14.417-9.248-14.417-9.248H2.001v23.455h3.729c0.5-7.978,8.08-14.305,16.091-14.305
		c8.009,0,15.609,6.342,16.087,14.305l22.683,0.022c0.481-7.986,8.079-14.329,16.091-14.329c8.009,0,15.63,6.341,16.089,14.341
		l1.409,0.014c1.563,0,2.822-1.284,2.822-2.858v-6.758H92.72v0.003H92.718z"/>
	<path fill="#FFFFFF" d="M21.777,69.897c2.592,0,4.695-2.129,4.695-4.757c0-2.597-2.103-4.726-4.695-4.726
		c-2.577,0-4.683,2.129-4.683,4.726C17.096,67.769,19.2,69.897,21.777,69.897z M10.974,65.141c0-6.019,4.842-10.917,10.803-10.917
		c5.983,0,10.803,4.898,10.803,10.917c0,6.048-4.823,10.944-10.803,10.944C15.816,76.085,10.974,71.188,10.974,65.141z"/>
</g>
</svg>
