<?xml version="1.0" encoding="utf-8"?>
<!-- Generator: Adobe Illustrator 15.1.0, SVG Export Plug-In . SVG Version: 6.00 Build 0)  -->
<!DOCTYPE svg PUBLIC "-//W3C//DTD SVG 1.1 Basic//EN" "http://www.w3.org/Graphics/SVG/1.1/DTD/svg11-basic.dtd">
<svg version="1.1" baseProfile="basic" id="Layer_1"
	 xmlns="http://www.w3.org/2000/svg" xmlns:xlink="http://www.w3.org/1999/xlink" x="0px" y="0px" width="100px" height="100px"
	 viewBox="0 0 100 100" xml:space="preserve">
<path id="motorcycle" fill="#FFFFFF" d="M84.171,51.051l0.044-0.683c0-2.327-0.637-3.47-2.498-3.47H67.832
	c0-1.52-0.13-3.214-1.653-4.781l-6.815-7.151c-0.846-0.852-1.054-0.891-1.689-1.274c-0.682-0.375-3.563-1.515-4.362-1.854
	c-0.808-0.303-1.27-0.381-1.737-0.342v-1.952c0.468-0.838,1.014-0.8,1.057-3.507c0-3.014-1.944-5.467-5.459-5.467
	c-3.515,0-5.206,2.454-5.547,5.467h1.229v4.224c0,1.522,1.493,2.759,3.342,2.759v0.807l-3.812,6.392l-3.595,3.3
	c-1.528,1.439-3.348,0.46-2.923-1.063L38.79,30.26c0.208-0.793-0.381-1.606-1.313-0.167l-7.154,10.968
	c-1.695,2.708-6.097,4.186-8.849,4.186h-3.512v5.766l0.255-0.046c2.063,0,4.033,0.418,5.843,1.153l-0.915,1.492
	c-1.499-0.557-3.113-0.877-4.803-0.877C10.702,52.738,4.5,58.949,4.5,66.585c0,7.637,6.202,13.848,13.841,13.849
	c7.642,0,13.844-6.211,13.844-13.848c0-4.083-1.785-7.748-4.604-10.286l0.895-1.449c3.297,2.875,5.405,7.081,5.405,11.735
	c0,3.301,1.562,6.732,6.519,6.732c4.909,0,8.845,0,14.602-0.087h10.469c2.353,4.288,6.906,7.201,12.139,7.201
	c7.615,0,13.788-6.165,13.835-13.762H94.5C94.5,59.686,90.225,53.672,84.171,51.051z M18.302,75.14
	c-4.722,0-8.558-3.837-8.558-8.555c0.001-4.715,3.836-8.55,8.558-8.55c0.683,0,1.345,0.089,1.982,0.241l-1.88,3.063
	c-0.034-0.001-0.068-0.005-0.102-0.005c-2.902,0-5.253,2.354-5.254,5.25c0,2.896,2.352,5.255,5.254,5.255
	c2.896,0,5.249-2.358,5.249-5.255c0-0.951-0.258-1.843-0.701-2.612l1.865-3.024c1.326,1.507,2.137,3.476,2.137,5.638
	C26.852,71.303,23.02,75.14,18.302,75.14z M47.254,52.699l-8.803-3.562l10.837-6.217c1.229,1.911,2.116,2.8,3.892,3.845
	L47.254,52.699z M64.063,63.622c-0.124,0.67-0.891,0.556-0.891,0V54.69h5.677c0.675,0,0.757,0.463,0.381,0.839
	C66.647,57.48,64.746,60.321,64.063,63.622z M77.609,75.14c-4.722,0-8.552-3.837-8.552-8.555c0-3.006,1.558-5.648,3.911-7.172
	l1.12,3.286c-1.061,0.961-1.731,2.345-1.731,3.885c0,2.896,2.355,5.255,5.252,5.255c2.896,0,5.245-2.359,5.245-5.255
	c0-2.621-1.927-4.792-4.439-5.182l-1.167-3.351c0.12-0.004,0.239-0.018,0.359-0.018c4.717,0,8.55,3.833,8.55,8.549
	C86.159,71.303,82.325,75.14,77.609,75.14z"/>
</svg>
