<?xml version="1.0" encoding="utf-8"?>
<!-- Generator: Adobe Illustrator 15.1.0, SVG Export Plug-In . SVG Version: 6.00 Build 0)  -->
<!DOCTYPE svg PUBLIC "-//W3C//DTD SVG 1.1 Basic//EN" "http://www.w3.org/Graphics/SVG/1.1/DTD/svg11-basic.dtd">
<svg version="1.1" baseProfile="basic" id="Layer_1"
	 xmlns="http://www.w3.org/2000/svg" xmlns:xlink="http://www.w3.org/1999/xlink" x="0px" y="0px" width="100px" height="100px"
	 viewBox="0 0 100 100" xml:space="preserve">
<path id="tooth" fill="#FFFFFF" d="M67.634,21.798c-9.692-2.552-9.946,2.327-17.896,2.845c-7.949-0.518-8.203-5.397-17.896-2.845
	c-18.13,4.773,1.282,59.266,7.907,59.266c6.626,0,3.029-16.323,10.829-16.323s5.171,16.323,10.989,16.323
	S85.764,26.571,67.634,21.798z M30.549,27.452c2.115-3.069,5.256-2.513,6.219-2.511c1.719,0.012,2.656,0.452,4.372,1.248
	c1.775,0.838,4.105,1.916,7.519,2.262c-0.167,0.513-0.407,1.016-0.722,1.521c-2.078,3.435-7.757,5.916-14.521,5.886
	c-1.199,0.001-2.883-0.074-4.124-0.226C28.811,32.043,29.553,28.896,30.549,27.452z"/>
</svg>
