<?xml version="1.0" encoding="utf-8"?>
<!-- Generator: Adobe Illustrator 15.1.0, SVG Export Plug-In . SVG Version: 6.00 Build 0)  -->
<!DOCTYPE svg PUBLIC "-//W3C//DTD SVG 1.1 Basic//EN" "http://www.w3.org/Graphics/SVG/1.1/DTD/svg11-basic.dtd">
<svg version="1.1" baseProfile="basic" id="Layer_1"
	 xmlns="http://www.w3.org/2000/svg" xmlns:xlink="http://www.w3.org/1999/xlink" x="0px" y="0px" width="100px" height="100px"
	 viewBox="0 0 100 100" xml:space="preserve">
<path id="food" fill="#FFFFFF" d="M84.5,32.445l-2.407-1.225l-2.167-1.091l-2.408-1.211l-1.196,2.518l-3.357,6.821
	c-4.275-11.472-15.319-19.646-28.282-19.646c-16.669,0-30.182,13.514-30.182,30.182s13.513,30.182,30.182,30.182
	c2.815,0,5.54-0.39,8.125-1.113l0.617,2.419l0.482,1.65h2.139h0.294h14.225h0.297h2.138l0.481-1.705l7.933-34.283l0.759-3.212
	h-2.921l4.052-8.043L84.5,32.445z M44.684,70.037c-11.734,0-21.245-9.512-21.245-21.244c0-11.733,9.511-21.301,21.245-21.301
	c10.169,0,18.667,6.839,20.75,16.639h-2.795c-2.027-8.4-9.297-13.915-17.956-13.915c-10.229,0-18.52,8.32-18.52,18.549
	c0,10.228,8.291,18.535,18.52,18.535c2.333,0,4.564-0.429,6.62-1.217l0.716,2.647C49.731,69.573,47.261,70.037,44.684,70.037z
	 M74.912,45.531h3.881l-7.932,33.601h-0.297H56.34h-0.295l-7.933-33.601h24.097l6.52-13.062l2.168,1.052L74.912,45.531z"/>
</svg>
