<?xml version="1.0" encoding="utf-8"?>
<!-- Generator: Adobe Illustrator 15.1.0, SVG Export Plug-In . SVG Version: 6.00 Build 0)  -->
<!DOCTYPE svg PUBLIC "-//W3C//DTD SVG 1.1 Basic//EN" "http://www.w3.org/Graphics/SVG/1.1/DTD/svg11-basic.dtd">
<svg version="1.1" baseProfile="basic" id="Layer_1"
	 xmlns="http://www.w3.org/2000/svg" xmlns:xlink="http://www.w3.org/1999/xlink" x="0px" y="0px" width="100px" height="100px"
	 viewBox="0 0 100 100" xml:space="preserve">
<path id="glasses" fill="#FFFFFF" d="M94.247,38.788c-5.363-2.671-16.189-2.622-19.706-2.622c-0.024,0-0.044,0.005-0.069,0.008
	c-0.213-0.003-0.428-0.008-0.646-0.008c-2.691,0-5.015,0.171-7.031,0.469c-0.02,0.003-0.04,0.003-0.06,0.005
	c-0.05,0.01-0.1,0.02-0.145,0.027c-1.475,0.229-2.776,0.529-3.923,0.892c-3.988,1.112-7.792,2.58-13.208,2.58
	c-5.42,0-9.222-1.467-13.21-2.58c-1.147-0.36-2.448-0.663-3.921-0.892c-0.049-0.007-0.097-0.018-0.146-0.027
	c-0.02-0.002-0.04-0.002-0.06-0.005c-2.012-0.3-4.335-0.469-7.032-0.469c-0.221,0-0.43,0.005-0.646,0.008
	c-0.025-0.003-0.044-0.008-0.07-0.008c-3.513,0-14.337-0.049-19.706,2.622c-0.477,0.238-0.01,5.855,0.08,6.079
	c0.154,0.375,1.626,3.007,3.313,9.387h0.002c1.133,5.934,4.833,10.518,15.756,10.518c7.34,0,12.969-2.255,16.428-6.327
	c0.013-0.015,0.025-0.024,0.037-0.039c5.465-6.203,3.082-12.545,9.175-12.545c6.091,0,3.708,6.342,9.169,12.545
	c0.016,0.01,0.03,0.024,0.04,0.039c3.456,4.072,9.089,6.327,16.429,6.327c10.925,0,14.62-4.584,15.752-10.518h0.006
	c1.684-6.38,3.163-9.012,3.313-9.387C94.257,44.643,94.724,39.026,94.247,38.788z M23.819,62.864
	c-12.873,0-14.303-6.556-14.303-14.303c0-6.396,1.869-10.488,15.574-10.488c12.517,0,17.164,3.536,17.164,8.582
	C42.254,54.879,37.526,62.864,23.819,62.864z M75.098,62.864c-13.707,0-18.435-7.985-18.435-16.209
	c0-5.045,4.648-8.582,17.162-8.582c13.708,0,15.574,4.092,15.574,10.488C89.399,56.309,87.97,62.864,75.098,62.864z"/>
</svg>
