<?xml version="1.0" encoding="utf-8"?>
<!-- Generator: Adobe Illustrator 15.1.0, SVG Export Plug-In . SVG Version: 6.00 Build 0)  -->
<!DOCTYPE svg PUBLIC "-//W3C//DTD SVG 1.1 Basic//EN" "http://www.w3.org/Graphics/SVG/1.1/DTD/svg11-basic.dtd">
<svg version="1.1" baseProfile="basic" id="Layer_1"
	 xmlns="http://www.w3.org/2000/svg" xmlns:xlink="http://www.w3.org/1999/xlink" x="0px" y="0px" width="100px" height="100px"
	 viewBox="0 0 100 100" xml:space="preserve">
<path fill="#FFFFFF" d="M21.068,32.785V55.63h18.756V32.785H21.068z M30.67,35.615c2.456,0,4.45,1.99,4.45,4.446
	s-1.993,4.446-4.45,4.446c-2.457,0-4.449-1.991-4.449-4.446C26.221,37.605,28.214,35.615,30.67,35.615z M35.931,52.562
	c0,0.565-0.46,1.025-1.025,1.025h-8.918c-0.563,0-1.025-0.46-1.025-1.025v-1.627c0-2.297,1.88-4.178,4.178-4.178h2.614
	c2.298,0,4.177,1.881,4.177,4.178V52.562z"/>
<g>
	<rect x="45.646" y="32.798" fill="#FFFFFF" width="33.104" height="2.051"/>
</g>
<g>
	<rect x="45.646" y="39.739" fill="#FFFFFF" width="33.104" height="2.051"/>
</g>
<g>
	<rect x="45.646" y="46.681" fill="#FFFFFF" width="33.104" height="2.051"/>
</g>
<g>
	<rect x="45.646" y="53.623" fill="#FFFFFF" width="33.104" height="2.049"/>
</g>
<g>
	<path fill="#FFFFFF" d="M82.373,75.925c2.806,0,5.103-2.285,5.122-5.088V34.73H87.5v-5.528c0-2.82-2.307-5.127-5.127-5.127H17.627
		c-2.82,0-5.127,2.307-5.127,5.127v41.593c0,2.82,2.307,5.127,5.127,5.127h64.746V75.925z M17.627,72.849
		c-1.112,0-2.051-0.94-2.051-2.051V29.203c0-1.111,0.939-2.051,2.051-2.051h64.746c1.111,0,2.051,0.939,2.051,2.051v41.595
		c0,1.11-0.939,2.051-2.051,2.051H17.627z"/>
</g>
</svg>
