<?xml version="1.0" encoding="utf-8"?>
<!-- Generator: Adobe Illustrator 15.1.0, SVG Export Plug-In . SVG Version: 6.00 Build 0)  -->
<!DOCTYPE svg PUBLIC "-//W3C//DTD SVG 1.1 Basic//EN" "http://www.w3.org/Graphics/SVG/1.1/DTD/svg11-basic.dtd">
<svg version="1.1" baseProfile="basic" id="Layer_1"
	 xmlns="http://www.w3.org/2000/svg" xmlns:xlink="http://www.w3.org/1999/xlink" x="0px" y="0px" width="100px" height="100px"
	 viewBox="0 0 100 100" xml:space="preserve">
<path fill="#FFFFFF" d="M52.001,17.859v-0.026c0-1.104-0.896-2-2-2s-2,0.896-2,2v0.028c-16.604,0.983-29.96,14.014-31.451,30.475
	c1.582-2.862,4.629-4.803,8.131-4.803c3.783,0,7.03,2.266,8.479,5.511c1.447-3.246,4.695-5.511,8.478-5.511
	c2.467,0,4.702,0.968,6.363,2.538v28.764c0,3.86-3.14,7-7,7c-3.86,0-7-3.14-7-7c0-1.105-0.896-2-2-2c-1.105,0-2,0.895-2,2
	c0,6.064,4.934,10.999,11,10.999s11-4.935,11-10.999V46.291c1.682-1.702,4.013-2.758,6.594-2.758c3.783,0,7.032,2.266,8.479,5.511
	c1.449-3.246,4.696-5.511,8.479-5.511c3.343,0,6.264,1.772,7.9,4.423C81.789,31.662,68.491,18.82,52.001,17.859z"/>
</svg>
