<?xml version="1.0" encoding="utf-8"?>
<!-- Generator: Adobe Illustrator 15.1.0, SVG Export Plug-In . SVG Version: 6.00 Build 0)  -->
<!DOCTYPE svg PUBLIC "-//W3C//DTD SVG 1.1 Basic//EN" "http://www.w3.org/Graphics/SVG/1.1/DTD/svg11-basic.dtd">
<svg version="1.1" baseProfile="basic" id="Layer_1"
	 xmlns="http://www.w3.org/2000/svg" xmlns:xlink="http://www.w3.org/1999/xlink" x="0px" y="0px" width="100px" height="100px"
	 viewBox="0 0 100 100" xml:space="preserve">
<g id="pills">
	<g>
		<path fill="#FFFFFF" d="M68.984,83.168c-0.431,0-0.855-0.187-1.147-0.547c-0.51-0.632-0.413-1.557,0.218-2.069l0,0
			c0.554-0.451,2.065-1.93,2.409-3.329c0.976-3.977,2.471-13.449,2.485-13.544c0.126-0.804,0.882-1.35,1.683-1.225
			c0.806,0.127,1.353,0.88,1.227,1.683c-0.062,0.394-1.527,9.692-2.533,13.789c-0.643,2.61-3.134,4.686-3.417,4.914
			C69.638,83.06,69.308,83.168,68.984,83.168z"/>
	</g>
	<path fill="#FFFFFF" d="M73.354,24.28c-0.399-0.029-0.787-0.043-1.162-0.043c-8.189,0-11.144,6.746-11.551,10.241l-6.533,39.163
		c-0.021,0.112-2.142,11.238,10.095,14.545l0.234,0.042c0.487,0.051,0.974,0.075,1.447,0.075c8.684,0,11.687-8.087,11.811-8.432
		l0.046-0.13l6.869-43.188l0.018-0.215C84.671,32.453,82.369,24.933,73.354,24.28z M74.878,78.989
		c-0.364,0.904-2.822,6.368-8.994,6.368c-0.336,0-0.681-0.016-1.029-0.047c-9.401-2.61-7.928-10.741-7.852-11.133l2.858-17.139
		c2.253,1.745,6.121,3.97,11.235,3.97c2.085,0,4.378-0.374,6.85-1.298L74.878,78.989z M79.703,37.725
		c-0.933,1.209-2.666,1.432-3.876,0.502c-1.209-0.934-1.432-2.667-0.5-3.875c0.932-1.209,2.667-1.434,3.875-0.5
		C80.411,34.782,80.635,36.515,79.703,37.725z"/>
	<path fill="#FFFFFF" d="M52.006,62.772l-0.021-0.138L37.512,21.37l-0.087-0.198c-1.808-3.439-7.405-8.962-15.648-5.256
		c-0.366,0.165-0.714,0.338-1.044,0.515c-7.205,3.89-6.601,11.23-5.297,14.5l12.855,37.565c0.034,0.109,3.453,10.907,15.792,8
		l0.227-0.071c0.453-0.187,0.894-0.396,1.309-0.621C53.26,71.678,52.061,63.133,52.006,62.772z M24.362,47.924l-6.165-18.009
		c-0.12-0.308-2.949-7.851,4.787-11.31c7.399-3.328,11.306,3.008,11.788,3.855l6.726,19.177
		C35.133,50.24,26.858,48.656,24.362,47.924z M46.565,69.084c-0.135,0.322-0.372,0.572-0.659,0.728
		c-0.377,0.204-0.841,0.241-1.269,0.063c-0.75-0.313-1.104-1.175-0.792-1.924c0.273-0.66,0.901-2.68,0.538-4.074
		c-1.03-3.964-4.216-13.007-4.247-13.099c-0.271-0.768,0.134-1.608,0.898-1.879c0.767-0.27,1.608,0.133,1.878,0.9
		c0.133,0.375,3.26,9.252,4.321,13.337C47.912,65.739,46.705,68.749,46.565,69.084z"/>
	<path fill="#FFFFFF" d="M31.47,21.561c1.505,0.246,2.527,1.666,2.281,3.171c-0.246,1.507-1.666,2.527-3.172,2.284
		c-1.507-0.249-2.527-1.668-2.282-3.174C28.543,22.334,29.963,21.313,31.47,21.561z"/>
</g>
</svg>
