<?xml version="1.0" encoding="utf-8"?>
<!-- Generator: Adobe Illustrator 15.1.0, SVG Export Plug-In . SVG Version: 6.00 Build 0)  -->
<!DOCTYPE svg PUBLIC "-//W3C//DTD SVG 1.1 Basic//EN" "http://www.w3.org/Graphics/SVG/1.1/DTD/svg11-basic.dtd">
<svg version="1.1" baseProfile="basic" id="Layer_1"
	 xmlns="http://www.w3.org/2000/svg" xmlns:xlink="http://www.w3.org/1999/xlink" x="0px" y="0px" width="100px" height="100px"
	 viewBox="0 0 100 100" xml:space="preserve">
<path id="tshirt" fill="#FFFFFF" d="M84.051,35.092L75.89,19.942c-0.053-0.097-0.143-0.169-0.253-0.198l-16.419-4.229
	c-0.172-0.053-0.36,0.034-0.448,0.191c-0.019,0.034-2.077,3.475-9.291,3.475c-7.203,0-9.079-3.343-9.098-3.375
	c-0.087-0.166-0.269-0.264-0.458-0.204L23.42,19.914c-0.107,0.028-0.201,0.1-0.25,0.197l-8.218,15.105
	c-0.059,0.106-0.066,0.231-0.019,0.341c0.047,0.113,0.141,0.198,0.254,0.232c0.018,0.007,1.979,0.614,6.008,2.792
	c3.637,1.96,6.096,3.947,6.121,3.965c0.098,0.079,0.219,0.103,0.332,0.085c0.116-0.025,0.219-0.097,0.276-0.204l2.413-4.438
	c0.561,8.016,1.093,18.871,0.695,27.611c-0.125,2.805-0.595,18.18-0.602,18.333c-0.006,0.204,0.144,0.382,0.345,0.41
	c0.085,0.01,8.443,1.156,19.392,1.156c6.434,0,12.494-0.393,18.012-1.156c0.2-0.028,0.352-0.206,0.346-0.41
	c-0.007-0.153-0.477-15.528-0.602-18.333c-0.401-8.797,0.142-19.727,0.708-27.796l2.449,4.5c0.058,0.106,0.157,0.178,0.273,0.203
	c0.119,0.019,0.241-0.006,0.329-0.085c0.024-0.019,2.487-2.004,6.125-3.966c4.027-2.177,5.985-2.785,6.005-2.791
	c0.119-0.035,0.211-0.119,0.257-0.229C84.113,35.323,84.107,35.199,84.051,35.092z"/>
</svg>
